M48
; DRILL file {KiCad 8.0.5} date 2024-12-01T20:10:02-0800
; FORMAT={-:-/ absolute / metric / decimal}
; #@! TF.CreationDate,2024-12-01T20:10:02-08:00
; #@! TF.GenerationSoftware,Kicad,Pcbnew,8.0.5
; #@! TF.FileFunction,NonPlated,1,2,NPTH
FMAT,2
METRIC
; #@! TA.AperFunction,NonPlated,NPTH,ComponentDrill
T1C0.500
; #@! TA.AperFunction,NonPlated,NPTH,ComponentDrill
T2C2.000
%
G90
G05
T1
X52.906Y-49.875
X52.906Y-75.376
X52.906Y-106.333
X52.906Y-121.334
X52.906Y-77.126
X52.906Y-104.583
X53.656Y-49.875
X53.656Y-75.376
X53.656Y-106.333
X53.656Y-121.334
X53.656Y-77.126
X53.656Y-104.583
X54.406Y-49.875
X54.406Y-75.376
X54.406Y-106.333
X54.406Y-121.334
X54.406Y-77.126
X54.406Y-104.583
X55.156Y-49.875
X55.156Y-75.376
X55.156Y-106.333
X55.156Y-121.334
X55.156Y-77.126
X55.156Y-104.583
X55.906Y-49.875
X55.906Y-75.376
X55.906Y-106.333
X55.906Y-121.334
X55.906Y-77.126
X55.906Y-104.583
X56.656Y-49.875
X56.656Y-75.376
X56.656Y-106.333
X56.656Y-121.334
X56.656Y-77.126
X56.656Y-104.583
X57.406Y-49.875
X57.406Y-75.376
X57.406Y-106.333
X57.406Y-121.334
X57.406Y-77.126
X57.406Y-104.583
X65.219Y-49.875
X65.219Y-75.376
X65.219Y-106.333
X65.219Y-121.334
X65.219Y-77.126
X65.219Y-104.583
X65.969Y-49.875
X65.969Y-75.376
X65.969Y-106.333
X65.969Y-121.334
X65.969Y-77.126
X65.969Y-104.583
X66.719Y-49.875
X66.719Y-75.376
X66.719Y-106.333
X66.719Y-121.334
X66.719Y-77.126
X66.719Y-104.583
X67.469Y-49.875
X67.469Y-75.376
X67.469Y-106.333
X67.469Y-121.334
X67.469Y-77.126
X67.469Y-104.583
X68.219Y-49.875
X68.219Y-75.376
X68.219Y-106.333
X68.219Y-121.334
X68.219Y-77.126
X68.219Y-104.583
X68.969Y-49.875
X68.969Y-75.376
X68.969Y-106.333
X68.969Y-121.334
X68.969Y-77.126
X68.969Y-104.583
X69.719Y-49.875
X69.719Y-75.376
X69.719Y-106.333
X69.719Y-121.334
X69.719Y-77.126
X69.719Y-104.583
X77.531Y-49.875
X77.531Y-75.376
X77.531Y-106.333
X77.531Y-121.334
X77.531Y-77.126
X77.531Y-104.583
X78.281Y-49.875
X78.281Y-75.376
X78.281Y-106.333
X78.281Y-121.334
X78.281Y-77.126
X78.281Y-104.583
X79.031Y-49.875
X79.031Y-75.376
X79.031Y-106.333
X79.031Y-121.334
X79.031Y-77.126
X79.031Y-104.583
X79.781Y-49.875
X79.781Y-75.376
X79.781Y-106.333
X79.781Y-121.334
X79.781Y-77.126
X79.781Y-104.583
X80.531Y-49.875
X80.531Y-75.376
X80.531Y-106.333
X80.531Y-121.334
X80.531Y-77.126
X80.531Y-104.583
X81.281Y-49.875
X81.281Y-75.376
X81.281Y-106.333
X81.281Y-121.334
X81.281Y-77.126
X81.281Y-104.583
X82.031Y-49.875
X82.031Y-75.376
X82.031Y-106.333
X82.031Y-121.334
X82.031Y-77.126
X82.031Y-104.583
X89.843Y-49.875
X89.843Y-75.376
X89.843Y-106.333
X89.843Y-121.334
X89.843Y-77.126
X89.843Y-104.583
X90.593Y-49.875
X90.593Y-75.376
X90.593Y-106.333
X90.593Y-121.334
X90.593Y-77.126
X90.593Y-104.583
X91.343Y-49.875
X91.343Y-75.376
X91.343Y-106.333
X91.343Y-121.334
X91.343Y-77.126
X91.343Y-104.583
X92.093Y-49.875
X92.093Y-75.376
X92.093Y-106.333
X92.093Y-121.334
X92.093Y-77.126
X92.093Y-104.583
X92.843Y-49.875
X92.843Y-75.376
X92.843Y-106.333
X92.843Y-121.334
X92.843Y-77.126
X92.843Y-104.583
X93.593Y-49.875
X93.593Y-75.376
X93.593Y-106.333
X93.593Y-121.334
X93.593Y-77.126
X93.593Y-104.583
X94.343Y-49.875
X94.343Y-75.376
X94.343Y-106.333
X94.343Y-121.334
X94.343Y-77.126
X94.343Y-104.583
X102.156Y-49.875
X102.156Y-75.376
X102.156Y-106.333
X102.156Y-121.334
X102.156Y-77.126
X102.156Y-104.583
X102.906Y-49.875
X102.906Y-75.376
X102.906Y-106.333
X102.906Y-121.334
X102.906Y-77.126
X102.906Y-104.583
X103.656Y-49.875
X103.656Y-75.376
X103.656Y-106.333
X103.656Y-121.334
X103.656Y-77.126
X103.656Y-104.583
X104.406Y-49.875
X104.406Y-75.376
X104.406Y-106.333
X104.406Y-121.334
X104.406Y-77.126
X104.406Y-104.583
X105.156Y-49.875
X105.156Y-75.376
X105.156Y-106.333
X105.156Y-121.334
X105.156Y-77.126
X105.156Y-104.583
X105.906Y-49.875
X105.906Y-75.376
X105.906Y-106.333
X105.906Y-121.334
X105.906Y-77.126
X105.906Y-104.583
X106.656Y-49.875
X106.656Y-75.376
X106.656Y-106.333
X106.656Y-121.334
X106.656Y-77.126
X106.656Y-104.583
X114.468Y-49.875
X114.468Y-75.376
X114.468Y-106.333
X114.468Y-121.334
X114.468Y-77.126
X114.468Y-104.583
X115.218Y-49.875
X115.218Y-75.376
X115.218Y-106.333
X115.218Y-121.334
X115.218Y-77.126
X115.218Y-104.583
X115.968Y-49.875
X115.968Y-75.376
X115.968Y-106.333
X115.968Y-121.334
X115.968Y-77.126
X115.968Y-104.583
X116.718Y-49.875
X116.718Y-75.376
X116.718Y-106.333
X116.718Y-121.334
X116.718Y-77.126
X116.718Y-104.583
X117.468Y-49.875
X117.468Y-75.376
X117.468Y-106.333
X117.468Y-121.334
X117.468Y-77.126
X117.468Y-104.583
X118.218Y-49.875
X118.218Y-75.376
X118.218Y-106.333
X118.218Y-121.334
X118.218Y-77.126
X118.218Y-104.583
X118.968Y-49.875
X118.968Y-75.376
X118.968Y-106.333
X118.968Y-121.334
X118.968Y-77.126
X118.968Y-104.583
X126.781Y-49.875
X126.781Y-75.376
X126.781Y-106.333
X126.781Y-121.334
X126.781Y-77.126
X126.781Y-104.583
X127.531Y-49.875
X127.531Y-75.376
X127.531Y-106.333
X127.531Y-121.334
X127.531Y-77.126
X127.531Y-104.583
X128.281Y-49.875
X128.281Y-75.376
X128.281Y-106.333
X128.281Y-121.334
X128.281Y-77.126
X128.281Y-104.583
X129.031Y-49.875
X129.031Y-75.376
X129.031Y-106.333
X129.031Y-121.334
X129.031Y-77.126
X129.031Y-104.583
X129.781Y-49.875
X129.781Y-75.376
X129.781Y-106.333
X129.781Y-121.334
X129.781Y-77.126
X129.781Y-104.583
X130.531Y-49.875
X130.531Y-75.376
X130.531Y-106.333
X130.531Y-121.334
X130.531Y-77.126
X130.531Y-104.583
X131.281Y-49.875
X131.281Y-75.376
X131.281Y-106.333
X131.281Y-121.334
X131.281Y-77.126
X131.281Y-104.583
X139.093Y-49.875
X139.093Y-75.376
X139.093Y-106.333
X139.093Y-121.334
X139.093Y-77.126
X139.093Y-104.583
X139.843Y-49.875
X139.843Y-75.376
X139.843Y-106.333
X139.843Y-121.334
X139.843Y-77.126
X139.843Y-104.583
X140.593Y-49.875
X140.593Y-75.376
X140.593Y-106.333
X140.593Y-121.334
X140.593Y-77.126
X140.593Y-104.583
X141.343Y-49.875
X141.343Y-75.376
X141.343Y-106.333
X141.343Y-121.334
X141.343Y-77.126
X141.343Y-104.583
X142.093Y-49.875
X142.093Y-75.376
X142.093Y-106.333
X142.093Y-121.334
X142.093Y-77.126
X142.093Y-104.583
X142.843Y-49.875
X142.843Y-75.376
X142.843Y-106.333
X142.843Y-121.334
X142.843Y-77.126
X142.843Y-104.583
X143.593Y-49.875
X143.593Y-75.376
X143.593Y-106.333
X143.593Y-121.334
X143.593Y-77.126
X143.593Y-104.583
T2
X53.0Y-45.0
X53.0Y-125.709
X143.499Y-45.0
X143.499Y-125.709
M30
