M48
; DRILL file {KiCad 8.0.5} date 2024-12-01T20:10:02-0800
; FORMAT={-:-/ absolute / metric / decimal}
; #@! TF.CreationDate,2024-12-01T20:10:02-08:00
; #@! TF.GenerationSoftware,Kicad,Pcbnew,8.0.5
; #@! TF.FileFunction,Plated,1,2,PTH
FMAT,2
METRIC
; #@! TA.AperFunction,Plated,PTH,ViaDrill
T1C0.400
; #@! TA.AperFunction,Plated,PTH,ComponentDrill
T2C1.000
; #@! TA.AperFunction,Plated,PTH,ComponentDrill
T3C1.143
%
G90
G05
T1
X53.994Y-99.855
X54.344Y-96.985
X54.556Y-70.063
X54.694Y-94.673
X54.968Y-67.396
X55.044Y-91.524
X55.258Y-80.689
X55.269Y-56.601
X55.536Y-92.394
X55.65Y-60.284
X55.886Y-94.394
X56.031Y-62.57
X56.073Y-78.773
X56.236Y-96.934
X56.287Y-113.821
X56.412Y-65.11
X56.708Y-116.615
X56.793Y-67.65
X56.858Y-70.14
X57.125Y-99.55
X66.306Y-99.855
X66.656Y-96.985
X66.868Y-70.063
X67.006Y-94.673
X67.28Y-67.396
X67.356Y-91.524
X67.57Y-80.689
X67.581Y-56.601
X67.849Y-92.394
X67.962Y-60.284
X68.199Y-94.394
X68.343Y-62.57
X68.386Y-78.773
X68.549Y-96.934
X68.6Y-113.821
X68.724Y-65.11
X69.021Y-116.615
X69.105Y-67.65
X69.17Y-70.14
X69.438Y-99.55
X78.619Y-99.855
X78.969Y-96.985
X79.18Y-70.063
X79.319Y-94.673
X79.592Y-67.396
X79.669Y-91.524
X79.883Y-80.689
X79.893Y-56.601
X80.161Y-92.394
X80.274Y-60.284
X80.511Y-94.394
X80.655Y-62.57
X80.698Y-78.773
X80.861Y-96.934
X80.912Y-113.821
X81.036Y-65.11
X81.333Y-116.615
X81.417Y-67.65
X81.483Y-70.14
X81.75Y-99.55
X90.931Y-99.855
X91.281Y-96.985
X91.493Y-70.063
X91.631Y-94.673
X91.905Y-67.396
X91.981Y-91.524
X92.195Y-80.689
X92.206Y-56.601
X92.474Y-92.394
X92.587Y-60.284
X92.824Y-94.394
X92.968Y-62.57
X93.01Y-78.773
X93.174Y-96.934
X93.224Y-113.821
X93.349Y-65.11
X93.645Y-116.615
X93.73Y-67.65
X93.795Y-70.14
X94.063Y-99.55
X103.243Y-99.855
X103.593Y-96.985
X103.805Y-70.063
X103.943Y-94.673
X104.217Y-67.396
X104.293Y-91.524
X104.507Y-80.689
X104.518Y-56.601
X104.786Y-92.394
X104.899Y-60.284
X105.136Y-94.394
X105.28Y-62.57
X105.323Y-78.773
X105.486Y-96.934
X105.537Y-113.821
X105.661Y-65.11
X105.958Y-116.615
X106.042Y-67.65
X106.108Y-70.14
X106.375Y-99.55
X115.556Y-99.855
X115.906Y-96.985
X116.118Y-70.063
X116.256Y-94.673
X116.53Y-67.396
X116.606Y-91.524
X116.82Y-80.689
X116.831Y-56.601
X117.098Y-92.394
X117.212Y-60.284
X117.448Y-94.394
X117.593Y-62.57
X117.635Y-78.773
X117.798Y-96.934
X117.849Y-113.821
X117.974Y-65.11
X118.27Y-116.615
X118.355Y-67.65
X118.42Y-70.14
X118.687Y-99.55
X127.868Y-99.855
X128.218Y-96.985
X128.43Y-70.063
X128.568Y-94.673
X128.842Y-67.396
X128.918Y-91.524
X129.132Y-80.689
X129.143Y-56.601
X129.411Y-92.394
X129.524Y-60.284
X129.761Y-94.394
X129.905Y-62.57
X129.948Y-78.773
X130.111Y-96.934
X130.162Y-113.821
X130.286Y-65.11
X130.583Y-116.615
X130.667Y-67.65
X130.732Y-70.14
X131.0Y-99.55
X140.181Y-99.855
X140.531Y-96.985
X140.742Y-70.063
X140.881Y-94.673
X141.154Y-67.396
X141.231Y-91.524
X141.445Y-80.689
X141.455Y-56.601
X141.723Y-92.394
X141.836Y-60.284
X142.073Y-94.394
X142.217Y-62.57
X142.26Y-78.773
X142.423Y-96.934
X142.474Y-113.821
X142.598Y-65.11
X142.895Y-116.615
X142.979Y-67.65
X143.045Y-70.14
X143.312Y-99.55
T2
X51.298Y-112.246
X51.298Y-114.786
X51.298Y-117.326
X51.298Y-119.866
X51.346Y-58.76
X51.346Y-61.3
X51.346Y-63.84
X51.346Y-66.38
X51.346Y-68.92
X51.346Y-71.46
X51.346Y-74.0
X51.346Y-85.428
X51.346Y-87.968
X51.346Y-90.508
X51.346Y-93.048
X51.346Y-95.588
X51.346Y-98.128
X51.346Y-100.668
X51.346Y-103.208
X58.918Y-112.246
X58.918Y-114.786
X58.918Y-117.326
X58.918Y-119.866
X58.966Y-58.76
X58.966Y-61.3
X58.966Y-63.84
X58.966Y-66.38
X58.966Y-68.92
X58.966Y-71.46
X58.966Y-74.0
X58.966Y-85.428
X58.966Y-87.968
X58.966Y-90.508
X58.966Y-93.048
X58.966Y-95.588
X58.966Y-98.128
X58.966Y-100.668
X58.966Y-103.208
X63.61Y-112.246
X63.61Y-114.786
X63.61Y-117.326
X63.61Y-119.866
X63.659Y-58.76
X63.659Y-61.3
X63.659Y-63.84
X63.659Y-66.38
X63.659Y-68.92
X63.659Y-71.46
X63.659Y-74.0
X63.659Y-85.428
X63.659Y-87.968
X63.659Y-90.508
X63.659Y-93.048
X63.659Y-95.588
X63.659Y-98.128
X63.659Y-100.668
X63.659Y-103.208
X71.23Y-112.246
X71.23Y-114.786
X71.23Y-117.326
X71.23Y-119.866
X71.279Y-58.76
X71.279Y-61.3
X71.279Y-63.84
X71.279Y-66.38
X71.279Y-68.92
X71.279Y-71.46
X71.279Y-74.0
X71.279Y-85.428
X71.279Y-87.968
X71.279Y-90.508
X71.279Y-93.048
X71.279Y-95.588
X71.279Y-98.128
X71.279Y-100.668
X71.279Y-103.208
X75.923Y-112.246
X75.923Y-114.786
X75.923Y-117.326
X75.923Y-119.866
X75.971Y-58.76
X75.971Y-61.3
X75.971Y-63.84
X75.971Y-66.38
X75.971Y-68.92
X75.971Y-71.46
X75.971Y-74.0
X75.971Y-85.428
X75.971Y-87.968
X75.971Y-90.508
X75.971Y-93.048
X75.971Y-95.588
X75.971Y-98.128
X75.971Y-100.668
X75.971Y-103.208
X83.543Y-112.246
X83.543Y-114.786
X83.543Y-117.326
X83.543Y-119.866
X83.591Y-58.76
X83.591Y-61.3
X83.591Y-63.84
X83.591Y-66.38
X83.591Y-68.92
X83.591Y-71.46
X83.591Y-74.0
X83.591Y-85.428
X83.591Y-87.968
X83.591Y-90.508
X83.591Y-93.048
X83.591Y-95.588
X83.591Y-98.128
X83.591Y-100.668
X83.591Y-103.208
X88.235Y-112.246
X88.235Y-114.786
X88.235Y-117.326
X88.235Y-119.866
X88.283Y-58.76
X88.283Y-61.3
X88.283Y-63.84
X88.283Y-66.38
X88.283Y-68.92
X88.283Y-71.46
X88.283Y-74.0
X88.283Y-85.428
X88.283Y-87.968
X88.283Y-90.508
X88.283Y-93.048
X88.283Y-95.588
X88.283Y-98.128
X88.283Y-100.668
X88.283Y-103.208
X95.855Y-112.246
X95.855Y-114.786
X95.855Y-117.326
X95.855Y-119.866
X95.903Y-58.76
X95.903Y-61.3
X95.903Y-63.84
X95.903Y-66.38
X95.903Y-68.92
X95.903Y-71.46
X95.903Y-74.0
X95.903Y-85.428
X95.903Y-87.968
X95.903Y-90.508
X95.903Y-93.048
X95.903Y-95.588
X95.903Y-98.128
X95.903Y-100.668
X95.903Y-103.208
X100.548Y-112.246
X100.548Y-114.786
X100.548Y-117.326
X100.548Y-119.866
X100.596Y-58.76
X100.596Y-61.3
X100.596Y-63.84
X100.596Y-66.38
X100.596Y-68.92
X100.596Y-71.46
X100.596Y-74.0
X100.596Y-85.428
X100.596Y-87.968
X100.596Y-90.508
X100.596Y-93.048
X100.596Y-95.588
X100.596Y-98.128
X100.596Y-100.668
X100.596Y-103.208
X108.168Y-112.246
X108.168Y-114.786
X108.168Y-117.326
X108.168Y-119.866
X108.216Y-58.76
X108.216Y-61.3
X108.216Y-63.84
X108.216Y-66.38
X108.216Y-68.92
X108.216Y-71.46
X108.216Y-74.0
X108.216Y-85.428
X108.216Y-87.968
X108.216Y-90.508
X108.216Y-93.048
X108.216Y-95.588
X108.216Y-98.128
X108.216Y-100.668
X108.216Y-103.208
X112.86Y-112.246
X112.86Y-114.786
X112.86Y-117.326
X112.86Y-119.866
X112.908Y-58.76
X112.908Y-61.3
X112.908Y-63.84
X112.908Y-66.38
X112.908Y-68.92
X112.908Y-71.46
X112.908Y-74.0
X112.908Y-85.428
X112.908Y-87.968
X112.908Y-90.508
X112.908Y-93.048
X112.908Y-95.588
X112.908Y-98.128
X112.908Y-100.668
X112.908Y-103.208
X120.48Y-112.246
X120.48Y-114.786
X120.48Y-117.326
X120.48Y-119.866
X120.528Y-58.76
X120.528Y-61.3
X120.528Y-63.84
X120.528Y-66.38
X120.528Y-68.92
X120.528Y-71.46
X120.528Y-74.0
X120.528Y-85.428
X120.528Y-87.968
X120.528Y-90.508
X120.528Y-93.048
X120.528Y-95.588
X120.528Y-98.128
X120.528Y-100.668
X120.528Y-103.208
X125.172Y-112.246
X125.172Y-114.786
X125.172Y-117.326
X125.172Y-119.866
X125.221Y-58.76
X125.221Y-61.3
X125.221Y-63.84
X125.221Y-66.38
X125.221Y-68.92
X125.221Y-71.46
X125.221Y-74.0
X125.221Y-85.428
X125.221Y-87.968
X125.221Y-90.508
X125.221Y-93.048
X125.221Y-95.588
X125.221Y-98.128
X125.221Y-100.668
X125.221Y-103.208
X132.792Y-112.246
X132.792Y-114.786
X132.792Y-117.326
X132.792Y-119.866
X132.841Y-58.76
X132.841Y-61.3
X132.841Y-63.84
X132.841Y-66.38
X132.841Y-68.92
X132.841Y-71.46
X132.841Y-74.0
X132.841Y-85.428
X132.841Y-87.968
X132.841Y-90.508
X132.841Y-93.048
X132.841Y-95.588
X132.841Y-98.128
X132.841Y-100.668
X132.841Y-103.208
X137.485Y-112.246
X137.485Y-114.786
X137.485Y-117.326
X137.485Y-119.866
X137.533Y-58.76
X137.533Y-61.3
X137.533Y-63.84
X137.533Y-66.38
X137.533Y-68.92
X137.533Y-71.46
X137.533Y-74.0
X137.533Y-85.428
X137.533Y-87.968
X137.533Y-90.508
X137.533Y-93.048
X137.533Y-95.588
X137.533Y-98.128
X137.533Y-100.668
X137.533Y-103.208
X145.105Y-112.246
X145.105Y-114.786
X145.105Y-117.326
X145.105Y-119.866
X145.153Y-58.76
X145.153Y-61.3
X145.153Y-63.84
X145.153Y-66.38
X145.153Y-68.92
X145.153Y-71.46
X145.153Y-74.0
X145.153Y-85.428
X145.153Y-87.968
X145.153Y-90.508
X145.153Y-93.048
X145.153Y-95.588
X145.153Y-98.128
X145.153Y-100.668
X145.153Y-103.208
T3
X55.159Y-119.663
X67.471Y-119.663
X79.784Y-119.663
X92.096Y-119.663
X104.408Y-119.663
X116.721Y-119.663
X129.033Y-119.663
X141.346Y-119.663
M30
