%TF.GenerationSoftware,KiCad,Pcbnew,8.0.5*%
%TF.CreationDate,2024-12-01T20:09:50-08:00*%
%TF.ProjectId,tssop,7473736f-702e-46b6-9963-61645f706362,rev?*%
%TF.SameCoordinates,Original*%
%TF.FileFunction,Paste,Top*%
%TF.FilePolarity,Positive*%
%FSLAX46Y46*%
G04 Gerber Fmt 4.6, Leading zero omitted, Abs format (unit mm)*
G04 Created by KiCad (PCBNEW 8.0.5) date 2024-12-01 20:09:50*
%MOMM*%
%LPD*%
G01*
G04 APERTURE LIST*
G04 Aperture macros list*
%AMRoundRect*
0 Rectangle with rounded corners*
0 $1 Rounding radius*
0 $2 $3 $4 $5 $6 $7 $8 $9 X,Y pos of 4 corners*
0 Add a 4 corners polygon primitive as box body*
4,1,4,$2,$3,$4,$5,$6,$7,$8,$9,$2,$3,0*
0 Add four circle primitives for the rounded corners*
1,1,$1+$1,$2,$3*
1,1,$1+$1,$4,$5*
1,1,$1+$1,$6,$7*
1,1,$1+$1,$8,$9*
0 Add four rect primitives between the rounded corners*
20,1,$1+$1,$2,$3,$4,$5,0*
20,1,$1+$1,$4,$5,$6,$7,0*
20,1,$1+$1,$6,$7,$8,$9,0*
20,1,$1+$1,$8,$9,$2,$3,0*%
G04 Aperture macros list end*
%ADD10RoundRect,0.100000X-0.637500X-0.100000X0.637500X-0.100000X0.637500X0.100000X-0.637500X0.100000X0*%
%ADD11RoundRect,0.020500X-0.764500X-0.184500X0.764500X-0.184500X0.764500X0.184500X-0.764500X0.184500X0*%
G04 APERTURE END LIST*
D10*
%TO.C,U4*%
X138485544Y-78021847D03*
X138485544Y-78671847D03*
X138485544Y-79321847D03*
X138485544Y-79971847D03*
X138485544Y-80621847D03*
X138485544Y-81271847D03*
X138485544Y-81921847D03*
X138485544Y-82571847D03*
X144210544Y-82571847D03*
X144210544Y-81921847D03*
X144210544Y-81271847D03*
X144210544Y-80621847D03*
X144210544Y-79971847D03*
X144210544Y-79321847D03*
X144210544Y-78671847D03*
X144210544Y-78021847D03*
%TD*%
D11*
%TO.C,U5*%
X89807839Y-51177447D03*
X89807839Y-51827447D03*
X89807839Y-52477447D03*
X89807839Y-53127447D03*
X89807839Y-53777447D03*
X89807839Y-54427447D03*
X89807839Y-55077447D03*
X95547839Y-55077447D03*
X95547839Y-54427447D03*
X95547839Y-53777447D03*
X95547839Y-53127447D03*
X95547839Y-52477447D03*
X95547839Y-51827447D03*
X95547839Y-51177447D03*
%TD*%
%TO.C,U6*%
X138779844Y-107357413D03*
X138779844Y-108007413D03*
X138779844Y-108657413D03*
X138779844Y-109307413D03*
X144519844Y-109307413D03*
X144519844Y-108657413D03*
X144519844Y-108007413D03*
X144519844Y-107357413D03*
%TD*%
%TO.C,U6*%
X89530192Y-107357413D03*
X89530192Y-108007413D03*
X89530192Y-108657413D03*
X89530192Y-109307413D03*
X95270192Y-109307413D03*
X95270192Y-108657413D03*
X95270192Y-108007413D03*
X95270192Y-107357413D03*
%TD*%
%TO.C,U6*%
X114155018Y-107357413D03*
X114155018Y-108007413D03*
X114155018Y-108657413D03*
X114155018Y-109307413D03*
X119895018Y-109307413D03*
X119895018Y-108657413D03*
X119895018Y-108007413D03*
X119895018Y-107357413D03*
%TD*%
%TO.C,U5*%
X114432665Y-51177447D03*
X114432665Y-51827447D03*
X114432665Y-52477447D03*
X114432665Y-53127447D03*
X114432665Y-53777447D03*
X114432665Y-54427447D03*
X114432665Y-55077447D03*
X120172665Y-55077447D03*
X120172665Y-54427447D03*
X120172665Y-53777447D03*
X120172665Y-53127447D03*
X120172665Y-52477447D03*
X120172665Y-51827447D03*
X120172665Y-51177447D03*
%TD*%
%TO.C,U5*%
X126745078Y-51177447D03*
X126745078Y-51827447D03*
X126745078Y-52477447D03*
X126745078Y-53127447D03*
X126745078Y-53777447D03*
X126745078Y-54427447D03*
X126745078Y-55077447D03*
X132485078Y-55077447D03*
X132485078Y-54427447D03*
X132485078Y-53777447D03*
X132485078Y-53127447D03*
X132485078Y-52477447D03*
X132485078Y-51827447D03*
X132485078Y-51177447D03*
%TD*%
%TO.C,U5*%
X77495426Y-51177447D03*
X77495426Y-51827447D03*
X77495426Y-52477447D03*
X77495426Y-53127447D03*
X77495426Y-53777447D03*
X77495426Y-54427447D03*
X77495426Y-55077447D03*
X83235426Y-55077447D03*
X83235426Y-54427447D03*
X83235426Y-53777447D03*
X83235426Y-53127447D03*
X83235426Y-52477447D03*
X83235426Y-51827447D03*
X83235426Y-51177447D03*
%TD*%
D10*
%TO.C,U4*%
X52298653Y-78021847D03*
X52298653Y-78671847D03*
X52298653Y-79321847D03*
X52298653Y-79971847D03*
X52298653Y-80621847D03*
X52298653Y-81271847D03*
X52298653Y-81921847D03*
X52298653Y-82571847D03*
X58023653Y-82571847D03*
X58023653Y-81921847D03*
X58023653Y-81271847D03*
X58023653Y-80621847D03*
X58023653Y-79971847D03*
X58023653Y-79321847D03*
X58023653Y-78671847D03*
X58023653Y-78021847D03*
%TD*%
D11*
%TO.C,U5*%
X65183013Y-51177447D03*
X65183013Y-51827447D03*
X65183013Y-52477447D03*
X65183013Y-53127447D03*
X65183013Y-53777447D03*
X65183013Y-54427447D03*
X65183013Y-55077447D03*
X70923013Y-55077447D03*
X70923013Y-54427447D03*
X70923013Y-53777447D03*
X70923013Y-53127447D03*
X70923013Y-52477447D03*
X70923013Y-51827447D03*
X70923013Y-51177447D03*
%TD*%
D10*
%TO.C,U4*%
X126173131Y-78021847D03*
X126173131Y-78671847D03*
X126173131Y-79321847D03*
X126173131Y-79971847D03*
X126173131Y-80621847D03*
X126173131Y-81271847D03*
X126173131Y-81921847D03*
X126173131Y-82571847D03*
X131898131Y-82571847D03*
X131898131Y-81921847D03*
X131898131Y-81271847D03*
X131898131Y-80621847D03*
X131898131Y-79971847D03*
X131898131Y-79321847D03*
X131898131Y-78671847D03*
X131898131Y-78021847D03*
%TD*%
%TO.C,U4*%
X89235892Y-78021847D03*
X89235892Y-78671847D03*
X89235892Y-79321847D03*
X89235892Y-79971847D03*
X89235892Y-80621847D03*
X89235892Y-81271847D03*
X89235892Y-81921847D03*
X89235892Y-82571847D03*
X94960892Y-82571847D03*
X94960892Y-81921847D03*
X94960892Y-81271847D03*
X94960892Y-80621847D03*
X94960892Y-79971847D03*
X94960892Y-79321847D03*
X94960892Y-78671847D03*
X94960892Y-78021847D03*
%TD*%
D11*
%TO.C,U6*%
X101842605Y-107357413D03*
X101842605Y-108007413D03*
X101842605Y-108657413D03*
X101842605Y-109307413D03*
X107582605Y-109307413D03*
X107582605Y-108657413D03*
X107582605Y-108007413D03*
X107582605Y-107357413D03*
%TD*%
%TO.C,U6*%
X77217779Y-107357413D03*
X77217779Y-108007413D03*
X77217779Y-108657413D03*
X77217779Y-109307413D03*
X82957779Y-109307413D03*
X82957779Y-108657413D03*
X82957779Y-108007413D03*
X82957779Y-107357413D03*
%TD*%
%TO.C,U5*%
X52870600Y-51177447D03*
X52870600Y-51827447D03*
X52870600Y-52477447D03*
X52870600Y-53127447D03*
X52870600Y-53777447D03*
X52870600Y-54427447D03*
X52870600Y-55077447D03*
X58610600Y-55077447D03*
X58610600Y-54427447D03*
X58610600Y-53777447D03*
X58610600Y-53127447D03*
X58610600Y-52477447D03*
X58610600Y-51827447D03*
X58610600Y-51177447D03*
%TD*%
%TO.C,U6*%
X64905366Y-107357413D03*
X64905366Y-108007413D03*
X64905366Y-108657413D03*
X64905366Y-109307413D03*
X70645366Y-109307413D03*
X70645366Y-108657413D03*
X70645366Y-108007413D03*
X70645366Y-107357413D03*
%TD*%
D10*
%TO.C,U4*%
X76923479Y-78021847D03*
X76923479Y-78671847D03*
X76923479Y-79321847D03*
X76923479Y-79971847D03*
X76923479Y-80621847D03*
X76923479Y-81271847D03*
X76923479Y-81921847D03*
X76923479Y-82571847D03*
X82648479Y-82571847D03*
X82648479Y-81921847D03*
X82648479Y-81271847D03*
X82648479Y-80621847D03*
X82648479Y-79971847D03*
X82648479Y-79321847D03*
X82648479Y-78671847D03*
X82648479Y-78021847D03*
%TD*%
%TO.C,U4*%
X101548305Y-78021847D03*
X101548305Y-78671847D03*
X101548305Y-79321847D03*
X101548305Y-79971847D03*
X101548305Y-80621847D03*
X101548305Y-81271847D03*
X101548305Y-81921847D03*
X101548305Y-82571847D03*
X107273305Y-82571847D03*
X107273305Y-81921847D03*
X107273305Y-81271847D03*
X107273305Y-80621847D03*
X107273305Y-79971847D03*
X107273305Y-79321847D03*
X107273305Y-78671847D03*
X107273305Y-78021847D03*
%TD*%
%TO.C,U4*%
X113860718Y-78021847D03*
X113860718Y-78671847D03*
X113860718Y-79321847D03*
X113860718Y-79971847D03*
X113860718Y-80621847D03*
X113860718Y-81271847D03*
X113860718Y-81921847D03*
X113860718Y-82571847D03*
X119585718Y-82571847D03*
X119585718Y-81921847D03*
X119585718Y-81271847D03*
X119585718Y-80621847D03*
X119585718Y-79971847D03*
X119585718Y-79321847D03*
X119585718Y-78671847D03*
X119585718Y-78021847D03*
%TD*%
D11*
%TO.C,U6*%
X126467431Y-107357413D03*
X126467431Y-108007413D03*
X126467431Y-108657413D03*
X126467431Y-109307413D03*
X132207431Y-109307413D03*
X132207431Y-108657413D03*
X132207431Y-108007413D03*
X132207431Y-107357413D03*
%TD*%
%TO.C,U6*%
X52592953Y-107357413D03*
X52592953Y-108007413D03*
X52592953Y-108657413D03*
X52592953Y-109307413D03*
X58332953Y-109307413D03*
X58332953Y-108657413D03*
X58332953Y-108007413D03*
X58332953Y-107357413D03*
%TD*%
%TO.C,U5*%
X102120252Y-51177447D03*
X102120252Y-51827447D03*
X102120252Y-52477447D03*
X102120252Y-53127447D03*
X102120252Y-53777447D03*
X102120252Y-54427447D03*
X102120252Y-55077447D03*
X107860252Y-55077447D03*
X107860252Y-54427447D03*
X107860252Y-53777447D03*
X107860252Y-53127447D03*
X107860252Y-52477447D03*
X107860252Y-51827447D03*
X107860252Y-51177447D03*
%TD*%
D10*
%TO.C,U4*%
X64611066Y-78021847D03*
X64611066Y-78671847D03*
X64611066Y-79321847D03*
X64611066Y-79971847D03*
X64611066Y-80621847D03*
X64611066Y-81271847D03*
X64611066Y-81921847D03*
X64611066Y-82571847D03*
X70336066Y-82571847D03*
X70336066Y-81921847D03*
X70336066Y-81271847D03*
X70336066Y-80621847D03*
X70336066Y-79971847D03*
X70336066Y-79321847D03*
X70336066Y-78671847D03*
X70336066Y-78021847D03*
%TD*%
D11*
%TO.C,U5*%
X139057491Y-51177447D03*
X139057491Y-51827447D03*
X139057491Y-52477447D03*
X139057491Y-53127447D03*
X139057491Y-53777447D03*
X139057491Y-54427447D03*
X139057491Y-55077447D03*
X144797491Y-55077447D03*
X144797491Y-54427447D03*
X144797491Y-53777447D03*
X144797491Y-53127447D03*
X144797491Y-52477447D03*
X144797491Y-51827447D03*
X144797491Y-51177447D03*
%TD*%
M02*
