%TF.GenerationSoftware,KiCad,Pcbnew,8.0.5*%
%TF.CreationDate,2024-12-01T20:09:50-08:00*%
%TF.ProjectId,tssop,7473736f-702e-46b6-9963-61645f706362,rev?*%
%TF.SameCoordinates,Original*%
%TF.FileFunction,Soldermask,Bot*%
%TF.FilePolarity,Negative*%
%FSLAX46Y46*%
G04 Gerber Fmt 4.6, Leading zero omitted, Abs format (unit mm)*
G04 Created by KiCad (PCBNEW 8.0.5) date 2024-12-01 20:09:50*
%MOMM*%
%LPD*%
G01*
G04 APERTURE LIST*
%ADD10C,0.500000*%
%ADD11C,1.500000*%
%ADD12O,1.700000X1.700000*%
%ADD13C,2.000000*%
%ADD14R,1.700000X1.700000*%
G04 APERTURE END LIST*
D10*
%TO.C,KiKit_MB_41_8*%
X129780678Y-121334366D03*
%TD*%
%TO.C,KiKit_MB_21_6*%
X91343445Y-104582813D03*
%TD*%
%TO.C,KiKit_MB_34_6*%
X115968271Y-77126400D03*
%TD*%
%TO.C,KiKit_MB_28_10*%
X106655858Y-77126400D03*
%TD*%
D11*
%TO.C,J17*%
X104408405Y-119662813D03*
%TD*%
D10*
%TO.C,KiKit_MB_28_6*%
X103655858Y-77126400D03*
%TD*%
%TO.C,KiKit_MB_14_7*%
X79781026Y-49875000D03*
%TD*%
D12*
%TO.C,J14*%
X108167605Y-112246013D03*
X108167605Y-114786013D03*
X108167605Y-117326013D03*
X108167605Y-119866013D03*
%TD*%
D10*
%TO.C,KiKit_MB_40_6*%
X128280684Y-77126400D03*
%TD*%
%TO.C,KiKit_MB_42_10*%
X131280678Y-106332813D03*
%TD*%
D12*
%TO.C,J12*%
X120528218Y-103207647D03*
X120528218Y-100667647D03*
X120528218Y-98127647D03*
X120528218Y-95587647D03*
X120528218Y-93047647D03*
X120528218Y-90507647D03*
X120528218Y-87967647D03*
X120528218Y-85427647D03*
%TD*%
D11*
%TO.C,J17*%
X55158753Y-119662813D03*
%TD*%
D10*
%TO.C,KiKit_MB_21_10*%
X94343445Y-104582813D03*
%TD*%
%TO.C,KiKit_MB_29_7*%
X104405852Y-121334366D03*
%TD*%
%TO.C,KiKit_MB_32_5*%
X115218265Y-49875000D03*
%TD*%
%TO.C,KiKit_MB_31_6*%
X115968265Y-75376400D03*
%TD*%
%TO.C,KiKit_MB_19_4*%
X89843439Y-75376400D03*
%TD*%
%TO.C,KiKit_MB_12_7*%
X67468613Y-106332813D03*
%TD*%
%TO.C,KiKit_MB_34_5*%
X115218271Y-77126400D03*
%TD*%
D13*
%TO.C,KiKit_TO_1*%
X52999953Y-45000000D03*
%TD*%
D10*
%TO.C,KiKit_MB_18_4*%
X77531026Y-106332813D03*
%TD*%
%TO.C,KiKit_MB_25_10*%
X106655852Y-75376400D03*
%TD*%
%TO.C,KiKit_MB_39_9*%
X130530684Y-104582813D03*
%TD*%
%TO.C,KiKit_MB_31_5*%
X115218265Y-75376400D03*
%TD*%
%TO.C,KiKit_MB_7_8*%
X68218613Y-75376400D03*
%TD*%
%TO.C,KiKit_MB_5_10*%
X57406200Y-121334366D03*
%TD*%
%TO.C,KiKit_MB_14_10*%
X82031026Y-49875000D03*
%TD*%
%TO.C,KiKit_MB_22_8*%
X92843445Y-77126400D03*
%TD*%
%TO.C,KiKit_MB_12_4*%
X65218613Y-106332813D03*
%TD*%
%TO.C,KiKit_MB_25_7*%
X104405852Y-75376400D03*
%TD*%
%TO.C,KiKit_MB_24_9*%
X93593439Y-106332813D03*
%TD*%
%TO.C,KiKit_MB_21_7*%
X92093445Y-104582813D03*
%TD*%
%TO.C,KiKit_MB_38_9*%
X130530678Y-49875000D03*
%TD*%
%TO.C,KiKit_MB_29_9*%
X105905852Y-121334366D03*
%TD*%
%TO.C,KiKit_MB_48_10*%
X143593091Y-106332813D03*
%TD*%
%TO.C,KiKit_MB_16_8*%
X80531032Y-77126400D03*
%TD*%
%TO.C,KiKit_MB_45_5*%
X139843097Y-104582813D03*
%TD*%
%TO.C,KiKit_MB_19_6*%
X91343439Y-75376400D03*
%TD*%
D12*
%TO.C,J10*%
X58966100Y-74000447D03*
X58966100Y-71460447D03*
X58966100Y-68920447D03*
X58966100Y-66380447D03*
X58966100Y-63840447D03*
X58966100Y-61300447D03*
X58966100Y-58760447D03*
%TD*%
D14*
%TO.C,J11*%
X137532991Y-58760447D03*
D12*
X137532991Y-61300447D03*
X137532991Y-63840447D03*
X137532991Y-66380447D03*
X137532991Y-68920447D03*
X137532991Y-71460447D03*
X137532991Y-74000447D03*
%TD*%
D10*
%TO.C,KiKit_MB_37_5*%
X127530678Y-75376400D03*
%TD*%
%TO.C,KiKit_MB_8_5*%
X65968613Y-49875000D03*
%TD*%
%TO.C,KiKit_MB_42_5*%
X127530678Y-106332813D03*
%TD*%
D12*
%TO.C,J12*%
X58966153Y-103207647D03*
X58966153Y-100667647D03*
X58966153Y-98127647D03*
X58966153Y-95587647D03*
X58966153Y-93047647D03*
X58966153Y-90507647D03*
X58966153Y-87967647D03*
X58966153Y-85427647D03*
%TD*%
D10*
%TO.C,KiKit_MB_11_9*%
X68968613Y-121334366D03*
%TD*%
%TO.C,KiKit_MB_44_7*%
X141343091Y-49875000D03*
%TD*%
%TO.C,KiKit_MB_32_9*%
X118218265Y-49875000D03*
%TD*%
%TO.C,KiKit_MB_1_7*%
X55156200Y-75376400D03*
%TD*%
%TO.C,KiKit_MB_31_8*%
X117468265Y-75376400D03*
%TD*%
%TO.C,KiKit_MB_28_9*%
X105905858Y-77126400D03*
%TD*%
%TO.C,KiKit_MB_48_8*%
X142093091Y-106332813D03*
%TD*%
%TO.C,KiKit_MB_46_9*%
X142843097Y-77126400D03*
%TD*%
%TO.C,KiKit_MB_35_9*%
X118218265Y-121334366D03*
%TD*%
%TO.C,KiKit_MB_13_8*%
X80531026Y-75376400D03*
%TD*%
%TO.C,KiKit_MB_10_9*%
X68968619Y-77126400D03*
%TD*%
%TO.C,KiKit_MB_36_6*%
X115968265Y-106332813D03*
%TD*%
%TO.C,KiKit_MB_35_4*%
X114468265Y-121334366D03*
%TD*%
%TO.C,KiKit_MB_31_10*%
X118968265Y-75376400D03*
%TD*%
%TO.C,KiKit_MB_37_6*%
X128280678Y-75376400D03*
%TD*%
D12*
%TO.C,J12*%
X95903392Y-103207647D03*
X95903392Y-100667647D03*
X95903392Y-98127647D03*
X95903392Y-95587647D03*
X95903392Y-93047647D03*
X95903392Y-90507647D03*
X95903392Y-87967647D03*
X95903392Y-85427647D03*
%TD*%
D10*
%TO.C,KiKit_MB_8_6*%
X66718613Y-49875000D03*
%TD*%
%TO.C,KiKit_MB_8_10*%
X69718613Y-49875000D03*
%TD*%
%TO.C,KiKit_MB_39_5*%
X127530684Y-104582813D03*
%TD*%
%TO.C,KiKit_MB_8_9*%
X68968613Y-49875000D03*
%TD*%
%TO.C,KiKit_MB_41_4*%
X126780678Y-121334366D03*
%TD*%
%TO.C,KiKit_MB_9_10*%
X69718619Y-104582813D03*
%TD*%
%TO.C,KiKit_MB_22_10*%
X94343445Y-77126400D03*
%TD*%
%TO.C,KiKit_MB_43_7*%
X141343091Y-75376400D03*
%TD*%
D12*
%TO.C,J14*%
X145104844Y-112246013D03*
X145104844Y-114786013D03*
X145104844Y-117326013D03*
X145104844Y-119866013D03*
%TD*%
D10*
%TO.C,KiKit_MB_14_9*%
X81281026Y-49875000D03*
%TD*%
%TO.C,KiKit_MB_5_6*%
X54406200Y-121334366D03*
%TD*%
%TO.C,KiKit_MB_11_8*%
X68218613Y-121334366D03*
%TD*%
%TO.C,KiKit_MB_13_4*%
X77531026Y-75376400D03*
%TD*%
%TO.C,KiKit_MB_20_4*%
X89843439Y-49875000D03*
%TD*%
%TO.C,KiKit_MB_19_10*%
X94343439Y-75376400D03*
%TD*%
%TO.C,KiKit_MB_10_4*%
X65218619Y-77126400D03*
%TD*%
%TO.C,KiKit_MB_10_7*%
X67468619Y-77126400D03*
%TD*%
%TO.C,KiKit_MB_28_8*%
X105155858Y-77126400D03*
%TD*%
%TO.C,KiKit_MB_27_6*%
X103655858Y-104582813D03*
%TD*%
%TO.C,KiKit_MB_33_6*%
X115968271Y-104582813D03*
%TD*%
%TO.C,KiKit_MB_40_7*%
X129030684Y-77126400D03*
%TD*%
%TO.C,KiKit_MB_7_9*%
X68968613Y-75376400D03*
%TD*%
D14*
%TO.C,J13*%
X63658566Y-85427647D03*
D12*
X63658566Y-87967647D03*
X63658566Y-90507647D03*
X63658566Y-93047647D03*
X63658566Y-95587647D03*
X63658566Y-98127647D03*
X63658566Y-100667647D03*
X63658566Y-103207647D03*
%TD*%
D10*
%TO.C,KiKit_MB_22_9*%
X93593445Y-77126400D03*
%TD*%
%TO.C,KiKit_MB_33_9*%
X118218271Y-104582813D03*
%TD*%
%TO.C,KiKit_MB_37_10*%
X131280678Y-75376400D03*
%TD*%
%TO.C,KiKit_MB_25_6*%
X103655852Y-75376400D03*
%TD*%
%TO.C,KiKit_MB_29_8*%
X105155852Y-121334366D03*
%TD*%
%TO.C,KiKit_MB_47_6*%
X140593091Y-121334366D03*
%TD*%
%TO.C,KiKit_MB_22_5*%
X90593445Y-77126400D03*
%TD*%
%TO.C,KiKit_MB_12_6*%
X66718613Y-106332813D03*
%TD*%
D11*
%TO.C,J17*%
X67471166Y-119662813D03*
%TD*%
D10*
%TO.C,KiKit_MB_16_6*%
X79031032Y-77126400D03*
%TD*%
%TO.C,KiKit_MB_3_7*%
X55156206Y-104582813D03*
%TD*%
%TO.C,KiKit_MB_27_5*%
X102905858Y-104582813D03*
%TD*%
%TO.C,KiKit_MB_23_7*%
X92093439Y-121334366D03*
%TD*%
%TO.C,KiKit_MB_38_6*%
X128280678Y-49875000D03*
%TD*%
%TO.C,KiKit_MB_22_4*%
X89843445Y-77126400D03*
%TD*%
%TO.C,KiKit_MB_5_8*%
X55906200Y-121334366D03*
%TD*%
%TO.C,KiKit_MB_10_10*%
X69718619Y-77126400D03*
%TD*%
%TO.C,KiKit_MB_41_6*%
X128280678Y-121334366D03*
%TD*%
D12*
%TO.C,J10*%
X132840578Y-74000447D03*
X132840578Y-71460447D03*
X132840578Y-68920447D03*
X132840578Y-66380447D03*
X132840578Y-63840447D03*
X132840578Y-61300447D03*
X132840578Y-58760447D03*
%TD*%
D10*
%TO.C,KiKit_MB_39_10*%
X131280684Y-104582813D03*
%TD*%
D14*
%TO.C,J11*%
X125220578Y-58760447D03*
D12*
X125220578Y-61300447D03*
X125220578Y-63840447D03*
X125220578Y-66380447D03*
X125220578Y-68920447D03*
X125220578Y-71460447D03*
X125220578Y-74000447D03*
%TD*%
D10*
%TO.C,KiKit_MB_25_5*%
X102905852Y-75376400D03*
%TD*%
%TO.C,KiKit_MB_47_10*%
X143593091Y-121334366D03*
%TD*%
%TO.C,KiKit_MB_27_10*%
X106655858Y-104582813D03*
%TD*%
%TO.C,KiKit_MB_27_4*%
X102155858Y-104582813D03*
%TD*%
%TO.C,KiKit_MB_14_4*%
X77531026Y-49875000D03*
%TD*%
%TO.C,KiKit_MB_2_7*%
X55156200Y-49875000D03*
%TD*%
%TO.C,KiKit_MB_17_4*%
X77531026Y-121334366D03*
%TD*%
%TO.C,KiKit_MB_17_9*%
X81281026Y-121334366D03*
%TD*%
%TO.C,KiKit_MB_26_9*%
X105905852Y-49875000D03*
%TD*%
D12*
%TO.C,J14*%
X95855192Y-112246013D03*
X95855192Y-114786013D03*
X95855192Y-117326013D03*
X95855192Y-119866013D03*
%TD*%
D10*
%TO.C,KiKit_MB_28_7*%
X104405858Y-77126400D03*
%TD*%
%TO.C,KiKit_MB_4_8*%
X55906206Y-77126400D03*
%TD*%
%TO.C,KiKit_MB_9_4*%
X65218619Y-104582813D03*
%TD*%
D12*
%TO.C,J14*%
X71230366Y-112246013D03*
X71230366Y-114786013D03*
X71230366Y-117326013D03*
X71230366Y-119866013D03*
%TD*%
D14*
%TO.C,J13*%
X75970979Y-85427647D03*
D12*
X75970979Y-87967647D03*
X75970979Y-90507647D03*
X75970979Y-93047647D03*
X75970979Y-95587647D03*
X75970979Y-98127647D03*
X75970979Y-100667647D03*
X75970979Y-103207647D03*
%TD*%
D10*
%TO.C,KiKit_MB_1_9*%
X56656200Y-75376400D03*
%TD*%
%TO.C,KiKit_MB_15_4*%
X77531032Y-104582813D03*
%TD*%
%TO.C,KiKit_MB_40_4*%
X126780684Y-77126400D03*
%TD*%
%TO.C,KiKit_MB_24_4*%
X89843439Y-106332813D03*
%TD*%
%TO.C,KiKit_MB_32_4*%
X114468265Y-49875000D03*
%TD*%
%TO.C,KiKit_MB_31_9*%
X118218265Y-75376400D03*
%TD*%
%TO.C,KiKit_MB_3_10*%
X57406206Y-104582813D03*
%TD*%
%TO.C,KiKit_MB_48_4*%
X139093091Y-106332813D03*
%TD*%
%TO.C,KiKit_MB_12_10*%
X69718613Y-106332813D03*
%TD*%
%TO.C,KiKit_MB_29_10*%
X106655852Y-121334366D03*
%TD*%
%TO.C,KiKit_MB_6_4*%
X52906200Y-106332813D03*
%TD*%
%TO.C,KiKit_MB_39_6*%
X128280684Y-104582813D03*
%TD*%
%TO.C,KiKit_MB_30_10*%
X106655852Y-106332813D03*
%TD*%
%TO.C,KiKit_MB_12_5*%
X65968613Y-106332813D03*
%TD*%
D14*
%TO.C,J11*%
X100595752Y-58760447D03*
D12*
X100595752Y-61300447D03*
X100595752Y-63840447D03*
X100595752Y-66380447D03*
X100595752Y-68920447D03*
X100595752Y-71460447D03*
X100595752Y-74000447D03*
%TD*%
D10*
%TO.C,KiKit_MB_18_8*%
X80531026Y-106332813D03*
%TD*%
%TO.C,KiKit_MB_44_9*%
X142843091Y-49875000D03*
%TD*%
%TO.C,KiKit_MB_20_5*%
X90593439Y-49875000D03*
%TD*%
%TO.C,KiKit_MB_4_6*%
X54406206Y-77126400D03*
%TD*%
%TO.C,KiKit_MB_4_5*%
X53656206Y-77126400D03*
%TD*%
D11*
%TO.C,J17*%
X141345644Y-119662813D03*
%TD*%
D10*
%TO.C,KiKit_MB_25_8*%
X105155852Y-75376400D03*
%TD*%
D14*
%TO.C,J15*%
X63610366Y-112246013D03*
D12*
X63610366Y-114786013D03*
X63610366Y-117326013D03*
X63610366Y-119866013D03*
%TD*%
D10*
%TO.C,KiKit_MB_4_7*%
X55156206Y-77126400D03*
%TD*%
%TO.C,KiKit_MB_6_5*%
X53656200Y-106332813D03*
%TD*%
%TO.C,KiKit_MB_13_7*%
X79781026Y-75376400D03*
%TD*%
D14*
%TO.C,J11*%
X112908165Y-58760447D03*
D12*
X112908165Y-61300447D03*
X112908165Y-63840447D03*
X112908165Y-66380447D03*
X112908165Y-68920447D03*
X112908165Y-71460447D03*
X112908165Y-74000447D03*
%TD*%
D10*
%TO.C,KiKit_MB_34_8*%
X117468271Y-77126400D03*
%TD*%
%TO.C,KiKit_MB_35_5*%
X115218265Y-121334366D03*
%TD*%
%TO.C,KiKit_MB_33_8*%
X117468271Y-104582813D03*
%TD*%
%TO.C,KiKit_MB_12_9*%
X68968613Y-106332813D03*
%TD*%
D14*
%TO.C,J13*%
X100595805Y-85427647D03*
D12*
X100595805Y-87967647D03*
X100595805Y-90507647D03*
X100595805Y-93047647D03*
X100595805Y-95587647D03*
X100595805Y-98127647D03*
X100595805Y-100667647D03*
X100595805Y-103207647D03*
%TD*%
D10*
%TO.C,KiKit_MB_36_10*%
X118968265Y-106332813D03*
%TD*%
%TO.C,KiKit_MB_9_6*%
X66718619Y-104582813D03*
%TD*%
%TO.C,KiKit_MB_2_8*%
X55906200Y-49875000D03*
%TD*%
%TO.C,KiKit_MB_30_6*%
X103655852Y-106332813D03*
%TD*%
%TO.C,KiKit_MB_3_4*%
X52906206Y-104582813D03*
%TD*%
%TO.C,KiKit_MB_10_8*%
X68218619Y-77126400D03*
%TD*%
%TO.C,KiKit_MB_24_7*%
X92093439Y-106332813D03*
%TD*%
%TO.C,KiKit_MB_23_4*%
X89843439Y-121334366D03*
%TD*%
%TO.C,KiKit_MB_31_7*%
X116718265Y-75376400D03*
%TD*%
%TO.C,KiKit_MB_14_8*%
X80531026Y-49875000D03*
%TD*%
%TO.C,KiKit_MB_5_7*%
X55156200Y-121334366D03*
%TD*%
%TO.C,KiKit_MB_1_4*%
X52906200Y-75376400D03*
%TD*%
%TO.C,KiKit_MB_44_4*%
X139093091Y-49875000D03*
%TD*%
D12*
%TO.C,J10*%
X145152991Y-74000447D03*
X145152991Y-71460447D03*
X145152991Y-68920447D03*
X145152991Y-66380447D03*
X145152991Y-63840447D03*
X145152991Y-61300447D03*
X145152991Y-58760447D03*
%TD*%
D10*
%TO.C,KiKit_MB_4_4*%
X52906206Y-77126400D03*
%TD*%
%TO.C,KiKit_MB_18_6*%
X79031026Y-106332813D03*
%TD*%
%TO.C,KiKit_MB_23_6*%
X91343439Y-121334366D03*
%TD*%
%TO.C,KiKit_MB_16_10*%
X82031032Y-77126400D03*
%TD*%
%TO.C,KiKit_MB_3_8*%
X55906206Y-104582813D03*
%TD*%
%TO.C,KiKit_MB_26_6*%
X103655852Y-49875000D03*
%TD*%
%TO.C,KiKit_MB_11_5*%
X65968613Y-121334366D03*
%TD*%
%TO.C,KiKit_MB_32_6*%
X115968265Y-49875000D03*
%TD*%
%TO.C,KiKit_MB_19_8*%
X92843439Y-75376400D03*
%TD*%
%TO.C,KiKit_MB_43_9*%
X142843091Y-75376400D03*
%TD*%
%TO.C,KiKit_MB_36_5*%
X115218265Y-106332813D03*
%TD*%
%TO.C,KiKit_MB_42_7*%
X129030678Y-106332813D03*
%TD*%
%TO.C,KiKit_MB_3_5*%
X53656206Y-104582813D03*
%TD*%
D14*
%TO.C,J13*%
X125220631Y-85427647D03*
D12*
X125220631Y-87967647D03*
X125220631Y-90507647D03*
X125220631Y-93047647D03*
X125220631Y-95587647D03*
X125220631Y-98127647D03*
X125220631Y-100667647D03*
X125220631Y-103207647D03*
%TD*%
D14*
%TO.C,J15*%
X75922779Y-112246013D03*
D12*
X75922779Y-114786013D03*
X75922779Y-117326013D03*
X75922779Y-119866013D03*
%TD*%
D14*
%TO.C,J13*%
X51346153Y-85427647D03*
D12*
X51346153Y-87967647D03*
X51346153Y-90507647D03*
X51346153Y-93047647D03*
X51346153Y-95587647D03*
X51346153Y-98127647D03*
X51346153Y-100667647D03*
X51346153Y-103207647D03*
%TD*%
D10*
%TO.C,KiKit_MB_26_5*%
X102905852Y-49875000D03*
%TD*%
%TO.C,KiKit_MB_35_10*%
X118968265Y-121334366D03*
%TD*%
%TO.C,KiKit_MB_27_8*%
X105155858Y-104582813D03*
%TD*%
%TO.C,KiKit_MB_33_7*%
X116718271Y-104582813D03*
%TD*%
%TO.C,KiKit_MB_42_4*%
X126780678Y-106332813D03*
%TD*%
%TO.C,KiKit_MB_5_5*%
X53656200Y-121334366D03*
%TD*%
%TO.C,KiKit_MB_17_7*%
X79781026Y-121334366D03*
%TD*%
%TO.C,KiKit_MB_36_4*%
X114468265Y-106332813D03*
%TD*%
D11*
%TO.C,J17*%
X92095992Y-119662813D03*
%TD*%
D12*
%TO.C,J10*%
X83590926Y-74000447D03*
X83590926Y-71460447D03*
X83590926Y-68920447D03*
X83590926Y-66380447D03*
X83590926Y-63840447D03*
X83590926Y-61300447D03*
X83590926Y-58760447D03*
%TD*%
D10*
%TO.C,KiKit_MB_14_5*%
X78281026Y-49875000D03*
%TD*%
D14*
%TO.C,J15*%
X137484844Y-112246013D03*
D12*
X137484844Y-114786013D03*
X137484844Y-117326013D03*
X137484844Y-119866013D03*
%TD*%
D10*
%TO.C,KiKit_MB_20_7*%
X92093439Y-49875000D03*
%TD*%
%TO.C,KiKit_MB_7_4*%
X65218613Y-75376400D03*
%TD*%
%TO.C,KiKit_MB_37_9*%
X130530678Y-75376400D03*
%TD*%
D12*
%TO.C,J14*%
X132792431Y-112246013D03*
X132792431Y-114786013D03*
X132792431Y-117326013D03*
X132792431Y-119866013D03*
%TD*%
D10*
%TO.C,KiKit_MB_39_8*%
X129780684Y-104582813D03*
%TD*%
D14*
%TO.C,J11*%
X63658513Y-58760447D03*
D12*
X63658513Y-61300447D03*
X63658513Y-63840447D03*
X63658513Y-66380447D03*
X63658513Y-68920447D03*
X63658513Y-71460447D03*
X63658513Y-74000447D03*
%TD*%
D10*
%TO.C,KiKit_MB_30_8*%
X105155852Y-106332813D03*
%TD*%
%TO.C,KiKit_MB_33_4*%
X114468271Y-104582813D03*
%TD*%
%TO.C,KiKit_MB_5_9*%
X56656200Y-121334366D03*
%TD*%
%TO.C,KiKit_MB_10_6*%
X66718619Y-77126400D03*
%TD*%
%TO.C,KiKit_MB_36_8*%
X117468265Y-106332813D03*
%TD*%
%TO.C,KiKit_MB_24_5*%
X90593439Y-106332813D03*
%TD*%
%TO.C,KiKit_MB_27_7*%
X104405858Y-104582813D03*
%TD*%
%TO.C,KiKit_MB_15_6*%
X79031032Y-104582813D03*
%TD*%
%TO.C,KiKit_MB_4_9*%
X56656206Y-77126400D03*
%TD*%
%TO.C,KiKit_MB_34_4*%
X114468271Y-77126400D03*
%TD*%
%TO.C,KiKit_MB_3_9*%
X56656206Y-104582813D03*
%TD*%
%TO.C,KiKit_MB_15_9*%
X81281032Y-104582813D03*
%TD*%
D12*
%TO.C,J12*%
X71278566Y-103207647D03*
X71278566Y-100667647D03*
X71278566Y-98127647D03*
X71278566Y-95587647D03*
X71278566Y-93047647D03*
X71278566Y-90507647D03*
X71278566Y-87967647D03*
X71278566Y-85427647D03*
%TD*%
D10*
%TO.C,KiKit_MB_47_8*%
X142093091Y-121334366D03*
%TD*%
D12*
%TO.C,J10*%
X108215752Y-74000447D03*
X108215752Y-71460447D03*
X108215752Y-68920447D03*
X108215752Y-66380447D03*
X108215752Y-63840447D03*
X108215752Y-61300447D03*
X108215752Y-58760447D03*
%TD*%
%TO.C,J10*%
X95903339Y-74000447D03*
X95903339Y-71460447D03*
X95903339Y-68920447D03*
X95903339Y-66380447D03*
X95903339Y-63840447D03*
X95903339Y-61300447D03*
X95903339Y-58760447D03*
%TD*%
D10*
%TO.C,KiKit_MB_21_5*%
X90593445Y-104582813D03*
%TD*%
%TO.C,KiKit_MB_16_5*%
X78281032Y-77126400D03*
%TD*%
%TO.C,KiKit_MB_40_9*%
X130530684Y-77126400D03*
%TD*%
%TO.C,KiKit_MB_6_9*%
X56656200Y-106332813D03*
%TD*%
%TO.C,KiKit_MB_46_4*%
X139093097Y-77126400D03*
%TD*%
%TO.C,KiKit_MB_4_10*%
X57406206Y-77126400D03*
%TD*%
%TO.C,KiKit_MB_38_7*%
X129030678Y-49875000D03*
%TD*%
%TO.C,KiKit_MB_6_10*%
X57406200Y-106332813D03*
%TD*%
%TO.C,KiKit_MB_32_7*%
X116718265Y-49875000D03*
%TD*%
%TO.C,KiKit_MB_13_6*%
X79031026Y-75376400D03*
%TD*%
%TO.C,KiKit_MB_30_5*%
X102905852Y-106332813D03*
%TD*%
%TO.C,KiKit_MB_44_5*%
X139843091Y-49875000D03*
%TD*%
%TO.C,KiKit_MB_21_8*%
X92843445Y-104582813D03*
%TD*%
%TO.C,KiKit_MB_35_7*%
X116718265Y-121334366D03*
%TD*%
%TO.C,KiKit_MB_1_8*%
X55906200Y-75376400D03*
%TD*%
D14*
%TO.C,J15*%
X51297953Y-112246013D03*
D12*
X51297953Y-114786013D03*
X51297953Y-117326013D03*
X51297953Y-119866013D03*
%TD*%
D10*
%TO.C,KiKit_MB_21_4*%
X89843445Y-104582813D03*
%TD*%
%TO.C,KiKit_MB_16_9*%
X81281032Y-77126400D03*
%TD*%
%TO.C,KiKit_MB_28_4*%
X102155858Y-77126400D03*
%TD*%
%TO.C,KiKit_MB_48_5*%
X139843091Y-106332813D03*
%TD*%
%TO.C,KiKit_MB_13_9*%
X81281026Y-75376400D03*
%TD*%
%TO.C,KiKit_MB_2_9*%
X56656200Y-49875000D03*
%TD*%
%TO.C,KiKit_MB_23_8*%
X92843439Y-121334366D03*
%TD*%
D14*
%TO.C,J15*%
X100547605Y-112246013D03*
D12*
X100547605Y-114786013D03*
X100547605Y-117326013D03*
X100547605Y-119866013D03*
%TD*%
D10*
%TO.C,KiKit_MB_9_8*%
X68218619Y-104582813D03*
%TD*%
%TO.C,KiKit_MB_11_4*%
X65218613Y-121334366D03*
%TD*%
D12*
%TO.C,J12*%
X145153044Y-103207647D03*
X145153044Y-100667647D03*
X145153044Y-98127647D03*
X145153044Y-95587647D03*
X145153044Y-93047647D03*
X145153044Y-90507647D03*
X145153044Y-87967647D03*
X145153044Y-85427647D03*
%TD*%
D10*
%TO.C,KiKit_MB_26_4*%
X102155852Y-49875000D03*
%TD*%
%TO.C,KiKit_MB_45_7*%
X141343097Y-104582813D03*
%TD*%
%TO.C,KiKit_MB_16_7*%
X79781032Y-77126400D03*
%TD*%
%TO.C,KiKit_MB_47_5*%
X139843091Y-121334366D03*
%TD*%
D12*
%TO.C,J10*%
X71278513Y-74000447D03*
X71278513Y-71460447D03*
X71278513Y-68920447D03*
X71278513Y-66380447D03*
X71278513Y-63840447D03*
X71278513Y-61300447D03*
X71278513Y-58760447D03*
%TD*%
D10*
%TO.C,KiKit_MB_5_4*%
X52906200Y-121334366D03*
%TD*%
%TO.C,KiKit_MB_41_10*%
X131280678Y-121334366D03*
%TD*%
%TO.C,KiKit_MB_8_7*%
X67468613Y-49875000D03*
%TD*%
D14*
%TO.C,J15*%
X125172431Y-112246013D03*
D12*
X125172431Y-114786013D03*
X125172431Y-117326013D03*
X125172431Y-119866013D03*
%TD*%
D10*
%TO.C,KiKit_MB_20_10*%
X94343439Y-49875000D03*
%TD*%
%TO.C,KiKit_MB_17_8*%
X80531026Y-121334366D03*
%TD*%
%TO.C,KiKit_MB_37_8*%
X129780678Y-75376400D03*
%TD*%
D14*
%TO.C,J11*%
X51346100Y-58760447D03*
D12*
X51346100Y-61300447D03*
X51346100Y-63840447D03*
X51346100Y-66380447D03*
X51346100Y-68920447D03*
X51346100Y-71460447D03*
X51346100Y-74000447D03*
%TD*%
D10*
%TO.C,KiKit_MB_20_6*%
X91343439Y-49875000D03*
%TD*%
%TO.C,KiKit_MB_15_10*%
X82031032Y-104582813D03*
%TD*%
%TO.C,KiKit_MB_9_5*%
X65968619Y-104582813D03*
%TD*%
%TO.C,KiKit_MB_46_5*%
X139843097Y-77126400D03*
%TD*%
%TO.C,KiKit_MB_17_5*%
X78281026Y-121334366D03*
%TD*%
%TO.C,KiKit_MB_13_5*%
X78281026Y-75376400D03*
%TD*%
%TO.C,KiKit_MB_6_6*%
X54406200Y-106332813D03*
%TD*%
%TO.C,KiKit_MB_38_4*%
X126780678Y-49875000D03*
%TD*%
D11*
%TO.C,J17*%
X116720818Y-119662813D03*
%TD*%
D13*
%TO.C,KiKit_TO_2*%
X143499304Y-45000000D03*
%TD*%
D10*
%TO.C,KiKit_MB_9_9*%
X68968619Y-104582813D03*
%TD*%
%TO.C,KiKit_MB_40_5*%
X127530684Y-77126400D03*
%TD*%
%TO.C,KiKit_MB_28_5*%
X102905858Y-77126400D03*
%TD*%
%TO.C,KiKit_MB_7_10*%
X69718613Y-75376400D03*
%TD*%
%TO.C,KiKit_MB_1_6*%
X54406200Y-75376400D03*
%TD*%
D12*
%TO.C,J14*%
X120480018Y-112246013D03*
X120480018Y-114786013D03*
X120480018Y-117326013D03*
X120480018Y-119866013D03*
%TD*%
D10*
%TO.C,KiKit_MB_11_6*%
X66718613Y-121334366D03*
%TD*%
%TO.C,KiKit_MB_26_8*%
X105155852Y-49875000D03*
%TD*%
%TO.C,KiKit_MB_7_5*%
X65968613Y-75376400D03*
%TD*%
%TO.C,KiKit_MB_24_10*%
X94343439Y-106332813D03*
%TD*%
%TO.C,KiKit_MB_37_7*%
X129030678Y-75376400D03*
%TD*%
%TO.C,KiKit_MB_44_10*%
X143593091Y-49875000D03*
%TD*%
%TO.C,KiKit_MB_35_8*%
X117468265Y-121334366D03*
%TD*%
%TO.C,KiKit_MB_15_8*%
X80531032Y-104582813D03*
%TD*%
%TO.C,KiKit_MB_32_10*%
X118968265Y-49875000D03*
%TD*%
%TO.C,KiKit_MB_33_10*%
X118968271Y-104582813D03*
%TD*%
%TO.C,KiKit_MB_45_8*%
X142093097Y-104582813D03*
%TD*%
%TO.C,KiKit_MB_43_10*%
X143593091Y-75376400D03*
%TD*%
%TO.C,KiKit_MB_41_9*%
X130530678Y-121334366D03*
%TD*%
%TO.C,KiKit_MB_25_9*%
X105905852Y-75376400D03*
%TD*%
%TO.C,KiKit_MB_39_7*%
X129030684Y-104582813D03*
%TD*%
%TO.C,KiKit_MB_19_5*%
X90593439Y-75376400D03*
%TD*%
%TO.C,KiKit_MB_17_10*%
X82031026Y-121334366D03*
%TD*%
%TO.C,KiKit_MB_18_5*%
X78281026Y-106332813D03*
%TD*%
%TO.C,KiKit_MB_35_6*%
X115968265Y-121334366D03*
%TD*%
%TO.C,KiKit_MB_6_7*%
X55156200Y-106332813D03*
%TD*%
%TO.C,KiKit_MB_40_8*%
X129780684Y-77126400D03*
%TD*%
D12*
%TO.C,J10*%
X120528165Y-74000447D03*
X120528165Y-71460447D03*
X120528165Y-68920447D03*
X120528165Y-66380447D03*
X120528165Y-63840447D03*
X120528165Y-61300447D03*
X120528165Y-58760447D03*
%TD*%
%TO.C,J14*%
X58917953Y-112246013D03*
X58917953Y-114786013D03*
X58917953Y-117326013D03*
X58917953Y-119866013D03*
%TD*%
D10*
%TO.C,KiKit_MB_29_4*%
X102155852Y-121334366D03*
%TD*%
%TO.C,KiKit_MB_41_5*%
X127530678Y-121334366D03*
%TD*%
%TO.C,KiKit_MB_30_9*%
X105905852Y-106332813D03*
%TD*%
%TO.C,KiKit_MB_2_6*%
X54406200Y-49875000D03*
%TD*%
%TO.C,KiKit_MB_11_10*%
X69718613Y-121334366D03*
%TD*%
D11*
%TO.C,J17*%
X129033231Y-119662813D03*
%TD*%
D10*
%TO.C,KiKit_MB_31_4*%
X114468265Y-75376400D03*
%TD*%
D13*
%TO.C,KiKit_TO_3*%
X52999953Y-125709366D03*
%TD*%
D14*
%TO.C,J13*%
X88283392Y-85427647D03*
D12*
X88283392Y-87967647D03*
X88283392Y-90507647D03*
X88283392Y-93047647D03*
X88283392Y-95587647D03*
X88283392Y-98127647D03*
X88283392Y-100667647D03*
X88283392Y-103207647D03*
%TD*%
D10*
%TO.C,KiKit_MB_13_10*%
X82031026Y-75376400D03*
%TD*%
%TO.C,KiKit_MB_18_7*%
X79781026Y-106332813D03*
%TD*%
%TO.C,KiKit_MB_27_9*%
X105905858Y-104582813D03*
%TD*%
%TO.C,KiKit_MB_9_7*%
X67468619Y-104582813D03*
%TD*%
%TO.C,KiKit_MB_48_6*%
X140593091Y-106332813D03*
%TD*%
%TO.C,KiKit_MB_1_10*%
X57406200Y-75376400D03*
%TD*%
%TO.C,KiKit_MB_37_4*%
X126780678Y-75376400D03*
%TD*%
%TO.C,KiKit_MB_34_7*%
X116718271Y-77126400D03*
%TD*%
%TO.C,KiKit_MB_48_9*%
X142843091Y-106332813D03*
%TD*%
D12*
%TO.C,J12*%
X108215805Y-103207647D03*
X108215805Y-100667647D03*
X108215805Y-98127647D03*
X108215805Y-95587647D03*
X108215805Y-93047647D03*
X108215805Y-90507647D03*
X108215805Y-87967647D03*
X108215805Y-85427647D03*
%TD*%
D10*
%TO.C,KiKit_MB_24_6*%
X91343439Y-106332813D03*
%TD*%
%TO.C,KiKit_MB_16_4*%
X77531032Y-77126400D03*
%TD*%
%TO.C,KiKit_MB_8_8*%
X68218613Y-49875000D03*
%TD*%
%TO.C,KiKit_MB_47_7*%
X141343091Y-121334366D03*
%TD*%
%TO.C,KiKit_MB_10_5*%
X65968619Y-77126400D03*
%TD*%
%TO.C,KiKit_MB_34_10*%
X118968271Y-77126400D03*
%TD*%
%TO.C,KiKit_MB_47_9*%
X142843091Y-121334366D03*
%TD*%
%TO.C,KiKit_MB_47_4*%
X139093091Y-121334366D03*
%TD*%
%TO.C,KiKit_MB_1_5*%
X53656200Y-75376400D03*
%TD*%
%TO.C,KiKit_MB_40_10*%
X131280684Y-77126400D03*
%TD*%
%TO.C,KiKit_MB_2_5*%
X53656200Y-49875000D03*
%TD*%
%TO.C,KiKit_MB_42_8*%
X129780678Y-106332813D03*
%TD*%
%TO.C,KiKit_MB_24_8*%
X92843439Y-106332813D03*
%TD*%
%TO.C,KiKit_MB_43_6*%
X140593091Y-75376400D03*
%TD*%
%TO.C,KiKit_MB_33_5*%
X115218271Y-104582813D03*
%TD*%
%TO.C,KiKit_MB_36_9*%
X118218265Y-106332813D03*
%TD*%
%TO.C,KiKit_MB_30_7*%
X104405852Y-106332813D03*
%TD*%
%TO.C,KiKit_MB_45_10*%
X143593097Y-104582813D03*
%TD*%
%TO.C,KiKit_MB_45_9*%
X142843097Y-104582813D03*
%TD*%
D12*
%TO.C,J12*%
X83590979Y-103207647D03*
X83590979Y-100667647D03*
X83590979Y-98127647D03*
X83590979Y-95587647D03*
X83590979Y-93047647D03*
X83590979Y-90507647D03*
X83590979Y-87967647D03*
X83590979Y-85427647D03*
%TD*%
D10*
%TO.C,KiKit_MB_36_7*%
X116718265Y-106332813D03*
%TD*%
%TO.C,KiKit_MB_43_5*%
X139843091Y-75376400D03*
%TD*%
%TO.C,KiKit_MB_20_9*%
X93593439Y-49875000D03*
%TD*%
D12*
%TO.C,J14*%
X83542779Y-112246013D03*
X83542779Y-114786013D03*
X83542779Y-117326013D03*
X83542779Y-119866013D03*
%TD*%
D10*
%TO.C,KiKit_MB_30_4*%
X102155852Y-106332813D03*
%TD*%
%TO.C,KiKit_MB_18_10*%
X82031026Y-106332813D03*
%TD*%
%TO.C,KiKit_MB_11_7*%
X67468613Y-121334366D03*
%TD*%
%TO.C,KiKit_MB_44_6*%
X140593091Y-49875000D03*
%TD*%
%TO.C,KiKit_MB_41_7*%
X129030678Y-121334366D03*
%TD*%
%TO.C,KiKit_MB_43_8*%
X142093091Y-75376400D03*
%TD*%
%TO.C,KiKit_MB_21_9*%
X93593445Y-104582813D03*
%TD*%
D14*
%TO.C,J15*%
X112860018Y-112246013D03*
D12*
X112860018Y-114786013D03*
X112860018Y-117326013D03*
X112860018Y-119866013D03*
%TD*%
D10*
%TO.C,KiKit_MB_43_4*%
X139093091Y-75376400D03*
%TD*%
%TO.C,KiKit_MB_3_6*%
X54406206Y-104582813D03*
%TD*%
%TO.C,KiKit_MB_23_10*%
X94343439Y-121334366D03*
%TD*%
%TO.C,KiKit_MB_22_7*%
X92093445Y-77126400D03*
%TD*%
%TO.C,KiKit_MB_32_8*%
X117468265Y-49875000D03*
%TD*%
%TO.C,KiKit_MB_22_6*%
X91343445Y-77126400D03*
%TD*%
%TO.C,KiKit_MB_46_6*%
X140593097Y-77126400D03*
%TD*%
%TO.C,KiKit_MB_12_8*%
X68218613Y-106332813D03*
%TD*%
%TO.C,KiKit_MB_6_8*%
X55906200Y-106332813D03*
%TD*%
D14*
%TO.C,J15*%
X88235192Y-112246013D03*
D12*
X88235192Y-114786013D03*
X88235192Y-117326013D03*
X88235192Y-119866013D03*
%TD*%
D10*
%TO.C,KiKit_MB_2_10*%
X57406200Y-49875000D03*
%TD*%
%TO.C,KiKit_MB_38_8*%
X129780678Y-49875000D03*
%TD*%
%TO.C,KiKit_MB_23_9*%
X93593439Y-121334366D03*
%TD*%
%TO.C,KiKit_MB_48_7*%
X141343091Y-106332813D03*
%TD*%
%TO.C,KiKit_MB_23_5*%
X90593439Y-121334366D03*
%TD*%
%TO.C,KiKit_MB_42_9*%
X130530678Y-106332813D03*
%TD*%
D11*
%TO.C,J17*%
X79783579Y-119662813D03*
%TD*%
D10*
%TO.C,KiKit_MB_15_5*%
X78281032Y-104582813D03*
%TD*%
%TO.C,KiKit_MB_45_6*%
X140593097Y-104582813D03*
%TD*%
%TO.C,KiKit_MB_18_9*%
X81281026Y-106332813D03*
%TD*%
D14*
%TO.C,J11*%
X75970926Y-58760447D03*
D12*
X75970926Y-61300447D03*
X75970926Y-63840447D03*
X75970926Y-66380447D03*
X75970926Y-68920447D03*
X75970926Y-71460447D03*
X75970926Y-74000447D03*
%TD*%
D10*
%TO.C,KiKit_MB_20_8*%
X92843439Y-49875000D03*
%TD*%
%TO.C,KiKit_MB_34_9*%
X118218271Y-77126400D03*
%TD*%
%TO.C,KiKit_MB_39_4*%
X126780684Y-104582813D03*
%TD*%
%TO.C,KiKit_MB_42_6*%
X128280678Y-106332813D03*
%TD*%
%TO.C,KiKit_MB_7_6*%
X66718613Y-75376400D03*
%TD*%
%TO.C,KiKit_MB_17_6*%
X79031026Y-121334366D03*
%TD*%
%TO.C,KiKit_MB_45_4*%
X139093097Y-104582813D03*
%TD*%
%TO.C,KiKit_MB_38_5*%
X127530678Y-49875000D03*
%TD*%
%TO.C,KiKit_MB_25_4*%
X102155852Y-75376400D03*
%TD*%
%TO.C,KiKit_MB_26_10*%
X106655852Y-49875000D03*
%TD*%
D14*
%TO.C,J11*%
X88283339Y-58760447D03*
D12*
X88283339Y-61300447D03*
X88283339Y-63840447D03*
X88283339Y-66380447D03*
X88283339Y-68920447D03*
X88283339Y-71460447D03*
X88283339Y-74000447D03*
%TD*%
D14*
%TO.C,J13*%
X137533044Y-85427647D03*
D12*
X137533044Y-87967647D03*
X137533044Y-90507647D03*
X137533044Y-93047647D03*
X137533044Y-95587647D03*
X137533044Y-98127647D03*
X137533044Y-100667647D03*
X137533044Y-103207647D03*
%TD*%
D10*
%TO.C,KiKit_MB_46_10*%
X143593097Y-77126400D03*
%TD*%
%TO.C,KiKit_MB_14_6*%
X79031026Y-49875000D03*
%TD*%
%TO.C,KiKit_MB_46_8*%
X142093097Y-77126400D03*
%TD*%
%TO.C,KiKit_MB_7_7*%
X67468613Y-75376400D03*
%TD*%
%TO.C,KiKit_MB_15_7*%
X79781032Y-104582813D03*
%TD*%
%TO.C,KiKit_MB_44_8*%
X142093091Y-49875000D03*
%TD*%
%TO.C,KiKit_MB_8_4*%
X65218613Y-49875000D03*
%TD*%
%TO.C,KiKit_MB_38_10*%
X131280678Y-49875000D03*
%TD*%
%TO.C,KiKit_MB_29_6*%
X103655852Y-121334366D03*
%TD*%
%TO.C,KiKit_MB_19_9*%
X93593439Y-75376400D03*
%TD*%
%TO.C,KiKit_MB_2_4*%
X52906200Y-49875000D03*
%TD*%
%TO.C,KiKit_MB_19_7*%
X92093439Y-75376400D03*
%TD*%
D12*
%TO.C,J12*%
X132840631Y-103207647D03*
X132840631Y-100667647D03*
X132840631Y-98127647D03*
X132840631Y-95587647D03*
X132840631Y-93047647D03*
X132840631Y-90507647D03*
X132840631Y-87967647D03*
X132840631Y-85427647D03*
%TD*%
D13*
%TO.C,KiKit_TO_4*%
X143499304Y-125709366D03*
%TD*%
D10*
%TO.C,KiKit_MB_26_7*%
X104405852Y-49875000D03*
%TD*%
%TO.C,KiKit_MB_46_7*%
X141343097Y-77126400D03*
%TD*%
%TO.C,KiKit_MB_29_5*%
X102905852Y-121334366D03*
%TD*%
D14*
%TO.C,J13*%
X112908218Y-85427647D03*
D12*
X112908218Y-87967647D03*
X112908218Y-90507647D03*
X112908218Y-93047647D03*
X112908218Y-95587647D03*
X112908218Y-98127647D03*
X112908218Y-100667647D03*
X112908218Y-103207647D03*
%TD*%
D13*
%TO.C,KiKit_FID_B_1*%
X55999953Y-46350000D03*
%TD*%
%TO.C,KiKit_FID_B_3*%
X55999953Y-124359366D03*
%TD*%
%TO.C,KiKit_FID_B_2*%
X140499304Y-46350000D03*
%TD*%
%TO.C,KiKit_FID_B_4*%
X140499304Y-124359366D03*
%TD*%
M02*
