G04 #@! TF.GenerationSoftware,KiCad,Pcbnew,7.0.9*
G04 #@! TF.CreationDate,2023-12-28T16:33:31-08:00*
G04 #@! TF.ProjectId,soic breakouts,736f6963-2062-4726-9561-6b6f7574732e,rev?*
G04 #@! TF.SameCoordinates,Original*
G04 #@! TF.FileFunction,Legend,Top*
G04 #@! TF.FilePolarity,Positive*
%FSLAX46Y46*%
G04 Gerber Fmt 4.6, Leading zero omitted, Abs format (unit mm)*
G04 Created by KiCad (PCBNEW 7.0.9) date 2023-12-28 16:33:31*
%MOMM*%
%LPD*%
G01*
G04 APERTURE LIST*
G04 Aperture macros list*
%AMRoundRect*
0 Rectangle with rounded corners*
0 $1 Rounding radius*
0 $2 $3 $4 $5 $6 $7 $8 $9 X,Y pos of 4 corners*
0 Add a 4 corners polygon primitive as box body*
4,1,4,$2,$3,$4,$5,$6,$7,$8,$9,$2,$3,0*
0 Add four circle primitives for the rounded corners*
1,1,$1+$1,$2,$3*
1,1,$1+$1,$4,$5*
1,1,$1+$1,$6,$7*
1,1,$1+$1,$8,$9*
0 Add four rect primitives between the rounded corners*
20,1,$1+$1,$2,$3,$4,$5,0*
20,1,$1+$1,$4,$5,$6,$7,0*
20,1,$1+$1,$6,$7,$8,$9,0*
20,1,$1+$1,$8,$9,$2,$3,0*%
G04 Aperture macros list end*
%ADD10C,0.150000*%
%ADD11C,0.127000*%
%ADD12C,0.200000*%
%ADD13C,0.700000*%
%ADD14RoundRect,0.050000X0.850000X0.850000X-0.850000X0.850000X-0.850000X-0.850000X0.850000X-0.850000X0*%
%ADD15O,1.800000X1.800000*%
%ADD16C,1.600000*%
%ADD17RoundRect,0.092000X-0.943000X-0.258000X0.943000X-0.258000X0.943000X0.258000X-0.943000X0.258000X0*%
%ADD18RoundRect,0.050000X-0.850000X-0.850000X0.850000X-0.850000X0.850000X0.850000X-0.850000X0.850000X0*%
%ADD19RoundRect,0.140000X-0.210000X0.895000X-0.210000X-0.895000X0.210000X-0.895000X0.210000X0.895000X0*%
G04 APERTURE END LIST*
D10*
X140486600Y-70896553D02*
X140438980Y-71039410D01*
X140438980Y-71039410D02*
X140438980Y-71277505D01*
X140438980Y-71277505D02*
X140486600Y-71372743D01*
X140486600Y-71372743D02*
X140534219Y-71420362D01*
X140534219Y-71420362D02*
X140629457Y-71467981D01*
X140629457Y-71467981D02*
X140724695Y-71467981D01*
X140724695Y-71467981D02*
X140819933Y-71420362D01*
X140819933Y-71420362D02*
X140867552Y-71372743D01*
X140867552Y-71372743D02*
X140915171Y-71277505D01*
X140915171Y-71277505D02*
X140962790Y-71087029D01*
X140962790Y-71087029D02*
X141010409Y-70991791D01*
X141010409Y-70991791D02*
X141058028Y-70944172D01*
X141058028Y-70944172D02*
X141153266Y-70896553D01*
X141153266Y-70896553D02*
X141248504Y-70896553D01*
X141248504Y-70896553D02*
X141343742Y-70944172D01*
X141343742Y-70944172D02*
X141391361Y-70991791D01*
X141391361Y-70991791D02*
X141438980Y-71087029D01*
X141438980Y-71087029D02*
X141438980Y-71325124D01*
X141438980Y-71325124D02*
X141391361Y-71467981D01*
X141438980Y-72087029D02*
X141438980Y-72277505D01*
X141438980Y-72277505D02*
X141391361Y-72372743D01*
X141391361Y-72372743D02*
X141296123Y-72467981D01*
X141296123Y-72467981D02*
X141105647Y-72515600D01*
X141105647Y-72515600D02*
X140772314Y-72515600D01*
X140772314Y-72515600D02*
X140581838Y-72467981D01*
X140581838Y-72467981D02*
X140486600Y-72372743D01*
X140486600Y-72372743D02*
X140438980Y-72277505D01*
X140438980Y-72277505D02*
X140438980Y-72087029D01*
X140438980Y-72087029D02*
X140486600Y-71991791D01*
X140486600Y-71991791D02*
X140581838Y-71896553D01*
X140581838Y-71896553D02*
X140772314Y-71848934D01*
X140772314Y-71848934D02*
X141105647Y-71848934D01*
X141105647Y-71848934D02*
X141296123Y-71896553D01*
X141296123Y-71896553D02*
X141391361Y-71991791D01*
X141391361Y-71991791D02*
X141438980Y-72087029D01*
X140438980Y-72944172D02*
X141438980Y-72944172D01*
X140534219Y-73991790D02*
X140486600Y-73944171D01*
X140486600Y-73944171D02*
X140438980Y-73801314D01*
X140438980Y-73801314D02*
X140438980Y-73706076D01*
X140438980Y-73706076D02*
X140486600Y-73563219D01*
X140486600Y-73563219D02*
X140581838Y-73467981D01*
X140581838Y-73467981D02*
X140677076Y-73420362D01*
X140677076Y-73420362D02*
X140867552Y-73372743D01*
X140867552Y-73372743D02*
X141010409Y-73372743D01*
X141010409Y-73372743D02*
X141200885Y-73420362D01*
X141200885Y-73420362D02*
X141296123Y-73467981D01*
X141296123Y-73467981D02*
X141391361Y-73563219D01*
X141391361Y-73563219D02*
X141438980Y-73706076D01*
X141438980Y-73706076D02*
X141438980Y-73801314D01*
X141438980Y-73801314D02*
X141391361Y-73944171D01*
X141391361Y-73944171D02*
X141343742Y-73991790D01*
X140819933Y-74420362D02*
X140819933Y-75182267D01*
X140438980Y-76182266D02*
X140438980Y-75610838D01*
X140438980Y-75896552D02*
X141438980Y-75896552D01*
X141438980Y-75896552D02*
X141296123Y-75801314D01*
X141296123Y-75801314D02*
X141200885Y-75706076D01*
X141200885Y-75706076D02*
X141153266Y-75610838D01*
X141438980Y-77039409D02*
X141438980Y-76848933D01*
X141438980Y-76848933D02*
X141391361Y-76753695D01*
X141391361Y-76753695D02*
X141343742Y-76706076D01*
X141343742Y-76706076D02*
X141200885Y-76610838D01*
X141200885Y-76610838D02*
X141010409Y-76563219D01*
X141010409Y-76563219D02*
X140629457Y-76563219D01*
X140629457Y-76563219D02*
X140534219Y-76610838D01*
X140534219Y-76610838D02*
X140486600Y-76658457D01*
X140486600Y-76658457D02*
X140438980Y-76753695D01*
X140438980Y-76753695D02*
X140438980Y-76944171D01*
X140438980Y-76944171D02*
X140486600Y-77039409D01*
X140486600Y-77039409D02*
X140534219Y-77087028D01*
X140534219Y-77087028D02*
X140629457Y-77134647D01*
X140629457Y-77134647D02*
X140867552Y-77134647D01*
X140867552Y-77134647D02*
X140962790Y-77087028D01*
X140962790Y-77087028D02*
X141010409Y-77039409D01*
X141010409Y-77039409D02*
X141058028Y-76944171D01*
X141058028Y-76944171D02*
X141058028Y-76753695D01*
X141058028Y-76753695D02*
X141010409Y-76658457D01*
X141010409Y-76658457D02*
X140962790Y-76610838D01*
X140962790Y-76610838D02*
X140867552Y-76563219D01*
X138603372Y-73115457D02*
X138603372Y-72629742D01*
X138603372Y-72872599D02*
X139453372Y-72872599D01*
X139453372Y-72872599D02*
X139331944Y-72791647D01*
X139331944Y-72791647D02*
X139250991Y-72710695D01*
X139250991Y-72710695D02*
X139210515Y-72629742D01*
X139397820Y-75271342D02*
X139438296Y-75311818D01*
X139438296Y-75311818D02*
X139478772Y-75392771D01*
X139478772Y-75392771D02*
X139478772Y-75595152D01*
X139478772Y-75595152D02*
X139438296Y-75676104D01*
X139438296Y-75676104D02*
X139397820Y-75716580D01*
X139397820Y-75716580D02*
X139316868Y-75757057D01*
X139316868Y-75757057D02*
X139235915Y-75757057D01*
X139235915Y-75757057D02*
X139114487Y-75716580D01*
X139114487Y-75716580D02*
X138628772Y-75230866D01*
X138628772Y-75230866D02*
X138628772Y-75757057D01*
X142362572Y-90490695D02*
X142362572Y-90652599D01*
X142362572Y-90652599D02*
X142403049Y-90733552D01*
X142403049Y-90733552D02*
X142443525Y-90774028D01*
X142443525Y-90774028D02*
X142564953Y-90854980D01*
X142564953Y-90854980D02*
X142726858Y-90895457D01*
X142726858Y-90895457D02*
X143050668Y-90895457D01*
X143050668Y-90895457D02*
X143131620Y-90854980D01*
X143131620Y-90854980D02*
X143172096Y-90814504D01*
X143172096Y-90814504D02*
X143212572Y-90733552D01*
X143212572Y-90733552D02*
X143212572Y-90571647D01*
X143212572Y-90571647D02*
X143172096Y-90490695D01*
X143172096Y-90490695D02*
X143131620Y-90450218D01*
X143131620Y-90450218D02*
X143050668Y-90409742D01*
X143050668Y-90409742D02*
X142848287Y-90409742D01*
X142848287Y-90409742D02*
X142767334Y-90450218D01*
X142767334Y-90450218D02*
X142726858Y-90490695D01*
X142726858Y-90490695D02*
X142686382Y-90571647D01*
X142686382Y-90571647D02*
X142686382Y-90733552D01*
X142686382Y-90733552D02*
X142726858Y-90814504D01*
X142726858Y-90814504D02*
X142767334Y-90854980D01*
X142767334Y-90854980D02*
X142848287Y-90895457D01*
X139478772Y-83285780D02*
X139478772Y-82881018D01*
X139478772Y-82881018D02*
X139074010Y-82840542D01*
X139074010Y-82840542D02*
X139114487Y-82881018D01*
X139114487Y-82881018D02*
X139154963Y-82961971D01*
X139154963Y-82961971D02*
X139154963Y-83164352D01*
X139154963Y-83164352D02*
X139114487Y-83245304D01*
X139114487Y-83245304D02*
X139074010Y-83285780D01*
X139074010Y-83285780D02*
X138993058Y-83326257D01*
X138993058Y-83326257D02*
X138790677Y-83326257D01*
X138790677Y-83326257D02*
X138709725Y-83285780D01*
X138709725Y-83285780D02*
X138669249Y-83245304D01*
X138669249Y-83245304D02*
X138628772Y-83164352D01*
X138628772Y-83164352D02*
X138628772Y-82961971D01*
X138628772Y-82961971D02*
X138669249Y-82881018D01*
X138669249Y-82881018D02*
X138709725Y-82840542D01*
X139478772Y-77669266D02*
X139478772Y-78195457D01*
X139478772Y-78195457D02*
X139154963Y-77912123D01*
X139154963Y-77912123D02*
X139154963Y-78033552D01*
X139154963Y-78033552D02*
X139114487Y-78114504D01*
X139114487Y-78114504D02*
X139074010Y-78154980D01*
X139074010Y-78154980D02*
X138993058Y-78195457D01*
X138993058Y-78195457D02*
X138790677Y-78195457D01*
X138790677Y-78195457D02*
X138709725Y-78154980D01*
X138709725Y-78154980D02*
X138669249Y-78114504D01*
X138669249Y-78114504D02*
X138628772Y-78033552D01*
X138628772Y-78033552D02*
X138628772Y-77790695D01*
X138628772Y-77790695D02*
X138669249Y-77709742D01*
X138669249Y-77709742D02*
X138709725Y-77669266D01*
X142362572Y-77790695D02*
X142362572Y-77304980D01*
X142362572Y-77547837D02*
X143212572Y-77547837D01*
X143212572Y-77547837D02*
X143091144Y-77466885D01*
X143091144Y-77466885D02*
X143010191Y-77385933D01*
X143010191Y-77385933D02*
X142969715Y-77304980D01*
X142929239Y-78519266D02*
X142362572Y-78519266D01*
X143253049Y-78316885D02*
X142645906Y-78114504D01*
X142645906Y-78114504D02*
X142645906Y-78640695D01*
X142362572Y-72710695D02*
X142362572Y-72224980D01*
X142362572Y-72467837D02*
X143212572Y-72467837D01*
X143212572Y-72467837D02*
X143091144Y-72386885D01*
X143091144Y-72386885D02*
X143010191Y-72305933D01*
X143010191Y-72305933D02*
X142969715Y-72224980D01*
X143212572Y-73439266D02*
X143212572Y-73277361D01*
X143212572Y-73277361D02*
X143172096Y-73196409D01*
X143172096Y-73196409D02*
X143131620Y-73155933D01*
X143131620Y-73155933D02*
X143010191Y-73074980D01*
X143010191Y-73074980D02*
X142848287Y-73034504D01*
X142848287Y-73034504D02*
X142524477Y-73034504D01*
X142524477Y-73034504D02*
X142443525Y-73074980D01*
X142443525Y-73074980D02*
X142403049Y-73115457D01*
X142403049Y-73115457D02*
X142362572Y-73196409D01*
X142362572Y-73196409D02*
X142362572Y-73358314D01*
X142362572Y-73358314D02*
X142403049Y-73439266D01*
X142403049Y-73439266D02*
X142443525Y-73479742D01*
X142443525Y-73479742D02*
X142524477Y-73520219D01*
X142524477Y-73520219D02*
X142726858Y-73520219D01*
X142726858Y-73520219D02*
X142807810Y-73479742D01*
X142807810Y-73479742D02*
X142848287Y-73439266D01*
X142848287Y-73439266D02*
X142888763Y-73358314D01*
X142888763Y-73358314D02*
X142888763Y-73196409D01*
X142888763Y-73196409D02*
X142848287Y-73115457D01*
X142848287Y-73115457D02*
X142807810Y-73074980D01*
X142807810Y-73074980D02*
X142726858Y-73034504D01*
X142413372Y-80711695D02*
X142413372Y-80225980D01*
X142413372Y-80468837D02*
X143263372Y-80468837D01*
X143263372Y-80468837D02*
X143141944Y-80387885D01*
X143141944Y-80387885D02*
X143060991Y-80306933D01*
X143060991Y-80306933D02*
X143020515Y-80225980D01*
X143263372Y-80995028D02*
X143263372Y-81521219D01*
X143263372Y-81521219D02*
X142939563Y-81237885D01*
X142939563Y-81237885D02*
X142939563Y-81359314D01*
X142939563Y-81359314D02*
X142899087Y-81440266D01*
X142899087Y-81440266D02*
X142858610Y-81480742D01*
X142858610Y-81480742D02*
X142777658Y-81521219D01*
X142777658Y-81521219D02*
X142575277Y-81521219D01*
X142575277Y-81521219D02*
X142494325Y-81480742D01*
X142494325Y-81480742D02*
X142453849Y-81440266D01*
X142453849Y-81440266D02*
X142413372Y-81359314D01*
X142413372Y-81359314D02*
X142413372Y-81116457D01*
X142413372Y-81116457D02*
X142453849Y-81035504D01*
X142453849Y-81035504D02*
X142494325Y-80995028D01*
X142362572Y-85893295D02*
X142362572Y-85407580D01*
X142362572Y-85650437D02*
X143212572Y-85650437D01*
X143212572Y-85650437D02*
X143091144Y-85569485D01*
X143091144Y-85569485D02*
X143010191Y-85488533D01*
X143010191Y-85488533D02*
X142969715Y-85407580D01*
X142362572Y-86702819D02*
X142362572Y-86217104D01*
X142362572Y-86459961D02*
X143212572Y-86459961D01*
X143212572Y-86459961D02*
X143091144Y-86379009D01*
X143091144Y-86379009D02*
X143010191Y-86298057D01*
X143010191Y-86298057D02*
X142969715Y-86217104D01*
X139114487Y-90698647D02*
X139154963Y-90617695D01*
X139154963Y-90617695D02*
X139195439Y-90577218D01*
X139195439Y-90577218D02*
X139276391Y-90536742D01*
X139276391Y-90536742D02*
X139316868Y-90536742D01*
X139316868Y-90536742D02*
X139397820Y-90577218D01*
X139397820Y-90577218D02*
X139438296Y-90617695D01*
X139438296Y-90617695D02*
X139478772Y-90698647D01*
X139478772Y-90698647D02*
X139478772Y-90860552D01*
X139478772Y-90860552D02*
X139438296Y-90941504D01*
X139438296Y-90941504D02*
X139397820Y-90981980D01*
X139397820Y-90981980D02*
X139316868Y-91022457D01*
X139316868Y-91022457D02*
X139276391Y-91022457D01*
X139276391Y-91022457D02*
X139195439Y-90981980D01*
X139195439Y-90981980D02*
X139154963Y-90941504D01*
X139154963Y-90941504D02*
X139114487Y-90860552D01*
X139114487Y-90860552D02*
X139114487Y-90698647D01*
X139114487Y-90698647D02*
X139074010Y-90617695D01*
X139074010Y-90617695D02*
X139033534Y-90577218D01*
X139033534Y-90577218D02*
X138952582Y-90536742D01*
X138952582Y-90536742D02*
X138790677Y-90536742D01*
X138790677Y-90536742D02*
X138709725Y-90577218D01*
X138709725Y-90577218D02*
X138669249Y-90617695D01*
X138669249Y-90617695D02*
X138628772Y-90698647D01*
X138628772Y-90698647D02*
X138628772Y-90860552D01*
X138628772Y-90860552D02*
X138669249Y-90941504D01*
X138669249Y-90941504D02*
X138709725Y-90981980D01*
X138709725Y-90981980D02*
X138790677Y-91022457D01*
X138790677Y-91022457D02*
X138952582Y-91022457D01*
X138952582Y-91022457D02*
X139033534Y-90981980D01*
X139033534Y-90981980D02*
X139074010Y-90941504D01*
X139074010Y-90941504D02*
X139114487Y-90860552D01*
X141470296Y-87668181D02*
X141510772Y-87587228D01*
X141510772Y-87587228D02*
X141510772Y-87465800D01*
X141510772Y-87465800D02*
X141470296Y-87344371D01*
X141470296Y-87344371D02*
X141389344Y-87263419D01*
X141389344Y-87263419D02*
X141308391Y-87222942D01*
X141308391Y-87222942D02*
X141146487Y-87182466D01*
X141146487Y-87182466D02*
X141025058Y-87182466D01*
X141025058Y-87182466D02*
X140863153Y-87222942D01*
X140863153Y-87222942D02*
X140782201Y-87263419D01*
X140782201Y-87263419D02*
X140701249Y-87344371D01*
X140701249Y-87344371D02*
X140660772Y-87465800D01*
X140660772Y-87465800D02*
X140660772Y-87546752D01*
X140660772Y-87546752D02*
X140701249Y-87668181D01*
X140701249Y-87668181D02*
X140741725Y-87708657D01*
X140741725Y-87708657D02*
X141025058Y-87708657D01*
X141025058Y-87708657D02*
X141025058Y-87546752D01*
X140660772Y-88072942D02*
X141510772Y-88072942D01*
X141510772Y-88072942D02*
X140660772Y-88558657D01*
X140660772Y-88558657D02*
X141510772Y-88558657D01*
X140660772Y-88963418D02*
X141510772Y-88963418D01*
X141510772Y-88963418D02*
X141510772Y-89165799D01*
X141510772Y-89165799D02*
X141470296Y-89287228D01*
X141470296Y-89287228D02*
X141389344Y-89368180D01*
X141389344Y-89368180D02*
X141308391Y-89408657D01*
X141308391Y-89408657D02*
X141146487Y-89449133D01*
X141146487Y-89449133D02*
X141025058Y-89449133D01*
X141025058Y-89449133D02*
X140863153Y-89408657D01*
X140863153Y-89408657D02*
X140782201Y-89368180D01*
X140782201Y-89368180D02*
X140701249Y-89287228D01*
X140701249Y-89287228D02*
X140660772Y-89165799D01*
X140660772Y-89165799D02*
X140660772Y-88963418D01*
X142362572Y-75250695D02*
X142362572Y-74764980D01*
X142362572Y-75007837D02*
X143212572Y-75007837D01*
X143212572Y-75007837D02*
X143091144Y-74926885D01*
X143091144Y-74926885D02*
X143010191Y-74845933D01*
X143010191Y-74845933D02*
X142969715Y-74764980D01*
X143212572Y-76019742D02*
X143212572Y-75614980D01*
X143212572Y-75614980D02*
X142807810Y-75574504D01*
X142807810Y-75574504D02*
X142848287Y-75614980D01*
X142848287Y-75614980D02*
X142888763Y-75695933D01*
X142888763Y-75695933D02*
X142888763Y-75898314D01*
X142888763Y-75898314D02*
X142848287Y-75979266D01*
X142848287Y-75979266D02*
X142807810Y-76019742D01*
X142807810Y-76019742D02*
X142726858Y-76060219D01*
X142726858Y-76060219D02*
X142524477Y-76060219D01*
X142524477Y-76060219D02*
X142443525Y-76019742D01*
X142443525Y-76019742D02*
X142403049Y-75979266D01*
X142403049Y-75979266D02*
X142362572Y-75898314D01*
X142362572Y-75898314D02*
X142362572Y-75695933D01*
X142362572Y-75695933D02*
X142403049Y-75614980D01*
X142403049Y-75614980D02*
X142443525Y-75574504D01*
X139195439Y-80705304D02*
X138628772Y-80705304D01*
X139519249Y-80502923D02*
X138912106Y-80300542D01*
X138912106Y-80300542D02*
X138912106Y-80826733D01*
X142718172Y-83251695D02*
X142718172Y-82765980D01*
X142718172Y-83008837D02*
X143568172Y-83008837D01*
X143568172Y-83008837D02*
X143446744Y-82927885D01*
X143446744Y-82927885D02*
X143365791Y-82846933D01*
X143365791Y-82846933D02*
X143325315Y-82765980D01*
X143487220Y-83575504D02*
X143527696Y-83615980D01*
X143527696Y-83615980D02*
X143568172Y-83696933D01*
X143568172Y-83696933D02*
X143568172Y-83899314D01*
X143568172Y-83899314D02*
X143527696Y-83980266D01*
X143527696Y-83980266D02*
X143487220Y-84020742D01*
X143487220Y-84020742D02*
X143406268Y-84061219D01*
X143406268Y-84061219D02*
X143325315Y-84061219D01*
X143325315Y-84061219D02*
X143203887Y-84020742D01*
X143203887Y-84020742D02*
X142718172Y-83535028D01*
X142718172Y-83535028D02*
X142718172Y-84061219D01*
X142362572Y-88179295D02*
X142362572Y-87693580D01*
X142362572Y-87936437D02*
X143212572Y-87936437D01*
X143212572Y-87936437D02*
X143091144Y-87855485D01*
X143091144Y-87855485D02*
X143010191Y-87774533D01*
X143010191Y-87774533D02*
X142969715Y-87693580D01*
X143212572Y-88705485D02*
X143212572Y-88786438D01*
X143212572Y-88786438D02*
X143172096Y-88867390D01*
X143172096Y-88867390D02*
X143131620Y-88907866D01*
X143131620Y-88907866D02*
X143050668Y-88948342D01*
X143050668Y-88948342D02*
X142888763Y-88988819D01*
X142888763Y-88988819D02*
X142686382Y-88988819D01*
X142686382Y-88988819D02*
X142524477Y-88948342D01*
X142524477Y-88948342D02*
X142443525Y-88907866D01*
X142443525Y-88907866D02*
X142403049Y-88867390D01*
X142403049Y-88867390D02*
X142362572Y-88786438D01*
X142362572Y-88786438D02*
X142362572Y-88705485D01*
X142362572Y-88705485D02*
X142403049Y-88624533D01*
X142403049Y-88624533D02*
X142443525Y-88584057D01*
X142443525Y-88584057D02*
X142524477Y-88543580D01*
X142524477Y-88543580D02*
X142686382Y-88503104D01*
X142686382Y-88503104D02*
X142888763Y-88503104D01*
X142888763Y-88503104D02*
X143050668Y-88543580D01*
X143050668Y-88543580D02*
X143131620Y-88584057D01*
X143131620Y-88584057D02*
X143172096Y-88624533D01*
X143172096Y-88624533D02*
X143212572Y-88705485D01*
X139478772Y-85480504D02*
X139478772Y-85318599D01*
X139478772Y-85318599D02*
X139438296Y-85237647D01*
X139438296Y-85237647D02*
X139397820Y-85197171D01*
X139397820Y-85197171D02*
X139276391Y-85116218D01*
X139276391Y-85116218D02*
X139114487Y-85075742D01*
X139114487Y-85075742D02*
X138790677Y-85075742D01*
X138790677Y-85075742D02*
X138709725Y-85116218D01*
X138709725Y-85116218D02*
X138669249Y-85156695D01*
X138669249Y-85156695D02*
X138628772Y-85237647D01*
X138628772Y-85237647D02*
X138628772Y-85399552D01*
X138628772Y-85399552D02*
X138669249Y-85480504D01*
X138669249Y-85480504D02*
X138709725Y-85520980D01*
X138709725Y-85520980D02*
X138790677Y-85561457D01*
X138790677Y-85561457D02*
X138993058Y-85561457D01*
X138993058Y-85561457D02*
X139074010Y-85520980D01*
X139074010Y-85520980D02*
X139114487Y-85480504D01*
X139114487Y-85480504D02*
X139154963Y-85399552D01*
X139154963Y-85399552D02*
X139154963Y-85237647D01*
X139154963Y-85237647D02*
X139114487Y-85156695D01*
X139114487Y-85156695D02*
X139074010Y-85116218D01*
X139074010Y-85116218D02*
X138993058Y-85075742D01*
X139478772Y-87880066D02*
X139478772Y-88446733D01*
X139478772Y-88446733D02*
X138628772Y-88082447D01*
X127173372Y-73115457D02*
X127173372Y-72629742D01*
X127173372Y-72872599D02*
X128023372Y-72872599D01*
X128023372Y-72872599D02*
X127901944Y-72791647D01*
X127901944Y-72791647D02*
X127820991Y-72710695D01*
X127820991Y-72710695D02*
X127780515Y-72629742D01*
X130983372Y-80711695D02*
X130983372Y-80225980D01*
X130983372Y-80468837D02*
X131833372Y-80468837D01*
X131833372Y-80468837D02*
X131711944Y-80387885D01*
X131711944Y-80387885D02*
X131630991Y-80306933D01*
X131630991Y-80306933D02*
X131590515Y-80225980D01*
X131833372Y-80995028D02*
X131833372Y-81521219D01*
X131833372Y-81521219D02*
X131509563Y-81237885D01*
X131509563Y-81237885D02*
X131509563Y-81359314D01*
X131509563Y-81359314D02*
X131469087Y-81440266D01*
X131469087Y-81440266D02*
X131428610Y-81480742D01*
X131428610Y-81480742D02*
X131347658Y-81521219D01*
X131347658Y-81521219D02*
X131145277Y-81521219D01*
X131145277Y-81521219D02*
X131064325Y-81480742D01*
X131064325Y-81480742D02*
X131023849Y-81440266D01*
X131023849Y-81440266D02*
X130983372Y-81359314D01*
X130983372Y-81359314D02*
X130983372Y-81116457D01*
X130983372Y-81116457D02*
X131023849Y-81035504D01*
X131023849Y-81035504D02*
X131064325Y-80995028D01*
X130932572Y-90490695D02*
X130932572Y-90652599D01*
X130932572Y-90652599D02*
X130973049Y-90733552D01*
X130973049Y-90733552D02*
X131013525Y-90774028D01*
X131013525Y-90774028D02*
X131134953Y-90854980D01*
X131134953Y-90854980D02*
X131296858Y-90895457D01*
X131296858Y-90895457D02*
X131620668Y-90895457D01*
X131620668Y-90895457D02*
X131701620Y-90854980D01*
X131701620Y-90854980D02*
X131742096Y-90814504D01*
X131742096Y-90814504D02*
X131782572Y-90733552D01*
X131782572Y-90733552D02*
X131782572Y-90571647D01*
X131782572Y-90571647D02*
X131742096Y-90490695D01*
X131742096Y-90490695D02*
X131701620Y-90450218D01*
X131701620Y-90450218D02*
X131620668Y-90409742D01*
X131620668Y-90409742D02*
X131418287Y-90409742D01*
X131418287Y-90409742D02*
X131337334Y-90450218D01*
X131337334Y-90450218D02*
X131296858Y-90490695D01*
X131296858Y-90490695D02*
X131256382Y-90571647D01*
X131256382Y-90571647D02*
X131256382Y-90733552D01*
X131256382Y-90733552D02*
X131296858Y-90814504D01*
X131296858Y-90814504D02*
X131337334Y-90854980D01*
X131337334Y-90854980D02*
X131418287Y-90895457D01*
X130040296Y-87668181D02*
X130080772Y-87587228D01*
X130080772Y-87587228D02*
X130080772Y-87465800D01*
X130080772Y-87465800D02*
X130040296Y-87344371D01*
X130040296Y-87344371D02*
X129959344Y-87263419D01*
X129959344Y-87263419D02*
X129878391Y-87222942D01*
X129878391Y-87222942D02*
X129716487Y-87182466D01*
X129716487Y-87182466D02*
X129595058Y-87182466D01*
X129595058Y-87182466D02*
X129433153Y-87222942D01*
X129433153Y-87222942D02*
X129352201Y-87263419D01*
X129352201Y-87263419D02*
X129271249Y-87344371D01*
X129271249Y-87344371D02*
X129230772Y-87465800D01*
X129230772Y-87465800D02*
X129230772Y-87546752D01*
X129230772Y-87546752D02*
X129271249Y-87668181D01*
X129271249Y-87668181D02*
X129311725Y-87708657D01*
X129311725Y-87708657D02*
X129595058Y-87708657D01*
X129595058Y-87708657D02*
X129595058Y-87546752D01*
X129230772Y-88072942D02*
X130080772Y-88072942D01*
X130080772Y-88072942D02*
X129230772Y-88558657D01*
X129230772Y-88558657D02*
X130080772Y-88558657D01*
X129230772Y-88963418D02*
X130080772Y-88963418D01*
X130080772Y-88963418D02*
X130080772Y-89165799D01*
X130080772Y-89165799D02*
X130040296Y-89287228D01*
X130040296Y-89287228D02*
X129959344Y-89368180D01*
X129959344Y-89368180D02*
X129878391Y-89408657D01*
X129878391Y-89408657D02*
X129716487Y-89449133D01*
X129716487Y-89449133D02*
X129595058Y-89449133D01*
X129595058Y-89449133D02*
X129433153Y-89408657D01*
X129433153Y-89408657D02*
X129352201Y-89368180D01*
X129352201Y-89368180D02*
X129271249Y-89287228D01*
X129271249Y-89287228D02*
X129230772Y-89165799D01*
X129230772Y-89165799D02*
X129230772Y-88963418D01*
X130932572Y-85893295D02*
X130932572Y-85407580D01*
X130932572Y-85650437D02*
X131782572Y-85650437D01*
X131782572Y-85650437D02*
X131661144Y-85569485D01*
X131661144Y-85569485D02*
X131580191Y-85488533D01*
X131580191Y-85488533D02*
X131539715Y-85407580D01*
X130932572Y-86702819D02*
X130932572Y-86217104D01*
X130932572Y-86459961D02*
X131782572Y-86459961D01*
X131782572Y-86459961D02*
X131661144Y-86379009D01*
X131661144Y-86379009D02*
X131580191Y-86298057D01*
X131580191Y-86298057D02*
X131539715Y-86217104D01*
X131288172Y-83251695D02*
X131288172Y-82765980D01*
X131288172Y-83008837D02*
X132138172Y-83008837D01*
X132138172Y-83008837D02*
X132016744Y-82927885D01*
X132016744Y-82927885D02*
X131935791Y-82846933D01*
X131935791Y-82846933D02*
X131895315Y-82765980D01*
X132057220Y-83575504D02*
X132097696Y-83615980D01*
X132097696Y-83615980D02*
X132138172Y-83696933D01*
X132138172Y-83696933D02*
X132138172Y-83899314D01*
X132138172Y-83899314D02*
X132097696Y-83980266D01*
X132097696Y-83980266D02*
X132057220Y-84020742D01*
X132057220Y-84020742D02*
X131976268Y-84061219D01*
X131976268Y-84061219D02*
X131895315Y-84061219D01*
X131895315Y-84061219D02*
X131773887Y-84020742D01*
X131773887Y-84020742D02*
X131288172Y-83535028D01*
X131288172Y-83535028D02*
X131288172Y-84061219D01*
X130932572Y-75250695D02*
X130932572Y-74764980D01*
X130932572Y-75007837D02*
X131782572Y-75007837D01*
X131782572Y-75007837D02*
X131661144Y-74926885D01*
X131661144Y-74926885D02*
X131580191Y-74845933D01*
X131580191Y-74845933D02*
X131539715Y-74764980D01*
X131782572Y-76019742D02*
X131782572Y-75614980D01*
X131782572Y-75614980D02*
X131377810Y-75574504D01*
X131377810Y-75574504D02*
X131418287Y-75614980D01*
X131418287Y-75614980D02*
X131458763Y-75695933D01*
X131458763Y-75695933D02*
X131458763Y-75898314D01*
X131458763Y-75898314D02*
X131418287Y-75979266D01*
X131418287Y-75979266D02*
X131377810Y-76019742D01*
X131377810Y-76019742D02*
X131296858Y-76060219D01*
X131296858Y-76060219D02*
X131094477Y-76060219D01*
X131094477Y-76060219D02*
X131013525Y-76019742D01*
X131013525Y-76019742D02*
X130973049Y-75979266D01*
X130973049Y-75979266D02*
X130932572Y-75898314D01*
X130932572Y-75898314D02*
X130932572Y-75695933D01*
X130932572Y-75695933D02*
X130973049Y-75614980D01*
X130973049Y-75614980D02*
X131013525Y-75574504D01*
X130932572Y-72710695D02*
X130932572Y-72224980D01*
X130932572Y-72467837D02*
X131782572Y-72467837D01*
X131782572Y-72467837D02*
X131661144Y-72386885D01*
X131661144Y-72386885D02*
X131580191Y-72305933D01*
X131580191Y-72305933D02*
X131539715Y-72224980D01*
X131782572Y-73439266D02*
X131782572Y-73277361D01*
X131782572Y-73277361D02*
X131742096Y-73196409D01*
X131742096Y-73196409D02*
X131701620Y-73155933D01*
X131701620Y-73155933D02*
X131580191Y-73074980D01*
X131580191Y-73074980D02*
X131418287Y-73034504D01*
X131418287Y-73034504D02*
X131094477Y-73034504D01*
X131094477Y-73034504D02*
X131013525Y-73074980D01*
X131013525Y-73074980D02*
X130973049Y-73115457D01*
X130973049Y-73115457D02*
X130932572Y-73196409D01*
X130932572Y-73196409D02*
X130932572Y-73358314D01*
X130932572Y-73358314D02*
X130973049Y-73439266D01*
X130973049Y-73439266D02*
X131013525Y-73479742D01*
X131013525Y-73479742D02*
X131094477Y-73520219D01*
X131094477Y-73520219D02*
X131296858Y-73520219D01*
X131296858Y-73520219D02*
X131377810Y-73479742D01*
X131377810Y-73479742D02*
X131418287Y-73439266D01*
X131418287Y-73439266D02*
X131458763Y-73358314D01*
X131458763Y-73358314D02*
X131458763Y-73196409D01*
X131458763Y-73196409D02*
X131418287Y-73115457D01*
X131418287Y-73115457D02*
X131377810Y-73074980D01*
X131377810Y-73074980D02*
X131296858Y-73034504D01*
X128048772Y-77669266D02*
X128048772Y-78195457D01*
X128048772Y-78195457D02*
X127724963Y-77912123D01*
X127724963Y-77912123D02*
X127724963Y-78033552D01*
X127724963Y-78033552D02*
X127684487Y-78114504D01*
X127684487Y-78114504D02*
X127644010Y-78154980D01*
X127644010Y-78154980D02*
X127563058Y-78195457D01*
X127563058Y-78195457D02*
X127360677Y-78195457D01*
X127360677Y-78195457D02*
X127279725Y-78154980D01*
X127279725Y-78154980D02*
X127239249Y-78114504D01*
X127239249Y-78114504D02*
X127198772Y-78033552D01*
X127198772Y-78033552D02*
X127198772Y-77790695D01*
X127198772Y-77790695D02*
X127239249Y-77709742D01*
X127239249Y-77709742D02*
X127279725Y-77669266D01*
X130932572Y-88179295D02*
X130932572Y-87693580D01*
X130932572Y-87936437D02*
X131782572Y-87936437D01*
X131782572Y-87936437D02*
X131661144Y-87855485D01*
X131661144Y-87855485D02*
X131580191Y-87774533D01*
X131580191Y-87774533D02*
X131539715Y-87693580D01*
X131782572Y-88705485D02*
X131782572Y-88786438D01*
X131782572Y-88786438D02*
X131742096Y-88867390D01*
X131742096Y-88867390D02*
X131701620Y-88907866D01*
X131701620Y-88907866D02*
X131620668Y-88948342D01*
X131620668Y-88948342D02*
X131458763Y-88988819D01*
X131458763Y-88988819D02*
X131256382Y-88988819D01*
X131256382Y-88988819D02*
X131094477Y-88948342D01*
X131094477Y-88948342D02*
X131013525Y-88907866D01*
X131013525Y-88907866D02*
X130973049Y-88867390D01*
X130973049Y-88867390D02*
X130932572Y-88786438D01*
X130932572Y-88786438D02*
X130932572Y-88705485D01*
X130932572Y-88705485D02*
X130973049Y-88624533D01*
X130973049Y-88624533D02*
X131013525Y-88584057D01*
X131013525Y-88584057D02*
X131094477Y-88543580D01*
X131094477Y-88543580D02*
X131256382Y-88503104D01*
X131256382Y-88503104D02*
X131458763Y-88503104D01*
X131458763Y-88503104D02*
X131620668Y-88543580D01*
X131620668Y-88543580D02*
X131701620Y-88584057D01*
X131701620Y-88584057D02*
X131742096Y-88624533D01*
X131742096Y-88624533D02*
X131782572Y-88705485D01*
X127765439Y-80705304D02*
X127198772Y-80705304D01*
X128089249Y-80502923D02*
X127482106Y-80300542D01*
X127482106Y-80300542D02*
X127482106Y-80826733D01*
X127967820Y-75271342D02*
X128008296Y-75311818D01*
X128008296Y-75311818D02*
X128048772Y-75392771D01*
X128048772Y-75392771D02*
X128048772Y-75595152D01*
X128048772Y-75595152D02*
X128008296Y-75676104D01*
X128008296Y-75676104D02*
X127967820Y-75716580D01*
X127967820Y-75716580D02*
X127886868Y-75757057D01*
X127886868Y-75757057D02*
X127805915Y-75757057D01*
X127805915Y-75757057D02*
X127684487Y-75716580D01*
X127684487Y-75716580D02*
X127198772Y-75230866D01*
X127198772Y-75230866D02*
X127198772Y-75757057D01*
X130932572Y-77790695D02*
X130932572Y-77304980D01*
X130932572Y-77547837D02*
X131782572Y-77547837D01*
X131782572Y-77547837D02*
X131661144Y-77466885D01*
X131661144Y-77466885D02*
X131580191Y-77385933D01*
X131580191Y-77385933D02*
X131539715Y-77304980D01*
X131499239Y-78519266D02*
X130932572Y-78519266D01*
X131823049Y-78316885D02*
X131215906Y-78114504D01*
X131215906Y-78114504D02*
X131215906Y-78640695D01*
X128048772Y-85480504D02*
X128048772Y-85318599D01*
X128048772Y-85318599D02*
X128008296Y-85237647D01*
X128008296Y-85237647D02*
X127967820Y-85197171D01*
X127967820Y-85197171D02*
X127846391Y-85116218D01*
X127846391Y-85116218D02*
X127684487Y-85075742D01*
X127684487Y-85075742D02*
X127360677Y-85075742D01*
X127360677Y-85075742D02*
X127279725Y-85116218D01*
X127279725Y-85116218D02*
X127239249Y-85156695D01*
X127239249Y-85156695D02*
X127198772Y-85237647D01*
X127198772Y-85237647D02*
X127198772Y-85399552D01*
X127198772Y-85399552D02*
X127239249Y-85480504D01*
X127239249Y-85480504D02*
X127279725Y-85520980D01*
X127279725Y-85520980D02*
X127360677Y-85561457D01*
X127360677Y-85561457D02*
X127563058Y-85561457D01*
X127563058Y-85561457D02*
X127644010Y-85520980D01*
X127644010Y-85520980D02*
X127684487Y-85480504D01*
X127684487Y-85480504D02*
X127724963Y-85399552D01*
X127724963Y-85399552D02*
X127724963Y-85237647D01*
X127724963Y-85237647D02*
X127684487Y-85156695D01*
X127684487Y-85156695D02*
X127644010Y-85116218D01*
X127644010Y-85116218D02*
X127563058Y-85075742D01*
X128048772Y-83285780D02*
X128048772Y-82881018D01*
X128048772Y-82881018D02*
X127644010Y-82840542D01*
X127644010Y-82840542D02*
X127684487Y-82881018D01*
X127684487Y-82881018D02*
X127724963Y-82961971D01*
X127724963Y-82961971D02*
X127724963Y-83164352D01*
X127724963Y-83164352D02*
X127684487Y-83245304D01*
X127684487Y-83245304D02*
X127644010Y-83285780D01*
X127644010Y-83285780D02*
X127563058Y-83326257D01*
X127563058Y-83326257D02*
X127360677Y-83326257D01*
X127360677Y-83326257D02*
X127279725Y-83285780D01*
X127279725Y-83285780D02*
X127239249Y-83245304D01*
X127239249Y-83245304D02*
X127198772Y-83164352D01*
X127198772Y-83164352D02*
X127198772Y-82961971D01*
X127198772Y-82961971D02*
X127239249Y-82881018D01*
X127239249Y-82881018D02*
X127279725Y-82840542D01*
X127684487Y-90698647D02*
X127724963Y-90617695D01*
X127724963Y-90617695D02*
X127765439Y-90577218D01*
X127765439Y-90577218D02*
X127846391Y-90536742D01*
X127846391Y-90536742D02*
X127886868Y-90536742D01*
X127886868Y-90536742D02*
X127967820Y-90577218D01*
X127967820Y-90577218D02*
X128008296Y-90617695D01*
X128008296Y-90617695D02*
X128048772Y-90698647D01*
X128048772Y-90698647D02*
X128048772Y-90860552D01*
X128048772Y-90860552D02*
X128008296Y-90941504D01*
X128008296Y-90941504D02*
X127967820Y-90981980D01*
X127967820Y-90981980D02*
X127886868Y-91022457D01*
X127886868Y-91022457D02*
X127846391Y-91022457D01*
X127846391Y-91022457D02*
X127765439Y-90981980D01*
X127765439Y-90981980D02*
X127724963Y-90941504D01*
X127724963Y-90941504D02*
X127684487Y-90860552D01*
X127684487Y-90860552D02*
X127684487Y-90698647D01*
X127684487Y-90698647D02*
X127644010Y-90617695D01*
X127644010Y-90617695D02*
X127603534Y-90577218D01*
X127603534Y-90577218D02*
X127522582Y-90536742D01*
X127522582Y-90536742D02*
X127360677Y-90536742D01*
X127360677Y-90536742D02*
X127279725Y-90577218D01*
X127279725Y-90577218D02*
X127239249Y-90617695D01*
X127239249Y-90617695D02*
X127198772Y-90698647D01*
X127198772Y-90698647D02*
X127198772Y-90860552D01*
X127198772Y-90860552D02*
X127239249Y-90941504D01*
X127239249Y-90941504D02*
X127279725Y-90981980D01*
X127279725Y-90981980D02*
X127360677Y-91022457D01*
X127360677Y-91022457D02*
X127522582Y-91022457D01*
X127522582Y-91022457D02*
X127603534Y-90981980D01*
X127603534Y-90981980D02*
X127644010Y-90941504D01*
X127644010Y-90941504D02*
X127684487Y-90860552D01*
X128048772Y-87880066D02*
X128048772Y-88446733D01*
X128048772Y-88446733D02*
X127198772Y-88082447D01*
X129056600Y-70896553D02*
X129008980Y-71039410D01*
X129008980Y-71039410D02*
X129008980Y-71277505D01*
X129008980Y-71277505D02*
X129056600Y-71372743D01*
X129056600Y-71372743D02*
X129104219Y-71420362D01*
X129104219Y-71420362D02*
X129199457Y-71467981D01*
X129199457Y-71467981D02*
X129294695Y-71467981D01*
X129294695Y-71467981D02*
X129389933Y-71420362D01*
X129389933Y-71420362D02*
X129437552Y-71372743D01*
X129437552Y-71372743D02*
X129485171Y-71277505D01*
X129485171Y-71277505D02*
X129532790Y-71087029D01*
X129532790Y-71087029D02*
X129580409Y-70991791D01*
X129580409Y-70991791D02*
X129628028Y-70944172D01*
X129628028Y-70944172D02*
X129723266Y-70896553D01*
X129723266Y-70896553D02*
X129818504Y-70896553D01*
X129818504Y-70896553D02*
X129913742Y-70944172D01*
X129913742Y-70944172D02*
X129961361Y-70991791D01*
X129961361Y-70991791D02*
X130008980Y-71087029D01*
X130008980Y-71087029D02*
X130008980Y-71325124D01*
X130008980Y-71325124D02*
X129961361Y-71467981D01*
X130008980Y-72087029D02*
X130008980Y-72277505D01*
X130008980Y-72277505D02*
X129961361Y-72372743D01*
X129961361Y-72372743D02*
X129866123Y-72467981D01*
X129866123Y-72467981D02*
X129675647Y-72515600D01*
X129675647Y-72515600D02*
X129342314Y-72515600D01*
X129342314Y-72515600D02*
X129151838Y-72467981D01*
X129151838Y-72467981D02*
X129056600Y-72372743D01*
X129056600Y-72372743D02*
X129008980Y-72277505D01*
X129008980Y-72277505D02*
X129008980Y-72087029D01*
X129008980Y-72087029D02*
X129056600Y-71991791D01*
X129056600Y-71991791D02*
X129151838Y-71896553D01*
X129151838Y-71896553D02*
X129342314Y-71848934D01*
X129342314Y-71848934D02*
X129675647Y-71848934D01*
X129675647Y-71848934D02*
X129866123Y-71896553D01*
X129866123Y-71896553D02*
X129961361Y-71991791D01*
X129961361Y-71991791D02*
X130008980Y-72087029D01*
X129008980Y-72944172D02*
X130008980Y-72944172D01*
X129104219Y-73991790D02*
X129056600Y-73944171D01*
X129056600Y-73944171D02*
X129008980Y-73801314D01*
X129008980Y-73801314D02*
X129008980Y-73706076D01*
X129008980Y-73706076D02*
X129056600Y-73563219D01*
X129056600Y-73563219D02*
X129151838Y-73467981D01*
X129151838Y-73467981D02*
X129247076Y-73420362D01*
X129247076Y-73420362D02*
X129437552Y-73372743D01*
X129437552Y-73372743D02*
X129580409Y-73372743D01*
X129580409Y-73372743D02*
X129770885Y-73420362D01*
X129770885Y-73420362D02*
X129866123Y-73467981D01*
X129866123Y-73467981D02*
X129961361Y-73563219D01*
X129961361Y-73563219D02*
X130008980Y-73706076D01*
X130008980Y-73706076D02*
X130008980Y-73801314D01*
X130008980Y-73801314D02*
X129961361Y-73944171D01*
X129961361Y-73944171D02*
X129913742Y-73991790D01*
X129389933Y-74420362D02*
X129389933Y-75182267D01*
X129008980Y-76182266D02*
X129008980Y-75610838D01*
X129008980Y-75896552D02*
X130008980Y-75896552D01*
X130008980Y-75896552D02*
X129866123Y-75801314D01*
X129866123Y-75801314D02*
X129770885Y-75706076D01*
X129770885Y-75706076D02*
X129723266Y-75610838D01*
X130008980Y-77039409D02*
X130008980Y-76848933D01*
X130008980Y-76848933D02*
X129961361Y-76753695D01*
X129961361Y-76753695D02*
X129913742Y-76706076D01*
X129913742Y-76706076D02*
X129770885Y-76610838D01*
X129770885Y-76610838D02*
X129580409Y-76563219D01*
X129580409Y-76563219D02*
X129199457Y-76563219D01*
X129199457Y-76563219D02*
X129104219Y-76610838D01*
X129104219Y-76610838D02*
X129056600Y-76658457D01*
X129056600Y-76658457D02*
X129008980Y-76753695D01*
X129008980Y-76753695D02*
X129008980Y-76944171D01*
X129008980Y-76944171D02*
X129056600Y-77039409D01*
X129056600Y-77039409D02*
X129104219Y-77087028D01*
X129104219Y-77087028D02*
X129199457Y-77134647D01*
X129199457Y-77134647D02*
X129437552Y-77134647D01*
X129437552Y-77134647D02*
X129532790Y-77087028D01*
X129532790Y-77087028D02*
X129580409Y-77039409D01*
X129580409Y-77039409D02*
X129628028Y-76944171D01*
X129628028Y-76944171D02*
X129628028Y-76753695D01*
X129628028Y-76753695D02*
X129580409Y-76658457D01*
X129580409Y-76658457D02*
X129532790Y-76610838D01*
X129532790Y-76610838D02*
X129437552Y-76563219D01*
X116618772Y-85480504D02*
X116618772Y-85318599D01*
X116618772Y-85318599D02*
X116578296Y-85237647D01*
X116578296Y-85237647D02*
X116537820Y-85197171D01*
X116537820Y-85197171D02*
X116416391Y-85116218D01*
X116416391Y-85116218D02*
X116254487Y-85075742D01*
X116254487Y-85075742D02*
X115930677Y-85075742D01*
X115930677Y-85075742D02*
X115849725Y-85116218D01*
X115849725Y-85116218D02*
X115809249Y-85156695D01*
X115809249Y-85156695D02*
X115768772Y-85237647D01*
X115768772Y-85237647D02*
X115768772Y-85399552D01*
X115768772Y-85399552D02*
X115809249Y-85480504D01*
X115809249Y-85480504D02*
X115849725Y-85520980D01*
X115849725Y-85520980D02*
X115930677Y-85561457D01*
X115930677Y-85561457D02*
X116133058Y-85561457D01*
X116133058Y-85561457D02*
X116214010Y-85520980D01*
X116214010Y-85520980D02*
X116254487Y-85480504D01*
X116254487Y-85480504D02*
X116294963Y-85399552D01*
X116294963Y-85399552D02*
X116294963Y-85237647D01*
X116294963Y-85237647D02*
X116254487Y-85156695D01*
X116254487Y-85156695D02*
X116214010Y-85116218D01*
X116214010Y-85116218D02*
X116133058Y-85075742D01*
X117626600Y-70896553D02*
X117578980Y-71039410D01*
X117578980Y-71039410D02*
X117578980Y-71277505D01*
X117578980Y-71277505D02*
X117626600Y-71372743D01*
X117626600Y-71372743D02*
X117674219Y-71420362D01*
X117674219Y-71420362D02*
X117769457Y-71467981D01*
X117769457Y-71467981D02*
X117864695Y-71467981D01*
X117864695Y-71467981D02*
X117959933Y-71420362D01*
X117959933Y-71420362D02*
X118007552Y-71372743D01*
X118007552Y-71372743D02*
X118055171Y-71277505D01*
X118055171Y-71277505D02*
X118102790Y-71087029D01*
X118102790Y-71087029D02*
X118150409Y-70991791D01*
X118150409Y-70991791D02*
X118198028Y-70944172D01*
X118198028Y-70944172D02*
X118293266Y-70896553D01*
X118293266Y-70896553D02*
X118388504Y-70896553D01*
X118388504Y-70896553D02*
X118483742Y-70944172D01*
X118483742Y-70944172D02*
X118531361Y-70991791D01*
X118531361Y-70991791D02*
X118578980Y-71087029D01*
X118578980Y-71087029D02*
X118578980Y-71325124D01*
X118578980Y-71325124D02*
X118531361Y-71467981D01*
X118578980Y-72087029D02*
X118578980Y-72277505D01*
X118578980Y-72277505D02*
X118531361Y-72372743D01*
X118531361Y-72372743D02*
X118436123Y-72467981D01*
X118436123Y-72467981D02*
X118245647Y-72515600D01*
X118245647Y-72515600D02*
X117912314Y-72515600D01*
X117912314Y-72515600D02*
X117721838Y-72467981D01*
X117721838Y-72467981D02*
X117626600Y-72372743D01*
X117626600Y-72372743D02*
X117578980Y-72277505D01*
X117578980Y-72277505D02*
X117578980Y-72087029D01*
X117578980Y-72087029D02*
X117626600Y-71991791D01*
X117626600Y-71991791D02*
X117721838Y-71896553D01*
X117721838Y-71896553D02*
X117912314Y-71848934D01*
X117912314Y-71848934D02*
X118245647Y-71848934D01*
X118245647Y-71848934D02*
X118436123Y-71896553D01*
X118436123Y-71896553D02*
X118531361Y-71991791D01*
X118531361Y-71991791D02*
X118578980Y-72087029D01*
X117578980Y-72944172D02*
X118578980Y-72944172D01*
X117674219Y-73991790D02*
X117626600Y-73944171D01*
X117626600Y-73944171D02*
X117578980Y-73801314D01*
X117578980Y-73801314D02*
X117578980Y-73706076D01*
X117578980Y-73706076D02*
X117626600Y-73563219D01*
X117626600Y-73563219D02*
X117721838Y-73467981D01*
X117721838Y-73467981D02*
X117817076Y-73420362D01*
X117817076Y-73420362D02*
X118007552Y-73372743D01*
X118007552Y-73372743D02*
X118150409Y-73372743D01*
X118150409Y-73372743D02*
X118340885Y-73420362D01*
X118340885Y-73420362D02*
X118436123Y-73467981D01*
X118436123Y-73467981D02*
X118531361Y-73563219D01*
X118531361Y-73563219D02*
X118578980Y-73706076D01*
X118578980Y-73706076D02*
X118578980Y-73801314D01*
X118578980Y-73801314D02*
X118531361Y-73944171D01*
X118531361Y-73944171D02*
X118483742Y-73991790D01*
X117959933Y-74420362D02*
X117959933Y-75182267D01*
X117578980Y-76182266D02*
X117578980Y-75610838D01*
X117578980Y-75896552D02*
X118578980Y-75896552D01*
X118578980Y-75896552D02*
X118436123Y-75801314D01*
X118436123Y-75801314D02*
X118340885Y-75706076D01*
X118340885Y-75706076D02*
X118293266Y-75610838D01*
X118578980Y-77039409D02*
X118578980Y-76848933D01*
X118578980Y-76848933D02*
X118531361Y-76753695D01*
X118531361Y-76753695D02*
X118483742Y-76706076D01*
X118483742Y-76706076D02*
X118340885Y-76610838D01*
X118340885Y-76610838D02*
X118150409Y-76563219D01*
X118150409Y-76563219D02*
X117769457Y-76563219D01*
X117769457Y-76563219D02*
X117674219Y-76610838D01*
X117674219Y-76610838D02*
X117626600Y-76658457D01*
X117626600Y-76658457D02*
X117578980Y-76753695D01*
X117578980Y-76753695D02*
X117578980Y-76944171D01*
X117578980Y-76944171D02*
X117626600Y-77039409D01*
X117626600Y-77039409D02*
X117674219Y-77087028D01*
X117674219Y-77087028D02*
X117769457Y-77134647D01*
X117769457Y-77134647D02*
X118007552Y-77134647D01*
X118007552Y-77134647D02*
X118102790Y-77087028D01*
X118102790Y-77087028D02*
X118150409Y-77039409D01*
X118150409Y-77039409D02*
X118198028Y-76944171D01*
X118198028Y-76944171D02*
X118198028Y-76753695D01*
X118198028Y-76753695D02*
X118150409Y-76658457D01*
X118150409Y-76658457D02*
X118102790Y-76610838D01*
X118102790Y-76610838D02*
X118007552Y-76563219D01*
X116618772Y-83285780D02*
X116618772Y-82881018D01*
X116618772Y-82881018D02*
X116214010Y-82840542D01*
X116214010Y-82840542D02*
X116254487Y-82881018D01*
X116254487Y-82881018D02*
X116294963Y-82961971D01*
X116294963Y-82961971D02*
X116294963Y-83164352D01*
X116294963Y-83164352D02*
X116254487Y-83245304D01*
X116254487Y-83245304D02*
X116214010Y-83285780D01*
X116214010Y-83285780D02*
X116133058Y-83326257D01*
X116133058Y-83326257D02*
X115930677Y-83326257D01*
X115930677Y-83326257D02*
X115849725Y-83285780D01*
X115849725Y-83285780D02*
X115809249Y-83245304D01*
X115809249Y-83245304D02*
X115768772Y-83164352D01*
X115768772Y-83164352D02*
X115768772Y-82961971D01*
X115768772Y-82961971D02*
X115809249Y-82881018D01*
X115809249Y-82881018D02*
X115849725Y-82840542D01*
X116254487Y-90698647D02*
X116294963Y-90617695D01*
X116294963Y-90617695D02*
X116335439Y-90577218D01*
X116335439Y-90577218D02*
X116416391Y-90536742D01*
X116416391Y-90536742D02*
X116456868Y-90536742D01*
X116456868Y-90536742D02*
X116537820Y-90577218D01*
X116537820Y-90577218D02*
X116578296Y-90617695D01*
X116578296Y-90617695D02*
X116618772Y-90698647D01*
X116618772Y-90698647D02*
X116618772Y-90860552D01*
X116618772Y-90860552D02*
X116578296Y-90941504D01*
X116578296Y-90941504D02*
X116537820Y-90981980D01*
X116537820Y-90981980D02*
X116456868Y-91022457D01*
X116456868Y-91022457D02*
X116416391Y-91022457D01*
X116416391Y-91022457D02*
X116335439Y-90981980D01*
X116335439Y-90981980D02*
X116294963Y-90941504D01*
X116294963Y-90941504D02*
X116254487Y-90860552D01*
X116254487Y-90860552D02*
X116254487Y-90698647D01*
X116254487Y-90698647D02*
X116214010Y-90617695D01*
X116214010Y-90617695D02*
X116173534Y-90577218D01*
X116173534Y-90577218D02*
X116092582Y-90536742D01*
X116092582Y-90536742D02*
X115930677Y-90536742D01*
X115930677Y-90536742D02*
X115849725Y-90577218D01*
X115849725Y-90577218D02*
X115809249Y-90617695D01*
X115809249Y-90617695D02*
X115768772Y-90698647D01*
X115768772Y-90698647D02*
X115768772Y-90860552D01*
X115768772Y-90860552D02*
X115809249Y-90941504D01*
X115809249Y-90941504D02*
X115849725Y-90981980D01*
X115849725Y-90981980D02*
X115930677Y-91022457D01*
X115930677Y-91022457D02*
X116092582Y-91022457D01*
X116092582Y-91022457D02*
X116173534Y-90981980D01*
X116173534Y-90981980D02*
X116214010Y-90941504D01*
X116214010Y-90941504D02*
X116254487Y-90860552D01*
X119502572Y-77790695D02*
X119502572Y-77304980D01*
X119502572Y-77547837D02*
X120352572Y-77547837D01*
X120352572Y-77547837D02*
X120231144Y-77466885D01*
X120231144Y-77466885D02*
X120150191Y-77385933D01*
X120150191Y-77385933D02*
X120109715Y-77304980D01*
X120069239Y-78519266D02*
X119502572Y-78519266D01*
X120393049Y-78316885D02*
X119785906Y-78114504D01*
X119785906Y-78114504D02*
X119785906Y-78640695D01*
X116618772Y-87880066D02*
X116618772Y-88446733D01*
X116618772Y-88446733D02*
X115768772Y-88082447D01*
X116537820Y-75271342D02*
X116578296Y-75311818D01*
X116578296Y-75311818D02*
X116618772Y-75392771D01*
X116618772Y-75392771D02*
X116618772Y-75595152D01*
X116618772Y-75595152D02*
X116578296Y-75676104D01*
X116578296Y-75676104D02*
X116537820Y-75716580D01*
X116537820Y-75716580D02*
X116456868Y-75757057D01*
X116456868Y-75757057D02*
X116375915Y-75757057D01*
X116375915Y-75757057D02*
X116254487Y-75716580D01*
X116254487Y-75716580D02*
X115768772Y-75230866D01*
X115768772Y-75230866D02*
X115768772Y-75757057D01*
X118610296Y-87668181D02*
X118650772Y-87587228D01*
X118650772Y-87587228D02*
X118650772Y-87465800D01*
X118650772Y-87465800D02*
X118610296Y-87344371D01*
X118610296Y-87344371D02*
X118529344Y-87263419D01*
X118529344Y-87263419D02*
X118448391Y-87222942D01*
X118448391Y-87222942D02*
X118286487Y-87182466D01*
X118286487Y-87182466D02*
X118165058Y-87182466D01*
X118165058Y-87182466D02*
X118003153Y-87222942D01*
X118003153Y-87222942D02*
X117922201Y-87263419D01*
X117922201Y-87263419D02*
X117841249Y-87344371D01*
X117841249Y-87344371D02*
X117800772Y-87465800D01*
X117800772Y-87465800D02*
X117800772Y-87546752D01*
X117800772Y-87546752D02*
X117841249Y-87668181D01*
X117841249Y-87668181D02*
X117881725Y-87708657D01*
X117881725Y-87708657D02*
X118165058Y-87708657D01*
X118165058Y-87708657D02*
X118165058Y-87546752D01*
X117800772Y-88072942D02*
X118650772Y-88072942D01*
X118650772Y-88072942D02*
X117800772Y-88558657D01*
X117800772Y-88558657D02*
X118650772Y-88558657D01*
X117800772Y-88963418D02*
X118650772Y-88963418D01*
X118650772Y-88963418D02*
X118650772Y-89165799D01*
X118650772Y-89165799D02*
X118610296Y-89287228D01*
X118610296Y-89287228D02*
X118529344Y-89368180D01*
X118529344Y-89368180D02*
X118448391Y-89408657D01*
X118448391Y-89408657D02*
X118286487Y-89449133D01*
X118286487Y-89449133D02*
X118165058Y-89449133D01*
X118165058Y-89449133D02*
X118003153Y-89408657D01*
X118003153Y-89408657D02*
X117922201Y-89368180D01*
X117922201Y-89368180D02*
X117841249Y-89287228D01*
X117841249Y-89287228D02*
X117800772Y-89165799D01*
X117800772Y-89165799D02*
X117800772Y-88963418D01*
X119502572Y-85893295D02*
X119502572Y-85407580D01*
X119502572Y-85650437D02*
X120352572Y-85650437D01*
X120352572Y-85650437D02*
X120231144Y-85569485D01*
X120231144Y-85569485D02*
X120150191Y-85488533D01*
X120150191Y-85488533D02*
X120109715Y-85407580D01*
X119502572Y-86702819D02*
X119502572Y-86217104D01*
X119502572Y-86459961D02*
X120352572Y-86459961D01*
X120352572Y-86459961D02*
X120231144Y-86379009D01*
X120231144Y-86379009D02*
X120150191Y-86298057D01*
X120150191Y-86298057D02*
X120109715Y-86217104D01*
X115743372Y-73115457D02*
X115743372Y-72629742D01*
X115743372Y-72872599D02*
X116593372Y-72872599D01*
X116593372Y-72872599D02*
X116471944Y-72791647D01*
X116471944Y-72791647D02*
X116390991Y-72710695D01*
X116390991Y-72710695D02*
X116350515Y-72629742D01*
X119553372Y-80711695D02*
X119553372Y-80225980D01*
X119553372Y-80468837D02*
X120403372Y-80468837D01*
X120403372Y-80468837D02*
X120281944Y-80387885D01*
X120281944Y-80387885D02*
X120200991Y-80306933D01*
X120200991Y-80306933D02*
X120160515Y-80225980D01*
X120403372Y-80995028D02*
X120403372Y-81521219D01*
X120403372Y-81521219D02*
X120079563Y-81237885D01*
X120079563Y-81237885D02*
X120079563Y-81359314D01*
X120079563Y-81359314D02*
X120039087Y-81440266D01*
X120039087Y-81440266D02*
X119998610Y-81480742D01*
X119998610Y-81480742D02*
X119917658Y-81521219D01*
X119917658Y-81521219D02*
X119715277Y-81521219D01*
X119715277Y-81521219D02*
X119634325Y-81480742D01*
X119634325Y-81480742D02*
X119593849Y-81440266D01*
X119593849Y-81440266D02*
X119553372Y-81359314D01*
X119553372Y-81359314D02*
X119553372Y-81116457D01*
X119553372Y-81116457D02*
X119593849Y-81035504D01*
X119593849Y-81035504D02*
X119634325Y-80995028D01*
X119502572Y-90490695D02*
X119502572Y-90652599D01*
X119502572Y-90652599D02*
X119543049Y-90733552D01*
X119543049Y-90733552D02*
X119583525Y-90774028D01*
X119583525Y-90774028D02*
X119704953Y-90854980D01*
X119704953Y-90854980D02*
X119866858Y-90895457D01*
X119866858Y-90895457D02*
X120190668Y-90895457D01*
X120190668Y-90895457D02*
X120271620Y-90854980D01*
X120271620Y-90854980D02*
X120312096Y-90814504D01*
X120312096Y-90814504D02*
X120352572Y-90733552D01*
X120352572Y-90733552D02*
X120352572Y-90571647D01*
X120352572Y-90571647D02*
X120312096Y-90490695D01*
X120312096Y-90490695D02*
X120271620Y-90450218D01*
X120271620Y-90450218D02*
X120190668Y-90409742D01*
X120190668Y-90409742D02*
X119988287Y-90409742D01*
X119988287Y-90409742D02*
X119907334Y-90450218D01*
X119907334Y-90450218D02*
X119866858Y-90490695D01*
X119866858Y-90490695D02*
X119826382Y-90571647D01*
X119826382Y-90571647D02*
X119826382Y-90733552D01*
X119826382Y-90733552D02*
X119866858Y-90814504D01*
X119866858Y-90814504D02*
X119907334Y-90854980D01*
X119907334Y-90854980D02*
X119988287Y-90895457D01*
X119858172Y-83251695D02*
X119858172Y-82765980D01*
X119858172Y-83008837D02*
X120708172Y-83008837D01*
X120708172Y-83008837D02*
X120586744Y-82927885D01*
X120586744Y-82927885D02*
X120505791Y-82846933D01*
X120505791Y-82846933D02*
X120465315Y-82765980D01*
X120627220Y-83575504D02*
X120667696Y-83615980D01*
X120667696Y-83615980D02*
X120708172Y-83696933D01*
X120708172Y-83696933D02*
X120708172Y-83899314D01*
X120708172Y-83899314D02*
X120667696Y-83980266D01*
X120667696Y-83980266D02*
X120627220Y-84020742D01*
X120627220Y-84020742D02*
X120546268Y-84061219D01*
X120546268Y-84061219D02*
X120465315Y-84061219D01*
X120465315Y-84061219D02*
X120343887Y-84020742D01*
X120343887Y-84020742D02*
X119858172Y-83535028D01*
X119858172Y-83535028D02*
X119858172Y-84061219D01*
X119502572Y-88179295D02*
X119502572Y-87693580D01*
X119502572Y-87936437D02*
X120352572Y-87936437D01*
X120352572Y-87936437D02*
X120231144Y-87855485D01*
X120231144Y-87855485D02*
X120150191Y-87774533D01*
X120150191Y-87774533D02*
X120109715Y-87693580D01*
X120352572Y-88705485D02*
X120352572Y-88786438D01*
X120352572Y-88786438D02*
X120312096Y-88867390D01*
X120312096Y-88867390D02*
X120271620Y-88907866D01*
X120271620Y-88907866D02*
X120190668Y-88948342D01*
X120190668Y-88948342D02*
X120028763Y-88988819D01*
X120028763Y-88988819D02*
X119826382Y-88988819D01*
X119826382Y-88988819D02*
X119664477Y-88948342D01*
X119664477Y-88948342D02*
X119583525Y-88907866D01*
X119583525Y-88907866D02*
X119543049Y-88867390D01*
X119543049Y-88867390D02*
X119502572Y-88786438D01*
X119502572Y-88786438D02*
X119502572Y-88705485D01*
X119502572Y-88705485D02*
X119543049Y-88624533D01*
X119543049Y-88624533D02*
X119583525Y-88584057D01*
X119583525Y-88584057D02*
X119664477Y-88543580D01*
X119664477Y-88543580D02*
X119826382Y-88503104D01*
X119826382Y-88503104D02*
X120028763Y-88503104D01*
X120028763Y-88503104D02*
X120190668Y-88543580D01*
X120190668Y-88543580D02*
X120271620Y-88584057D01*
X120271620Y-88584057D02*
X120312096Y-88624533D01*
X120312096Y-88624533D02*
X120352572Y-88705485D01*
X116335439Y-80705304D02*
X115768772Y-80705304D01*
X116659249Y-80502923D02*
X116052106Y-80300542D01*
X116052106Y-80300542D02*
X116052106Y-80826733D01*
X119502572Y-75250695D02*
X119502572Y-74764980D01*
X119502572Y-75007837D02*
X120352572Y-75007837D01*
X120352572Y-75007837D02*
X120231144Y-74926885D01*
X120231144Y-74926885D02*
X120150191Y-74845933D01*
X120150191Y-74845933D02*
X120109715Y-74764980D01*
X120352572Y-76019742D02*
X120352572Y-75614980D01*
X120352572Y-75614980D02*
X119947810Y-75574504D01*
X119947810Y-75574504D02*
X119988287Y-75614980D01*
X119988287Y-75614980D02*
X120028763Y-75695933D01*
X120028763Y-75695933D02*
X120028763Y-75898314D01*
X120028763Y-75898314D02*
X119988287Y-75979266D01*
X119988287Y-75979266D02*
X119947810Y-76019742D01*
X119947810Y-76019742D02*
X119866858Y-76060219D01*
X119866858Y-76060219D02*
X119664477Y-76060219D01*
X119664477Y-76060219D02*
X119583525Y-76019742D01*
X119583525Y-76019742D02*
X119543049Y-75979266D01*
X119543049Y-75979266D02*
X119502572Y-75898314D01*
X119502572Y-75898314D02*
X119502572Y-75695933D01*
X119502572Y-75695933D02*
X119543049Y-75614980D01*
X119543049Y-75614980D02*
X119583525Y-75574504D01*
X119502572Y-72710695D02*
X119502572Y-72224980D01*
X119502572Y-72467837D02*
X120352572Y-72467837D01*
X120352572Y-72467837D02*
X120231144Y-72386885D01*
X120231144Y-72386885D02*
X120150191Y-72305933D01*
X120150191Y-72305933D02*
X120109715Y-72224980D01*
X120352572Y-73439266D02*
X120352572Y-73277361D01*
X120352572Y-73277361D02*
X120312096Y-73196409D01*
X120312096Y-73196409D02*
X120271620Y-73155933D01*
X120271620Y-73155933D02*
X120150191Y-73074980D01*
X120150191Y-73074980D02*
X119988287Y-73034504D01*
X119988287Y-73034504D02*
X119664477Y-73034504D01*
X119664477Y-73034504D02*
X119583525Y-73074980D01*
X119583525Y-73074980D02*
X119543049Y-73115457D01*
X119543049Y-73115457D02*
X119502572Y-73196409D01*
X119502572Y-73196409D02*
X119502572Y-73358314D01*
X119502572Y-73358314D02*
X119543049Y-73439266D01*
X119543049Y-73439266D02*
X119583525Y-73479742D01*
X119583525Y-73479742D02*
X119664477Y-73520219D01*
X119664477Y-73520219D02*
X119866858Y-73520219D01*
X119866858Y-73520219D02*
X119947810Y-73479742D01*
X119947810Y-73479742D02*
X119988287Y-73439266D01*
X119988287Y-73439266D02*
X120028763Y-73358314D01*
X120028763Y-73358314D02*
X120028763Y-73196409D01*
X120028763Y-73196409D02*
X119988287Y-73115457D01*
X119988287Y-73115457D02*
X119947810Y-73074980D01*
X119947810Y-73074980D02*
X119866858Y-73034504D01*
X116618772Y-77669266D02*
X116618772Y-78195457D01*
X116618772Y-78195457D02*
X116294963Y-77912123D01*
X116294963Y-77912123D02*
X116294963Y-78033552D01*
X116294963Y-78033552D02*
X116254487Y-78114504D01*
X116254487Y-78114504D02*
X116214010Y-78154980D01*
X116214010Y-78154980D02*
X116133058Y-78195457D01*
X116133058Y-78195457D02*
X115930677Y-78195457D01*
X115930677Y-78195457D02*
X115849725Y-78154980D01*
X115849725Y-78154980D02*
X115809249Y-78114504D01*
X115809249Y-78114504D02*
X115768772Y-78033552D01*
X115768772Y-78033552D02*
X115768772Y-77790695D01*
X115768772Y-77790695D02*
X115809249Y-77709742D01*
X115809249Y-77709742D02*
X115849725Y-77669266D01*
X105188772Y-85480504D02*
X105188772Y-85318599D01*
X105188772Y-85318599D02*
X105148296Y-85237647D01*
X105148296Y-85237647D02*
X105107820Y-85197171D01*
X105107820Y-85197171D02*
X104986391Y-85116218D01*
X104986391Y-85116218D02*
X104824487Y-85075742D01*
X104824487Y-85075742D02*
X104500677Y-85075742D01*
X104500677Y-85075742D02*
X104419725Y-85116218D01*
X104419725Y-85116218D02*
X104379249Y-85156695D01*
X104379249Y-85156695D02*
X104338772Y-85237647D01*
X104338772Y-85237647D02*
X104338772Y-85399552D01*
X104338772Y-85399552D02*
X104379249Y-85480504D01*
X104379249Y-85480504D02*
X104419725Y-85520980D01*
X104419725Y-85520980D02*
X104500677Y-85561457D01*
X104500677Y-85561457D02*
X104703058Y-85561457D01*
X104703058Y-85561457D02*
X104784010Y-85520980D01*
X104784010Y-85520980D02*
X104824487Y-85480504D01*
X104824487Y-85480504D02*
X104864963Y-85399552D01*
X104864963Y-85399552D02*
X104864963Y-85237647D01*
X104864963Y-85237647D02*
X104824487Y-85156695D01*
X104824487Y-85156695D02*
X104784010Y-85116218D01*
X104784010Y-85116218D02*
X104703058Y-85075742D01*
X106196600Y-70896553D02*
X106148980Y-71039410D01*
X106148980Y-71039410D02*
X106148980Y-71277505D01*
X106148980Y-71277505D02*
X106196600Y-71372743D01*
X106196600Y-71372743D02*
X106244219Y-71420362D01*
X106244219Y-71420362D02*
X106339457Y-71467981D01*
X106339457Y-71467981D02*
X106434695Y-71467981D01*
X106434695Y-71467981D02*
X106529933Y-71420362D01*
X106529933Y-71420362D02*
X106577552Y-71372743D01*
X106577552Y-71372743D02*
X106625171Y-71277505D01*
X106625171Y-71277505D02*
X106672790Y-71087029D01*
X106672790Y-71087029D02*
X106720409Y-70991791D01*
X106720409Y-70991791D02*
X106768028Y-70944172D01*
X106768028Y-70944172D02*
X106863266Y-70896553D01*
X106863266Y-70896553D02*
X106958504Y-70896553D01*
X106958504Y-70896553D02*
X107053742Y-70944172D01*
X107053742Y-70944172D02*
X107101361Y-70991791D01*
X107101361Y-70991791D02*
X107148980Y-71087029D01*
X107148980Y-71087029D02*
X107148980Y-71325124D01*
X107148980Y-71325124D02*
X107101361Y-71467981D01*
X107148980Y-72087029D02*
X107148980Y-72277505D01*
X107148980Y-72277505D02*
X107101361Y-72372743D01*
X107101361Y-72372743D02*
X107006123Y-72467981D01*
X107006123Y-72467981D02*
X106815647Y-72515600D01*
X106815647Y-72515600D02*
X106482314Y-72515600D01*
X106482314Y-72515600D02*
X106291838Y-72467981D01*
X106291838Y-72467981D02*
X106196600Y-72372743D01*
X106196600Y-72372743D02*
X106148980Y-72277505D01*
X106148980Y-72277505D02*
X106148980Y-72087029D01*
X106148980Y-72087029D02*
X106196600Y-71991791D01*
X106196600Y-71991791D02*
X106291838Y-71896553D01*
X106291838Y-71896553D02*
X106482314Y-71848934D01*
X106482314Y-71848934D02*
X106815647Y-71848934D01*
X106815647Y-71848934D02*
X107006123Y-71896553D01*
X107006123Y-71896553D02*
X107101361Y-71991791D01*
X107101361Y-71991791D02*
X107148980Y-72087029D01*
X106148980Y-72944172D02*
X107148980Y-72944172D01*
X106244219Y-73991790D02*
X106196600Y-73944171D01*
X106196600Y-73944171D02*
X106148980Y-73801314D01*
X106148980Y-73801314D02*
X106148980Y-73706076D01*
X106148980Y-73706076D02*
X106196600Y-73563219D01*
X106196600Y-73563219D02*
X106291838Y-73467981D01*
X106291838Y-73467981D02*
X106387076Y-73420362D01*
X106387076Y-73420362D02*
X106577552Y-73372743D01*
X106577552Y-73372743D02*
X106720409Y-73372743D01*
X106720409Y-73372743D02*
X106910885Y-73420362D01*
X106910885Y-73420362D02*
X107006123Y-73467981D01*
X107006123Y-73467981D02*
X107101361Y-73563219D01*
X107101361Y-73563219D02*
X107148980Y-73706076D01*
X107148980Y-73706076D02*
X107148980Y-73801314D01*
X107148980Y-73801314D02*
X107101361Y-73944171D01*
X107101361Y-73944171D02*
X107053742Y-73991790D01*
X106529933Y-74420362D02*
X106529933Y-75182267D01*
X106148980Y-76182266D02*
X106148980Y-75610838D01*
X106148980Y-75896552D02*
X107148980Y-75896552D01*
X107148980Y-75896552D02*
X107006123Y-75801314D01*
X107006123Y-75801314D02*
X106910885Y-75706076D01*
X106910885Y-75706076D02*
X106863266Y-75610838D01*
X107148980Y-77039409D02*
X107148980Y-76848933D01*
X107148980Y-76848933D02*
X107101361Y-76753695D01*
X107101361Y-76753695D02*
X107053742Y-76706076D01*
X107053742Y-76706076D02*
X106910885Y-76610838D01*
X106910885Y-76610838D02*
X106720409Y-76563219D01*
X106720409Y-76563219D02*
X106339457Y-76563219D01*
X106339457Y-76563219D02*
X106244219Y-76610838D01*
X106244219Y-76610838D02*
X106196600Y-76658457D01*
X106196600Y-76658457D02*
X106148980Y-76753695D01*
X106148980Y-76753695D02*
X106148980Y-76944171D01*
X106148980Y-76944171D02*
X106196600Y-77039409D01*
X106196600Y-77039409D02*
X106244219Y-77087028D01*
X106244219Y-77087028D02*
X106339457Y-77134647D01*
X106339457Y-77134647D02*
X106577552Y-77134647D01*
X106577552Y-77134647D02*
X106672790Y-77087028D01*
X106672790Y-77087028D02*
X106720409Y-77039409D01*
X106720409Y-77039409D02*
X106768028Y-76944171D01*
X106768028Y-76944171D02*
X106768028Y-76753695D01*
X106768028Y-76753695D02*
X106720409Y-76658457D01*
X106720409Y-76658457D02*
X106672790Y-76610838D01*
X106672790Y-76610838D02*
X106577552Y-76563219D01*
X105188772Y-83285780D02*
X105188772Y-82881018D01*
X105188772Y-82881018D02*
X104784010Y-82840542D01*
X104784010Y-82840542D02*
X104824487Y-82881018D01*
X104824487Y-82881018D02*
X104864963Y-82961971D01*
X104864963Y-82961971D02*
X104864963Y-83164352D01*
X104864963Y-83164352D02*
X104824487Y-83245304D01*
X104824487Y-83245304D02*
X104784010Y-83285780D01*
X104784010Y-83285780D02*
X104703058Y-83326257D01*
X104703058Y-83326257D02*
X104500677Y-83326257D01*
X104500677Y-83326257D02*
X104419725Y-83285780D01*
X104419725Y-83285780D02*
X104379249Y-83245304D01*
X104379249Y-83245304D02*
X104338772Y-83164352D01*
X104338772Y-83164352D02*
X104338772Y-82961971D01*
X104338772Y-82961971D02*
X104379249Y-82881018D01*
X104379249Y-82881018D02*
X104419725Y-82840542D01*
X104824487Y-90698647D02*
X104864963Y-90617695D01*
X104864963Y-90617695D02*
X104905439Y-90577218D01*
X104905439Y-90577218D02*
X104986391Y-90536742D01*
X104986391Y-90536742D02*
X105026868Y-90536742D01*
X105026868Y-90536742D02*
X105107820Y-90577218D01*
X105107820Y-90577218D02*
X105148296Y-90617695D01*
X105148296Y-90617695D02*
X105188772Y-90698647D01*
X105188772Y-90698647D02*
X105188772Y-90860552D01*
X105188772Y-90860552D02*
X105148296Y-90941504D01*
X105148296Y-90941504D02*
X105107820Y-90981980D01*
X105107820Y-90981980D02*
X105026868Y-91022457D01*
X105026868Y-91022457D02*
X104986391Y-91022457D01*
X104986391Y-91022457D02*
X104905439Y-90981980D01*
X104905439Y-90981980D02*
X104864963Y-90941504D01*
X104864963Y-90941504D02*
X104824487Y-90860552D01*
X104824487Y-90860552D02*
X104824487Y-90698647D01*
X104824487Y-90698647D02*
X104784010Y-90617695D01*
X104784010Y-90617695D02*
X104743534Y-90577218D01*
X104743534Y-90577218D02*
X104662582Y-90536742D01*
X104662582Y-90536742D02*
X104500677Y-90536742D01*
X104500677Y-90536742D02*
X104419725Y-90577218D01*
X104419725Y-90577218D02*
X104379249Y-90617695D01*
X104379249Y-90617695D02*
X104338772Y-90698647D01*
X104338772Y-90698647D02*
X104338772Y-90860552D01*
X104338772Y-90860552D02*
X104379249Y-90941504D01*
X104379249Y-90941504D02*
X104419725Y-90981980D01*
X104419725Y-90981980D02*
X104500677Y-91022457D01*
X104500677Y-91022457D02*
X104662582Y-91022457D01*
X104662582Y-91022457D02*
X104743534Y-90981980D01*
X104743534Y-90981980D02*
X104784010Y-90941504D01*
X104784010Y-90941504D02*
X104824487Y-90860552D01*
X108072572Y-77790695D02*
X108072572Y-77304980D01*
X108072572Y-77547837D02*
X108922572Y-77547837D01*
X108922572Y-77547837D02*
X108801144Y-77466885D01*
X108801144Y-77466885D02*
X108720191Y-77385933D01*
X108720191Y-77385933D02*
X108679715Y-77304980D01*
X108639239Y-78519266D02*
X108072572Y-78519266D01*
X108963049Y-78316885D02*
X108355906Y-78114504D01*
X108355906Y-78114504D02*
X108355906Y-78640695D01*
X105188772Y-87880066D02*
X105188772Y-88446733D01*
X105188772Y-88446733D02*
X104338772Y-88082447D01*
X105107820Y-75271342D02*
X105148296Y-75311818D01*
X105148296Y-75311818D02*
X105188772Y-75392771D01*
X105188772Y-75392771D02*
X105188772Y-75595152D01*
X105188772Y-75595152D02*
X105148296Y-75676104D01*
X105148296Y-75676104D02*
X105107820Y-75716580D01*
X105107820Y-75716580D02*
X105026868Y-75757057D01*
X105026868Y-75757057D02*
X104945915Y-75757057D01*
X104945915Y-75757057D02*
X104824487Y-75716580D01*
X104824487Y-75716580D02*
X104338772Y-75230866D01*
X104338772Y-75230866D02*
X104338772Y-75757057D01*
X107180296Y-87668181D02*
X107220772Y-87587228D01*
X107220772Y-87587228D02*
X107220772Y-87465800D01*
X107220772Y-87465800D02*
X107180296Y-87344371D01*
X107180296Y-87344371D02*
X107099344Y-87263419D01*
X107099344Y-87263419D02*
X107018391Y-87222942D01*
X107018391Y-87222942D02*
X106856487Y-87182466D01*
X106856487Y-87182466D02*
X106735058Y-87182466D01*
X106735058Y-87182466D02*
X106573153Y-87222942D01*
X106573153Y-87222942D02*
X106492201Y-87263419D01*
X106492201Y-87263419D02*
X106411249Y-87344371D01*
X106411249Y-87344371D02*
X106370772Y-87465800D01*
X106370772Y-87465800D02*
X106370772Y-87546752D01*
X106370772Y-87546752D02*
X106411249Y-87668181D01*
X106411249Y-87668181D02*
X106451725Y-87708657D01*
X106451725Y-87708657D02*
X106735058Y-87708657D01*
X106735058Y-87708657D02*
X106735058Y-87546752D01*
X106370772Y-88072942D02*
X107220772Y-88072942D01*
X107220772Y-88072942D02*
X106370772Y-88558657D01*
X106370772Y-88558657D02*
X107220772Y-88558657D01*
X106370772Y-88963418D02*
X107220772Y-88963418D01*
X107220772Y-88963418D02*
X107220772Y-89165799D01*
X107220772Y-89165799D02*
X107180296Y-89287228D01*
X107180296Y-89287228D02*
X107099344Y-89368180D01*
X107099344Y-89368180D02*
X107018391Y-89408657D01*
X107018391Y-89408657D02*
X106856487Y-89449133D01*
X106856487Y-89449133D02*
X106735058Y-89449133D01*
X106735058Y-89449133D02*
X106573153Y-89408657D01*
X106573153Y-89408657D02*
X106492201Y-89368180D01*
X106492201Y-89368180D02*
X106411249Y-89287228D01*
X106411249Y-89287228D02*
X106370772Y-89165799D01*
X106370772Y-89165799D02*
X106370772Y-88963418D01*
X108072572Y-85893295D02*
X108072572Y-85407580D01*
X108072572Y-85650437D02*
X108922572Y-85650437D01*
X108922572Y-85650437D02*
X108801144Y-85569485D01*
X108801144Y-85569485D02*
X108720191Y-85488533D01*
X108720191Y-85488533D02*
X108679715Y-85407580D01*
X108072572Y-86702819D02*
X108072572Y-86217104D01*
X108072572Y-86459961D02*
X108922572Y-86459961D01*
X108922572Y-86459961D02*
X108801144Y-86379009D01*
X108801144Y-86379009D02*
X108720191Y-86298057D01*
X108720191Y-86298057D02*
X108679715Y-86217104D01*
X104313372Y-73115457D02*
X104313372Y-72629742D01*
X104313372Y-72872599D02*
X105163372Y-72872599D01*
X105163372Y-72872599D02*
X105041944Y-72791647D01*
X105041944Y-72791647D02*
X104960991Y-72710695D01*
X104960991Y-72710695D02*
X104920515Y-72629742D01*
X108123372Y-80711695D02*
X108123372Y-80225980D01*
X108123372Y-80468837D02*
X108973372Y-80468837D01*
X108973372Y-80468837D02*
X108851944Y-80387885D01*
X108851944Y-80387885D02*
X108770991Y-80306933D01*
X108770991Y-80306933D02*
X108730515Y-80225980D01*
X108973372Y-80995028D02*
X108973372Y-81521219D01*
X108973372Y-81521219D02*
X108649563Y-81237885D01*
X108649563Y-81237885D02*
X108649563Y-81359314D01*
X108649563Y-81359314D02*
X108609087Y-81440266D01*
X108609087Y-81440266D02*
X108568610Y-81480742D01*
X108568610Y-81480742D02*
X108487658Y-81521219D01*
X108487658Y-81521219D02*
X108285277Y-81521219D01*
X108285277Y-81521219D02*
X108204325Y-81480742D01*
X108204325Y-81480742D02*
X108163849Y-81440266D01*
X108163849Y-81440266D02*
X108123372Y-81359314D01*
X108123372Y-81359314D02*
X108123372Y-81116457D01*
X108123372Y-81116457D02*
X108163849Y-81035504D01*
X108163849Y-81035504D02*
X108204325Y-80995028D01*
X108072572Y-90490695D02*
X108072572Y-90652599D01*
X108072572Y-90652599D02*
X108113049Y-90733552D01*
X108113049Y-90733552D02*
X108153525Y-90774028D01*
X108153525Y-90774028D02*
X108274953Y-90854980D01*
X108274953Y-90854980D02*
X108436858Y-90895457D01*
X108436858Y-90895457D02*
X108760668Y-90895457D01*
X108760668Y-90895457D02*
X108841620Y-90854980D01*
X108841620Y-90854980D02*
X108882096Y-90814504D01*
X108882096Y-90814504D02*
X108922572Y-90733552D01*
X108922572Y-90733552D02*
X108922572Y-90571647D01*
X108922572Y-90571647D02*
X108882096Y-90490695D01*
X108882096Y-90490695D02*
X108841620Y-90450218D01*
X108841620Y-90450218D02*
X108760668Y-90409742D01*
X108760668Y-90409742D02*
X108558287Y-90409742D01*
X108558287Y-90409742D02*
X108477334Y-90450218D01*
X108477334Y-90450218D02*
X108436858Y-90490695D01*
X108436858Y-90490695D02*
X108396382Y-90571647D01*
X108396382Y-90571647D02*
X108396382Y-90733552D01*
X108396382Y-90733552D02*
X108436858Y-90814504D01*
X108436858Y-90814504D02*
X108477334Y-90854980D01*
X108477334Y-90854980D02*
X108558287Y-90895457D01*
X108428172Y-83251695D02*
X108428172Y-82765980D01*
X108428172Y-83008837D02*
X109278172Y-83008837D01*
X109278172Y-83008837D02*
X109156744Y-82927885D01*
X109156744Y-82927885D02*
X109075791Y-82846933D01*
X109075791Y-82846933D02*
X109035315Y-82765980D01*
X109197220Y-83575504D02*
X109237696Y-83615980D01*
X109237696Y-83615980D02*
X109278172Y-83696933D01*
X109278172Y-83696933D02*
X109278172Y-83899314D01*
X109278172Y-83899314D02*
X109237696Y-83980266D01*
X109237696Y-83980266D02*
X109197220Y-84020742D01*
X109197220Y-84020742D02*
X109116268Y-84061219D01*
X109116268Y-84061219D02*
X109035315Y-84061219D01*
X109035315Y-84061219D02*
X108913887Y-84020742D01*
X108913887Y-84020742D02*
X108428172Y-83535028D01*
X108428172Y-83535028D02*
X108428172Y-84061219D01*
X108072572Y-88179295D02*
X108072572Y-87693580D01*
X108072572Y-87936437D02*
X108922572Y-87936437D01*
X108922572Y-87936437D02*
X108801144Y-87855485D01*
X108801144Y-87855485D02*
X108720191Y-87774533D01*
X108720191Y-87774533D02*
X108679715Y-87693580D01*
X108922572Y-88705485D02*
X108922572Y-88786438D01*
X108922572Y-88786438D02*
X108882096Y-88867390D01*
X108882096Y-88867390D02*
X108841620Y-88907866D01*
X108841620Y-88907866D02*
X108760668Y-88948342D01*
X108760668Y-88948342D02*
X108598763Y-88988819D01*
X108598763Y-88988819D02*
X108396382Y-88988819D01*
X108396382Y-88988819D02*
X108234477Y-88948342D01*
X108234477Y-88948342D02*
X108153525Y-88907866D01*
X108153525Y-88907866D02*
X108113049Y-88867390D01*
X108113049Y-88867390D02*
X108072572Y-88786438D01*
X108072572Y-88786438D02*
X108072572Y-88705485D01*
X108072572Y-88705485D02*
X108113049Y-88624533D01*
X108113049Y-88624533D02*
X108153525Y-88584057D01*
X108153525Y-88584057D02*
X108234477Y-88543580D01*
X108234477Y-88543580D02*
X108396382Y-88503104D01*
X108396382Y-88503104D02*
X108598763Y-88503104D01*
X108598763Y-88503104D02*
X108760668Y-88543580D01*
X108760668Y-88543580D02*
X108841620Y-88584057D01*
X108841620Y-88584057D02*
X108882096Y-88624533D01*
X108882096Y-88624533D02*
X108922572Y-88705485D01*
X104905439Y-80705304D02*
X104338772Y-80705304D01*
X105229249Y-80502923D02*
X104622106Y-80300542D01*
X104622106Y-80300542D02*
X104622106Y-80826733D01*
X108072572Y-75250695D02*
X108072572Y-74764980D01*
X108072572Y-75007837D02*
X108922572Y-75007837D01*
X108922572Y-75007837D02*
X108801144Y-74926885D01*
X108801144Y-74926885D02*
X108720191Y-74845933D01*
X108720191Y-74845933D02*
X108679715Y-74764980D01*
X108922572Y-76019742D02*
X108922572Y-75614980D01*
X108922572Y-75614980D02*
X108517810Y-75574504D01*
X108517810Y-75574504D02*
X108558287Y-75614980D01*
X108558287Y-75614980D02*
X108598763Y-75695933D01*
X108598763Y-75695933D02*
X108598763Y-75898314D01*
X108598763Y-75898314D02*
X108558287Y-75979266D01*
X108558287Y-75979266D02*
X108517810Y-76019742D01*
X108517810Y-76019742D02*
X108436858Y-76060219D01*
X108436858Y-76060219D02*
X108234477Y-76060219D01*
X108234477Y-76060219D02*
X108153525Y-76019742D01*
X108153525Y-76019742D02*
X108113049Y-75979266D01*
X108113049Y-75979266D02*
X108072572Y-75898314D01*
X108072572Y-75898314D02*
X108072572Y-75695933D01*
X108072572Y-75695933D02*
X108113049Y-75614980D01*
X108113049Y-75614980D02*
X108153525Y-75574504D01*
X108072572Y-72710695D02*
X108072572Y-72224980D01*
X108072572Y-72467837D02*
X108922572Y-72467837D01*
X108922572Y-72467837D02*
X108801144Y-72386885D01*
X108801144Y-72386885D02*
X108720191Y-72305933D01*
X108720191Y-72305933D02*
X108679715Y-72224980D01*
X108922572Y-73439266D02*
X108922572Y-73277361D01*
X108922572Y-73277361D02*
X108882096Y-73196409D01*
X108882096Y-73196409D02*
X108841620Y-73155933D01*
X108841620Y-73155933D02*
X108720191Y-73074980D01*
X108720191Y-73074980D02*
X108558287Y-73034504D01*
X108558287Y-73034504D02*
X108234477Y-73034504D01*
X108234477Y-73034504D02*
X108153525Y-73074980D01*
X108153525Y-73074980D02*
X108113049Y-73115457D01*
X108113049Y-73115457D02*
X108072572Y-73196409D01*
X108072572Y-73196409D02*
X108072572Y-73358314D01*
X108072572Y-73358314D02*
X108113049Y-73439266D01*
X108113049Y-73439266D02*
X108153525Y-73479742D01*
X108153525Y-73479742D02*
X108234477Y-73520219D01*
X108234477Y-73520219D02*
X108436858Y-73520219D01*
X108436858Y-73520219D02*
X108517810Y-73479742D01*
X108517810Y-73479742D02*
X108558287Y-73439266D01*
X108558287Y-73439266D02*
X108598763Y-73358314D01*
X108598763Y-73358314D02*
X108598763Y-73196409D01*
X108598763Y-73196409D02*
X108558287Y-73115457D01*
X108558287Y-73115457D02*
X108517810Y-73074980D01*
X108517810Y-73074980D02*
X108436858Y-73034504D01*
X105188772Y-77669266D02*
X105188772Y-78195457D01*
X105188772Y-78195457D02*
X104864963Y-77912123D01*
X104864963Y-77912123D02*
X104864963Y-78033552D01*
X104864963Y-78033552D02*
X104824487Y-78114504D01*
X104824487Y-78114504D02*
X104784010Y-78154980D01*
X104784010Y-78154980D02*
X104703058Y-78195457D01*
X104703058Y-78195457D02*
X104500677Y-78195457D01*
X104500677Y-78195457D02*
X104419725Y-78154980D01*
X104419725Y-78154980D02*
X104379249Y-78114504D01*
X104379249Y-78114504D02*
X104338772Y-78033552D01*
X104338772Y-78033552D02*
X104338772Y-77790695D01*
X104338772Y-77790695D02*
X104379249Y-77709742D01*
X104379249Y-77709742D02*
X104419725Y-77669266D01*
X95750296Y-87668181D02*
X95790772Y-87587228D01*
X95790772Y-87587228D02*
X95790772Y-87465800D01*
X95790772Y-87465800D02*
X95750296Y-87344371D01*
X95750296Y-87344371D02*
X95669344Y-87263419D01*
X95669344Y-87263419D02*
X95588391Y-87222942D01*
X95588391Y-87222942D02*
X95426487Y-87182466D01*
X95426487Y-87182466D02*
X95305058Y-87182466D01*
X95305058Y-87182466D02*
X95143153Y-87222942D01*
X95143153Y-87222942D02*
X95062201Y-87263419D01*
X95062201Y-87263419D02*
X94981249Y-87344371D01*
X94981249Y-87344371D02*
X94940772Y-87465800D01*
X94940772Y-87465800D02*
X94940772Y-87546752D01*
X94940772Y-87546752D02*
X94981249Y-87668181D01*
X94981249Y-87668181D02*
X95021725Y-87708657D01*
X95021725Y-87708657D02*
X95305058Y-87708657D01*
X95305058Y-87708657D02*
X95305058Y-87546752D01*
X94940772Y-88072942D02*
X95790772Y-88072942D01*
X95790772Y-88072942D02*
X94940772Y-88558657D01*
X94940772Y-88558657D02*
X95790772Y-88558657D01*
X94940772Y-88963418D02*
X95790772Y-88963418D01*
X95790772Y-88963418D02*
X95790772Y-89165799D01*
X95790772Y-89165799D02*
X95750296Y-89287228D01*
X95750296Y-89287228D02*
X95669344Y-89368180D01*
X95669344Y-89368180D02*
X95588391Y-89408657D01*
X95588391Y-89408657D02*
X95426487Y-89449133D01*
X95426487Y-89449133D02*
X95305058Y-89449133D01*
X95305058Y-89449133D02*
X95143153Y-89408657D01*
X95143153Y-89408657D02*
X95062201Y-89368180D01*
X95062201Y-89368180D02*
X94981249Y-89287228D01*
X94981249Y-89287228D02*
X94940772Y-89165799D01*
X94940772Y-89165799D02*
X94940772Y-88963418D01*
X96693372Y-80711695D02*
X96693372Y-80225980D01*
X96693372Y-80468837D02*
X97543372Y-80468837D01*
X97543372Y-80468837D02*
X97421944Y-80387885D01*
X97421944Y-80387885D02*
X97340991Y-80306933D01*
X97340991Y-80306933D02*
X97300515Y-80225980D01*
X97543372Y-80995028D02*
X97543372Y-81521219D01*
X97543372Y-81521219D02*
X97219563Y-81237885D01*
X97219563Y-81237885D02*
X97219563Y-81359314D01*
X97219563Y-81359314D02*
X97179087Y-81440266D01*
X97179087Y-81440266D02*
X97138610Y-81480742D01*
X97138610Y-81480742D02*
X97057658Y-81521219D01*
X97057658Y-81521219D02*
X96855277Y-81521219D01*
X96855277Y-81521219D02*
X96774325Y-81480742D01*
X96774325Y-81480742D02*
X96733849Y-81440266D01*
X96733849Y-81440266D02*
X96693372Y-81359314D01*
X96693372Y-81359314D02*
X96693372Y-81116457D01*
X96693372Y-81116457D02*
X96733849Y-81035504D01*
X96733849Y-81035504D02*
X96774325Y-80995028D01*
X96642572Y-90490695D02*
X96642572Y-90652599D01*
X96642572Y-90652599D02*
X96683049Y-90733552D01*
X96683049Y-90733552D02*
X96723525Y-90774028D01*
X96723525Y-90774028D02*
X96844953Y-90854980D01*
X96844953Y-90854980D02*
X97006858Y-90895457D01*
X97006858Y-90895457D02*
X97330668Y-90895457D01*
X97330668Y-90895457D02*
X97411620Y-90854980D01*
X97411620Y-90854980D02*
X97452096Y-90814504D01*
X97452096Y-90814504D02*
X97492572Y-90733552D01*
X97492572Y-90733552D02*
X97492572Y-90571647D01*
X97492572Y-90571647D02*
X97452096Y-90490695D01*
X97452096Y-90490695D02*
X97411620Y-90450218D01*
X97411620Y-90450218D02*
X97330668Y-90409742D01*
X97330668Y-90409742D02*
X97128287Y-90409742D01*
X97128287Y-90409742D02*
X97047334Y-90450218D01*
X97047334Y-90450218D02*
X97006858Y-90490695D01*
X97006858Y-90490695D02*
X96966382Y-90571647D01*
X96966382Y-90571647D02*
X96966382Y-90733552D01*
X96966382Y-90733552D02*
X97006858Y-90814504D01*
X97006858Y-90814504D02*
X97047334Y-90854980D01*
X97047334Y-90854980D02*
X97128287Y-90895457D01*
X96998172Y-83251695D02*
X96998172Y-82765980D01*
X96998172Y-83008837D02*
X97848172Y-83008837D01*
X97848172Y-83008837D02*
X97726744Y-82927885D01*
X97726744Y-82927885D02*
X97645791Y-82846933D01*
X97645791Y-82846933D02*
X97605315Y-82765980D01*
X97767220Y-83575504D02*
X97807696Y-83615980D01*
X97807696Y-83615980D02*
X97848172Y-83696933D01*
X97848172Y-83696933D02*
X97848172Y-83899314D01*
X97848172Y-83899314D02*
X97807696Y-83980266D01*
X97807696Y-83980266D02*
X97767220Y-84020742D01*
X97767220Y-84020742D02*
X97686268Y-84061219D01*
X97686268Y-84061219D02*
X97605315Y-84061219D01*
X97605315Y-84061219D02*
X97483887Y-84020742D01*
X97483887Y-84020742D02*
X96998172Y-83535028D01*
X96998172Y-83535028D02*
X96998172Y-84061219D01*
X93475439Y-80705304D02*
X92908772Y-80705304D01*
X93799249Y-80502923D02*
X93192106Y-80300542D01*
X93192106Y-80300542D02*
X93192106Y-80826733D01*
X96642572Y-72710695D02*
X96642572Y-72224980D01*
X96642572Y-72467837D02*
X97492572Y-72467837D01*
X97492572Y-72467837D02*
X97371144Y-72386885D01*
X97371144Y-72386885D02*
X97290191Y-72305933D01*
X97290191Y-72305933D02*
X97249715Y-72224980D01*
X97492572Y-73439266D02*
X97492572Y-73277361D01*
X97492572Y-73277361D02*
X97452096Y-73196409D01*
X97452096Y-73196409D02*
X97411620Y-73155933D01*
X97411620Y-73155933D02*
X97290191Y-73074980D01*
X97290191Y-73074980D02*
X97128287Y-73034504D01*
X97128287Y-73034504D02*
X96804477Y-73034504D01*
X96804477Y-73034504D02*
X96723525Y-73074980D01*
X96723525Y-73074980D02*
X96683049Y-73115457D01*
X96683049Y-73115457D02*
X96642572Y-73196409D01*
X96642572Y-73196409D02*
X96642572Y-73358314D01*
X96642572Y-73358314D02*
X96683049Y-73439266D01*
X96683049Y-73439266D02*
X96723525Y-73479742D01*
X96723525Y-73479742D02*
X96804477Y-73520219D01*
X96804477Y-73520219D02*
X97006858Y-73520219D01*
X97006858Y-73520219D02*
X97087810Y-73479742D01*
X97087810Y-73479742D02*
X97128287Y-73439266D01*
X97128287Y-73439266D02*
X97168763Y-73358314D01*
X97168763Y-73358314D02*
X97168763Y-73196409D01*
X97168763Y-73196409D02*
X97128287Y-73115457D01*
X97128287Y-73115457D02*
X97087810Y-73074980D01*
X97087810Y-73074980D02*
X97006858Y-73034504D01*
X93758772Y-85480504D02*
X93758772Y-85318599D01*
X93758772Y-85318599D02*
X93718296Y-85237647D01*
X93718296Y-85237647D02*
X93677820Y-85197171D01*
X93677820Y-85197171D02*
X93556391Y-85116218D01*
X93556391Y-85116218D02*
X93394487Y-85075742D01*
X93394487Y-85075742D02*
X93070677Y-85075742D01*
X93070677Y-85075742D02*
X92989725Y-85116218D01*
X92989725Y-85116218D02*
X92949249Y-85156695D01*
X92949249Y-85156695D02*
X92908772Y-85237647D01*
X92908772Y-85237647D02*
X92908772Y-85399552D01*
X92908772Y-85399552D02*
X92949249Y-85480504D01*
X92949249Y-85480504D02*
X92989725Y-85520980D01*
X92989725Y-85520980D02*
X93070677Y-85561457D01*
X93070677Y-85561457D02*
X93273058Y-85561457D01*
X93273058Y-85561457D02*
X93354010Y-85520980D01*
X93354010Y-85520980D02*
X93394487Y-85480504D01*
X93394487Y-85480504D02*
X93434963Y-85399552D01*
X93434963Y-85399552D02*
X93434963Y-85237647D01*
X93434963Y-85237647D02*
X93394487Y-85156695D01*
X93394487Y-85156695D02*
X93354010Y-85116218D01*
X93354010Y-85116218D02*
X93273058Y-85075742D01*
X94766600Y-70896553D02*
X94718980Y-71039410D01*
X94718980Y-71039410D02*
X94718980Y-71277505D01*
X94718980Y-71277505D02*
X94766600Y-71372743D01*
X94766600Y-71372743D02*
X94814219Y-71420362D01*
X94814219Y-71420362D02*
X94909457Y-71467981D01*
X94909457Y-71467981D02*
X95004695Y-71467981D01*
X95004695Y-71467981D02*
X95099933Y-71420362D01*
X95099933Y-71420362D02*
X95147552Y-71372743D01*
X95147552Y-71372743D02*
X95195171Y-71277505D01*
X95195171Y-71277505D02*
X95242790Y-71087029D01*
X95242790Y-71087029D02*
X95290409Y-70991791D01*
X95290409Y-70991791D02*
X95338028Y-70944172D01*
X95338028Y-70944172D02*
X95433266Y-70896553D01*
X95433266Y-70896553D02*
X95528504Y-70896553D01*
X95528504Y-70896553D02*
X95623742Y-70944172D01*
X95623742Y-70944172D02*
X95671361Y-70991791D01*
X95671361Y-70991791D02*
X95718980Y-71087029D01*
X95718980Y-71087029D02*
X95718980Y-71325124D01*
X95718980Y-71325124D02*
X95671361Y-71467981D01*
X95718980Y-72087029D02*
X95718980Y-72277505D01*
X95718980Y-72277505D02*
X95671361Y-72372743D01*
X95671361Y-72372743D02*
X95576123Y-72467981D01*
X95576123Y-72467981D02*
X95385647Y-72515600D01*
X95385647Y-72515600D02*
X95052314Y-72515600D01*
X95052314Y-72515600D02*
X94861838Y-72467981D01*
X94861838Y-72467981D02*
X94766600Y-72372743D01*
X94766600Y-72372743D02*
X94718980Y-72277505D01*
X94718980Y-72277505D02*
X94718980Y-72087029D01*
X94718980Y-72087029D02*
X94766600Y-71991791D01*
X94766600Y-71991791D02*
X94861838Y-71896553D01*
X94861838Y-71896553D02*
X95052314Y-71848934D01*
X95052314Y-71848934D02*
X95385647Y-71848934D01*
X95385647Y-71848934D02*
X95576123Y-71896553D01*
X95576123Y-71896553D02*
X95671361Y-71991791D01*
X95671361Y-71991791D02*
X95718980Y-72087029D01*
X94718980Y-72944172D02*
X95718980Y-72944172D01*
X94814219Y-73991790D02*
X94766600Y-73944171D01*
X94766600Y-73944171D02*
X94718980Y-73801314D01*
X94718980Y-73801314D02*
X94718980Y-73706076D01*
X94718980Y-73706076D02*
X94766600Y-73563219D01*
X94766600Y-73563219D02*
X94861838Y-73467981D01*
X94861838Y-73467981D02*
X94957076Y-73420362D01*
X94957076Y-73420362D02*
X95147552Y-73372743D01*
X95147552Y-73372743D02*
X95290409Y-73372743D01*
X95290409Y-73372743D02*
X95480885Y-73420362D01*
X95480885Y-73420362D02*
X95576123Y-73467981D01*
X95576123Y-73467981D02*
X95671361Y-73563219D01*
X95671361Y-73563219D02*
X95718980Y-73706076D01*
X95718980Y-73706076D02*
X95718980Y-73801314D01*
X95718980Y-73801314D02*
X95671361Y-73944171D01*
X95671361Y-73944171D02*
X95623742Y-73991790D01*
X95099933Y-74420362D02*
X95099933Y-75182267D01*
X94718980Y-76182266D02*
X94718980Y-75610838D01*
X94718980Y-75896552D02*
X95718980Y-75896552D01*
X95718980Y-75896552D02*
X95576123Y-75801314D01*
X95576123Y-75801314D02*
X95480885Y-75706076D01*
X95480885Y-75706076D02*
X95433266Y-75610838D01*
X95718980Y-77039409D02*
X95718980Y-76848933D01*
X95718980Y-76848933D02*
X95671361Y-76753695D01*
X95671361Y-76753695D02*
X95623742Y-76706076D01*
X95623742Y-76706076D02*
X95480885Y-76610838D01*
X95480885Y-76610838D02*
X95290409Y-76563219D01*
X95290409Y-76563219D02*
X94909457Y-76563219D01*
X94909457Y-76563219D02*
X94814219Y-76610838D01*
X94814219Y-76610838D02*
X94766600Y-76658457D01*
X94766600Y-76658457D02*
X94718980Y-76753695D01*
X94718980Y-76753695D02*
X94718980Y-76944171D01*
X94718980Y-76944171D02*
X94766600Y-77039409D01*
X94766600Y-77039409D02*
X94814219Y-77087028D01*
X94814219Y-77087028D02*
X94909457Y-77134647D01*
X94909457Y-77134647D02*
X95147552Y-77134647D01*
X95147552Y-77134647D02*
X95242790Y-77087028D01*
X95242790Y-77087028D02*
X95290409Y-77039409D01*
X95290409Y-77039409D02*
X95338028Y-76944171D01*
X95338028Y-76944171D02*
X95338028Y-76753695D01*
X95338028Y-76753695D02*
X95290409Y-76658457D01*
X95290409Y-76658457D02*
X95242790Y-76610838D01*
X95242790Y-76610838D02*
X95147552Y-76563219D01*
X92883372Y-73115457D02*
X92883372Y-72629742D01*
X92883372Y-72872599D02*
X93733372Y-72872599D01*
X93733372Y-72872599D02*
X93611944Y-72791647D01*
X93611944Y-72791647D02*
X93530991Y-72710695D01*
X93530991Y-72710695D02*
X93490515Y-72629742D01*
X96642572Y-88179295D02*
X96642572Y-87693580D01*
X96642572Y-87936437D02*
X97492572Y-87936437D01*
X97492572Y-87936437D02*
X97371144Y-87855485D01*
X97371144Y-87855485D02*
X97290191Y-87774533D01*
X97290191Y-87774533D02*
X97249715Y-87693580D01*
X97492572Y-88705485D02*
X97492572Y-88786438D01*
X97492572Y-88786438D02*
X97452096Y-88867390D01*
X97452096Y-88867390D02*
X97411620Y-88907866D01*
X97411620Y-88907866D02*
X97330668Y-88948342D01*
X97330668Y-88948342D02*
X97168763Y-88988819D01*
X97168763Y-88988819D02*
X96966382Y-88988819D01*
X96966382Y-88988819D02*
X96804477Y-88948342D01*
X96804477Y-88948342D02*
X96723525Y-88907866D01*
X96723525Y-88907866D02*
X96683049Y-88867390D01*
X96683049Y-88867390D02*
X96642572Y-88786438D01*
X96642572Y-88786438D02*
X96642572Y-88705485D01*
X96642572Y-88705485D02*
X96683049Y-88624533D01*
X96683049Y-88624533D02*
X96723525Y-88584057D01*
X96723525Y-88584057D02*
X96804477Y-88543580D01*
X96804477Y-88543580D02*
X96966382Y-88503104D01*
X96966382Y-88503104D02*
X97168763Y-88503104D01*
X97168763Y-88503104D02*
X97330668Y-88543580D01*
X97330668Y-88543580D02*
X97411620Y-88584057D01*
X97411620Y-88584057D02*
X97452096Y-88624533D01*
X97452096Y-88624533D02*
X97492572Y-88705485D01*
X96642572Y-85893295D02*
X96642572Y-85407580D01*
X96642572Y-85650437D02*
X97492572Y-85650437D01*
X97492572Y-85650437D02*
X97371144Y-85569485D01*
X97371144Y-85569485D02*
X97290191Y-85488533D01*
X97290191Y-85488533D02*
X97249715Y-85407580D01*
X96642572Y-86702819D02*
X96642572Y-86217104D01*
X96642572Y-86459961D02*
X97492572Y-86459961D01*
X97492572Y-86459961D02*
X97371144Y-86379009D01*
X97371144Y-86379009D02*
X97290191Y-86298057D01*
X97290191Y-86298057D02*
X97249715Y-86217104D01*
X93677820Y-75271342D02*
X93718296Y-75311818D01*
X93718296Y-75311818D02*
X93758772Y-75392771D01*
X93758772Y-75392771D02*
X93758772Y-75595152D01*
X93758772Y-75595152D02*
X93718296Y-75676104D01*
X93718296Y-75676104D02*
X93677820Y-75716580D01*
X93677820Y-75716580D02*
X93596868Y-75757057D01*
X93596868Y-75757057D02*
X93515915Y-75757057D01*
X93515915Y-75757057D02*
X93394487Y-75716580D01*
X93394487Y-75716580D02*
X92908772Y-75230866D01*
X92908772Y-75230866D02*
X92908772Y-75757057D01*
X96642572Y-75250695D02*
X96642572Y-74764980D01*
X96642572Y-75007837D02*
X97492572Y-75007837D01*
X97492572Y-75007837D02*
X97371144Y-74926885D01*
X97371144Y-74926885D02*
X97290191Y-74845933D01*
X97290191Y-74845933D02*
X97249715Y-74764980D01*
X97492572Y-76019742D02*
X97492572Y-75614980D01*
X97492572Y-75614980D02*
X97087810Y-75574504D01*
X97087810Y-75574504D02*
X97128287Y-75614980D01*
X97128287Y-75614980D02*
X97168763Y-75695933D01*
X97168763Y-75695933D02*
X97168763Y-75898314D01*
X97168763Y-75898314D02*
X97128287Y-75979266D01*
X97128287Y-75979266D02*
X97087810Y-76019742D01*
X97087810Y-76019742D02*
X97006858Y-76060219D01*
X97006858Y-76060219D02*
X96804477Y-76060219D01*
X96804477Y-76060219D02*
X96723525Y-76019742D01*
X96723525Y-76019742D02*
X96683049Y-75979266D01*
X96683049Y-75979266D02*
X96642572Y-75898314D01*
X96642572Y-75898314D02*
X96642572Y-75695933D01*
X96642572Y-75695933D02*
X96683049Y-75614980D01*
X96683049Y-75614980D02*
X96723525Y-75574504D01*
X93758772Y-83285780D02*
X93758772Y-82881018D01*
X93758772Y-82881018D02*
X93354010Y-82840542D01*
X93354010Y-82840542D02*
X93394487Y-82881018D01*
X93394487Y-82881018D02*
X93434963Y-82961971D01*
X93434963Y-82961971D02*
X93434963Y-83164352D01*
X93434963Y-83164352D02*
X93394487Y-83245304D01*
X93394487Y-83245304D02*
X93354010Y-83285780D01*
X93354010Y-83285780D02*
X93273058Y-83326257D01*
X93273058Y-83326257D02*
X93070677Y-83326257D01*
X93070677Y-83326257D02*
X92989725Y-83285780D01*
X92989725Y-83285780D02*
X92949249Y-83245304D01*
X92949249Y-83245304D02*
X92908772Y-83164352D01*
X92908772Y-83164352D02*
X92908772Y-82961971D01*
X92908772Y-82961971D02*
X92949249Y-82881018D01*
X92949249Y-82881018D02*
X92989725Y-82840542D01*
X93394487Y-90698647D02*
X93434963Y-90617695D01*
X93434963Y-90617695D02*
X93475439Y-90577218D01*
X93475439Y-90577218D02*
X93556391Y-90536742D01*
X93556391Y-90536742D02*
X93596868Y-90536742D01*
X93596868Y-90536742D02*
X93677820Y-90577218D01*
X93677820Y-90577218D02*
X93718296Y-90617695D01*
X93718296Y-90617695D02*
X93758772Y-90698647D01*
X93758772Y-90698647D02*
X93758772Y-90860552D01*
X93758772Y-90860552D02*
X93718296Y-90941504D01*
X93718296Y-90941504D02*
X93677820Y-90981980D01*
X93677820Y-90981980D02*
X93596868Y-91022457D01*
X93596868Y-91022457D02*
X93556391Y-91022457D01*
X93556391Y-91022457D02*
X93475439Y-90981980D01*
X93475439Y-90981980D02*
X93434963Y-90941504D01*
X93434963Y-90941504D02*
X93394487Y-90860552D01*
X93394487Y-90860552D02*
X93394487Y-90698647D01*
X93394487Y-90698647D02*
X93354010Y-90617695D01*
X93354010Y-90617695D02*
X93313534Y-90577218D01*
X93313534Y-90577218D02*
X93232582Y-90536742D01*
X93232582Y-90536742D02*
X93070677Y-90536742D01*
X93070677Y-90536742D02*
X92989725Y-90577218D01*
X92989725Y-90577218D02*
X92949249Y-90617695D01*
X92949249Y-90617695D02*
X92908772Y-90698647D01*
X92908772Y-90698647D02*
X92908772Y-90860552D01*
X92908772Y-90860552D02*
X92949249Y-90941504D01*
X92949249Y-90941504D02*
X92989725Y-90981980D01*
X92989725Y-90981980D02*
X93070677Y-91022457D01*
X93070677Y-91022457D02*
X93232582Y-91022457D01*
X93232582Y-91022457D02*
X93313534Y-90981980D01*
X93313534Y-90981980D02*
X93354010Y-90941504D01*
X93354010Y-90941504D02*
X93394487Y-90860552D01*
X93758772Y-77669266D02*
X93758772Y-78195457D01*
X93758772Y-78195457D02*
X93434963Y-77912123D01*
X93434963Y-77912123D02*
X93434963Y-78033552D01*
X93434963Y-78033552D02*
X93394487Y-78114504D01*
X93394487Y-78114504D02*
X93354010Y-78154980D01*
X93354010Y-78154980D02*
X93273058Y-78195457D01*
X93273058Y-78195457D02*
X93070677Y-78195457D01*
X93070677Y-78195457D02*
X92989725Y-78154980D01*
X92989725Y-78154980D02*
X92949249Y-78114504D01*
X92949249Y-78114504D02*
X92908772Y-78033552D01*
X92908772Y-78033552D02*
X92908772Y-77790695D01*
X92908772Y-77790695D02*
X92949249Y-77709742D01*
X92949249Y-77709742D02*
X92989725Y-77669266D01*
X96642572Y-77790695D02*
X96642572Y-77304980D01*
X96642572Y-77547837D02*
X97492572Y-77547837D01*
X97492572Y-77547837D02*
X97371144Y-77466885D01*
X97371144Y-77466885D02*
X97290191Y-77385933D01*
X97290191Y-77385933D02*
X97249715Y-77304980D01*
X97209239Y-78519266D02*
X96642572Y-78519266D01*
X97533049Y-78316885D02*
X96925906Y-78114504D01*
X96925906Y-78114504D02*
X96925906Y-78640695D01*
X93758772Y-87880066D02*
X93758772Y-88446733D01*
X93758772Y-88446733D02*
X92908772Y-88082447D01*
X94110439Y-49641104D02*
X93543772Y-49641104D01*
X94434249Y-49438723D02*
X93827106Y-49236342D01*
X93827106Y-49236342D02*
X93827106Y-49762533D01*
X96642572Y-54397295D02*
X96642572Y-54559199D01*
X96642572Y-54559199D02*
X96683049Y-54640152D01*
X96683049Y-54640152D02*
X96723525Y-54680628D01*
X96723525Y-54680628D02*
X96844953Y-54761580D01*
X96844953Y-54761580D02*
X97006858Y-54802057D01*
X97006858Y-54802057D02*
X97330668Y-54802057D01*
X97330668Y-54802057D02*
X97411620Y-54761580D01*
X97411620Y-54761580D02*
X97452096Y-54721104D01*
X97452096Y-54721104D02*
X97492572Y-54640152D01*
X97492572Y-54640152D02*
X97492572Y-54478247D01*
X97492572Y-54478247D02*
X97452096Y-54397295D01*
X97452096Y-54397295D02*
X97411620Y-54356818D01*
X97411620Y-54356818D02*
X97330668Y-54316342D01*
X97330668Y-54316342D02*
X97128287Y-54316342D01*
X97128287Y-54316342D02*
X97047334Y-54356818D01*
X97047334Y-54356818D02*
X97006858Y-54397295D01*
X97006858Y-54397295D02*
X96966382Y-54478247D01*
X96966382Y-54478247D02*
X96966382Y-54640152D01*
X96966382Y-54640152D02*
X97006858Y-54721104D01*
X97006858Y-54721104D02*
X97047334Y-54761580D01*
X97047334Y-54761580D02*
X97128287Y-54802057D01*
X94393772Y-52221580D02*
X94393772Y-51816818D01*
X94393772Y-51816818D02*
X93989010Y-51776342D01*
X93989010Y-51776342D02*
X94029487Y-51816818D01*
X94029487Y-51816818D02*
X94069963Y-51897771D01*
X94069963Y-51897771D02*
X94069963Y-52100152D01*
X94069963Y-52100152D02*
X94029487Y-52181104D01*
X94029487Y-52181104D02*
X93989010Y-52221580D01*
X93989010Y-52221580D02*
X93908058Y-52262057D01*
X93908058Y-52262057D02*
X93705677Y-52262057D01*
X93705677Y-52262057D02*
X93624725Y-52221580D01*
X93624725Y-52221580D02*
X93584249Y-52181104D01*
X93584249Y-52181104D02*
X93543772Y-52100152D01*
X93543772Y-52100152D02*
X93543772Y-51897771D01*
X93543772Y-51897771D02*
X93584249Y-51816818D01*
X93584249Y-51816818D02*
X93624725Y-51776342D01*
X96642572Y-51857295D02*
X96642572Y-51371580D01*
X96642572Y-51614437D02*
X97492572Y-51614437D01*
X97492572Y-51614437D02*
X97371144Y-51533485D01*
X97371144Y-51533485D02*
X97290191Y-51452533D01*
X97290191Y-51452533D02*
X97249715Y-51371580D01*
X97492572Y-52383485D02*
X97492572Y-52464438D01*
X97492572Y-52464438D02*
X97452096Y-52545390D01*
X97452096Y-52545390D02*
X97411620Y-52585866D01*
X97411620Y-52585866D02*
X97330668Y-52626342D01*
X97330668Y-52626342D02*
X97168763Y-52666819D01*
X97168763Y-52666819D02*
X96966382Y-52666819D01*
X96966382Y-52666819D02*
X96804477Y-52626342D01*
X96804477Y-52626342D02*
X96723525Y-52585866D01*
X96723525Y-52585866D02*
X96683049Y-52545390D01*
X96683049Y-52545390D02*
X96642572Y-52464438D01*
X96642572Y-52464438D02*
X96642572Y-52383485D01*
X96642572Y-52383485D02*
X96683049Y-52302533D01*
X96683049Y-52302533D02*
X96723525Y-52262057D01*
X96723525Y-52262057D02*
X96804477Y-52221580D01*
X96804477Y-52221580D02*
X96966382Y-52181104D01*
X96966382Y-52181104D02*
X97168763Y-52181104D01*
X97168763Y-52181104D02*
X97330668Y-52221580D01*
X97330668Y-52221580D02*
X97411620Y-52262057D01*
X97411620Y-52262057D02*
X97452096Y-52302533D01*
X97452096Y-52302533D02*
X97492572Y-52383485D01*
X97229887Y-57018247D02*
X97270363Y-56937295D01*
X97270363Y-56937295D02*
X97310839Y-56896818D01*
X97310839Y-56896818D02*
X97391791Y-56856342D01*
X97391791Y-56856342D02*
X97432268Y-56856342D01*
X97432268Y-56856342D02*
X97513220Y-56896818D01*
X97513220Y-56896818D02*
X97553696Y-56937295D01*
X97553696Y-56937295D02*
X97594172Y-57018247D01*
X97594172Y-57018247D02*
X97594172Y-57180152D01*
X97594172Y-57180152D02*
X97553696Y-57261104D01*
X97553696Y-57261104D02*
X97513220Y-57301580D01*
X97513220Y-57301580D02*
X97432268Y-57342057D01*
X97432268Y-57342057D02*
X97391791Y-57342057D01*
X97391791Y-57342057D02*
X97310839Y-57301580D01*
X97310839Y-57301580D02*
X97270363Y-57261104D01*
X97270363Y-57261104D02*
X97229887Y-57180152D01*
X97229887Y-57180152D02*
X97229887Y-57018247D01*
X97229887Y-57018247D02*
X97189410Y-56937295D01*
X97189410Y-56937295D02*
X97148934Y-56896818D01*
X97148934Y-56896818D02*
X97067982Y-56856342D01*
X97067982Y-56856342D02*
X96906077Y-56856342D01*
X96906077Y-56856342D02*
X96825125Y-56896818D01*
X96825125Y-56896818D02*
X96784649Y-56937295D01*
X96784649Y-56937295D02*
X96744172Y-57018247D01*
X96744172Y-57018247D02*
X96744172Y-57180152D01*
X96744172Y-57180152D02*
X96784649Y-57261104D01*
X96784649Y-57261104D02*
X96825125Y-57301580D01*
X96825125Y-57301580D02*
X96906077Y-57342057D01*
X96906077Y-57342057D02*
X97067982Y-57342057D01*
X97067982Y-57342057D02*
X97148934Y-57301580D01*
X97148934Y-57301580D02*
X97189410Y-57261104D01*
X97189410Y-57261104D02*
X97229887Y-57180152D01*
X94980303Y-55212653D02*
X94899350Y-55172177D01*
X94899350Y-55172177D02*
X94777922Y-55172177D01*
X94777922Y-55172177D02*
X94656493Y-55212653D01*
X94656493Y-55212653D02*
X94575541Y-55293605D01*
X94575541Y-55293605D02*
X94535064Y-55374558D01*
X94535064Y-55374558D02*
X94494588Y-55536462D01*
X94494588Y-55536462D02*
X94494588Y-55657891D01*
X94494588Y-55657891D02*
X94535064Y-55819796D01*
X94535064Y-55819796D02*
X94575541Y-55900748D01*
X94575541Y-55900748D02*
X94656493Y-55981701D01*
X94656493Y-55981701D02*
X94777922Y-56022177D01*
X94777922Y-56022177D02*
X94858874Y-56022177D01*
X94858874Y-56022177D02*
X94980303Y-55981701D01*
X94980303Y-55981701D02*
X95020779Y-55941224D01*
X95020779Y-55941224D02*
X95020779Y-55657891D01*
X95020779Y-55657891D02*
X94858874Y-55657891D01*
X95385064Y-56022177D02*
X95385064Y-55172177D01*
X95385064Y-55172177D02*
X95870779Y-56022177D01*
X95870779Y-56022177D02*
X95870779Y-55172177D01*
X96275540Y-56022177D02*
X96275540Y-55172177D01*
X96275540Y-55172177D02*
X96477921Y-55172177D01*
X96477921Y-55172177D02*
X96599350Y-55212653D01*
X96599350Y-55212653D02*
X96680302Y-55293605D01*
X96680302Y-55293605D02*
X96720779Y-55374558D01*
X96720779Y-55374558D02*
X96761255Y-55536462D01*
X96761255Y-55536462D02*
X96761255Y-55657891D01*
X96761255Y-55657891D02*
X96720779Y-55819796D01*
X96720779Y-55819796D02*
X96680302Y-55900748D01*
X96680302Y-55900748D02*
X96599350Y-55981701D01*
X96599350Y-55981701D02*
X96477921Y-56022177D01*
X96477921Y-56022177D02*
X96275540Y-56022177D01*
X94393772Y-46605066D02*
X94393772Y-47131257D01*
X94393772Y-47131257D02*
X94069963Y-46847923D01*
X94069963Y-46847923D02*
X94069963Y-46969352D01*
X94069963Y-46969352D02*
X94029487Y-47050304D01*
X94029487Y-47050304D02*
X93989010Y-47090780D01*
X93989010Y-47090780D02*
X93908058Y-47131257D01*
X93908058Y-47131257D02*
X93705677Y-47131257D01*
X93705677Y-47131257D02*
X93624725Y-47090780D01*
X93624725Y-47090780D02*
X93584249Y-47050304D01*
X93584249Y-47050304D02*
X93543772Y-46969352D01*
X93543772Y-46969352D02*
X93543772Y-46726495D01*
X93543772Y-46726495D02*
X93584249Y-46645542D01*
X93584249Y-46645542D02*
X93624725Y-46605066D01*
X96642572Y-49317295D02*
X96642572Y-48831580D01*
X96642572Y-49074437D02*
X97492572Y-49074437D01*
X97492572Y-49074437D02*
X97371144Y-48993485D01*
X97371144Y-48993485D02*
X97290191Y-48912533D01*
X97290191Y-48912533D02*
X97249715Y-48831580D01*
X96642572Y-50126819D02*
X96642572Y-49641104D01*
X96642572Y-49883961D02*
X97492572Y-49883961D01*
X97492572Y-49883961D02*
X97371144Y-49803009D01*
X97371144Y-49803009D02*
X97290191Y-49722057D01*
X97290191Y-49722057D02*
X97249715Y-49641104D01*
X96642572Y-41697295D02*
X96642572Y-41211580D01*
X96642572Y-41454437D02*
X97492572Y-41454437D01*
X97492572Y-41454437D02*
X97371144Y-41373485D01*
X97371144Y-41373485D02*
X97290191Y-41292533D01*
X97290191Y-41292533D02*
X97249715Y-41211580D01*
X97209239Y-42425866D02*
X96642572Y-42425866D01*
X97533049Y-42223485D02*
X96925906Y-42021104D01*
X96925906Y-42021104D02*
X96925906Y-42547295D01*
X94393772Y-54721104D02*
X94393772Y-54559199D01*
X94393772Y-54559199D02*
X94353296Y-54478247D01*
X94353296Y-54478247D02*
X94312820Y-54437771D01*
X94312820Y-54437771D02*
X94191391Y-54356818D01*
X94191391Y-54356818D02*
X94029487Y-54316342D01*
X94029487Y-54316342D02*
X93705677Y-54316342D01*
X93705677Y-54316342D02*
X93624725Y-54356818D01*
X93624725Y-54356818D02*
X93584249Y-54397295D01*
X93584249Y-54397295D02*
X93543772Y-54478247D01*
X93543772Y-54478247D02*
X93543772Y-54640152D01*
X93543772Y-54640152D02*
X93584249Y-54721104D01*
X93584249Y-54721104D02*
X93624725Y-54761580D01*
X93624725Y-54761580D02*
X93705677Y-54802057D01*
X93705677Y-54802057D02*
X93908058Y-54802057D01*
X93908058Y-54802057D02*
X93989010Y-54761580D01*
X93989010Y-54761580D02*
X94029487Y-54721104D01*
X94029487Y-54721104D02*
X94069963Y-54640152D01*
X94069963Y-54640152D02*
X94069963Y-54478247D01*
X94069963Y-54478247D02*
X94029487Y-54397295D01*
X94029487Y-54397295D02*
X93989010Y-54356818D01*
X93989010Y-54356818D02*
X93908058Y-54316342D01*
X94292172Y-56815866D02*
X94292172Y-57382533D01*
X94292172Y-57382533D02*
X93442172Y-57018247D01*
X93391372Y-41289257D02*
X93391372Y-40803542D01*
X93391372Y-41046399D02*
X94241372Y-41046399D01*
X94241372Y-41046399D02*
X94119944Y-40965447D01*
X94119944Y-40965447D02*
X94038991Y-40884495D01*
X94038991Y-40884495D02*
X93998515Y-40803542D01*
X94312820Y-44207142D02*
X94353296Y-44247618D01*
X94353296Y-44247618D02*
X94393772Y-44328571D01*
X94393772Y-44328571D02*
X94393772Y-44530952D01*
X94393772Y-44530952D02*
X94353296Y-44611904D01*
X94353296Y-44611904D02*
X94312820Y-44652380D01*
X94312820Y-44652380D02*
X94231868Y-44692857D01*
X94231868Y-44692857D02*
X94150915Y-44692857D01*
X94150915Y-44692857D02*
X94029487Y-44652380D01*
X94029487Y-44652380D02*
X93543772Y-44166666D01*
X93543772Y-44166666D02*
X93543772Y-44692857D01*
X96642572Y-46777295D02*
X96642572Y-46291580D01*
X96642572Y-46534437D02*
X97492572Y-46534437D01*
X97492572Y-46534437D02*
X97371144Y-46453485D01*
X97371144Y-46453485D02*
X97290191Y-46372533D01*
X97290191Y-46372533D02*
X97249715Y-46291580D01*
X97411620Y-47101104D02*
X97452096Y-47141580D01*
X97452096Y-47141580D02*
X97492572Y-47222533D01*
X97492572Y-47222533D02*
X97492572Y-47424914D01*
X97492572Y-47424914D02*
X97452096Y-47505866D01*
X97452096Y-47505866D02*
X97411620Y-47546342D01*
X97411620Y-47546342D02*
X97330668Y-47586819D01*
X97330668Y-47586819D02*
X97249715Y-47586819D01*
X97249715Y-47586819D02*
X97128287Y-47546342D01*
X97128287Y-47546342D02*
X96642572Y-47060628D01*
X96642572Y-47060628D02*
X96642572Y-47586819D01*
X94970600Y-48345960D02*
X94922980Y-48488817D01*
X94922980Y-48488817D02*
X94922980Y-48726912D01*
X94922980Y-48726912D02*
X94970600Y-48822150D01*
X94970600Y-48822150D02*
X95018219Y-48869769D01*
X95018219Y-48869769D02*
X95113457Y-48917388D01*
X95113457Y-48917388D02*
X95208695Y-48917388D01*
X95208695Y-48917388D02*
X95303933Y-48869769D01*
X95303933Y-48869769D02*
X95351552Y-48822150D01*
X95351552Y-48822150D02*
X95399171Y-48726912D01*
X95399171Y-48726912D02*
X95446790Y-48536436D01*
X95446790Y-48536436D02*
X95494409Y-48441198D01*
X95494409Y-48441198D02*
X95542028Y-48393579D01*
X95542028Y-48393579D02*
X95637266Y-48345960D01*
X95637266Y-48345960D02*
X95732504Y-48345960D01*
X95732504Y-48345960D02*
X95827742Y-48393579D01*
X95827742Y-48393579D02*
X95875361Y-48441198D01*
X95875361Y-48441198D02*
X95922980Y-48536436D01*
X95922980Y-48536436D02*
X95922980Y-48774531D01*
X95922980Y-48774531D02*
X95875361Y-48917388D01*
X95922980Y-49536436D02*
X95922980Y-49726912D01*
X95922980Y-49726912D02*
X95875361Y-49822150D01*
X95875361Y-49822150D02*
X95780123Y-49917388D01*
X95780123Y-49917388D02*
X95589647Y-49965007D01*
X95589647Y-49965007D02*
X95256314Y-49965007D01*
X95256314Y-49965007D02*
X95065838Y-49917388D01*
X95065838Y-49917388D02*
X94970600Y-49822150D01*
X94970600Y-49822150D02*
X94922980Y-49726912D01*
X94922980Y-49726912D02*
X94922980Y-49536436D01*
X94922980Y-49536436D02*
X94970600Y-49441198D01*
X94970600Y-49441198D02*
X95065838Y-49345960D01*
X95065838Y-49345960D02*
X95256314Y-49298341D01*
X95256314Y-49298341D02*
X95589647Y-49298341D01*
X95589647Y-49298341D02*
X95780123Y-49345960D01*
X95780123Y-49345960D02*
X95875361Y-49441198D01*
X95875361Y-49441198D02*
X95922980Y-49536436D01*
X94922980Y-50393579D02*
X95922980Y-50393579D01*
X95018219Y-51441197D02*
X94970600Y-51393578D01*
X94970600Y-51393578D02*
X94922980Y-51250721D01*
X94922980Y-51250721D02*
X94922980Y-51155483D01*
X94922980Y-51155483D02*
X94970600Y-51012626D01*
X94970600Y-51012626D02*
X95065838Y-50917388D01*
X95065838Y-50917388D02*
X95161076Y-50869769D01*
X95161076Y-50869769D02*
X95351552Y-50822150D01*
X95351552Y-50822150D02*
X95494409Y-50822150D01*
X95494409Y-50822150D02*
X95684885Y-50869769D01*
X95684885Y-50869769D02*
X95780123Y-50917388D01*
X95780123Y-50917388D02*
X95875361Y-51012626D01*
X95875361Y-51012626D02*
X95922980Y-51155483D01*
X95922980Y-51155483D02*
X95922980Y-51250721D01*
X95922980Y-51250721D02*
X95875361Y-51393578D01*
X95875361Y-51393578D02*
X95827742Y-51441197D01*
X95303933Y-51869769D02*
X95303933Y-52631674D01*
X94922980Y-53631673D02*
X94922980Y-53060245D01*
X94922980Y-53345959D02*
X95922980Y-53345959D01*
X95922980Y-53345959D02*
X95780123Y-53250721D01*
X95780123Y-53250721D02*
X95684885Y-53155483D01*
X95684885Y-53155483D02*
X95637266Y-53060245D01*
X95589647Y-54488816D02*
X94922980Y-54488816D01*
X95970600Y-54250721D02*
X95256314Y-54012626D01*
X95256314Y-54012626D02*
X95256314Y-54631673D01*
X96642572Y-44237295D02*
X96642572Y-43751580D01*
X96642572Y-43994437D02*
X97492572Y-43994437D01*
X97492572Y-43994437D02*
X97371144Y-43913485D01*
X97371144Y-43913485D02*
X97290191Y-43832533D01*
X97290191Y-43832533D02*
X97249715Y-43751580D01*
X97492572Y-44520628D02*
X97492572Y-45046819D01*
X97492572Y-45046819D02*
X97168763Y-44763485D01*
X97168763Y-44763485D02*
X97168763Y-44884914D01*
X97168763Y-44884914D02*
X97128287Y-44965866D01*
X97128287Y-44965866D02*
X97087810Y-45006342D01*
X97087810Y-45006342D02*
X97006858Y-45046819D01*
X97006858Y-45046819D02*
X96804477Y-45046819D01*
X96804477Y-45046819D02*
X96723525Y-45006342D01*
X96723525Y-45006342D02*
X96683049Y-44965866D01*
X96683049Y-44965866D02*
X96642572Y-44884914D01*
X96642572Y-44884914D02*
X96642572Y-44642057D01*
X96642572Y-44642057D02*
X96683049Y-44561104D01*
X96683049Y-44561104D02*
X96723525Y-44520628D01*
X142362572Y-51857295D02*
X142362572Y-51371580D01*
X142362572Y-51614437D02*
X143212572Y-51614437D01*
X143212572Y-51614437D02*
X143091144Y-51533485D01*
X143091144Y-51533485D02*
X143010191Y-51452533D01*
X143010191Y-51452533D02*
X142969715Y-51371580D01*
X143212572Y-52383485D02*
X143212572Y-52464438D01*
X143212572Y-52464438D02*
X143172096Y-52545390D01*
X143172096Y-52545390D02*
X143131620Y-52585866D01*
X143131620Y-52585866D02*
X143050668Y-52626342D01*
X143050668Y-52626342D02*
X142888763Y-52666819D01*
X142888763Y-52666819D02*
X142686382Y-52666819D01*
X142686382Y-52666819D02*
X142524477Y-52626342D01*
X142524477Y-52626342D02*
X142443525Y-52585866D01*
X142443525Y-52585866D02*
X142403049Y-52545390D01*
X142403049Y-52545390D02*
X142362572Y-52464438D01*
X142362572Y-52464438D02*
X142362572Y-52383485D01*
X142362572Y-52383485D02*
X142403049Y-52302533D01*
X142403049Y-52302533D02*
X142443525Y-52262057D01*
X142443525Y-52262057D02*
X142524477Y-52221580D01*
X142524477Y-52221580D02*
X142686382Y-52181104D01*
X142686382Y-52181104D02*
X142888763Y-52181104D01*
X142888763Y-52181104D02*
X143050668Y-52221580D01*
X143050668Y-52221580D02*
X143131620Y-52262057D01*
X143131620Y-52262057D02*
X143172096Y-52302533D01*
X143172096Y-52302533D02*
X143212572Y-52383485D01*
X142362572Y-44237295D02*
X142362572Y-43751580D01*
X142362572Y-43994437D02*
X143212572Y-43994437D01*
X143212572Y-43994437D02*
X143091144Y-43913485D01*
X143091144Y-43913485D02*
X143010191Y-43832533D01*
X143010191Y-43832533D02*
X142969715Y-43751580D01*
X143212572Y-44520628D02*
X143212572Y-45046819D01*
X143212572Y-45046819D02*
X142888763Y-44763485D01*
X142888763Y-44763485D02*
X142888763Y-44884914D01*
X142888763Y-44884914D02*
X142848287Y-44965866D01*
X142848287Y-44965866D02*
X142807810Y-45006342D01*
X142807810Y-45006342D02*
X142726858Y-45046819D01*
X142726858Y-45046819D02*
X142524477Y-45046819D01*
X142524477Y-45046819D02*
X142443525Y-45006342D01*
X142443525Y-45006342D02*
X142403049Y-44965866D01*
X142403049Y-44965866D02*
X142362572Y-44884914D01*
X142362572Y-44884914D02*
X142362572Y-44642057D01*
X142362572Y-44642057D02*
X142403049Y-44561104D01*
X142403049Y-44561104D02*
X142443525Y-44520628D01*
X140700303Y-55212653D02*
X140619350Y-55172177D01*
X140619350Y-55172177D02*
X140497922Y-55172177D01*
X140497922Y-55172177D02*
X140376493Y-55212653D01*
X140376493Y-55212653D02*
X140295541Y-55293605D01*
X140295541Y-55293605D02*
X140255064Y-55374558D01*
X140255064Y-55374558D02*
X140214588Y-55536462D01*
X140214588Y-55536462D02*
X140214588Y-55657891D01*
X140214588Y-55657891D02*
X140255064Y-55819796D01*
X140255064Y-55819796D02*
X140295541Y-55900748D01*
X140295541Y-55900748D02*
X140376493Y-55981701D01*
X140376493Y-55981701D02*
X140497922Y-56022177D01*
X140497922Y-56022177D02*
X140578874Y-56022177D01*
X140578874Y-56022177D02*
X140700303Y-55981701D01*
X140700303Y-55981701D02*
X140740779Y-55941224D01*
X140740779Y-55941224D02*
X140740779Y-55657891D01*
X140740779Y-55657891D02*
X140578874Y-55657891D01*
X141105064Y-56022177D02*
X141105064Y-55172177D01*
X141105064Y-55172177D02*
X141590779Y-56022177D01*
X141590779Y-56022177D02*
X141590779Y-55172177D01*
X141995540Y-56022177D02*
X141995540Y-55172177D01*
X141995540Y-55172177D02*
X142197921Y-55172177D01*
X142197921Y-55172177D02*
X142319350Y-55212653D01*
X142319350Y-55212653D02*
X142400302Y-55293605D01*
X142400302Y-55293605D02*
X142440779Y-55374558D01*
X142440779Y-55374558D02*
X142481255Y-55536462D01*
X142481255Y-55536462D02*
X142481255Y-55657891D01*
X142481255Y-55657891D02*
X142440779Y-55819796D01*
X142440779Y-55819796D02*
X142400302Y-55900748D01*
X142400302Y-55900748D02*
X142319350Y-55981701D01*
X142319350Y-55981701D02*
X142197921Y-56022177D01*
X142197921Y-56022177D02*
X141995540Y-56022177D01*
X142362572Y-41697295D02*
X142362572Y-41211580D01*
X142362572Y-41454437D02*
X143212572Y-41454437D01*
X143212572Y-41454437D02*
X143091144Y-41373485D01*
X143091144Y-41373485D02*
X143010191Y-41292533D01*
X143010191Y-41292533D02*
X142969715Y-41211580D01*
X142929239Y-42425866D02*
X142362572Y-42425866D01*
X143253049Y-42223485D02*
X142645906Y-42021104D01*
X142645906Y-42021104D02*
X142645906Y-42547295D01*
X140113772Y-54721104D02*
X140113772Y-54559199D01*
X140113772Y-54559199D02*
X140073296Y-54478247D01*
X140073296Y-54478247D02*
X140032820Y-54437771D01*
X140032820Y-54437771D02*
X139911391Y-54356818D01*
X139911391Y-54356818D02*
X139749487Y-54316342D01*
X139749487Y-54316342D02*
X139425677Y-54316342D01*
X139425677Y-54316342D02*
X139344725Y-54356818D01*
X139344725Y-54356818D02*
X139304249Y-54397295D01*
X139304249Y-54397295D02*
X139263772Y-54478247D01*
X139263772Y-54478247D02*
X139263772Y-54640152D01*
X139263772Y-54640152D02*
X139304249Y-54721104D01*
X139304249Y-54721104D02*
X139344725Y-54761580D01*
X139344725Y-54761580D02*
X139425677Y-54802057D01*
X139425677Y-54802057D02*
X139628058Y-54802057D01*
X139628058Y-54802057D02*
X139709010Y-54761580D01*
X139709010Y-54761580D02*
X139749487Y-54721104D01*
X139749487Y-54721104D02*
X139789963Y-54640152D01*
X139789963Y-54640152D02*
X139789963Y-54478247D01*
X139789963Y-54478247D02*
X139749487Y-54397295D01*
X139749487Y-54397295D02*
X139709010Y-54356818D01*
X139709010Y-54356818D02*
X139628058Y-54316342D01*
X140032820Y-44207142D02*
X140073296Y-44247618D01*
X140073296Y-44247618D02*
X140113772Y-44328571D01*
X140113772Y-44328571D02*
X140113772Y-44530952D01*
X140113772Y-44530952D02*
X140073296Y-44611904D01*
X140073296Y-44611904D02*
X140032820Y-44652380D01*
X140032820Y-44652380D02*
X139951868Y-44692857D01*
X139951868Y-44692857D02*
X139870915Y-44692857D01*
X139870915Y-44692857D02*
X139749487Y-44652380D01*
X139749487Y-44652380D02*
X139263772Y-44166666D01*
X139263772Y-44166666D02*
X139263772Y-44692857D01*
X142362572Y-46777295D02*
X142362572Y-46291580D01*
X142362572Y-46534437D02*
X143212572Y-46534437D01*
X143212572Y-46534437D02*
X143091144Y-46453485D01*
X143091144Y-46453485D02*
X143010191Y-46372533D01*
X143010191Y-46372533D02*
X142969715Y-46291580D01*
X143131620Y-47101104D02*
X143172096Y-47141580D01*
X143172096Y-47141580D02*
X143212572Y-47222533D01*
X143212572Y-47222533D02*
X143212572Y-47424914D01*
X143212572Y-47424914D02*
X143172096Y-47505866D01*
X143172096Y-47505866D02*
X143131620Y-47546342D01*
X143131620Y-47546342D02*
X143050668Y-47586819D01*
X143050668Y-47586819D02*
X142969715Y-47586819D01*
X142969715Y-47586819D02*
X142848287Y-47546342D01*
X142848287Y-47546342D02*
X142362572Y-47060628D01*
X142362572Y-47060628D02*
X142362572Y-47586819D01*
X139111372Y-41289257D02*
X139111372Y-40803542D01*
X139111372Y-41046399D02*
X139961372Y-41046399D01*
X139961372Y-41046399D02*
X139839944Y-40965447D01*
X139839944Y-40965447D02*
X139758991Y-40884495D01*
X139758991Y-40884495D02*
X139718515Y-40803542D01*
X140113772Y-52221580D02*
X140113772Y-51816818D01*
X140113772Y-51816818D02*
X139709010Y-51776342D01*
X139709010Y-51776342D02*
X139749487Y-51816818D01*
X139749487Y-51816818D02*
X139789963Y-51897771D01*
X139789963Y-51897771D02*
X139789963Y-52100152D01*
X139789963Y-52100152D02*
X139749487Y-52181104D01*
X139749487Y-52181104D02*
X139709010Y-52221580D01*
X139709010Y-52221580D02*
X139628058Y-52262057D01*
X139628058Y-52262057D02*
X139425677Y-52262057D01*
X139425677Y-52262057D02*
X139344725Y-52221580D01*
X139344725Y-52221580D02*
X139304249Y-52181104D01*
X139304249Y-52181104D02*
X139263772Y-52100152D01*
X139263772Y-52100152D02*
X139263772Y-51897771D01*
X139263772Y-51897771D02*
X139304249Y-51816818D01*
X139304249Y-51816818D02*
X139344725Y-51776342D01*
X140113772Y-46605066D02*
X140113772Y-47131257D01*
X140113772Y-47131257D02*
X139789963Y-46847923D01*
X139789963Y-46847923D02*
X139789963Y-46969352D01*
X139789963Y-46969352D02*
X139749487Y-47050304D01*
X139749487Y-47050304D02*
X139709010Y-47090780D01*
X139709010Y-47090780D02*
X139628058Y-47131257D01*
X139628058Y-47131257D02*
X139425677Y-47131257D01*
X139425677Y-47131257D02*
X139344725Y-47090780D01*
X139344725Y-47090780D02*
X139304249Y-47050304D01*
X139304249Y-47050304D02*
X139263772Y-46969352D01*
X139263772Y-46969352D02*
X139263772Y-46726495D01*
X139263772Y-46726495D02*
X139304249Y-46645542D01*
X139304249Y-46645542D02*
X139344725Y-46605066D01*
X139830439Y-49641104D02*
X139263772Y-49641104D01*
X140154249Y-49438723D02*
X139547106Y-49236342D01*
X139547106Y-49236342D02*
X139547106Y-49762533D01*
X142362572Y-49317295D02*
X142362572Y-48831580D01*
X142362572Y-49074437D02*
X143212572Y-49074437D01*
X143212572Y-49074437D02*
X143091144Y-48993485D01*
X143091144Y-48993485D02*
X143010191Y-48912533D01*
X143010191Y-48912533D02*
X142969715Y-48831580D01*
X142362572Y-50126819D02*
X142362572Y-49641104D01*
X142362572Y-49883961D02*
X143212572Y-49883961D01*
X143212572Y-49883961D02*
X143091144Y-49803009D01*
X143091144Y-49803009D02*
X143010191Y-49722057D01*
X143010191Y-49722057D02*
X142969715Y-49641104D01*
X140690600Y-48345960D02*
X140642980Y-48488817D01*
X140642980Y-48488817D02*
X140642980Y-48726912D01*
X140642980Y-48726912D02*
X140690600Y-48822150D01*
X140690600Y-48822150D02*
X140738219Y-48869769D01*
X140738219Y-48869769D02*
X140833457Y-48917388D01*
X140833457Y-48917388D02*
X140928695Y-48917388D01*
X140928695Y-48917388D02*
X141023933Y-48869769D01*
X141023933Y-48869769D02*
X141071552Y-48822150D01*
X141071552Y-48822150D02*
X141119171Y-48726912D01*
X141119171Y-48726912D02*
X141166790Y-48536436D01*
X141166790Y-48536436D02*
X141214409Y-48441198D01*
X141214409Y-48441198D02*
X141262028Y-48393579D01*
X141262028Y-48393579D02*
X141357266Y-48345960D01*
X141357266Y-48345960D02*
X141452504Y-48345960D01*
X141452504Y-48345960D02*
X141547742Y-48393579D01*
X141547742Y-48393579D02*
X141595361Y-48441198D01*
X141595361Y-48441198D02*
X141642980Y-48536436D01*
X141642980Y-48536436D02*
X141642980Y-48774531D01*
X141642980Y-48774531D02*
X141595361Y-48917388D01*
X141642980Y-49536436D02*
X141642980Y-49726912D01*
X141642980Y-49726912D02*
X141595361Y-49822150D01*
X141595361Y-49822150D02*
X141500123Y-49917388D01*
X141500123Y-49917388D02*
X141309647Y-49965007D01*
X141309647Y-49965007D02*
X140976314Y-49965007D01*
X140976314Y-49965007D02*
X140785838Y-49917388D01*
X140785838Y-49917388D02*
X140690600Y-49822150D01*
X140690600Y-49822150D02*
X140642980Y-49726912D01*
X140642980Y-49726912D02*
X140642980Y-49536436D01*
X140642980Y-49536436D02*
X140690600Y-49441198D01*
X140690600Y-49441198D02*
X140785838Y-49345960D01*
X140785838Y-49345960D02*
X140976314Y-49298341D01*
X140976314Y-49298341D02*
X141309647Y-49298341D01*
X141309647Y-49298341D02*
X141500123Y-49345960D01*
X141500123Y-49345960D02*
X141595361Y-49441198D01*
X141595361Y-49441198D02*
X141642980Y-49536436D01*
X140642980Y-50393579D02*
X141642980Y-50393579D01*
X140738219Y-51441197D02*
X140690600Y-51393578D01*
X140690600Y-51393578D02*
X140642980Y-51250721D01*
X140642980Y-51250721D02*
X140642980Y-51155483D01*
X140642980Y-51155483D02*
X140690600Y-51012626D01*
X140690600Y-51012626D02*
X140785838Y-50917388D01*
X140785838Y-50917388D02*
X140881076Y-50869769D01*
X140881076Y-50869769D02*
X141071552Y-50822150D01*
X141071552Y-50822150D02*
X141214409Y-50822150D01*
X141214409Y-50822150D02*
X141404885Y-50869769D01*
X141404885Y-50869769D02*
X141500123Y-50917388D01*
X141500123Y-50917388D02*
X141595361Y-51012626D01*
X141595361Y-51012626D02*
X141642980Y-51155483D01*
X141642980Y-51155483D02*
X141642980Y-51250721D01*
X141642980Y-51250721D02*
X141595361Y-51393578D01*
X141595361Y-51393578D02*
X141547742Y-51441197D01*
X141023933Y-51869769D02*
X141023933Y-52631674D01*
X140642980Y-53631673D02*
X140642980Y-53060245D01*
X140642980Y-53345959D02*
X141642980Y-53345959D01*
X141642980Y-53345959D02*
X141500123Y-53250721D01*
X141500123Y-53250721D02*
X141404885Y-53155483D01*
X141404885Y-53155483D02*
X141357266Y-53060245D01*
X141309647Y-54488816D02*
X140642980Y-54488816D01*
X141690600Y-54250721D02*
X140976314Y-54012626D01*
X140976314Y-54012626D02*
X140976314Y-54631673D01*
X142949887Y-57018247D02*
X142990363Y-56937295D01*
X142990363Y-56937295D02*
X143030839Y-56896818D01*
X143030839Y-56896818D02*
X143111791Y-56856342D01*
X143111791Y-56856342D02*
X143152268Y-56856342D01*
X143152268Y-56856342D02*
X143233220Y-56896818D01*
X143233220Y-56896818D02*
X143273696Y-56937295D01*
X143273696Y-56937295D02*
X143314172Y-57018247D01*
X143314172Y-57018247D02*
X143314172Y-57180152D01*
X143314172Y-57180152D02*
X143273696Y-57261104D01*
X143273696Y-57261104D02*
X143233220Y-57301580D01*
X143233220Y-57301580D02*
X143152268Y-57342057D01*
X143152268Y-57342057D02*
X143111791Y-57342057D01*
X143111791Y-57342057D02*
X143030839Y-57301580D01*
X143030839Y-57301580D02*
X142990363Y-57261104D01*
X142990363Y-57261104D02*
X142949887Y-57180152D01*
X142949887Y-57180152D02*
X142949887Y-57018247D01*
X142949887Y-57018247D02*
X142909410Y-56937295D01*
X142909410Y-56937295D02*
X142868934Y-56896818D01*
X142868934Y-56896818D02*
X142787982Y-56856342D01*
X142787982Y-56856342D02*
X142626077Y-56856342D01*
X142626077Y-56856342D02*
X142545125Y-56896818D01*
X142545125Y-56896818D02*
X142504649Y-56937295D01*
X142504649Y-56937295D02*
X142464172Y-57018247D01*
X142464172Y-57018247D02*
X142464172Y-57180152D01*
X142464172Y-57180152D02*
X142504649Y-57261104D01*
X142504649Y-57261104D02*
X142545125Y-57301580D01*
X142545125Y-57301580D02*
X142626077Y-57342057D01*
X142626077Y-57342057D02*
X142787982Y-57342057D01*
X142787982Y-57342057D02*
X142868934Y-57301580D01*
X142868934Y-57301580D02*
X142909410Y-57261104D01*
X142909410Y-57261104D02*
X142949887Y-57180152D01*
X140012172Y-56815866D02*
X140012172Y-57382533D01*
X140012172Y-57382533D02*
X139162172Y-57018247D01*
X142362572Y-54397295D02*
X142362572Y-54559199D01*
X142362572Y-54559199D02*
X142403049Y-54640152D01*
X142403049Y-54640152D02*
X142443525Y-54680628D01*
X142443525Y-54680628D02*
X142564953Y-54761580D01*
X142564953Y-54761580D02*
X142726858Y-54802057D01*
X142726858Y-54802057D02*
X143050668Y-54802057D01*
X143050668Y-54802057D02*
X143131620Y-54761580D01*
X143131620Y-54761580D02*
X143172096Y-54721104D01*
X143172096Y-54721104D02*
X143212572Y-54640152D01*
X143212572Y-54640152D02*
X143212572Y-54478247D01*
X143212572Y-54478247D02*
X143172096Y-54397295D01*
X143172096Y-54397295D02*
X143131620Y-54356818D01*
X143131620Y-54356818D02*
X143050668Y-54316342D01*
X143050668Y-54316342D02*
X142848287Y-54316342D01*
X142848287Y-54316342D02*
X142767334Y-54356818D01*
X142767334Y-54356818D02*
X142726858Y-54397295D01*
X142726858Y-54397295D02*
X142686382Y-54478247D01*
X142686382Y-54478247D02*
X142686382Y-54640152D01*
X142686382Y-54640152D02*
X142726858Y-54721104D01*
X142726858Y-54721104D02*
X142767334Y-54761580D01*
X142767334Y-54761580D02*
X142848287Y-54802057D01*
X128400439Y-49641104D02*
X127833772Y-49641104D01*
X128724249Y-49438723D02*
X128117106Y-49236342D01*
X128117106Y-49236342D02*
X128117106Y-49762533D01*
X130932572Y-54397295D02*
X130932572Y-54559199D01*
X130932572Y-54559199D02*
X130973049Y-54640152D01*
X130973049Y-54640152D02*
X131013525Y-54680628D01*
X131013525Y-54680628D02*
X131134953Y-54761580D01*
X131134953Y-54761580D02*
X131296858Y-54802057D01*
X131296858Y-54802057D02*
X131620668Y-54802057D01*
X131620668Y-54802057D02*
X131701620Y-54761580D01*
X131701620Y-54761580D02*
X131742096Y-54721104D01*
X131742096Y-54721104D02*
X131782572Y-54640152D01*
X131782572Y-54640152D02*
X131782572Y-54478247D01*
X131782572Y-54478247D02*
X131742096Y-54397295D01*
X131742096Y-54397295D02*
X131701620Y-54356818D01*
X131701620Y-54356818D02*
X131620668Y-54316342D01*
X131620668Y-54316342D02*
X131418287Y-54316342D01*
X131418287Y-54316342D02*
X131337334Y-54356818D01*
X131337334Y-54356818D02*
X131296858Y-54397295D01*
X131296858Y-54397295D02*
X131256382Y-54478247D01*
X131256382Y-54478247D02*
X131256382Y-54640152D01*
X131256382Y-54640152D02*
X131296858Y-54721104D01*
X131296858Y-54721104D02*
X131337334Y-54761580D01*
X131337334Y-54761580D02*
X131418287Y-54802057D01*
X128683772Y-52221580D02*
X128683772Y-51816818D01*
X128683772Y-51816818D02*
X128279010Y-51776342D01*
X128279010Y-51776342D02*
X128319487Y-51816818D01*
X128319487Y-51816818D02*
X128359963Y-51897771D01*
X128359963Y-51897771D02*
X128359963Y-52100152D01*
X128359963Y-52100152D02*
X128319487Y-52181104D01*
X128319487Y-52181104D02*
X128279010Y-52221580D01*
X128279010Y-52221580D02*
X128198058Y-52262057D01*
X128198058Y-52262057D02*
X127995677Y-52262057D01*
X127995677Y-52262057D02*
X127914725Y-52221580D01*
X127914725Y-52221580D02*
X127874249Y-52181104D01*
X127874249Y-52181104D02*
X127833772Y-52100152D01*
X127833772Y-52100152D02*
X127833772Y-51897771D01*
X127833772Y-51897771D02*
X127874249Y-51816818D01*
X127874249Y-51816818D02*
X127914725Y-51776342D01*
X130932572Y-51857295D02*
X130932572Y-51371580D01*
X130932572Y-51614437D02*
X131782572Y-51614437D01*
X131782572Y-51614437D02*
X131661144Y-51533485D01*
X131661144Y-51533485D02*
X131580191Y-51452533D01*
X131580191Y-51452533D02*
X131539715Y-51371580D01*
X131782572Y-52383485D02*
X131782572Y-52464438D01*
X131782572Y-52464438D02*
X131742096Y-52545390D01*
X131742096Y-52545390D02*
X131701620Y-52585866D01*
X131701620Y-52585866D02*
X131620668Y-52626342D01*
X131620668Y-52626342D02*
X131458763Y-52666819D01*
X131458763Y-52666819D02*
X131256382Y-52666819D01*
X131256382Y-52666819D02*
X131094477Y-52626342D01*
X131094477Y-52626342D02*
X131013525Y-52585866D01*
X131013525Y-52585866D02*
X130973049Y-52545390D01*
X130973049Y-52545390D02*
X130932572Y-52464438D01*
X130932572Y-52464438D02*
X130932572Y-52383485D01*
X130932572Y-52383485D02*
X130973049Y-52302533D01*
X130973049Y-52302533D02*
X131013525Y-52262057D01*
X131013525Y-52262057D02*
X131094477Y-52221580D01*
X131094477Y-52221580D02*
X131256382Y-52181104D01*
X131256382Y-52181104D02*
X131458763Y-52181104D01*
X131458763Y-52181104D02*
X131620668Y-52221580D01*
X131620668Y-52221580D02*
X131701620Y-52262057D01*
X131701620Y-52262057D02*
X131742096Y-52302533D01*
X131742096Y-52302533D02*
X131782572Y-52383485D01*
X131519887Y-57018247D02*
X131560363Y-56937295D01*
X131560363Y-56937295D02*
X131600839Y-56896818D01*
X131600839Y-56896818D02*
X131681791Y-56856342D01*
X131681791Y-56856342D02*
X131722268Y-56856342D01*
X131722268Y-56856342D02*
X131803220Y-56896818D01*
X131803220Y-56896818D02*
X131843696Y-56937295D01*
X131843696Y-56937295D02*
X131884172Y-57018247D01*
X131884172Y-57018247D02*
X131884172Y-57180152D01*
X131884172Y-57180152D02*
X131843696Y-57261104D01*
X131843696Y-57261104D02*
X131803220Y-57301580D01*
X131803220Y-57301580D02*
X131722268Y-57342057D01*
X131722268Y-57342057D02*
X131681791Y-57342057D01*
X131681791Y-57342057D02*
X131600839Y-57301580D01*
X131600839Y-57301580D02*
X131560363Y-57261104D01*
X131560363Y-57261104D02*
X131519887Y-57180152D01*
X131519887Y-57180152D02*
X131519887Y-57018247D01*
X131519887Y-57018247D02*
X131479410Y-56937295D01*
X131479410Y-56937295D02*
X131438934Y-56896818D01*
X131438934Y-56896818D02*
X131357982Y-56856342D01*
X131357982Y-56856342D02*
X131196077Y-56856342D01*
X131196077Y-56856342D02*
X131115125Y-56896818D01*
X131115125Y-56896818D02*
X131074649Y-56937295D01*
X131074649Y-56937295D02*
X131034172Y-57018247D01*
X131034172Y-57018247D02*
X131034172Y-57180152D01*
X131034172Y-57180152D02*
X131074649Y-57261104D01*
X131074649Y-57261104D02*
X131115125Y-57301580D01*
X131115125Y-57301580D02*
X131196077Y-57342057D01*
X131196077Y-57342057D02*
X131357982Y-57342057D01*
X131357982Y-57342057D02*
X131438934Y-57301580D01*
X131438934Y-57301580D02*
X131479410Y-57261104D01*
X131479410Y-57261104D02*
X131519887Y-57180152D01*
X129270303Y-55212653D02*
X129189350Y-55172177D01*
X129189350Y-55172177D02*
X129067922Y-55172177D01*
X129067922Y-55172177D02*
X128946493Y-55212653D01*
X128946493Y-55212653D02*
X128865541Y-55293605D01*
X128865541Y-55293605D02*
X128825064Y-55374558D01*
X128825064Y-55374558D02*
X128784588Y-55536462D01*
X128784588Y-55536462D02*
X128784588Y-55657891D01*
X128784588Y-55657891D02*
X128825064Y-55819796D01*
X128825064Y-55819796D02*
X128865541Y-55900748D01*
X128865541Y-55900748D02*
X128946493Y-55981701D01*
X128946493Y-55981701D02*
X129067922Y-56022177D01*
X129067922Y-56022177D02*
X129148874Y-56022177D01*
X129148874Y-56022177D02*
X129270303Y-55981701D01*
X129270303Y-55981701D02*
X129310779Y-55941224D01*
X129310779Y-55941224D02*
X129310779Y-55657891D01*
X129310779Y-55657891D02*
X129148874Y-55657891D01*
X129675064Y-56022177D02*
X129675064Y-55172177D01*
X129675064Y-55172177D02*
X130160779Y-56022177D01*
X130160779Y-56022177D02*
X130160779Y-55172177D01*
X130565540Y-56022177D02*
X130565540Y-55172177D01*
X130565540Y-55172177D02*
X130767921Y-55172177D01*
X130767921Y-55172177D02*
X130889350Y-55212653D01*
X130889350Y-55212653D02*
X130970302Y-55293605D01*
X130970302Y-55293605D02*
X131010779Y-55374558D01*
X131010779Y-55374558D02*
X131051255Y-55536462D01*
X131051255Y-55536462D02*
X131051255Y-55657891D01*
X131051255Y-55657891D02*
X131010779Y-55819796D01*
X131010779Y-55819796D02*
X130970302Y-55900748D01*
X130970302Y-55900748D02*
X130889350Y-55981701D01*
X130889350Y-55981701D02*
X130767921Y-56022177D01*
X130767921Y-56022177D02*
X130565540Y-56022177D01*
X128683772Y-46605066D02*
X128683772Y-47131257D01*
X128683772Y-47131257D02*
X128359963Y-46847923D01*
X128359963Y-46847923D02*
X128359963Y-46969352D01*
X128359963Y-46969352D02*
X128319487Y-47050304D01*
X128319487Y-47050304D02*
X128279010Y-47090780D01*
X128279010Y-47090780D02*
X128198058Y-47131257D01*
X128198058Y-47131257D02*
X127995677Y-47131257D01*
X127995677Y-47131257D02*
X127914725Y-47090780D01*
X127914725Y-47090780D02*
X127874249Y-47050304D01*
X127874249Y-47050304D02*
X127833772Y-46969352D01*
X127833772Y-46969352D02*
X127833772Y-46726495D01*
X127833772Y-46726495D02*
X127874249Y-46645542D01*
X127874249Y-46645542D02*
X127914725Y-46605066D01*
X130932572Y-49317295D02*
X130932572Y-48831580D01*
X130932572Y-49074437D02*
X131782572Y-49074437D01*
X131782572Y-49074437D02*
X131661144Y-48993485D01*
X131661144Y-48993485D02*
X131580191Y-48912533D01*
X131580191Y-48912533D02*
X131539715Y-48831580D01*
X130932572Y-50126819D02*
X130932572Y-49641104D01*
X130932572Y-49883961D02*
X131782572Y-49883961D01*
X131782572Y-49883961D02*
X131661144Y-49803009D01*
X131661144Y-49803009D02*
X131580191Y-49722057D01*
X131580191Y-49722057D02*
X131539715Y-49641104D01*
X130932572Y-41697295D02*
X130932572Y-41211580D01*
X130932572Y-41454437D02*
X131782572Y-41454437D01*
X131782572Y-41454437D02*
X131661144Y-41373485D01*
X131661144Y-41373485D02*
X131580191Y-41292533D01*
X131580191Y-41292533D02*
X131539715Y-41211580D01*
X131499239Y-42425866D02*
X130932572Y-42425866D01*
X131823049Y-42223485D02*
X131215906Y-42021104D01*
X131215906Y-42021104D02*
X131215906Y-42547295D01*
X128683772Y-54721104D02*
X128683772Y-54559199D01*
X128683772Y-54559199D02*
X128643296Y-54478247D01*
X128643296Y-54478247D02*
X128602820Y-54437771D01*
X128602820Y-54437771D02*
X128481391Y-54356818D01*
X128481391Y-54356818D02*
X128319487Y-54316342D01*
X128319487Y-54316342D02*
X127995677Y-54316342D01*
X127995677Y-54316342D02*
X127914725Y-54356818D01*
X127914725Y-54356818D02*
X127874249Y-54397295D01*
X127874249Y-54397295D02*
X127833772Y-54478247D01*
X127833772Y-54478247D02*
X127833772Y-54640152D01*
X127833772Y-54640152D02*
X127874249Y-54721104D01*
X127874249Y-54721104D02*
X127914725Y-54761580D01*
X127914725Y-54761580D02*
X127995677Y-54802057D01*
X127995677Y-54802057D02*
X128198058Y-54802057D01*
X128198058Y-54802057D02*
X128279010Y-54761580D01*
X128279010Y-54761580D02*
X128319487Y-54721104D01*
X128319487Y-54721104D02*
X128359963Y-54640152D01*
X128359963Y-54640152D02*
X128359963Y-54478247D01*
X128359963Y-54478247D02*
X128319487Y-54397295D01*
X128319487Y-54397295D02*
X128279010Y-54356818D01*
X128279010Y-54356818D02*
X128198058Y-54316342D01*
X128582172Y-56815866D02*
X128582172Y-57382533D01*
X128582172Y-57382533D02*
X127732172Y-57018247D01*
X127681372Y-41289257D02*
X127681372Y-40803542D01*
X127681372Y-41046399D02*
X128531372Y-41046399D01*
X128531372Y-41046399D02*
X128409944Y-40965447D01*
X128409944Y-40965447D02*
X128328991Y-40884495D01*
X128328991Y-40884495D02*
X128288515Y-40803542D01*
X128602820Y-44207142D02*
X128643296Y-44247618D01*
X128643296Y-44247618D02*
X128683772Y-44328571D01*
X128683772Y-44328571D02*
X128683772Y-44530952D01*
X128683772Y-44530952D02*
X128643296Y-44611904D01*
X128643296Y-44611904D02*
X128602820Y-44652380D01*
X128602820Y-44652380D02*
X128521868Y-44692857D01*
X128521868Y-44692857D02*
X128440915Y-44692857D01*
X128440915Y-44692857D02*
X128319487Y-44652380D01*
X128319487Y-44652380D02*
X127833772Y-44166666D01*
X127833772Y-44166666D02*
X127833772Y-44692857D01*
X130932572Y-46777295D02*
X130932572Y-46291580D01*
X130932572Y-46534437D02*
X131782572Y-46534437D01*
X131782572Y-46534437D02*
X131661144Y-46453485D01*
X131661144Y-46453485D02*
X131580191Y-46372533D01*
X131580191Y-46372533D02*
X131539715Y-46291580D01*
X131701620Y-47101104D02*
X131742096Y-47141580D01*
X131742096Y-47141580D02*
X131782572Y-47222533D01*
X131782572Y-47222533D02*
X131782572Y-47424914D01*
X131782572Y-47424914D02*
X131742096Y-47505866D01*
X131742096Y-47505866D02*
X131701620Y-47546342D01*
X131701620Y-47546342D02*
X131620668Y-47586819D01*
X131620668Y-47586819D02*
X131539715Y-47586819D01*
X131539715Y-47586819D02*
X131418287Y-47546342D01*
X131418287Y-47546342D02*
X130932572Y-47060628D01*
X130932572Y-47060628D02*
X130932572Y-47586819D01*
X129260600Y-48345960D02*
X129212980Y-48488817D01*
X129212980Y-48488817D02*
X129212980Y-48726912D01*
X129212980Y-48726912D02*
X129260600Y-48822150D01*
X129260600Y-48822150D02*
X129308219Y-48869769D01*
X129308219Y-48869769D02*
X129403457Y-48917388D01*
X129403457Y-48917388D02*
X129498695Y-48917388D01*
X129498695Y-48917388D02*
X129593933Y-48869769D01*
X129593933Y-48869769D02*
X129641552Y-48822150D01*
X129641552Y-48822150D02*
X129689171Y-48726912D01*
X129689171Y-48726912D02*
X129736790Y-48536436D01*
X129736790Y-48536436D02*
X129784409Y-48441198D01*
X129784409Y-48441198D02*
X129832028Y-48393579D01*
X129832028Y-48393579D02*
X129927266Y-48345960D01*
X129927266Y-48345960D02*
X130022504Y-48345960D01*
X130022504Y-48345960D02*
X130117742Y-48393579D01*
X130117742Y-48393579D02*
X130165361Y-48441198D01*
X130165361Y-48441198D02*
X130212980Y-48536436D01*
X130212980Y-48536436D02*
X130212980Y-48774531D01*
X130212980Y-48774531D02*
X130165361Y-48917388D01*
X130212980Y-49536436D02*
X130212980Y-49726912D01*
X130212980Y-49726912D02*
X130165361Y-49822150D01*
X130165361Y-49822150D02*
X130070123Y-49917388D01*
X130070123Y-49917388D02*
X129879647Y-49965007D01*
X129879647Y-49965007D02*
X129546314Y-49965007D01*
X129546314Y-49965007D02*
X129355838Y-49917388D01*
X129355838Y-49917388D02*
X129260600Y-49822150D01*
X129260600Y-49822150D02*
X129212980Y-49726912D01*
X129212980Y-49726912D02*
X129212980Y-49536436D01*
X129212980Y-49536436D02*
X129260600Y-49441198D01*
X129260600Y-49441198D02*
X129355838Y-49345960D01*
X129355838Y-49345960D02*
X129546314Y-49298341D01*
X129546314Y-49298341D02*
X129879647Y-49298341D01*
X129879647Y-49298341D02*
X130070123Y-49345960D01*
X130070123Y-49345960D02*
X130165361Y-49441198D01*
X130165361Y-49441198D02*
X130212980Y-49536436D01*
X129212980Y-50393579D02*
X130212980Y-50393579D01*
X129308219Y-51441197D02*
X129260600Y-51393578D01*
X129260600Y-51393578D02*
X129212980Y-51250721D01*
X129212980Y-51250721D02*
X129212980Y-51155483D01*
X129212980Y-51155483D02*
X129260600Y-51012626D01*
X129260600Y-51012626D02*
X129355838Y-50917388D01*
X129355838Y-50917388D02*
X129451076Y-50869769D01*
X129451076Y-50869769D02*
X129641552Y-50822150D01*
X129641552Y-50822150D02*
X129784409Y-50822150D01*
X129784409Y-50822150D02*
X129974885Y-50869769D01*
X129974885Y-50869769D02*
X130070123Y-50917388D01*
X130070123Y-50917388D02*
X130165361Y-51012626D01*
X130165361Y-51012626D02*
X130212980Y-51155483D01*
X130212980Y-51155483D02*
X130212980Y-51250721D01*
X130212980Y-51250721D02*
X130165361Y-51393578D01*
X130165361Y-51393578D02*
X130117742Y-51441197D01*
X129593933Y-51869769D02*
X129593933Y-52631674D01*
X129212980Y-53631673D02*
X129212980Y-53060245D01*
X129212980Y-53345959D02*
X130212980Y-53345959D01*
X130212980Y-53345959D02*
X130070123Y-53250721D01*
X130070123Y-53250721D02*
X129974885Y-53155483D01*
X129974885Y-53155483D02*
X129927266Y-53060245D01*
X129879647Y-54488816D02*
X129212980Y-54488816D01*
X130260600Y-54250721D02*
X129546314Y-54012626D01*
X129546314Y-54012626D02*
X129546314Y-54631673D01*
X130932572Y-44237295D02*
X130932572Y-43751580D01*
X130932572Y-43994437D02*
X131782572Y-43994437D01*
X131782572Y-43994437D02*
X131661144Y-43913485D01*
X131661144Y-43913485D02*
X131580191Y-43832533D01*
X131580191Y-43832533D02*
X131539715Y-43751580D01*
X131782572Y-44520628D02*
X131782572Y-45046819D01*
X131782572Y-45046819D02*
X131458763Y-44763485D01*
X131458763Y-44763485D02*
X131458763Y-44884914D01*
X131458763Y-44884914D02*
X131418287Y-44965866D01*
X131418287Y-44965866D02*
X131377810Y-45006342D01*
X131377810Y-45006342D02*
X131296858Y-45046819D01*
X131296858Y-45046819D02*
X131094477Y-45046819D01*
X131094477Y-45046819D02*
X131013525Y-45006342D01*
X131013525Y-45006342D02*
X130973049Y-44965866D01*
X130973049Y-44965866D02*
X130932572Y-44884914D01*
X130932572Y-44884914D02*
X130932572Y-44642057D01*
X130932572Y-44642057D02*
X130973049Y-44561104D01*
X130973049Y-44561104D02*
X131013525Y-44520628D01*
X116970439Y-49641104D02*
X116403772Y-49641104D01*
X117294249Y-49438723D02*
X116687106Y-49236342D01*
X116687106Y-49236342D02*
X116687106Y-49762533D01*
X119502572Y-54397295D02*
X119502572Y-54559199D01*
X119502572Y-54559199D02*
X119543049Y-54640152D01*
X119543049Y-54640152D02*
X119583525Y-54680628D01*
X119583525Y-54680628D02*
X119704953Y-54761580D01*
X119704953Y-54761580D02*
X119866858Y-54802057D01*
X119866858Y-54802057D02*
X120190668Y-54802057D01*
X120190668Y-54802057D02*
X120271620Y-54761580D01*
X120271620Y-54761580D02*
X120312096Y-54721104D01*
X120312096Y-54721104D02*
X120352572Y-54640152D01*
X120352572Y-54640152D02*
X120352572Y-54478247D01*
X120352572Y-54478247D02*
X120312096Y-54397295D01*
X120312096Y-54397295D02*
X120271620Y-54356818D01*
X120271620Y-54356818D02*
X120190668Y-54316342D01*
X120190668Y-54316342D02*
X119988287Y-54316342D01*
X119988287Y-54316342D02*
X119907334Y-54356818D01*
X119907334Y-54356818D02*
X119866858Y-54397295D01*
X119866858Y-54397295D02*
X119826382Y-54478247D01*
X119826382Y-54478247D02*
X119826382Y-54640152D01*
X119826382Y-54640152D02*
X119866858Y-54721104D01*
X119866858Y-54721104D02*
X119907334Y-54761580D01*
X119907334Y-54761580D02*
X119988287Y-54802057D01*
X117253772Y-52221580D02*
X117253772Y-51816818D01*
X117253772Y-51816818D02*
X116849010Y-51776342D01*
X116849010Y-51776342D02*
X116889487Y-51816818D01*
X116889487Y-51816818D02*
X116929963Y-51897771D01*
X116929963Y-51897771D02*
X116929963Y-52100152D01*
X116929963Y-52100152D02*
X116889487Y-52181104D01*
X116889487Y-52181104D02*
X116849010Y-52221580D01*
X116849010Y-52221580D02*
X116768058Y-52262057D01*
X116768058Y-52262057D02*
X116565677Y-52262057D01*
X116565677Y-52262057D02*
X116484725Y-52221580D01*
X116484725Y-52221580D02*
X116444249Y-52181104D01*
X116444249Y-52181104D02*
X116403772Y-52100152D01*
X116403772Y-52100152D02*
X116403772Y-51897771D01*
X116403772Y-51897771D02*
X116444249Y-51816818D01*
X116444249Y-51816818D02*
X116484725Y-51776342D01*
X119502572Y-51857295D02*
X119502572Y-51371580D01*
X119502572Y-51614437D02*
X120352572Y-51614437D01*
X120352572Y-51614437D02*
X120231144Y-51533485D01*
X120231144Y-51533485D02*
X120150191Y-51452533D01*
X120150191Y-51452533D02*
X120109715Y-51371580D01*
X120352572Y-52383485D02*
X120352572Y-52464438D01*
X120352572Y-52464438D02*
X120312096Y-52545390D01*
X120312096Y-52545390D02*
X120271620Y-52585866D01*
X120271620Y-52585866D02*
X120190668Y-52626342D01*
X120190668Y-52626342D02*
X120028763Y-52666819D01*
X120028763Y-52666819D02*
X119826382Y-52666819D01*
X119826382Y-52666819D02*
X119664477Y-52626342D01*
X119664477Y-52626342D02*
X119583525Y-52585866D01*
X119583525Y-52585866D02*
X119543049Y-52545390D01*
X119543049Y-52545390D02*
X119502572Y-52464438D01*
X119502572Y-52464438D02*
X119502572Y-52383485D01*
X119502572Y-52383485D02*
X119543049Y-52302533D01*
X119543049Y-52302533D02*
X119583525Y-52262057D01*
X119583525Y-52262057D02*
X119664477Y-52221580D01*
X119664477Y-52221580D02*
X119826382Y-52181104D01*
X119826382Y-52181104D02*
X120028763Y-52181104D01*
X120028763Y-52181104D02*
X120190668Y-52221580D01*
X120190668Y-52221580D02*
X120271620Y-52262057D01*
X120271620Y-52262057D02*
X120312096Y-52302533D01*
X120312096Y-52302533D02*
X120352572Y-52383485D01*
X120089887Y-57018247D02*
X120130363Y-56937295D01*
X120130363Y-56937295D02*
X120170839Y-56896818D01*
X120170839Y-56896818D02*
X120251791Y-56856342D01*
X120251791Y-56856342D02*
X120292268Y-56856342D01*
X120292268Y-56856342D02*
X120373220Y-56896818D01*
X120373220Y-56896818D02*
X120413696Y-56937295D01*
X120413696Y-56937295D02*
X120454172Y-57018247D01*
X120454172Y-57018247D02*
X120454172Y-57180152D01*
X120454172Y-57180152D02*
X120413696Y-57261104D01*
X120413696Y-57261104D02*
X120373220Y-57301580D01*
X120373220Y-57301580D02*
X120292268Y-57342057D01*
X120292268Y-57342057D02*
X120251791Y-57342057D01*
X120251791Y-57342057D02*
X120170839Y-57301580D01*
X120170839Y-57301580D02*
X120130363Y-57261104D01*
X120130363Y-57261104D02*
X120089887Y-57180152D01*
X120089887Y-57180152D02*
X120089887Y-57018247D01*
X120089887Y-57018247D02*
X120049410Y-56937295D01*
X120049410Y-56937295D02*
X120008934Y-56896818D01*
X120008934Y-56896818D02*
X119927982Y-56856342D01*
X119927982Y-56856342D02*
X119766077Y-56856342D01*
X119766077Y-56856342D02*
X119685125Y-56896818D01*
X119685125Y-56896818D02*
X119644649Y-56937295D01*
X119644649Y-56937295D02*
X119604172Y-57018247D01*
X119604172Y-57018247D02*
X119604172Y-57180152D01*
X119604172Y-57180152D02*
X119644649Y-57261104D01*
X119644649Y-57261104D02*
X119685125Y-57301580D01*
X119685125Y-57301580D02*
X119766077Y-57342057D01*
X119766077Y-57342057D02*
X119927982Y-57342057D01*
X119927982Y-57342057D02*
X120008934Y-57301580D01*
X120008934Y-57301580D02*
X120049410Y-57261104D01*
X120049410Y-57261104D02*
X120089887Y-57180152D01*
X117840303Y-55212653D02*
X117759350Y-55172177D01*
X117759350Y-55172177D02*
X117637922Y-55172177D01*
X117637922Y-55172177D02*
X117516493Y-55212653D01*
X117516493Y-55212653D02*
X117435541Y-55293605D01*
X117435541Y-55293605D02*
X117395064Y-55374558D01*
X117395064Y-55374558D02*
X117354588Y-55536462D01*
X117354588Y-55536462D02*
X117354588Y-55657891D01*
X117354588Y-55657891D02*
X117395064Y-55819796D01*
X117395064Y-55819796D02*
X117435541Y-55900748D01*
X117435541Y-55900748D02*
X117516493Y-55981701D01*
X117516493Y-55981701D02*
X117637922Y-56022177D01*
X117637922Y-56022177D02*
X117718874Y-56022177D01*
X117718874Y-56022177D02*
X117840303Y-55981701D01*
X117840303Y-55981701D02*
X117880779Y-55941224D01*
X117880779Y-55941224D02*
X117880779Y-55657891D01*
X117880779Y-55657891D02*
X117718874Y-55657891D01*
X118245064Y-56022177D02*
X118245064Y-55172177D01*
X118245064Y-55172177D02*
X118730779Y-56022177D01*
X118730779Y-56022177D02*
X118730779Y-55172177D01*
X119135540Y-56022177D02*
X119135540Y-55172177D01*
X119135540Y-55172177D02*
X119337921Y-55172177D01*
X119337921Y-55172177D02*
X119459350Y-55212653D01*
X119459350Y-55212653D02*
X119540302Y-55293605D01*
X119540302Y-55293605D02*
X119580779Y-55374558D01*
X119580779Y-55374558D02*
X119621255Y-55536462D01*
X119621255Y-55536462D02*
X119621255Y-55657891D01*
X119621255Y-55657891D02*
X119580779Y-55819796D01*
X119580779Y-55819796D02*
X119540302Y-55900748D01*
X119540302Y-55900748D02*
X119459350Y-55981701D01*
X119459350Y-55981701D02*
X119337921Y-56022177D01*
X119337921Y-56022177D02*
X119135540Y-56022177D01*
X117253772Y-46605066D02*
X117253772Y-47131257D01*
X117253772Y-47131257D02*
X116929963Y-46847923D01*
X116929963Y-46847923D02*
X116929963Y-46969352D01*
X116929963Y-46969352D02*
X116889487Y-47050304D01*
X116889487Y-47050304D02*
X116849010Y-47090780D01*
X116849010Y-47090780D02*
X116768058Y-47131257D01*
X116768058Y-47131257D02*
X116565677Y-47131257D01*
X116565677Y-47131257D02*
X116484725Y-47090780D01*
X116484725Y-47090780D02*
X116444249Y-47050304D01*
X116444249Y-47050304D02*
X116403772Y-46969352D01*
X116403772Y-46969352D02*
X116403772Y-46726495D01*
X116403772Y-46726495D02*
X116444249Y-46645542D01*
X116444249Y-46645542D02*
X116484725Y-46605066D01*
X119502572Y-49317295D02*
X119502572Y-48831580D01*
X119502572Y-49074437D02*
X120352572Y-49074437D01*
X120352572Y-49074437D02*
X120231144Y-48993485D01*
X120231144Y-48993485D02*
X120150191Y-48912533D01*
X120150191Y-48912533D02*
X120109715Y-48831580D01*
X119502572Y-50126819D02*
X119502572Y-49641104D01*
X119502572Y-49883961D02*
X120352572Y-49883961D01*
X120352572Y-49883961D02*
X120231144Y-49803009D01*
X120231144Y-49803009D02*
X120150191Y-49722057D01*
X120150191Y-49722057D02*
X120109715Y-49641104D01*
X119502572Y-41697295D02*
X119502572Y-41211580D01*
X119502572Y-41454437D02*
X120352572Y-41454437D01*
X120352572Y-41454437D02*
X120231144Y-41373485D01*
X120231144Y-41373485D02*
X120150191Y-41292533D01*
X120150191Y-41292533D02*
X120109715Y-41211580D01*
X120069239Y-42425866D02*
X119502572Y-42425866D01*
X120393049Y-42223485D02*
X119785906Y-42021104D01*
X119785906Y-42021104D02*
X119785906Y-42547295D01*
X117253772Y-54721104D02*
X117253772Y-54559199D01*
X117253772Y-54559199D02*
X117213296Y-54478247D01*
X117213296Y-54478247D02*
X117172820Y-54437771D01*
X117172820Y-54437771D02*
X117051391Y-54356818D01*
X117051391Y-54356818D02*
X116889487Y-54316342D01*
X116889487Y-54316342D02*
X116565677Y-54316342D01*
X116565677Y-54316342D02*
X116484725Y-54356818D01*
X116484725Y-54356818D02*
X116444249Y-54397295D01*
X116444249Y-54397295D02*
X116403772Y-54478247D01*
X116403772Y-54478247D02*
X116403772Y-54640152D01*
X116403772Y-54640152D02*
X116444249Y-54721104D01*
X116444249Y-54721104D02*
X116484725Y-54761580D01*
X116484725Y-54761580D02*
X116565677Y-54802057D01*
X116565677Y-54802057D02*
X116768058Y-54802057D01*
X116768058Y-54802057D02*
X116849010Y-54761580D01*
X116849010Y-54761580D02*
X116889487Y-54721104D01*
X116889487Y-54721104D02*
X116929963Y-54640152D01*
X116929963Y-54640152D02*
X116929963Y-54478247D01*
X116929963Y-54478247D02*
X116889487Y-54397295D01*
X116889487Y-54397295D02*
X116849010Y-54356818D01*
X116849010Y-54356818D02*
X116768058Y-54316342D01*
X117152172Y-56815866D02*
X117152172Y-57382533D01*
X117152172Y-57382533D02*
X116302172Y-57018247D01*
X116251372Y-41289257D02*
X116251372Y-40803542D01*
X116251372Y-41046399D02*
X117101372Y-41046399D01*
X117101372Y-41046399D02*
X116979944Y-40965447D01*
X116979944Y-40965447D02*
X116898991Y-40884495D01*
X116898991Y-40884495D02*
X116858515Y-40803542D01*
X117172820Y-44207142D02*
X117213296Y-44247618D01*
X117213296Y-44247618D02*
X117253772Y-44328571D01*
X117253772Y-44328571D02*
X117253772Y-44530952D01*
X117253772Y-44530952D02*
X117213296Y-44611904D01*
X117213296Y-44611904D02*
X117172820Y-44652380D01*
X117172820Y-44652380D02*
X117091868Y-44692857D01*
X117091868Y-44692857D02*
X117010915Y-44692857D01*
X117010915Y-44692857D02*
X116889487Y-44652380D01*
X116889487Y-44652380D02*
X116403772Y-44166666D01*
X116403772Y-44166666D02*
X116403772Y-44692857D01*
X119502572Y-46777295D02*
X119502572Y-46291580D01*
X119502572Y-46534437D02*
X120352572Y-46534437D01*
X120352572Y-46534437D02*
X120231144Y-46453485D01*
X120231144Y-46453485D02*
X120150191Y-46372533D01*
X120150191Y-46372533D02*
X120109715Y-46291580D01*
X120271620Y-47101104D02*
X120312096Y-47141580D01*
X120312096Y-47141580D02*
X120352572Y-47222533D01*
X120352572Y-47222533D02*
X120352572Y-47424914D01*
X120352572Y-47424914D02*
X120312096Y-47505866D01*
X120312096Y-47505866D02*
X120271620Y-47546342D01*
X120271620Y-47546342D02*
X120190668Y-47586819D01*
X120190668Y-47586819D02*
X120109715Y-47586819D01*
X120109715Y-47586819D02*
X119988287Y-47546342D01*
X119988287Y-47546342D02*
X119502572Y-47060628D01*
X119502572Y-47060628D02*
X119502572Y-47586819D01*
X117830600Y-48345960D02*
X117782980Y-48488817D01*
X117782980Y-48488817D02*
X117782980Y-48726912D01*
X117782980Y-48726912D02*
X117830600Y-48822150D01*
X117830600Y-48822150D02*
X117878219Y-48869769D01*
X117878219Y-48869769D02*
X117973457Y-48917388D01*
X117973457Y-48917388D02*
X118068695Y-48917388D01*
X118068695Y-48917388D02*
X118163933Y-48869769D01*
X118163933Y-48869769D02*
X118211552Y-48822150D01*
X118211552Y-48822150D02*
X118259171Y-48726912D01*
X118259171Y-48726912D02*
X118306790Y-48536436D01*
X118306790Y-48536436D02*
X118354409Y-48441198D01*
X118354409Y-48441198D02*
X118402028Y-48393579D01*
X118402028Y-48393579D02*
X118497266Y-48345960D01*
X118497266Y-48345960D02*
X118592504Y-48345960D01*
X118592504Y-48345960D02*
X118687742Y-48393579D01*
X118687742Y-48393579D02*
X118735361Y-48441198D01*
X118735361Y-48441198D02*
X118782980Y-48536436D01*
X118782980Y-48536436D02*
X118782980Y-48774531D01*
X118782980Y-48774531D02*
X118735361Y-48917388D01*
X118782980Y-49536436D02*
X118782980Y-49726912D01*
X118782980Y-49726912D02*
X118735361Y-49822150D01*
X118735361Y-49822150D02*
X118640123Y-49917388D01*
X118640123Y-49917388D02*
X118449647Y-49965007D01*
X118449647Y-49965007D02*
X118116314Y-49965007D01*
X118116314Y-49965007D02*
X117925838Y-49917388D01*
X117925838Y-49917388D02*
X117830600Y-49822150D01*
X117830600Y-49822150D02*
X117782980Y-49726912D01*
X117782980Y-49726912D02*
X117782980Y-49536436D01*
X117782980Y-49536436D02*
X117830600Y-49441198D01*
X117830600Y-49441198D02*
X117925838Y-49345960D01*
X117925838Y-49345960D02*
X118116314Y-49298341D01*
X118116314Y-49298341D02*
X118449647Y-49298341D01*
X118449647Y-49298341D02*
X118640123Y-49345960D01*
X118640123Y-49345960D02*
X118735361Y-49441198D01*
X118735361Y-49441198D02*
X118782980Y-49536436D01*
X117782980Y-50393579D02*
X118782980Y-50393579D01*
X117878219Y-51441197D02*
X117830600Y-51393578D01*
X117830600Y-51393578D02*
X117782980Y-51250721D01*
X117782980Y-51250721D02*
X117782980Y-51155483D01*
X117782980Y-51155483D02*
X117830600Y-51012626D01*
X117830600Y-51012626D02*
X117925838Y-50917388D01*
X117925838Y-50917388D02*
X118021076Y-50869769D01*
X118021076Y-50869769D02*
X118211552Y-50822150D01*
X118211552Y-50822150D02*
X118354409Y-50822150D01*
X118354409Y-50822150D02*
X118544885Y-50869769D01*
X118544885Y-50869769D02*
X118640123Y-50917388D01*
X118640123Y-50917388D02*
X118735361Y-51012626D01*
X118735361Y-51012626D02*
X118782980Y-51155483D01*
X118782980Y-51155483D02*
X118782980Y-51250721D01*
X118782980Y-51250721D02*
X118735361Y-51393578D01*
X118735361Y-51393578D02*
X118687742Y-51441197D01*
X118163933Y-51869769D02*
X118163933Y-52631674D01*
X117782980Y-53631673D02*
X117782980Y-53060245D01*
X117782980Y-53345959D02*
X118782980Y-53345959D01*
X118782980Y-53345959D02*
X118640123Y-53250721D01*
X118640123Y-53250721D02*
X118544885Y-53155483D01*
X118544885Y-53155483D02*
X118497266Y-53060245D01*
X118449647Y-54488816D02*
X117782980Y-54488816D01*
X118830600Y-54250721D02*
X118116314Y-54012626D01*
X118116314Y-54012626D02*
X118116314Y-54631673D01*
X119502572Y-44237295D02*
X119502572Y-43751580D01*
X119502572Y-43994437D02*
X120352572Y-43994437D01*
X120352572Y-43994437D02*
X120231144Y-43913485D01*
X120231144Y-43913485D02*
X120150191Y-43832533D01*
X120150191Y-43832533D02*
X120109715Y-43751580D01*
X120352572Y-44520628D02*
X120352572Y-45046819D01*
X120352572Y-45046819D02*
X120028763Y-44763485D01*
X120028763Y-44763485D02*
X120028763Y-44884914D01*
X120028763Y-44884914D02*
X119988287Y-44965866D01*
X119988287Y-44965866D02*
X119947810Y-45006342D01*
X119947810Y-45006342D02*
X119866858Y-45046819D01*
X119866858Y-45046819D02*
X119664477Y-45046819D01*
X119664477Y-45046819D02*
X119583525Y-45006342D01*
X119583525Y-45006342D02*
X119543049Y-44965866D01*
X119543049Y-44965866D02*
X119502572Y-44884914D01*
X119502572Y-44884914D02*
X119502572Y-44642057D01*
X119502572Y-44642057D02*
X119543049Y-44561104D01*
X119543049Y-44561104D02*
X119583525Y-44520628D01*
X106410303Y-55212653D02*
X106329350Y-55172177D01*
X106329350Y-55172177D02*
X106207922Y-55172177D01*
X106207922Y-55172177D02*
X106086493Y-55212653D01*
X106086493Y-55212653D02*
X106005541Y-55293605D01*
X106005541Y-55293605D02*
X105965064Y-55374558D01*
X105965064Y-55374558D02*
X105924588Y-55536462D01*
X105924588Y-55536462D02*
X105924588Y-55657891D01*
X105924588Y-55657891D02*
X105965064Y-55819796D01*
X105965064Y-55819796D02*
X106005541Y-55900748D01*
X106005541Y-55900748D02*
X106086493Y-55981701D01*
X106086493Y-55981701D02*
X106207922Y-56022177D01*
X106207922Y-56022177D02*
X106288874Y-56022177D01*
X106288874Y-56022177D02*
X106410303Y-55981701D01*
X106410303Y-55981701D02*
X106450779Y-55941224D01*
X106450779Y-55941224D02*
X106450779Y-55657891D01*
X106450779Y-55657891D02*
X106288874Y-55657891D01*
X106815064Y-56022177D02*
X106815064Y-55172177D01*
X106815064Y-55172177D02*
X107300779Y-56022177D01*
X107300779Y-56022177D02*
X107300779Y-55172177D01*
X107705540Y-56022177D02*
X107705540Y-55172177D01*
X107705540Y-55172177D02*
X107907921Y-55172177D01*
X107907921Y-55172177D02*
X108029350Y-55212653D01*
X108029350Y-55212653D02*
X108110302Y-55293605D01*
X108110302Y-55293605D02*
X108150779Y-55374558D01*
X108150779Y-55374558D02*
X108191255Y-55536462D01*
X108191255Y-55536462D02*
X108191255Y-55657891D01*
X108191255Y-55657891D02*
X108150779Y-55819796D01*
X108150779Y-55819796D02*
X108110302Y-55900748D01*
X108110302Y-55900748D02*
X108029350Y-55981701D01*
X108029350Y-55981701D02*
X107907921Y-56022177D01*
X107907921Y-56022177D02*
X107705540Y-56022177D01*
X106400600Y-48345960D02*
X106352980Y-48488817D01*
X106352980Y-48488817D02*
X106352980Y-48726912D01*
X106352980Y-48726912D02*
X106400600Y-48822150D01*
X106400600Y-48822150D02*
X106448219Y-48869769D01*
X106448219Y-48869769D02*
X106543457Y-48917388D01*
X106543457Y-48917388D02*
X106638695Y-48917388D01*
X106638695Y-48917388D02*
X106733933Y-48869769D01*
X106733933Y-48869769D02*
X106781552Y-48822150D01*
X106781552Y-48822150D02*
X106829171Y-48726912D01*
X106829171Y-48726912D02*
X106876790Y-48536436D01*
X106876790Y-48536436D02*
X106924409Y-48441198D01*
X106924409Y-48441198D02*
X106972028Y-48393579D01*
X106972028Y-48393579D02*
X107067266Y-48345960D01*
X107067266Y-48345960D02*
X107162504Y-48345960D01*
X107162504Y-48345960D02*
X107257742Y-48393579D01*
X107257742Y-48393579D02*
X107305361Y-48441198D01*
X107305361Y-48441198D02*
X107352980Y-48536436D01*
X107352980Y-48536436D02*
X107352980Y-48774531D01*
X107352980Y-48774531D02*
X107305361Y-48917388D01*
X107352980Y-49536436D02*
X107352980Y-49726912D01*
X107352980Y-49726912D02*
X107305361Y-49822150D01*
X107305361Y-49822150D02*
X107210123Y-49917388D01*
X107210123Y-49917388D02*
X107019647Y-49965007D01*
X107019647Y-49965007D02*
X106686314Y-49965007D01*
X106686314Y-49965007D02*
X106495838Y-49917388D01*
X106495838Y-49917388D02*
X106400600Y-49822150D01*
X106400600Y-49822150D02*
X106352980Y-49726912D01*
X106352980Y-49726912D02*
X106352980Y-49536436D01*
X106352980Y-49536436D02*
X106400600Y-49441198D01*
X106400600Y-49441198D02*
X106495838Y-49345960D01*
X106495838Y-49345960D02*
X106686314Y-49298341D01*
X106686314Y-49298341D02*
X107019647Y-49298341D01*
X107019647Y-49298341D02*
X107210123Y-49345960D01*
X107210123Y-49345960D02*
X107305361Y-49441198D01*
X107305361Y-49441198D02*
X107352980Y-49536436D01*
X106352980Y-50393579D02*
X107352980Y-50393579D01*
X106448219Y-51441197D02*
X106400600Y-51393578D01*
X106400600Y-51393578D02*
X106352980Y-51250721D01*
X106352980Y-51250721D02*
X106352980Y-51155483D01*
X106352980Y-51155483D02*
X106400600Y-51012626D01*
X106400600Y-51012626D02*
X106495838Y-50917388D01*
X106495838Y-50917388D02*
X106591076Y-50869769D01*
X106591076Y-50869769D02*
X106781552Y-50822150D01*
X106781552Y-50822150D02*
X106924409Y-50822150D01*
X106924409Y-50822150D02*
X107114885Y-50869769D01*
X107114885Y-50869769D02*
X107210123Y-50917388D01*
X107210123Y-50917388D02*
X107305361Y-51012626D01*
X107305361Y-51012626D02*
X107352980Y-51155483D01*
X107352980Y-51155483D02*
X107352980Y-51250721D01*
X107352980Y-51250721D02*
X107305361Y-51393578D01*
X107305361Y-51393578D02*
X107257742Y-51441197D01*
X106733933Y-51869769D02*
X106733933Y-52631674D01*
X106352980Y-53631673D02*
X106352980Y-53060245D01*
X106352980Y-53345959D02*
X107352980Y-53345959D01*
X107352980Y-53345959D02*
X107210123Y-53250721D01*
X107210123Y-53250721D02*
X107114885Y-53155483D01*
X107114885Y-53155483D02*
X107067266Y-53060245D01*
X107019647Y-54488816D02*
X106352980Y-54488816D01*
X107400600Y-54250721D02*
X106686314Y-54012626D01*
X106686314Y-54012626D02*
X106686314Y-54631673D01*
X108072572Y-41697295D02*
X108072572Y-41211580D01*
X108072572Y-41454437D02*
X108922572Y-41454437D01*
X108922572Y-41454437D02*
X108801144Y-41373485D01*
X108801144Y-41373485D02*
X108720191Y-41292533D01*
X108720191Y-41292533D02*
X108679715Y-41211580D01*
X108639239Y-42425866D02*
X108072572Y-42425866D01*
X108963049Y-42223485D02*
X108355906Y-42021104D01*
X108355906Y-42021104D02*
X108355906Y-42547295D01*
X108072572Y-44237295D02*
X108072572Y-43751580D01*
X108072572Y-43994437D02*
X108922572Y-43994437D01*
X108922572Y-43994437D02*
X108801144Y-43913485D01*
X108801144Y-43913485D02*
X108720191Y-43832533D01*
X108720191Y-43832533D02*
X108679715Y-43751580D01*
X108922572Y-44520628D02*
X108922572Y-45046819D01*
X108922572Y-45046819D02*
X108598763Y-44763485D01*
X108598763Y-44763485D02*
X108598763Y-44884914D01*
X108598763Y-44884914D02*
X108558287Y-44965866D01*
X108558287Y-44965866D02*
X108517810Y-45006342D01*
X108517810Y-45006342D02*
X108436858Y-45046819D01*
X108436858Y-45046819D02*
X108234477Y-45046819D01*
X108234477Y-45046819D02*
X108153525Y-45006342D01*
X108153525Y-45006342D02*
X108113049Y-44965866D01*
X108113049Y-44965866D02*
X108072572Y-44884914D01*
X108072572Y-44884914D02*
X108072572Y-44642057D01*
X108072572Y-44642057D02*
X108113049Y-44561104D01*
X108113049Y-44561104D02*
X108153525Y-44520628D01*
X105742820Y-44207142D02*
X105783296Y-44247618D01*
X105783296Y-44247618D02*
X105823772Y-44328571D01*
X105823772Y-44328571D02*
X105823772Y-44530952D01*
X105823772Y-44530952D02*
X105783296Y-44611904D01*
X105783296Y-44611904D02*
X105742820Y-44652380D01*
X105742820Y-44652380D02*
X105661868Y-44692857D01*
X105661868Y-44692857D02*
X105580915Y-44692857D01*
X105580915Y-44692857D02*
X105459487Y-44652380D01*
X105459487Y-44652380D02*
X104973772Y-44166666D01*
X104973772Y-44166666D02*
X104973772Y-44692857D01*
X105823772Y-46605066D02*
X105823772Y-47131257D01*
X105823772Y-47131257D02*
X105499963Y-46847923D01*
X105499963Y-46847923D02*
X105499963Y-46969352D01*
X105499963Y-46969352D02*
X105459487Y-47050304D01*
X105459487Y-47050304D02*
X105419010Y-47090780D01*
X105419010Y-47090780D02*
X105338058Y-47131257D01*
X105338058Y-47131257D02*
X105135677Y-47131257D01*
X105135677Y-47131257D02*
X105054725Y-47090780D01*
X105054725Y-47090780D02*
X105014249Y-47050304D01*
X105014249Y-47050304D02*
X104973772Y-46969352D01*
X104973772Y-46969352D02*
X104973772Y-46726495D01*
X104973772Y-46726495D02*
X105014249Y-46645542D01*
X105014249Y-46645542D02*
X105054725Y-46605066D01*
X108072572Y-46777295D02*
X108072572Y-46291580D01*
X108072572Y-46534437D02*
X108922572Y-46534437D01*
X108922572Y-46534437D02*
X108801144Y-46453485D01*
X108801144Y-46453485D02*
X108720191Y-46372533D01*
X108720191Y-46372533D02*
X108679715Y-46291580D01*
X108841620Y-47101104D02*
X108882096Y-47141580D01*
X108882096Y-47141580D02*
X108922572Y-47222533D01*
X108922572Y-47222533D02*
X108922572Y-47424914D01*
X108922572Y-47424914D02*
X108882096Y-47505866D01*
X108882096Y-47505866D02*
X108841620Y-47546342D01*
X108841620Y-47546342D02*
X108760668Y-47586819D01*
X108760668Y-47586819D02*
X108679715Y-47586819D01*
X108679715Y-47586819D02*
X108558287Y-47546342D01*
X108558287Y-47546342D02*
X108072572Y-47060628D01*
X108072572Y-47060628D02*
X108072572Y-47586819D01*
X108072572Y-49317295D02*
X108072572Y-48831580D01*
X108072572Y-49074437D02*
X108922572Y-49074437D01*
X108922572Y-49074437D02*
X108801144Y-48993485D01*
X108801144Y-48993485D02*
X108720191Y-48912533D01*
X108720191Y-48912533D02*
X108679715Y-48831580D01*
X108072572Y-50126819D02*
X108072572Y-49641104D01*
X108072572Y-49883961D02*
X108922572Y-49883961D01*
X108922572Y-49883961D02*
X108801144Y-49803009D01*
X108801144Y-49803009D02*
X108720191Y-49722057D01*
X108720191Y-49722057D02*
X108679715Y-49641104D01*
X108072572Y-51857295D02*
X108072572Y-51371580D01*
X108072572Y-51614437D02*
X108922572Y-51614437D01*
X108922572Y-51614437D02*
X108801144Y-51533485D01*
X108801144Y-51533485D02*
X108720191Y-51452533D01*
X108720191Y-51452533D02*
X108679715Y-51371580D01*
X108922572Y-52383485D02*
X108922572Y-52464438D01*
X108922572Y-52464438D02*
X108882096Y-52545390D01*
X108882096Y-52545390D02*
X108841620Y-52585866D01*
X108841620Y-52585866D02*
X108760668Y-52626342D01*
X108760668Y-52626342D02*
X108598763Y-52666819D01*
X108598763Y-52666819D02*
X108396382Y-52666819D01*
X108396382Y-52666819D02*
X108234477Y-52626342D01*
X108234477Y-52626342D02*
X108153525Y-52585866D01*
X108153525Y-52585866D02*
X108113049Y-52545390D01*
X108113049Y-52545390D02*
X108072572Y-52464438D01*
X108072572Y-52464438D02*
X108072572Y-52383485D01*
X108072572Y-52383485D02*
X108113049Y-52302533D01*
X108113049Y-52302533D02*
X108153525Y-52262057D01*
X108153525Y-52262057D02*
X108234477Y-52221580D01*
X108234477Y-52221580D02*
X108396382Y-52181104D01*
X108396382Y-52181104D02*
X108598763Y-52181104D01*
X108598763Y-52181104D02*
X108760668Y-52221580D01*
X108760668Y-52221580D02*
X108841620Y-52262057D01*
X108841620Y-52262057D02*
X108882096Y-52302533D01*
X108882096Y-52302533D02*
X108922572Y-52383485D01*
X108072572Y-54397295D02*
X108072572Y-54559199D01*
X108072572Y-54559199D02*
X108113049Y-54640152D01*
X108113049Y-54640152D02*
X108153525Y-54680628D01*
X108153525Y-54680628D02*
X108274953Y-54761580D01*
X108274953Y-54761580D02*
X108436858Y-54802057D01*
X108436858Y-54802057D02*
X108760668Y-54802057D01*
X108760668Y-54802057D02*
X108841620Y-54761580D01*
X108841620Y-54761580D02*
X108882096Y-54721104D01*
X108882096Y-54721104D02*
X108922572Y-54640152D01*
X108922572Y-54640152D02*
X108922572Y-54478247D01*
X108922572Y-54478247D02*
X108882096Y-54397295D01*
X108882096Y-54397295D02*
X108841620Y-54356818D01*
X108841620Y-54356818D02*
X108760668Y-54316342D01*
X108760668Y-54316342D02*
X108558287Y-54316342D01*
X108558287Y-54316342D02*
X108477334Y-54356818D01*
X108477334Y-54356818D02*
X108436858Y-54397295D01*
X108436858Y-54397295D02*
X108396382Y-54478247D01*
X108396382Y-54478247D02*
X108396382Y-54640152D01*
X108396382Y-54640152D02*
X108436858Y-54721104D01*
X108436858Y-54721104D02*
X108477334Y-54761580D01*
X108477334Y-54761580D02*
X108558287Y-54802057D01*
X108659887Y-57018247D02*
X108700363Y-56937295D01*
X108700363Y-56937295D02*
X108740839Y-56896818D01*
X108740839Y-56896818D02*
X108821791Y-56856342D01*
X108821791Y-56856342D02*
X108862268Y-56856342D01*
X108862268Y-56856342D02*
X108943220Y-56896818D01*
X108943220Y-56896818D02*
X108983696Y-56937295D01*
X108983696Y-56937295D02*
X109024172Y-57018247D01*
X109024172Y-57018247D02*
X109024172Y-57180152D01*
X109024172Y-57180152D02*
X108983696Y-57261104D01*
X108983696Y-57261104D02*
X108943220Y-57301580D01*
X108943220Y-57301580D02*
X108862268Y-57342057D01*
X108862268Y-57342057D02*
X108821791Y-57342057D01*
X108821791Y-57342057D02*
X108740839Y-57301580D01*
X108740839Y-57301580D02*
X108700363Y-57261104D01*
X108700363Y-57261104D02*
X108659887Y-57180152D01*
X108659887Y-57180152D02*
X108659887Y-57018247D01*
X108659887Y-57018247D02*
X108619410Y-56937295D01*
X108619410Y-56937295D02*
X108578934Y-56896818D01*
X108578934Y-56896818D02*
X108497982Y-56856342D01*
X108497982Y-56856342D02*
X108336077Y-56856342D01*
X108336077Y-56856342D02*
X108255125Y-56896818D01*
X108255125Y-56896818D02*
X108214649Y-56937295D01*
X108214649Y-56937295D02*
X108174172Y-57018247D01*
X108174172Y-57018247D02*
X108174172Y-57180152D01*
X108174172Y-57180152D02*
X108214649Y-57261104D01*
X108214649Y-57261104D02*
X108255125Y-57301580D01*
X108255125Y-57301580D02*
X108336077Y-57342057D01*
X108336077Y-57342057D02*
X108497982Y-57342057D01*
X108497982Y-57342057D02*
X108578934Y-57301580D01*
X108578934Y-57301580D02*
X108619410Y-57261104D01*
X108619410Y-57261104D02*
X108659887Y-57180152D01*
X105823772Y-54721104D02*
X105823772Y-54559199D01*
X105823772Y-54559199D02*
X105783296Y-54478247D01*
X105783296Y-54478247D02*
X105742820Y-54437771D01*
X105742820Y-54437771D02*
X105621391Y-54356818D01*
X105621391Y-54356818D02*
X105459487Y-54316342D01*
X105459487Y-54316342D02*
X105135677Y-54316342D01*
X105135677Y-54316342D02*
X105054725Y-54356818D01*
X105054725Y-54356818D02*
X105014249Y-54397295D01*
X105014249Y-54397295D02*
X104973772Y-54478247D01*
X104973772Y-54478247D02*
X104973772Y-54640152D01*
X104973772Y-54640152D02*
X105014249Y-54721104D01*
X105014249Y-54721104D02*
X105054725Y-54761580D01*
X105054725Y-54761580D02*
X105135677Y-54802057D01*
X105135677Y-54802057D02*
X105338058Y-54802057D01*
X105338058Y-54802057D02*
X105419010Y-54761580D01*
X105419010Y-54761580D02*
X105459487Y-54721104D01*
X105459487Y-54721104D02*
X105499963Y-54640152D01*
X105499963Y-54640152D02*
X105499963Y-54478247D01*
X105499963Y-54478247D02*
X105459487Y-54397295D01*
X105459487Y-54397295D02*
X105419010Y-54356818D01*
X105419010Y-54356818D02*
X105338058Y-54316342D01*
X105722172Y-56815866D02*
X105722172Y-57382533D01*
X105722172Y-57382533D02*
X104872172Y-57018247D01*
X105823772Y-52221580D02*
X105823772Y-51816818D01*
X105823772Y-51816818D02*
X105419010Y-51776342D01*
X105419010Y-51776342D02*
X105459487Y-51816818D01*
X105459487Y-51816818D02*
X105499963Y-51897771D01*
X105499963Y-51897771D02*
X105499963Y-52100152D01*
X105499963Y-52100152D02*
X105459487Y-52181104D01*
X105459487Y-52181104D02*
X105419010Y-52221580D01*
X105419010Y-52221580D02*
X105338058Y-52262057D01*
X105338058Y-52262057D02*
X105135677Y-52262057D01*
X105135677Y-52262057D02*
X105054725Y-52221580D01*
X105054725Y-52221580D02*
X105014249Y-52181104D01*
X105014249Y-52181104D02*
X104973772Y-52100152D01*
X104973772Y-52100152D02*
X104973772Y-51897771D01*
X104973772Y-51897771D02*
X105014249Y-51816818D01*
X105014249Y-51816818D02*
X105054725Y-51776342D01*
X105540439Y-49641104D02*
X104973772Y-49641104D01*
X105864249Y-49438723D02*
X105257106Y-49236342D01*
X105257106Y-49236342D02*
X105257106Y-49762533D01*
X104821372Y-41289257D02*
X104821372Y-40803542D01*
X104821372Y-41046399D02*
X105671372Y-41046399D01*
X105671372Y-41046399D02*
X105549944Y-40965447D01*
X105549944Y-40965447D02*
X105468991Y-40884495D01*
X105468991Y-40884495D02*
X105428515Y-40803542D01*
D11*
X138944000Y-69987400D02*
X142844000Y-69987400D01*
X138944000Y-59857400D02*
X142844000Y-59857400D01*
D12*
X136849000Y-59977400D02*
G75*
G03*
X136849000Y-59977400I-100000J0D01*
G01*
D11*
X127514000Y-69987400D02*
X131414000Y-69987400D01*
X127514000Y-59857400D02*
X131414000Y-59857400D01*
D12*
X125419000Y-59977400D02*
G75*
G03*
X125419000Y-59977400I-100000J0D01*
G01*
X113989000Y-59977400D02*
G75*
G03*
X113989000Y-59977400I-100000J0D01*
G01*
D11*
X116084000Y-59857400D02*
X119984000Y-59857400D01*
X116084000Y-69987400D02*
X119984000Y-69987400D01*
X104654000Y-69987400D02*
X108554000Y-69987400D01*
X104654000Y-59857400D02*
X108554000Y-59857400D01*
D12*
X102559000Y-59977400D02*
G75*
G03*
X102559000Y-59977400I-100000J0D01*
G01*
X91129000Y-59977400D02*
G75*
G03*
X91129000Y-59977400I-100000J0D01*
G01*
D11*
X93224000Y-59857400D02*
X97124000Y-59857400D01*
X93224000Y-69987400D02*
X97124000Y-69987400D01*
D12*
X99718200Y-31256000D02*
G75*
G03*
X99718200Y-31256000I-100000J0D01*
G01*
D11*
X99843200Y-34136000D02*
X99843200Y-36476000D01*
X91193200Y-34136000D02*
X91193200Y-36476000D01*
D12*
X145438200Y-31256000D02*
G75*
G03*
X145438200Y-31256000I-100000J0D01*
G01*
D11*
X145563200Y-34136000D02*
X145563200Y-36476000D01*
X136913200Y-34136000D02*
X136913200Y-36476000D01*
D12*
X134008200Y-31256000D02*
G75*
G03*
X134008200Y-31256000I-100000J0D01*
G01*
D11*
X134133200Y-34136000D02*
X134133200Y-36476000D01*
X125483200Y-34136000D02*
X125483200Y-36476000D01*
D12*
X122578200Y-31256000D02*
G75*
G03*
X122578200Y-31256000I-100000J0D01*
G01*
D11*
X122703200Y-34136000D02*
X122703200Y-36476000D01*
X114053200Y-34136000D02*
X114053200Y-36476000D01*
D12*
X111148200Y-31256000D02*
G75*
G03*
X111148200Y-31256000I-100000J0D01*
G01*
D11*
X111273200Y-34136000D02*
X111273200Y-36476000D01*
X102623200Y-34136000D02*
X102623200Y-36476000D01*
%LPC*%
D13*
X140335000Y-58928000D03*
X139217400Y-58928000D03*
X128905000Y-58928000D03*
X127787400Y-58928000D03*
X117475000Y-58928000D03*
X116357400Y-58928000D03*
X106045000Y-58928000D03*
X104927400Y-58928000D03*
X94615000Y-58928000D03*
X93497400Y-58928000D03*
X135382000Y-80594200D03*
X135356600Y-72390000D03*
X135356600Y-73660000D03*
X135382000Y-79273400D03*
X135356600Y-71196200D03*
X135382000Y-81762600D03*
X123926600Y-80594200D03*
X123901200Y-72390000D03*
X123901200Y-73660000D03*
X123926600Y-79273400D03*
X123901200Y-71196200D03*
X123926600Y-81762600D03*
X112471200Y-71196200D03*
X112496600Y-80594200D03*
X112471200Y-72390000D03*
X112471200Y-73660000D03*
X112496600Y-79273400D03*
X112496600Y-81762600D03*
X101066600Y-79273400D03*
X101041200Y-73660000D03*
X101066600Y-81762600D03*
X101041200Y-71196200D03*
X101041200Y-72390000D03*
X101066600Y-80594200D03*
D14*
X144830800Y-90678000D03*
D15*
X144830800Y-88138000D03*
X144830800Y-85598000D03*
X144830800Y-83058000D03*
X144830800Y-80518000D03*
X144830800Y-77978000D03*
X144830800Y-75438000D03*
X144830800Y-72898000D03*
D16*
X141097000Y-90601800D03*
D17*
X138419000Y-60477400D03*
X138419000Y-61747400D03*
X138419000Y-63017400D03*
X138419000Y-64287400D03*
X138419000Y-65557400D03*
X138419000Y-66827400D03*
X138419000Y-68097400D03*
X138419000Y-69367400D03*
X143369000Y-69367400D03*
X143369000Y-68097400D03*
X143369000Y-66827400D03*
X143369000Y-65557400D03*
X143369000Y-64287400D03*
X143369000Y-63017400D03*
X143369000Y-61747400D03*
X143369000Y-60477400D03*
D18*
X137210800Y-72898000D03*
D15*
X137210800Y-75438000D03*
X137210800Y-77978000D03*
X137210800Y-80518000D03*
X137210800Y-83058000D03*
X137210800Y-85598000D03*
X137210800Y-88138000D03*
X137210800Y-90678000D03*
D14*
X133400800Y-90678000D03*
D15*
X133400800Y-88138000D03*
X133400800Y-85598000D03*
X133400800Y-83058000D03*
X133400800Y-80518000D03*
X133400800Y-77978000D03*
X133400800Y-75438000D03*
X133400800Y-72898000D03*
D16*
X129667000Y-90601800D03*
D17*
X126989000Y-60477400D03*
X126989000Y-61747400D03*
X126989000Y-63017400D03*
X126989000Y-64287400D03*
X126989000Y-65557400D03*
X126989000Y-66827400D03*
X126989000Y-68097400D03*
X126989000Y-69367400D03*
X131939000Y-69367400D03*
X131939000Y-68097400D03*
X131939000Y-66827400D03*
X131939000Y-65557400D03*
X131939000Y-64287400D03*
X131939000Y-63017400D03*
X131939000Y-61747400D03*
X131939000Y-60477400D03*
D18*
X125780800Y-72898000D03*
D15*
X125780800Y-75438000D03*
X125780800Y-77978000D03*
X125780800Y-80518000D03*
X125780800Y-83058000D03*
X125780800Y-85598000D03*
X125780800Y-88138000D03*
X125780800Y-90678000D03*
X114350800Y-90678000D03*
X114350800Y-88138000D03*
X114350800Y-85598000D03*
X114350800Y-83058000D03*
X114350800Y-80518000D03*
X114350800Y-77978000D03*
X114350800Y-75438000D03*
D18*
X114350800Y-72898000D03*
D16*
X118237000Y-90601800D03*
D15*
X121970800Y-72898000D03*
X121970800Y-75438000D03*
X121970800Y-77978000D03*
X121970800Y-80518000D03*
X121970800Y-83058000D03*
X121970800Y-85598000D03*
X121970800Y-88138000D03*
D14*
X121970800Y-90678000D03*
D17*
X120509000Y-60477400D03*
X120509000Y-61747400D03*
X120509000Y-63017400D03*
X120509000Y-64287400D03*
X120509000Y-65557400D03*
X120509000Y-66827400D03*
X120509000Y-68097400D03*
X120509000Y-69367400D03*
X115559000Y-69367400D03*
X115559000Y-68097400D03*
X115559000Y-66827400D03*
X115559000Y-65557400D03*
X115559000Y-64287400D03*
X115559000Y-63017400D03*
X115559000Y-61747400D03*
X115559000Y-60477400D03*
D18*
X102920800Y-72898000D03*
D15*
X102920800Y-75438000D03*
X102920800Y-77978000D03*
X102920800Y-80518000D03*
X102920800Y-83058000D03*
X102920800Y-85598000D03*
X102920800Y-88138000D03*
X102920800Y-90678000D03*
D16*
X106807000Y-90601800D03*
D14*
X110540800Y-90678000D03*
D15*
X110540800Y-88138000D03*
X110540800Y-85598000D03*
X110540800Y-83058000D03*
X110540800Y-80518000D03*
X110540800Y-77978000D03*
X110540800Y-75438000D03*
X110540800Y-72898000D03*
D17*
X104129000Y-60477400D03*
X104129000Y-61747400D03*
X104129000Y-63017400D03*
X104129000Y-64287400D03*
X104129000Y-65557400D03*
X104129000Y-66827400D03*
X104129000Y-68097400D03*
X104129000Y-69367400D03*
X109079000Y-69367400D03*
X109079000Y-68097400D03*
X109079000Y-66827400D03*
X109079000Y-65557400D03*
X109079000Y-64287400D03*
X109079000Y-63017400D03*
X109079000Y-61747400D03*
X109079000Y-60477400D03*
X97649000Y-60477400D03*
X97649000Y-61747400D03*
X97649000Y-63017400D03*
X97649000Y-64287400D03*
X97649000Y-65557400D03*
X97649000Y-66827400D03*
X97649000Y-68097400D03*
X97649000Y-69367400D03*
X92699000Y-69367400D03*
X92699000Y-68097400D03*
X92699000Y-66827400D03*
X92699000Y-65557400D03*
X92699000Y-64287400D03*
X92699000Y-63017400D03*
X92699000Y-61747400D03*
X92699000Y-60477400D03*
D16*
X95377000Y-90601800D03*
D15*
X91490800Y-90678000D03*
X91490800Y-88138000D03*
X91490800Y-85598000D03*
X91490800Y-83058000D03*
X91490800Y-80518000D03*
X91490800Y-77978000D03*
X91490800Y-75438000D03*
D18*
X91490800Y-72898000D03*
D15*
X99110800Y-72898000D03*
X99110800Y-75438000D03*
X99110800Y-77978000D03*
X99110800Y-80518000D03*
X99110800Y-83058000D03*
X99110800Y-85598000D03*
X99110800Y-88138000D03*
D14*
X99110800Y-90678000D03*
D13*
X101066600Y-48945800D03*
X101041200Y-43332400D03*
X101041200Y-40868600D03*
X101041200Y-42062400D03*
X101066600Y-51435000D03*
X101066600Y-50266600D03*
D16*
X95605600Y-57150000D03*
D18*
X91592400Y-41854200D03*
D15*
X91592400Y-44394200D03*
X91592400Y-46934200D03*
X91592400Y-49474200D03*
X91592400Y-52014200D03*
X91592400Y-54554200D03*
X91592400Y-57094200D03*
X99212400Y-41859200D03*
X99212400Y-44399200D03*
X99212400Y-46939200D03*
X99212400Y-49479200D03*
X99212400Y-52019200D03*
X99212400Y-54559200D03*
D14*
X99212400Y-57099200D03*
D19*
X99328200Y-37781000D03*
X98058200Y-37781000D03*
X96788200Y-37781000D03*
X95518200Y-37781000D03*
X94248200Y-37781000D03*
X92978200Y-37781000D03*
X91708200Y-37781000D03*
X91708200Y-32831000D03*
X92978200Y-32831000D03*
X94248200Y-32831000D03*
X95518200Y-32831000D03*
X96788200Y-32831000D03*
X98058200Y-32831000D03*
X99328200Y-32831000D03*
D13*
X123926600Y-49022000D03*
X123901200Y-43408600D03*
X123901200Y-40944800D03*
X123901200Y-42138600D03*
X123926600Y-51511200D03*
X123926600Y-50342800D03*
X135382000Y-49022000D03*
D18*
X137312400Y-41854200D03*
D15*
X137312400Y-44394200D03*
X137312400Y-46934200D03*
X137312400Y-49474200D03*
X137312400Y-52014200D03*
X137312400Y-54554200D03*
X137312400Y-57094200D03*
D19*
X145048200Y-37781000D03*
X143778200Y-37781000D03*
X142508200Y-37781000D03*
X141238200Y-37781000D03*
X139968200Y-37781000D03*
X138698200Y-37781000D03*
X137428200Y-37781000D03*
X137428200Y-32831000D03*
X138698200Y-32831000D03*
X139968200Y-32831000D03*
X141238200Y-32831000D03*
X142508200Y-32831000D03*
X143778200Y-32831000D03*
X145048200Y-32831000D03*
D15*
X144932400Y-41859200D03*
X144932400Y-44399200D03*
X144932400Y-46939200D03*
X144932400Y-49479200D03*
X144932400Y-52019200D03*
X144932400Y-54559200D03*
D14*
X144932400Y-57099200D03*
D16*
X141325600Y-57150000D03*
X129895600Y-57150000D03*
D18*
X125882400Y-41854200D03*
D15*
X125882400Y-44394200D03*
X125882400Y-46934200D03*
X125882400Y-49474200D03*
X125882400Y-52014200D03*
X125882400Y-54554200D03*
X125882400Y-57094200D03*
X133502400Y-41859200D03*
X133502400Y-44399200D03*
X133502400Y-46939200D03*
X133502400Y-49479200D03*
X133502400Y-52019200D03*
X133502400Y-54559200D03*
D14*
X133502400Y-57099200D03*
D19*
X133618200Y-37781000D03*
X132348200Y-37781000D03*
X131078200Y-37781000D03*
X129808200Y-37781000D03*
X128538200Y-37781000D03*
X127268200Y-37781000D03*
X125998200Y-37781000D03*
X125998200Y-32831000D03*
X127268200Y-32831000D03*
X128538200Y-32831000D03*
X129808200Y-32831000D03*
X131078200Y-32831000D03*
X132348200Y-32831000D03*
X133618200Y-32831000D03*
D13*
X135356600Y-43408600D03*
X135356600Y-40944800D03*
X135356600Y-42138600D03*
X135382000Y-51511200D03*
X135382000Y-50342800D03*
X112496600Y-40944800D03*
X112496600Y-43408600D03*
X112496600Y-42138600D03*
X112522000Y-51511200D03*
X112522000Y-50342800D03*
X112522000Y-49022000D03*
D16*
X118465600Y-57150000D03*
D18*
X114452400Y-41854200D03*
D15*
X114452400Y-44394200D03*
X114452400Y-46934200D03*
X114452400Y-49474200D03*
X114452400Y-52014200D03*
X114452400Y-54554200D03*
X114452400Y-57094200D03*
X122072400Y-41859200D03*
X122072400Y-44399200D03*
X122072400Y-46939200D03*
X122072400Y-49479200D03*
X122072400Y-52019200D03*
X122072400Y-54559200D03*
D14*
X122072400Y-57099200D03*
D19*
X122188200Y-37781000D03*
X120918200Y-37781000D03*
X119648200Y-37781000D03*
X118378200Y-37781000D03*
X117108200Y-37781000D03*
X115838200Y-37781000D03*
X114568200Y-37781000D03*
X114568200Y-32831000D03*
X115838200Y-32831000D03*
X117108200Y-32831000D03*
X118378200Y-32831000D03*
X119648200Y-32831000D03*
X120918200Y-32831000D03*
X122188200Y-32831000D03*
D16*
X107035600Y-57150000D03*
D15*
X110642400Y-41859200D03*
X110642400Y-44399200D03*
X110642400Y-46939200D03*
X110642400Y-49479200D03*
X110642400Y-52019200D03*
X110642400Y-54559200D03*
D14*
X110642400Y-57099200D03*
D18*
X103022400Y-41854200D03*
D15*
X103022400Y-44394200D03*
X103022400Y-46934200D03*
X103022400Y-49474200D03*
X103022400Y-52014200D03*
X103022400Y-54554200D03*
X103022400Y-57094200D03*
D19*
X110758200Y-37781000D03*
X109488200Y-37781000D03*
X108218200Y-37781000D03*
X106948200Y-37781000D03*
X105678200Y-37781000D03*
X104408200Y-37781000D03*
X103138200Y-37781000D03*
X103138200Y-32831000D03*
X104408200Y-32831000D03*
X105678200Y-32831000D03*
X106948200Y-32831000D03*
X108218200Y-32831000D03*
X109488200Y-32831000D03*
X110758200Y-32831000D03*
%LPD*%
M02*
