%TF.GenerationSoftware,KiCad,Pcbnew,7.0.9*%
%TF.CreationDate,2023-12-28T16:33:40-08:00*%
%TF.ProjectId,soic breakouts,736f6963-2062-4726-9561-6b6f7574732e,rev?*%
%TF.SameCoordinates,Original*%
%TF.FileFunction,Drillmap*%
%TF.FilePolarity,Positive*%
%FSLAX45Y45*%
G04 Gerber Fmt 4.5, Leading zero omitted, Abs format (unit mm)*
G04 Created by KiCad (PCBNEW 7.0.9) date 2023-12-28 16:33:40*
%MOMM*%
%LPD*%
G01*
G04 APERTURE LIST*
%ADD10C,0.100000*%
%ADD11C,0.200000*%
G04 APERTURE END LIST*
D10*
X14170660Y-5839460D02*
X14587220Y-5839460D01*
X14170660Y-5839460D02*
G75*
G03*
X14170660Y-5951220I0J-55880D01*
G01*
X14587220Y-5951220D02*
X14170660Y-5951220D01*
X13784580Y-5839460D02*
X13627100Y-5839460D01*
X13784580Y-5951220D02*
G75*
G03*
X13784580Y-5839460I0J55880D01*
G01*
X13784580Y-5951220D02*
X13627100Y-5951220D01*
X13027660Y-5839460D02*
X13444220Y-5839460D01*
X12641580Y-5951220D02*
X12484100Y-5951220D01*
X13027660Y-5839460D02*
G75*
G03*
X13027660Y-5951220I0J-55880D01*
G01*
X13444220Y-5951220D02*
X13027660Y-5951220D01*
X12641580Y-5839460D02*
X12484100Y-5839460D01*
X12641580Y-5951220D02*
G75*
G03*
X12641580Y-5839460I0J55880D01*
G01*
X11884660Y-5839460D02*
G75*
G03*
X11884660Y-5951220I0J-55880D01*
G01*
X11884660Y-5839460D02*
X12301220Y-5839460D01*
X11498580Y-5951220D02*
X11341100Y-5951220D01*
X11498580Y-5839460D02*
X11341100Y-5839460D01*
X12301220Y-5951220D02*
X11884660Y-5951220D01*
X11498580Y-5951220D02*
G75*
G03*
X11498580Y-5839460I0J55880D01*
G01*
X10741660Y-5839460D02*
G75*
G03*
X10741660Y-5951220I0J-55880D01*
G01*
X10355580Y-5839460D02*
X10198100Y-5839460D01*
X10355580Y-5951220D02*
X10198100Y-5951220D01*
X10741660Y-5839460D02*
X11158220Y-5839460D01*
X10355580Y-5951220D02*
G75*
G03*
X10355580Y-5839460I0J55880D01*
G01*
X11158220Y-5951220D02*
X10741660Y-5951220D01*
X10015220Y-5951220D02*
X9598660Y-5951220D01*
X9598660Y-5839460D02*
X10015220Y-5839460D01*
X9212580Y-5951220D02*
X9055100Y-5951220D01*
X9212580Y-5839460D02*
X9055100Y-5839460D01*
X9598660Y-5839460D02*
G75*
G03*
X9598660Y-5951220I0J-55880D01*
G01*
X9212580Y-5951220D02*
G75*
G03*
X9212580Y-5839460I0J55880D01*
G01*
X13591540Y-7786513D02*
X13591540Y-7519813D01*
X13479780Y-7519813D02*
X13479780Y-7786513D01*
X13479780Y-7786513D02*
G75*
G03*
X13535660Y-7842393I55880J0D01*
G01*
X13479780Y-6974840D02*
G75*
G03*
X13535660Y-7030720I55880J0D01*
G01*
X13535660Y-7030720D02*
G75*
G03*
X13591540Y-6974840I0J55880D01*
G01*
X13591540Y-7519813D02*
G75*
G03*
X13535660Y-7463933I-55880J0D01*
G01*
X13591540Y-8304673D02*
G75*
G03*
X13535660Y-8248793I-55880J0D01*
G01*
X13535660Y-7842393D02*
G75*
G03*
X13591540Y-7786513I0J55880D01*
G01*
X13591540Y-8304673D02*
X13591540Y-9161780D01*
X13479780Y-9161780D02*
X13479780Y-8304673D01*
X13535660Y-8248793D02*
G75*
G03*
X13479780Y-8304673I0J-55880D01*
G01*
X13535660Y-7463933D02*
G75*
G03*
X13479780Y-7519813I0J-55880D01*
G01*
X13591540Y-6974840D02*
X13591540Y-5986780D01*
X13479780Y-5986780D02*
X13479780Y-6974840D01*
X12448540Y-7786513D02*
X12448540Y-7519813D01*
X12336780Y-7519813D02*
X12336780Y-7786513D01*
X12448540Y-8304673D02*
G75*
G03*
X12392660Y-8248793I-55880J0D01*
G01*
X12336780Y-7786513D02*
G75*
G03*
X12392660Y-7842393I55880J0D01*
G01*
X12336780Y-6974840D02*
G75*
G03*
X12392660Y-7030720I55880J0D01*
G01*
X12392660Y-7030720D02*
G75*
G03*
X12448540Y-6974840I0J55880D01*
G01*
X12448540Y-6974840D02*
X12448540Y-5986780D01*
X12448540Y-7519813D02*
G75*
G03*
X12392660Y-7463933I-55880J0D01*
G01*
X12392660Y-7842393D02*
G75*
G03*
X12448540Y-7786513I0J55880D01*
G01*
X12448540Y-8304673D02*
X12448540Y-9161780D01*
X12336780Y-9161780D02*
X12336780Y-8304673D01*
X12392660Y-8248793D02*
G75*
G03*
X12336780Y-8304673I0J-55880D01*
G01*
X12392660Y-7463933D02*
G75*
G03*
X12336780Y-7519813I0J-55880D01*
G01*
X12336780Y-5986780D02*
X12336780Y-6974840D01*
X11305540Y-7786513D02*
X11305540Y-7519813D01*
X11193780Y-7519813D02*
X11193780Y-7786513D01*
X11305540Y-8304673D02*
G75*
G03*
X11249660Y-8248793I-55880J0D01*
G01*
X11193780Y-7786513D02*
G75*
G03*
X11249660Y-7842393I55880J0D01*
G01*
X11193780Y-6974840D02*
G75*
G03*
X11249660Y-7030720I55880J0D01*
G01*
X11249660Y-7030720D02*
G75*
G03*
X11305540Y-6974840I0J55880D01*
G01*
X11305540Y-6974840D02*
X11305540Y-5986780D01*
X11305540Y-7519813D02*
G75*
G03*
X11249660Y-7463933I-55880J0D01*
G01*
X11249660Y-7842393D02*
G75*
G03*
X11305540Y-7786513I0J55880D01*
G01*
X11305540Y-8304673D02*
X11305540Y-9161780D01*
X11193780Y-9161780D02*
X11193780Y-8304673D01*
X11249660Y-8248793D02*
G75*
G03*
X11193780Y-8304673I0J-55880D01*
G01*
X11249660Y-7463933D02*
G75*
G03*
X11193780Y-7519813I0J-55880D01*
G01*
X11193780Y-5986780D02*
X11193780Y-6974840D01*
X11193780Y-5986780D02*
G75*
G03*
X11158220Y-5951220I-35560J0D01*
G01*
X10198100Y-5951220D02*
G75*
G03*
X10162540Y-5986780I0J-35560D01*
G01*
X10162540Y-9161780D02*
G75*
G03*
X10198100Y-9197340I35560J0D01*
G01*
X11158220Y-9197340D02*
G75*
G03*
X11193780Y-9161780I0J35560D01*
G01*
X10198100Y-9197340D02*
X11158220Y-9197340D01*
X10106660Y-7030720D02*
G75*
G03*
X10162540Y-6974840I0J55880D01*
G01*
X10106660Y-7842393D02*
G75*
G03*
X10162540Y-7786513I0J55880D01*
G01*
X10162540Y-8304673D02*
G75*
G03*
X10106660Y-8248793I-55880J0D01*
G01*
X10162540Y-7519813D02*
G75*
G03*
X10106660Y-7463933I-55880J0D01*
G01*
X10162540Y-8304673D02*
X10162540Y-9161780D01*
X10050780Y-9161780D02*
X10050780Y-8304673D01*
X10050780Y-7786513D02*
G75*
G03*
X10106660Y-7842393I55880J0D01*
G01*
X10050780Y-6974840D02*
G75*
G03*
X10106660Y-7030720I55880J0D01*
G01*
X10162540Y-7786513D02*
X10162540Y-7519813D01*
X10050780Y-5986780D02*
X10050780Y-6974840D01*
X10106660Y-8248793D02*
G75*
G03*
X10050780Y-8304673I0J-55880D01*
G01*
X10106660Y-7463933D02*
G75*
G03*
X10050780Y-7519813I0J-55880D01*
G01*
X10162540Y-6974840D02*
X10162540Y-5986780D01*
X10050780Y-7519813D02*
X10050780Y-7786513D01*
X13627100Y-9197340D02*
X14587220Y-9197340D01*
X14587220Y-9197340D02*
G75*
G03*
X14622780Y-9161780I0J35560D01*
G01*
X14622780Y-9161780D02*
X14622780Y-5986780D01*
X14622780Y-5986780D02*
G75*
G03*
X14587220Y-5951220I-35560J0D01*
G01*
X13627100Y-5951220D02*
G75*
G03*
X13591540Y-5986780I0J-35560D01*
G01*
X13591540Y-9161780D02*
G75*
G03*
X13627100Y-9197340I35560J0D01*
G01*
X11341100Y-9197340D02*
X12301220Y-9197340D01*
X12301220Y-9197340D02*
G75*
G03*
X12336780Y-9161780I0J35560D01*
G01*
X12336780Y-5986780D02*
G75*
G03*
X12301220Y-5951220I-35560J0D01*
G01*
X11305540Y-9161780D02*
G75*
G03*
X11341100Y-9197340I35560J0D01*
G01*
X11341100Y-5951220D02*
G75*
G03*
X11305540Y-5986780I0J-35560D01*
G01*
X12484100Y-9197340D02*
X13444220Y-9197340D01*
X13444220Y-9197340D02*
G75*
G03*
X13479780Y-9161780I0J35560D01*
G01*
X12484100Y-5951220D02*
G75*
G03*
X12448540Y-5986780I0J-35560D01*
G01*
X13479780Y-5986780D02*
G75*
G03*
X13444220Y-5951220I-35560J0D01*
G01*
X12448540Y-9161780D02*
G75*
G03*
X12484100Y-9197340I35560J0D01*
G01*
X9055100Y-9197340D02*
X10015220Y-9197340D01*
X10015220Y-9197340D02*
G75*
G03*
X10050780Y-9161780I0J35560D01*
G01*
X10050780Y-5986780D02*
G75*
G03*
X10015220Y-5951220I-35560J0D01*
G01*
X9019540Y-9161780D02*
G75*
G03*
X9055100Y-9197340I35560J0D01*
G01*
X9055100Y-5951220D02*
G75*
G03*
X9019540Y-5986780I0J-35560D01*
G01*
X9019540Y-5986780D02*
X9019540Y-9161780D01*
X10162540Y-5280660D02*
G75*
G03*
X10106660Y-5224780I-55880J0D01*
G01*
X10106660Y-4818380D02*
G75*
G03*
X10162540Y-4762500I0J55880D01*
G01*
X10162540Y-4495800D02*
G75*
G03*
X10106660Y-4439920I-55880J0D01*
G01*
X10106660Y-4006707D02*
G75*
G03*
X10162540Y-3950827I0J55880D01*
G01*
X10106660Y-5224780D02*
G75*
G03*
X10050780Y-5280660I0J-55880D01*
G01*
X10106660Y-4439920D02*
G75*
G03*
X10050780Y-4495800I0J-55880D01*
G01*
X10050780Y-4762500D02*
G75*
G03*
X10106660Y-4818380I55880J0D01*
G01*
X10050780Y-3950827D02*
G75*
G03*
X10106660Y-4006707I55880J0D01*
G01*
X10050780Y-4495800D02*
X10050780Y-4762500D01*
X10050780Y-5803900D02*
X10050780Y-5280660D01*
X10162540Y-5280660D02*
X10162540Y-5803900D01*
X10162540Y-4762500D02*
X10162540Y-4495800D01*
X10050780Y-3083560D02*
G75*
G03*
X10015220Y-3048000I-35560J0D01*
G01*
X9019540Y-5803900D02*
X9019540Y-3083560D01*
X9019540Y-5803900D02*
G75*
G03*
X9055100Y-5839460I35560J0D01*
G01*
X9055100Y-3048000D02*
G75*
G03*
X9019540Y-3083560I0J-35560D01*
G01*
X10015220Y-5839460D02*
G75*
G03*
X10050780Y-5803900I0J35560D01*
G01*
X9055100Y-3048000D02*
X10015220Y-3048000D01*
X10050780Y-3083560D02*
X10050780Y-3950827D01*
X10162540Y-3950827D02*
X10162540Y-3083560D01*
X12448540Y-5803900D02*
X12448540Y-5280660D01*
X12336780Y-5280660D02*
X12336780Y-5803900D01*
X12448540Y-3083560D02*
X12448540Y-3950827D01*
X12336780Y-3950827D02*
X12336780Y-3083560D01*
X12448540Y-5280660D02*
G75*
G03*
X12392660Y-5224780I-55880J0D01*
G01*
X12392660Y-5224780D02*
G75*
G03*
X12336780Y-5280660I0J-55880D01*
G01*
X12448540Y-4495800D02*
G75*
G03*
X12392660Y-4439920I-55880J0D01*
G01*
X12392660Y-4439920D02*
G75*
G03*
X12336780Y-4495800I0J-55880D01*
G01*
X12336780Y-4762500D02*
G75*
G03*
X12392660Y-4818380I55880J0D01*
G01*
X12392660Y-4818380D02*
G75*
G03*
X12448540Y-4762500I0J55880D01*
G01*
X12336780Y-3950827D02*
G75*
G03*
X12392660Y-4006707I55880J0D01*
G01*
X12392660Y-4006707D02*
G75*
G03*
X12448540Y-3950827I0J55880D01*
G01*
X12336780Y-4495800D02*
X12336780Y-4762500D01*
X12448540Y-4762500D02*
X12448540Y-4495800D01*
X14622780Y-3083560D02*
G75*
G03*
X14587220Y-3048000I-35560J0D01*
G01*
X13627100Y-3048000D02*
X14587220Y-3048000D01*
X14622780Y-3083560D02*
X14622780Y-5803900D01*
X13591540Y-5803900D02*
G75*
G03*
X13627100Y-5839460I35560J0D01*
G01*
X14587220Y-5839460D02*
G75*
G03*
X14622780Y-5803900I0J35560D01*
G01*
X13627100Y-3048000D02*
G75*
G03*
X13591540Y-3083560I0J-35560D01*
G01*
X13591540Y-5280660D02*
G75*
G03*
X13535660Y-5224780I-55880J0D01*
G01*
X13535660Y-5224780D02*
G75*
G03*
X13479780Y-5280660I0J-55880D01*
G01*
X13591540Y-4495800D02*
G75*
G03*
X13535660Y-4439920I-55880J0D01*
G01*
X13535660Y-4439920D02*
G75*
G03*
X13479780Y-4495800I0J-55880D01*
G01*
X13479780Y-4762500D02*
G75*
G03*
X13535660Y-4818380I55880J0D01*
G01*
X13535660Y-4818380D02*
G75*
G03*
X13591540Y-4762500I0J55880D01*
G01*
X13479780Y-3950827D02*
G75*
G03*
X13535660Y-4006707I55880J0D01*
G01*
X13535660Y-4006707D02*
G75*
G03*
X13591540Y-3950827I0J55880D01*
G01*
X13479780Y-4495800D02*
X13479780Y-4762500D01*
X13479780Y-5803900D02*
X13479780Y-5280660D01*
X13591540Y-5280660D02*
X13591540Y-5803900D01*
X13591540Y-4762500D02*
X13591540Y-4495800D01*
X13479780Y-3083560D02*
G75*
G03*
X13444220Y-3048000I-35560J0D01*
G01*
X12448540Y-5803900D02*
G75*
G03*
X12484100Y-5839460I35560J0D01*
G01*
X12484100Y-3048000D02*
G75*
G03*
X12448540Y-3083560I0J-35560D01*
G01*
X13444220Y-5839460D02*
G75*
G03*
X13479780Y-5803900I0J35560D01*
G01*
X12484100Y-3048000D02*
X13444220Y-3048000D01*
X13479780Y-3083560D02*
X13479780Y-3950827D01*
X13591540Y-3950827D02*
X13591540Y-3083560D01*
X11305540Y-5280660D02*
G75*
G03*
X11249660Y-5224780I-55880J0D01*
G01*
X11249660Y-5224780D02*
G75*
G03*
X11193780Y-5280660I0J-55880D01*
G01*
X11305540Y-4495800D02*
G75*
G03*
X11249660Y-4439920I-55880J0D01*
G01*
X11249660Y-4439920D02*
G75*
G03*
X11193780Y-4495800I0J-55880D01*
G01*
X11193780Y-4762500D02*
G75*
G03*
X11249660Y-4818380I55880J0D01*
G01*
X11249660Y-4818380D02*
G75*
G03*
X11305540Y-4762500I0J55880D01*
G01*
X11193780Y-3950827D02*
G75*
G03*
X11249660Y-4006707I55880J0D01*
G01*
X11249660Y-4006707D02*
G75*
G03*
X11305540Y-3950827I0J55880D01*
G01*
X11305540Y-4762500D02*
X11305540Y-4495800D01*
X11193780Y-4495800D02*
X11193780Y-4762500D01*
X11193780Y-5803900D02*
X11193780Y-5280660D01*
X11305540Y-5280660D02*
X11305540Y-5803900D01*
X11305540Y-3950827D02*
X11305540Y-3083560D01*
X11193780Y-3083560D02*
X11193780Y-3950827D01*
X12336780Y-3083560D02*
G75*
G03*
X12301220Y-3048000I-35560J0D01*
G01*
X11305540Y-5803900D02*
G75*
G03*
X11341100Y-5839460I35560J0D01*
G01*
X11341100Y-3048000D02*
X12301220Y-3048000D01*
X11341100Y-3048000D02*
G75*
G03*
X11305540Y-3083560I0J-35560D01*
G01*
X12301220Y-5839460D02*
G75*
G03*
X12336780Y-5803900I0J35560D01*
G01*
X11193780Y-3083560D02*
G75*
G03*
X11158220Y-3048000I-35560J0D01*
G01*
X10162540Y-5803900D02*
G75*
G03*
X10198100Y-5839460I35560J0D01*
G01*
X11158220Y-5839460D02*
G75*
G03*
X11193780Y-5803900I0J35560D01*
G01*
X10198100Y-3048000D02*
X11158220Y-3048000D01*
X10198100Y-3048000D02*
G75*
G03*
X10162540Y-3083560I0J-35560D01*
G01*
D11*
D10*
X9319740Y-5862800D02*
X9379740Y-5922800D01*
X9379740Y-5862800D02*
X9319740Y-5922800D01*
X9431500Y-5862800D02*
X9491500Y-5922800D01*
X9491500Y-5862800D02*
X9431500Y-5922800D01*
X10074120Y-4056860D02*
X10134120Y-4116860D01*
X10134120Y-4056860D02*
X10074120Y-4116860D01*
X10074120Y-4176240D02*
X10134120Y-4236240D01*
X10134120Y-4176240D02*
X10074120Y-4236240D01*
X10074120Y-4303240D02*
X10134120Y-4363240D01*
X10134120Y-4303240D02*
X10074120Y-4363240D01*
X10074120Y-7089620D02*
X10134120Y-7149620D01*
X10134120Y-7089620D02*
X10074120Y-7149620D01*
X10074120Y-7209000D02*
X10134120Y-7269000D01*
X10134120Y-7209000D02*
X10074120Y-7269000D01*
X10074120Y-7336000D02*
X10134120Y-7396000D01*
X10134120Y-7336000D02*
X10074120Y-7396000D01*
X10076660Y-4864580D02*
X10136660Y-4924580D01*
X10136660Y-4864580D02*
X10076660Y-4924580D01*
X10076660Y-4996660D02*
X10136660Y-5056660D01*
X10136660Y-4996660D02*
X10076660Y-5056660D01*
X10076660Y-5113500D02*
X10136660Y-5173500D01*
X10136660Y-5113500D02*
X10076660Y-5173500D01*
X10076660Y-7897340D02*
X10136660Y-7957340D01*
X10136660Y-7897340D02*
X10076660Y-7957340D01*
X10076660Y-8029420D02*
X10136660Y-8089420D01*
X10136660Y-8029420D02*
X10076660Y-8089420D01*
X10076660Y-8146260D02*
X10136660Y-8206260D01*
X10136660Y-8146260D02*
X10076660Y-8206260D01*
X10462740Y-5862800D02*
X10522740Y-5922800D01*
X10522740Y-5862800D02*
X10462740Y-5922800D01*
X10574500Y-5862800D02*
X10634500Y-5922800D01*
X10634500Y-5862800D02*
X10574500Y-5922800D01*
X11217120Y-7089620D02*
X11277120Y-7149620D01*
X11277120Y-7089620D02*
X11217120Y-7149620D01*
X11217120Y-7209000D02*
X11277120Y-7269000D01*
X11277120Y-7209000D02*
X11217120Y-7269000D01*
X11217120Y-7336000D02*
X11277120Y-7396000D01*
X11277120Y-7336000D02*
X11217120Y-7396000D01*
X11219660Y-4064480D02*
X11279660Y-4124480D01*
X11279660Y-4064480D02*
X11219660Y-4124480D01*
X11219660Y-4183860D02*
X11279660Y-4243860D01*
X11279660Y-4183860D02*
X11219660Y-4243860D01*
X11219660Y-4310860D02*
X11279660Y-4370860D01*
X11279660Y-4310860D02*
X11219660Y-4370860D01*
X11219660Y-7897340D02*
X11279660Y-7957340D01*
X11279660Y-7897340D02*
X11219660Y-7957340D01*
X11219660Y-8029420D02*
X11279660Y-8089420D01*
X11279660Y-8029420D02*
X11219660Y-8089420D01*
X11219660Y-8146260D02*
X11279660Y-8206260D01*
X11279660Y-8146260D02*
X11219660Y-8206260D01*
X11222200Y-4872200D02*
X11282200Y-4932200D01*
X11282200Y-4872200D02*
X11222200Y-4932200D01*
X11222200Y-5004280D02*
X11282200Y-5064280D01*
X11282200Y-5004280D02*
X11222200Y-5064280D01*
X11222200Y-5121120D02*
X11282200Y-5181120D01*
X11282200Y-5121120D02*
X11222200Y-5181120D01*
X11605740Y-5862800D02*
X11665740Y-5922800D01*
X11665740Y-5862800D02*
X11605740Y-5922800D01*
X11717500Y-5862800D02*
X11777500Y-5922800D01*
X11777500Y-5862800D02*
X11717500Y-5922800D01*
X12360120Y-4064480D02*
X12420120Y-4124480D01*
X12420120Y-4064480D02*
X12360120Y-4124480D01*
X12360120Y-4183860D02*
X12420120Y-4243860D01*
X12420120Y-4183860D02*
X12360120Y-4243860D01*
X12360120Y-4310860D02*
X12420120Y-4370860D01*
X12420120Y-4310860D02*
X12360120Y-4370860D01*
X12360120Y-7089620D02*
X12420120Y-7149620D01*
X12420120Y-7089620D02*
X12360120Y-7149620D01*
X12360120Y-7209000D02*
X12420120Y-7269000D01*
X12420120Y-7209000D02*
X12360120Y-7269000D01*
X12360120Y-7336000D02*
X12420120Y-7396000D01*
X12420120Y-7336000D02*
X12360120Y-7396000D01*
X12362660Y-4872200D02*
X12422660Y-4932200D01*
X12422660Y-4872200D02*
X12362660Y-4932200D01*
X12362660Y-5004280D02*
X12422660Y-5064280D01*
X12422660Y-5004280D02*
X12362660Y-5064280D01*
X12362660Y-5121120D02*
X12422660Y-5181120D01*
X12422660Y-5121120D02*
X12362660Y-5181120D01*
X12362660Y-7897340D02*
X12422660Y-7957340D01*
X12422660Y-7897340D02*
X12362660Y-7957340D01*
X12362660Y-8029420D02*
X12422660Y-8089420D01*
X12422660Y-8029420D02*
X12362660Y-8089420D01*
X12362660Y-8146260D02*
X12422660Y-8206260D01*
X12422660Y-8146260D02*
X12362660Y-8206260D01*
X12748740Y-5862800D02*
X12808740Y-5922800D01*
X12808740Y-5862800D02*
X12748740Y-5922800D01*
X12860500Y-5862800D02*
X12920500Y-5922800D01*
X12920500Y-5862800D02*
X12860500Y-5922800D01*
X13505660Y-4064480D02*
X13565660Y-4124480D01*
X13565660Y-4064480D02*
X13505660Y-4124480D01*
X13505660Y-4183860D02*
X13565660Y-4243860D01*
X13565660Y-4183860D02*
X13505660Y-4243860D01*
X13505660Y-4310860D02*
X13565660Y-4370860D01*
X13565660Y-4310860D02*
X13505660Y-4370860D01*
X13505660Y-7089620D02*
X13565660Y-7149620D01*
X13565660Y-7089620D02*
X13505660Y-7149620D01*
X13505660Y-7209000D02*
X13565660Y-7269000D01*
X13565660Y-7209000D02*
X13505660Y-7269000D01*
X13505660Y-7336000D02*
X13565660Y-7396000D01*
X13565660Y-7336000D02*
X13505660Y-7396000D01*
X13508200Y-4872200D02*
X13568200Y-4932200D01*
X13568200Y-4872200D02*
X13508200Y-4932200D01*
X13508200Y-5004280D02*
X13568200Y-5064280D01*
X13568200Y-5004280D02*
X13508200Y-5064280D01*
X13508200Y-5121120D02*
X13568200Y-5181120D01*
X13568200Y-5121120D02*
X13508200Y-5181120D01*
X13508200Y-7897340D02*
X13568200Y-7957340D01*
X13568200Y-7897340D02*
X13508200Y-7957340D01*
X13508200Y-8029420D02*
X13568200Y-8089420D01*
X13568200Y-8029420D02*
X13508200Y-8089420D01*
X13508200Y-8146260D02*
X13568200Y-8206260D01*
X13568200Y-8146260D02*
X13508200Y-8206260D01*
X13891740Y-5862800D02*
X13951740Y-5922800D01*
X13951740Y-5862800D02*
X13891740Y-5922800D01*
X14003500Y-5862800D02*
X14063500Y-5922800D01*
X14063500Y-5862800D02*
X14003500Y-5922800D01*
D11*
X9275317Y-9513824D02*
X9275317Y-9313824D01*
X9275317Y-9313824D02*
X9322936Y-9313824D01*
X9322936Y-9313824D02*
X9351507Y-9323348D01*
X9351507Y-9323348D02*
X9370555Y-9342395D01*
X9370555Y-9342395D02*
X9380079Y-9361443D01*
X9380079Y-9361443D02*
X9389603Y-9399538D01*
X9389603Y-9399538D02*
X9389603Y-9428110D01*
X9389603Y-9428110D02*
X9380079Y-9466205D01*
X9380079Y-9466205D02*
X9370555Y-9485252D01*
X9370555Y-9485252D02*
X9351507Y-9504300D01*
X9351507Y-9504300D02*
X9322936Y-9513824D01*
X9322936Y-9513824D02*
X9275317Y-9513824D01*
X9475317Y-9513824D02*
X9475317Y-9380490D01*
X9475317Y-9418586D02*
X9484841Y-9399538D01*
X9484841Y-9399538D02*
X9494364Y-9390014D01*
X9494364Y-9390014D02*
X9513412Y-9380490D01*
X9513412Y-9380490D02*
X9532460Y-9380490D01*
X9599126Y-9513824D02*
X9599126Y-9380490D01*
X9599126Y-9313824D02*
X9589603Y-9323348D01*
X9589603Y-9323348D02*
X9599126Y-9332871D01*
X9599126Y-9332871D02*
X9608650Y-9323348D01*
X9608650Y-9323348D02*
X9599126Y-9313824D01*
X9599126Y-9313824D02*
X9599126Y-9332871D01*
X9722936Y-9513824D02*
X9703888Y-9504300D01*
X9703888Y-9504300D02*
X9694364Y-9485252D01*
X9694364Y-9485252D02*
X9694364Y-9313824D01*
X9827698Y-9513824D02*
X9808650Y-9504300D01*
X9808650Y-9504300D02*
X9799126Y-9485252D01*
X9799126Y-9485252D02*
X9799126Y-9313824D01*
X10056269Y-9513824D02*
X10056269Y-9313824D01*
X10056269Y-9313824D02*
X10122936Y-9456681D01*
X10122936Y-9456681D02*
X10189603Y-9313824D01*
X10189603Y-9313824D02*
X10189603Y-9513824D01*
X10370555Y-9513824D02*
X10370555Y-9409062D01*
X10370555Y-9409062D02*
X10361031Y-9390014D01*
X10361031Y-9390014D02*
X10341984Y-9380490D01*
X10341984Y-9380490D02*
X10303888Y-9380490D01*
X10303888Y-9380490D02*
X10284841Y-9390014D01*
X10370555Y-9504300D02*
X10351507Y-9513824D01*
X10351507Y-9513824D02*
X10303888Y-9513824D01*
X10303888Y-9513824D02*
X10284841Y-9504300D01*
X10284841Y-9504300D02*
X10275317Y-9485252D01*
X10275317Y-9485252D02*
X10275317Y-9466205D01*
X10275317Y-9466205D02*
X10284841Y-9447157D01*
X10284841Y-9447157D02*
X10303888Y-9437633D01*
X10303888Y-9437633D02*
X10351507Y-9437633D01*
X10351507Y-9437633D02*
X10370555Y-9428110D01*
X10465793Y-9380490D02*
X10465793Y-9580490D01*
X10465793Y-9390014D02*
X10484841Y-9380490D01*
X10484841Y-9380490D02*
X10522936Y-9380490D01*
X10522936Y-9380490D02*
X10541984Y-9390014D01*
X10541984Y-9390014D02*
X10551507Y-9399538D01*
X10551507Y-9399538D02*
X10561031Y-9418586D01*
X10561031Y-9418586D02*
X10561031Y-9475729D01*
X10561031Y-9475729D02*
X10551507Y-9494776D01*
X10551507Y-9494776D02*
X10541984Y-9504300D01*
X10541984Y-9504300D02*
X10522936Y-9513824D01*
X10522936Y-9513824D02*
X10484841Y-9513824D01*
X10484841Y-9513824D02*
X10465793Y-9504300D01*
X10646745Y-9494776D02*
X10656269Y-9504300D01*
X10656269Y-9504300D02*
X10646745Y-9513824D01*
X10646745Y-9513824D02*
X10637222Y-9504300D01*
X10637222Y-9504300D02*
X10646745Y-9494776D01*
X10646745Y-9494776D02*
X10646745Y-9513824D01*
X10646745Y-9390014D02*
X10656269Y-9399538D01*
X10656269Y-9399538D02*
X10646745Y-9409062D01*
X10646745Y-9409062D02*
X10637222Y-9399538D01*
X10637222Y-9399538D02*
X10646745Y-9390014D01*
X10646745Y-9390014D02*
X10646745Y-9409062D01*
D10*
X8954540Y-9812340D02*
X9014540Y-9872340D01*
X9014540Y-9812340D02*
X8954540Y-9872340D01*
D11*
X9313412Y-9733824D02*
X9332460Y-9733824D01*
X9332460Y-9733824D02*
X9351507Y-9743348D01*
X9351507Y-9743348D02*
X9361031Y-9752871D01*
X9361031Y-9752871D02*
X9370555Y-9771919D01*
X9370555Y-9771919D02*
X9380079Y-9810014D01*
X9380079Y-9810014D02*
X9380079Y-9857633D01*
X9380079Y-9857633D02*
X9370555Y-9895729D01*
X9370555Y-9895729D02*
X9361031Y-9914776D01*
X9361031Y-9914776D02*
X9351507Y-9924300D01*
X9351507Y-9924300D02*
X9332460Y-9933824D01*
X9332460Y-9933824D02*
X9313412Y-9933824D01*
X9313412Y-9933824D02*
X9294364Y-9924300D01*
X9294364Y-9924300D02*
X9284841Y-9914776D01*
X9284841Y-9914776D02*
X9275317Y-9895729D01*
X9275317Y-9895729D02*
X9265793Y-9857633D01*
X9265793Y-9857633D02*
X9265793Y-9810014D01*
X9265793Y-9810014D02*
X9275317Y-9771919D01*
X9275317Y-9771919D02*
X9284841Y-9752871D01*
X9284841Y-9752871D02*
X9294364Y-9743348D01*
X9294364Y-9743348D02*
X9313412Y-9733824D01*
X9465793Y-9914776D02*
X9475317Y-9924300D01*
X9475317Y-9924300D02*
X9465793Y-9933824D01*
X9465793Y-9933824D02*
X9456269Y-9924300D01*
X9456269Y-9924300D02*
X9465793Y-9914776D01*
X9465793Y-9914776D02*
X9465793Y-9933824D01*
X9646745Y-9733824D02*
X9608650Y-9733824D01*
X9608650Y-9733824D02*
X9589603Y-9743348D01*
X9589603Y-9743348D02*
X9580079Y-9752871D01*
X9580079Y-9752871D02*
X9561031Y-9781443D01*
X9561031Y-9781443D02*
X9551507Y-9819538D01*
X9551507Y-9819538D02*
X9551507Y-9895729D01*
X9551507Y-9895729D02*
X9561031Y-9914776D01*
X9561031Y-9914776D02*
X9570555Y-9924300D01*
X9570555Y-9924300D02*
X9589603Y-9933824D01*
X9589603Y-9933824D02*
X9627698Y-9933824D01*
X9627698Y-9933824D02*
X9646745Y-9924300D01*
X9646745Y-9924300D02*
X9656269Y-9914776D01*
X9656269Y-9914776D02*
X9665793Y-9895729D01*
X9665793Y-9895729D02*
X9665793Y-9848110D01*
X9665793Y-9848110D02*
X9656269Y-9829062D01*
X9656269Y-9829062D02*
X9646745Y-9819538D01*
X9646745Y-9819538D02*
X9627698Y-9810014D01*
X9627698Y-9810014D02*
X9589603Y-9810014D01*
X9589603Y-9810014D02*
X9570555Y-9819538D01*
X9570555Y-9819538D02*
X9561031Y-9829062D01*
X9561031Y-9829062D02*
X9551507Y-9848110D01*
X9789603Y-9733824D02*
X9808650Y-9733824D01*
X9808650Y-9733824D02*
X9827698Y-9743348D01*
X9827698Y-9743348D02*
X9837222Y-9752871D01*
X9837222Y-9752871D02*
X9846745Y-9771919D01*
X9846745Y-9771919D02*
X9856269Y-9810014D01*
X9856269Y-9810014D02*
X9856269Y-9857633D01*
X9856269Y-9857633D02*
X9846745Y-9895729D01*
X9846745Y-9895729D02*
X9837222Y-9914776D01*
X9837222Y-9914776D02*
X9827698Y-9924300D01*
X9827698Y-9924300D02*
X9808650Y-9933824D01*
X9808650Y-9933824D02*
X9789603Y-9933824D01*
X9789603Y-9933824D02*
X9770555Y-9924300D01*
X9770555Y-9924300D02*
X9761031Y-9914776D01*
X9761031Y-9914776D02*
X9751507Y-9895729D01*
X9751507Y-9895729D02*
X9741984Y-9857633D01*
X9741984Y-9857633D02*
X9741984Y-9810014D01*
X9741984Y-9810014D02*
X9751507Y-9771919D01*
X9751507Y-9771919D02*
X9761031Y-9752871D01*
X9761031Y-9752871D02*
X9770555Y-9743348D01*
X9770555Y-9743348D02*
X9789603Y-9733824D01*
X9980079Y-9733824D02*
X9999126Y-9733824D01*
X9999126Y-9733824D02*
X10018174Y-9743348D01*
X10018174Y-9743348D02*
X10027698Y-9752871D01*
X10027698Y-9752871D02*
X10037222Y-9771919D01*
X10037222Y-9771919D02*
X10046745Y-9810014D01*
X10046745Y-9810014D02*
X10046745Y-9857633D01*
X10046745Y-9857633D02*
X10037222Y-9895729D01*
X10037222Y-9895729D02*
X10027698Y-9914776D01*
X10027698Y-9914776D02*
X10018174Y-9924300D01*
X10018174Y-9924300D02*
X9999126Y-9933824D01*
X9999126Y-9933824D02*
X9980079Y-9933824D01*
X9980079Y-9933824D02*
X9961031Y-9924300D01*
X9961031Y-9924300D02*
X9951507Y-9914776D01*
X9951507Y-9914776D02*
X9941984Y-9895729D01*
X9941984Y-9895729D02*
X9932460Y-9857633D01*
X9932460Y-9857633D02*
X9932460Y-9810014D01*
X9932460Y-9810014D02*
X9941984Y-9771919D01*
X9941984Y-9771919D02*
X9951507Y-9752871D01*
X9951507Y-9752871D02*
X9961031Y-9743348D01*
X9961031Y-9743348D02*
X9980079Y-9733824D01*
X10132460Y-9933824D02*
X10132460Y-9800490D01*
X10132460Y-9819538D02*
X10141984Y-9810014D01*
X10141984Y-9810014D02*
X10161031Y-9800490D01*
X10161031Y-9800490D02*
X10189603Y-9800490D01*
X10189603Y-9800490D02*
X10208650Y-9810014D01*
X10208650Y-9810014D02*
X10218174Y-9829062D01*
X10218174Y-9829062D02*
X10218174Y-9933824D01*
X10218174Y-9829062D02*
X10227698Y-9810014D01*
X10227698Y-9810014D02*
X10246745Y-9800490D01*
X10246745Y-9800490D02*
X10275317Y-9800490D01*
X10275317Y-9800490D02*
X10294365Y-9810014D01*
X10294365Y-9810014D02*
X10303888Y-9829062D01*
X10303888Y-9829062D02*
X10303888Y-9933824D01*
X10399126Y-9933824D02*
X10399126Y-9800490D01*
X10399126Y-9819538D02*
X10408650Y-9810014D01*
X10408650Y-9810014D02*
X10427698Y-9800490D01*
X10427698Y-9800490D02*
X10456269Y-9800490D01*
X10456269Y-9800490D02*
X10475317Y-9810014D01*
X10475317Y-9810014D02*
X10484841Y-9829062D01*
X10484841Y-9829062D02*
X10484841Y-9933824D01*
X10484841Y-9829062D02*
X10494365Y-9810014D01*
X10494365Y-9810014D02*
X10513412Y-9800490D01*
X10513412Y-9800490D02*
X10541984Y-9800490D01*
X10541984Y-9800490D02*
X10561031Y-9810014D01*
X10561031Y-9810014D02*
X10570555Y-9829062D01*
X10570555Y-9829062D02*
X10570555Y-9933824D01*
X10961031Y-9724300D02*
X10789603Y-9981443D01*
X11218174Y-9733824D02*
X11237222Y-9733824D01*
X11237222Y-9733824D02*
X11256269Y-9743348D01*
X11256269Y-9743348D02*
X11265793Y-9752871D01*
X11265793Y-9752871D02*
X11275317Y-9771919D01*
X11275317Y-9771919D02*
X11284841Y-9810014D01*
X11284841Y-9810014D02*
X11284841Y-9857633D01*
X11284841Y-9857633D02*
X11275317Y-9895729D01*
X11275317Y-9895729D02*
X11265793Y-9914776D01*
X11265793Y-9914776D02*
X11256269Y-9924300D01*
X11256269Y-9924300D02*
X11237222Y-9933824D01*
X11237222Y-9933824D02*
X11218174Y-9933824D01*
X11218174Y-9933824D02*
X11199126Y-9924300D01*
X11199126Y-9924300D02*
X11189603Y-9914776D01*
X11189603Y-9914776D02*
X11180079Y-9895729D01*
X11180079Y-9895729D02*
X11170555Y-9857633D01*
X11170555Y-9857633D02*
X11170555Y-9810014D01*
X11170555Y-9810014D02*
X11180079Y-9771919D01*
X11180079Y-9771919D02*
X11189603Y-9752871D01*
X11189603Y-9752871D02*
X11199126Y-9743348D01*
X11199126Y-9743348D02*
X11218174Y-9733824D01*
X11370555Y-9914776D02*
X11380079Y-9924300D01*
X11380079Y-9924300D02*
X11370555Y-9933824D01*
X11370555Y-9933824D02*
X11361031Y-9924300D01*
X11361031Y-9924300D02*
X11370555Y-9914776D01*
X11370555Y-9914776D02*
X11370555Y-9933824D01*
X11503888Y-9733824D02*
X11522936Y-9733824D01*
X11522936Y-9733824D02*
X11541984Y-9743348D01*
X11541984Y-9743348D02*
X11551507Y-9752871D01*
X11551507Y-9752871D02*
X11561031Y-9771919D01*
X11561031Y-9771919D02*
X11570555Y-9810014D01*
X11570555Y-9810014D02*
X11570555Y-9857633D01*
X11570555Y-9857633D02*
X11561031Y-9895729D01*
X11561031Y-9895729D02*
X11551507Y-9914776D01*
X11551507Y-9914776D02*
X11541984Y-9924300D01*
X11541984Y-9924300D02*
X11522936Y-9933824D01*
X11522936Y-9933824D02*
X11503888Y-9933824D01*
X11503888Y-9933824D02*
X11484841Y-9924300D01*
X11484841Y-9924300D02*
X11475317Y-9914776D01*
X11475317Y-9914776D02*
X11465793Y-9895729D01*
X11465793Y-9895729D02*
X11456269Y-9857633D01*
X11456269Y-9857633D02*
X11456269Y-9810014D01*
X11456269Y-9810014D02*
X11465793Y-9771919D01*
X11465793Y-9771919D02*
X11475317Y-9752871D01*
X11475317Y-9752871D02*
X11484841Y-9743348D01*
X11484841Y-9743348D02*
X11503888Y-9733824D01*
X11646746Y-9752871D02*
X11656269Y-9743348D01*
X11656269Y-9743348D02*
X11675317Y-9733824D01*
X11675317Y-9733824D02*
X11722936Y-9733824D01*
X11722936Y-9733824D02*
X11741984Y-9743348D01*
X11741984Y-9743348D02*
X11751507Y-9752871D01*
X11751507Y-9752871D02*
X11761031Y-9771919D01*
X11761031Y-9771919D02*
X11761031Y-9790967D01*
X11761031Y-9790967D02*
X11751507Y-9819538D01*
X11751507Y-9819538D02*
X11637222Y-9933824D01*
X11637222Y-9933824D02*
X11761031Y-9933824D01*
X11827698Y-9733824D02*
X11951507Y-9733824D01*
X11951507Y-9733824D02*
X11884841Y-9810014D01*
X11884841Y-9810014D02*
X11913412Y-9810014D01*
X11913412Y-9810014D02*
X11932460Y-9819538D01*
X11932460Y-9819538D02*
X11941984Y-9829062D01*
X11941984Y-9829062D02*
X11951507Y-9848110D01*
X11951507Y-9848110D02*
X11951507Y-9895729D01*
X11951507Y-9895729D02*
X11941984Y-9914776D01*
X11941984Y-9914776D02*
X11932460Y-9924300D01*
X11932460Y-9924300D02*
X11913412Y-9933824D01*
X11913412Y-9933824D02*
X11856269Y-9933824D01*
X11856269Y-9933824D02*
X11837222Y-9924300D01*
X11837222Y-9924300D02*
X11827698Y-9914776D01*
X12122936Y-9733824D02*
X12084841Y-9733824D01*
X12084841Y-9733824D02*
X12065793Y-9743348D01*
X12065793Y-9743348D02*
X12056269Y-9752871D01*
X12056269Y-9752871D02*
X12037222Y-9781443D01*
X12037222Y-9781443D02*
X12027698Y-9819538D01*
X12027698Y-9819538D02*
X12027698Y-9895729D01*
X12027698Y-9895729D02*
X12037222Y-9914776D01*
X12037222Y-9914776D02*
X12046746Y-9924300D01*
X12046746Y-9924300D02*
X12065793Y-9933824D01*
X12065793Y-9933824D02*
X12103888Y-9933824D01*
X12103888Y-9933824D02*
X12122936Y-9924300D01*
X12122936Y-9924300D02*
X12132460Y-9914776D01*
X12132460Y-9914776D02*
X12141984Y-9895729D01*
X12141984Y-9895729D02*
X12141984Y-9848110D01*
X12141984Y-9848110D02*
X12132460Y-9829062D01*
X12132460Y-9829062D02*
X12122936Y-9819538D01*
X12122936Y-9819538D02*
X12103888Y-9810014D01*
X12103888Y-9810014D02*
X12065793Y-9810014D01*
X12065793Y-9810014D02*
X12046746Y-9819538D01*
X12046746Y-9819538D02*
X12037222Y-9829062D01*
X12037222Y-9829062D02*
X12027698Y-9848110D01*
X12218174Y-9733824D02*
X12218174Y-9771919D01*
X12294365Y-9733824D02*
X12294365Y-9771919D01*
X12589603Y-10010014D02*
X12580079Y-10000490D01*
X12580079Y-10000490D02*
X12561031Y-9971919D01*
X12561031Y-9971919D02*
X12551508Y-9952871D01*
X12551508Y-9952871D02*
X12541984Y-9924300D01*
X12541984Y-9924300D02*
X12532460Y-9876681D01*
X12532460Y-9876681D02*
X12532460Y-9838586D01*
X12532460Y-9838586D02*
X12541984Y-9790967D01*
X12541984Y-9790967D02*
X12551508Y-9762395D01*
X12551508Y-9762395D02*
X12561031Y-9743348D01*
X12561031Y-9743348D02*
X12580079Y-9714776D01*
X12580079Y-9714776D02*
X12589603Y-9705252D01*
X12761031Y-9733824D02*
X12665793Y-9733824D01*
X12665793Y-9733824D02*
X12656269Y-9829062D01*
X12656269Y-9829062D02*
X12665793Y-9819538D01*
X12665793Y-9819538D02*
X12684841Y-9810014D01*
X12684841Y-9810014D02*
X12732460Y-9810014D01*
X12732460Y-9810014D02*
X12751508Y-9819538D01*
X12751508Y-9819538D02*
X12761031Y-9829062D01*
X12761031Y-9829062D02*
X12770555Y-9848110D01*
X12770555Y-9848110D02*
X12770555Y-9895729D01*
X12770555Y-9895729D02*
X12761031Y-9914776D01*
X12761031Y-9914776D02*
X12751508Y-9924300D01*
X12751508Y-9924300D02*
X12732460Y-9933824D01*
X12732460Y-9933824D02*
X12684841Y-9933824D01*
X12684841Y-9933824D02*
X12665793Y-9924300D01*
X12665793Y-9924300D02*
X12656269Y-9914776D01*
X12884841Y-9819538D02*
X12865793Y-9810014D01*
X12865793Y-9810014D02*
X12856269Y-9800490D01*
X12856269Y-9800490D02*
X12846746Y-9781443D01*
X12846746Y-9781443D02*
X12846746Y-9771919D01*
X12846746Y-9771919D02*
X12856269Y-9752871D01*
X12856269Y-9752871D02*
X12865793Y-9743348D01*
X12865793Y-9743348D02*
X12884841Y-9733824D01*
X12884841Y-9733824D02*
X12922936Y-9733824D01*
X12922936Y-9733824D02*
X12941984Y-9743348D01*
X12941984Y-9743348D02*
X12951508Y-9752871D01*
X12951508Y-9752871D02*
X12961031Y-9771919D01*
X12961031Y-9771919D02*
X12961031Y-9781443D01*
X12961031Y-9781443D02*
X12951508Y-9800490D01*
X12951508Y-9800490D02*
X12941984Y-9810014D01*
X12941984Y-9810014D02*
X12922936Y-9819538D01*
X12922936Y-9819538D02*
X12884841Y-9819538D01*
X12884841Y-9819538D02*
X12865793Y-9829062D01*
X12865793Y-9829062D02*
X12856269Y-9838586D01*
X12856269Y-9838586D02*
X12846746Y-9857633D01*
X12846746Y-9857633D02*
X12846746Y-9895729D01*
X12846746Y-9895729D02*
X12856269Y-9914776D01*
X12856269Y-9914776D02*
X12865793Y-9924300D01*
X12865793Y-9924300D02*
X12884841Y-9933824D01*
X12884841Y-9933824D02*
X12922936Y-9933824D01*
X12922936Y-9933824D02*
X12941984Y-9924300D01*
X12941984Y-9924300D02*
X12951508Y-9914776D01*
X12951508Y-9914776D02*
X12961031Y-9895729D01*
X12961031Y-9895729D02*
X12961031Y-9857633D01*
X12961031Y-9857633D02*
X12951508Y-9838586D01*
X12951508Y-9838586D02*
X12941984Y-9829062D01*
X12941984Y-9829062D02*
X12922936Y-9819538D01*
X13199127Y-9933824D02*
X13199127Y-9733824D01*
X13284841Y-9933824D02*
X13284841Y-9829062D01*
X13284841Y-9829062D02*
X13275317Y-9810014D01*
X13275317Y-9810014D02*
X13256270Y-9800490D01*
X13256270Y-9800490D02*
X13227698Y-9800490D01*
X13227698Y-9800490D02*
X13208650Y-9810014D01*
X13208650Y-9810014D02*
X13199127Y-9819538D01*
X13408650Y-9933824D02*
X13389603Y-9924300D01*
X13389603Y-9924300D02*
X13380079Y-9914776D01*
X13380079Y-9914776D02*
X13370555Y-9895729D01*
X13370555Y-9895729D02*
X13370555Y-9838586D01*
X13370555Y-9838586D02*
X13380079Y-9819538D01*
X13380079Y-9819538D02*
X13389603Y-9810014D01*
X13389603Y-9810014D02*
X13408650Y-9800490D01*
X13408650Y-9800490D02*
X13437222Y-9800490D01*
X13437222Y-9800490D02*
X13456270Y-9810014D01*
X13456270Y-9810014D02*
X13465793Y-9819538D01*
X13465793Y-9819538D02*
X13475317Y-9838586D01*
X13475317Y-9838586D02*
X13475317Y-9895729D01*
X13475317Y-9895729D02*
X13465793Y-9914776D01*
X13465793Y-9914776D02*
X13456270Y-9924300D01*
X13456270Y-9924300D02*
X13437222Y-9933824D01*
X13437222Y-9933824D02*
X13408650Y-9933824D01*
X13589603Y-9933824D02*
X13570555Y-9924300D01*
X13570555Y-9924300D02*
X13561031Y-9905252D01*
X13561031Y-9905252D02*
X13561031Y-9733824D01*
X13741984Y-9924300D02*
X13722936Y-9933824D01*
X13722936Y-9933824D02*
X13684841Y-9933824D01*
X13684841Y-9933824D02*
X13665793Y-9924300D01*
X13665793Y-9924300D02*
X13656270Y-9905252D01*
X13656270Y-9905252D02*
X13656270Y-9829062D01*
X13656270Y-9829062D02*
X13665793Y-9810014D01*
X13665793Y-9810014D02*
X13684841Y-9800490D01*
X13684841Y-9800490D02*
X13722936Y-9800490D01*
X13722936Y-9800490D02*
X13741984Y-9810014D01*
X13741984Y-9810014D02*
X13751508Y-9829062D01*
X13751508Y-9829062D02*
X13751508Y-9848110D01*
X13751508Y-9848110D02*
X13656270Y-9867157D01*
X13827698Y-9924300D02*
X13846746Y-9933824D01*
X13846746Y-9933824D02*
X13884841Y-9933824D01*
X13884841Y-9933824D02*
X13903889Y-9924300D01*
X13903889Y-9924300D02*
X13913412Y-9905252D01*
X13913412Y-9905252D02*
X13913412Y-9895729D01*
X13913412Y-9895729D02*
X13903889Y-9876681D01*
X13903889Y-9876681D02*
X13884841Y-9867157D01*
X13884841Y-9867157D02*
X13856270Y-9867157D01*
X13856270Y-9867157D02*
X13837222Y-9857633D01*
X13837222Y-9857633D02*
X13827698Y-9838586D01*
X13827698Y-9838586D02*
X13827698Y-9829062D01*
X13827698Y-9829062D02*
X13837222Y-9810014D01*
X13837222Y-9810014D02*
X13856270Y-9800490D01*
X13856270Y-9800490D02*
X13884841Y-9800490D01*
X13884841Y-9800490D02*
X13903889Y-9810014D01*
X13980079Y-10010014D02*
X13989603Y-10000490D01*
X13989603Y-10000490D02*
X14008651Y-9971919D01*
X14008651Y-9971919D02*
X14018174Y-9952871D01*
X14018174Y-9952871D02*
X14027698Y-9924300D01*
X14027698Y-9924300D02*
X14037222Y-9876681D01*
X14037222Y-9876681D02*
X14037222Y-9838586D01*
X14037222Y-9838586D02*
X14027698Y-9790967D01*
X14027698Y-9790967D02*
X14018174Y-9762395D01*
X14018174Y-9762395D02*
X14008651Y-9743348D01*
X14008651Y-9743348D02*
X13989603Y-9714776D01*
X13989603Y-9714776D02*
X13980079Y-9705252D01*
X14341984Y-10010014D02*
X14332460Y-10000490D01*
X14332460Y-10000490D02*
X14313412Y-9971919D01*
X14313412Y-9971919D02*
X14303889Y-9952871D01*
X14303889Y-9952871D02*
X14294365Y-9924300D01*
X14294365Y-9924300D02*
X14284841Y-9876681D01*
X14284841Y-9876681D02*
X14284841Y-9838586D01*
X14284841Y-9838586D02*
X14294365Y-9790967D01*
X14294365Y-9790967D02*
X14303889Y-9762395D01*
X14303889Y-9762395D02*
X14313412Y-9743348D01*
X14313412Y-9743348D02*
X14332460Y-9714776D01*
X14332460Y-9714776D02*
X14341984Y-9705252D01*
X14418174Y-9800490D02*
X14418174Y-9933824D01*
X14418174Y-9819538D02*
X14427698Y-9810014D01*
X14427698Y-9810014D02*
X14446746Y-9800490D01*
X14446746Y-9800490D02*
X14475317Y-9800490D01*
X14475317Y-9800490D02*
X14494365Y-9810014D01*
X14494365Y-9810014D02*
X14503889Y-9829062D01*
X14503889Y-9829062D02*
X14503889Y-9933824D01*
X14627698Y-9933824D02*
X14608651Y-9924300D01*
X14608651Y-9924300D02*
X14599127Y-9914776D01*
X14599127Y-9914776D02*
X14589603Y-9895729D01*
X14589603Y-9895729D02*
X14589603Y-9838586D01*
X14589603Y-9838586D02*
X14599127Y-9819538D01*
X14599127Y-9819538D02*
X14608651Y-9810014D01*
X14608651Y-9810014D02*
X14627698Y-9800490D01*
X14627698Y-9800490D02*
X14656270Y-9800490D01*
X14656270Y-9800490D02*
X14675317Y-9810014D01*
X14675317Y-9810014D02*
X14684841Y-9819538D01*
X14684841Y-9819538D02*
X14694365Y-9838586D01*
X14694365Y-9838586D02*
X14694365Y-9895729D01*
X14694365Y-9895729D02*
X14684841Y-9914776D01*
X14684841Y-9914776D02*
X14675317Y-9924300D01*
X14675317Y-9924300D02*
X14656270Y-9933824D01*
X14656270Y-9933824D02*
X14627698Y-9933824D01*
X14751508Y-9800490D02*
X14827698Y-9800490D01*
X14780079Y-9733824D02*
X14780079Y-9905252D01*
X14780079Y-9905252D02*
X14789603Y-9924300D01*
X14789603Y-9924300D02*
X14808651Y-9933824D01*
X14808651Y-9933824D02*
X14827698Y-9933824D01*
X15046746Y-9800490D02*
X15046746Y-10000490D01*
X15046746Y-9810014D02*
X15065793Y-9800490D01*
X15065793Y-9800490D02*
X15103889Y-9800490D01*
X15103889Y-9800490D02*
X15122936Y-9810014D01*
X15122936Y-9810014D02*
X15132460Y-9819538D01*
X15132460Y-9819538D02*
X15141984Y-9838586D01*
X15141984Y-9838586D02*
X15141984Y-9895729D01*
X15141984Y-9895729D02*
X15132460Y-9914776D01*
X15132460Y-9914776D02*
X15122936Y-9924300D01*
X15122936Y-9924300D02*
X15103889Y-9933824D01*
X15103889Y-9933824D02*
X15065793Y-9933824D01*
X15065793Y-9933824D02*
X15046746Y-9924300D01*
X15256270Y-9933824D02*
X15237222Y-9924300D01*
X15237222Y-9924300D02*
X15227698Y-9905252D01*
X15227698Y-9905252D02*
X15227698Y-9733824D01*
X15418174Y-9933824D02*
X15418174Y-9829062D01*
X15418174Y-9829062D02*
X15408651Y-9810014D01*
X15408651Y-9810014D02*
X15389603Y-9800490D01*
X15389603Y-9800490D02*
X15351508Y-9800490D01*
X15351508Y-9800490D02*
X15332460Y-9810014D01*
X15418174Y-9924300D02*
X15399127Y-9933824D01*
X15399127Y-9933824D02*
X15351508Y-9933824D01*
X15351508Y-9933824D02*
X15332460Y-9924300D01*
X15332460Y-9924300D02*
X15322936Y-9905252D01*
X15322936Y-9905252D02*
X15322936Y-9886205D01*
X15322936Y-9886205D02*
X15332460Y-9867157D01*
X15332460Y-9867157D02*
X15351508Y-9857633D01*
X15351508Y-9857633D02*
X15399127Y-9857633D01*
X15399127Y-9857633D02*
X15418174Y-9848110D01*
X15484841Y-9800490D02*
X15561032Y-9800490D01*
X15513413Y-9733824D02*
X15513413Y-9905252D01*
X15513413Y-9905252D02*
X15522936Y-9924300D01*
X15522936Y-9924300D02*
X15541984Y-9933824D01*
X15541984Y-9933824D02*
X15561032Y-9933824D01*
X15703889Y-9924300D02*
X15684841Y-9933824D01*
X15684841Y-9933824D02*
X15646746Y-9933824D01*
X15646746Y-9933824D02*
X15627698Y-9924300D01*
X15627698Y-9924300D02*
X15618174Y-9905252D01*
X15618174Y-9905252D02*
X15618174Y-9829062D01*
X15618174Y-9829062D02*
X15627698Y-9810014D01*
X15627698Y-9810014D02*
X15646746Y-9800490D01*
X15646746Y-9800490D02*
X15684841Y-9800490D01*
X15684841Y-9800490D02*
X15703889Y-9810014D01*
X15703889Y-9810014D02*
X15713413Y-9829062D01*
X15713413Y-9829062D02*
X15713413Y-9848110D01*
X15713413Y-9848110D02*
X15618174Y-9867157D01*
X15884841Y-9933824D02*
X15884841Y-9733824D01*
X15884841Y-9924300D02*
X15865794Y-9933824D01*
X15865794Y-9933824D02*
X15827698Y-9933824D01*
X15827698Y-9933824D02*
X15808651Y-9924300D01*
X15808651Y-9924300D02*
X15799127Y-9914776D01*
X15799127Y-9914776D02*
X15789603Y-9895729D01*
X15789603Y-9895729D02*
X15789603Y-9838586D01*
X15789603Y-9838586D02*
X15799127Y-9819538D01*
X15799127Y-9819538D02*
X15808651Y-9810014D01*
X15808651Y-9810014D02*
X15827698Y-9800490D01*
X15827698Y-9800490D02*
X15865794Y-9800490D01*
X15865794Y-9800490D02*
X15884841Y-9810014D01*
X15961032Y-10010014D02*
X15970555Y-10000490D01*
X15970555Y-10000490D02*
X15989603Y-9971919D01*
X15989603Y-9971919D02*
X15999127Y-9952871D01*
X15999127Y-9952871D02*
X16008651Y-9924300D01*
X16008651Y-9924300D02*
X16018174Y-9876681D01*
X16018174Y-9876681D02*
X16018174Y-9838586D01*
X16018174Y-9838586D02*
X16008651Y-9790967D01*
X16008651Y-9790967D02*
X15999127Y-9762395D01*
X15999127Y-9762395D02*
X15989603Y-9743348D01*
X15989603Y-9743348D02*
X15970555Y-9714776D01*
X15970555Y-9714776D02*
X15961032Y-9705252D01*
M02*
