M48
; DRILL file {KiCad 7.0.9} date Thu Dec 28 16:33:38 2023
; FORMAT={-:-/ absolute / metric / decimal}
; #@! TF.CreationDate,2023-12-28T16:33:38-08:00
; #@! TF.GenerationSoftware,Kicad,Pcbnew,7.0.9
; #@! TF.FileFunction,NonPlated,1,2,NPTH
FMAT,2
METRIC
; #@! TA.AperFunction,NonPlated,NPTH,ComponentDrill
T1C0.600
%
G90
G05
T1
X93.497Y-58.928
X94.615Y-58.928
X101.041Y-40.869
X101.041Y-42.062
X101.041Y-43.332
X101.041Y-71.196
X101.041Y-72.39
X101.041Y-73.66
X101.067Y-48.946
X101.067Y-50.267
X101.067Y-51.435
X101.067Y-79.273
X101.067Y-80.594
X101.067Y-81.763
X104.927Y-58.928
X106.045Y-58.928
X112.471Y-71.196
X112.471Y-72.39
X112.471Y-73.66
X112.497Y-40.945
X112.497Y-42.139
X112.497Y-43.409
X112.497Y-79.273
X112.497Y-80.594
X112.497Y-81.763
X112.522Y-49.022
X112.522Y-50.343
X112.522Y-51.511
X116.357Y-58.928
X117.475Y-58.928
X123.901Y-40.945
X123.901Y-42.139
X123.901Y-43.409
X123.901Y-71.196
X123.901Y-72.39
X123.901Y-73.66
X123.927Y-49.022
X123.927Y-50.343
X123.927Y-51.511
X123.927Y-79.273
X123.927Y-80.594
X123.927Y-81.763
X127.787Y-58.928
X128.905Y-58.928
X135.357Y-40.945
X135.357Y-42.139
X135.357Y-43.409
X135.357Y-71.196
X135.357Y-72.39
X135.357Y-73.66
X135.382Y-49.022
X135.382Y-50.343
X135.382Y-51.511
X135.382Y-79.273
X135.382Y-80.594
X135.382Y-81.763
X139.217Y-58.928
X140.335Y-58.928
T0
M30
