M48
; DRILL file {KiCad 7.0.9} date Thu Dec 28 16:33:38 2023
; FORMAT={-:-/ absolute / metric / decimal}
; #@! TF.CreationDate,2023-12-28T16:33:38-08:00
; #@! TF.GenerationSoftware,Kicad,Pcbnew,7.0.9
; #@! TF.FileFunction,Plated,1,2,PTH
FMAT,2
METRIC
; #@! TA.AperFunction,Plated,PTH,ViaDrill
T1C0.400
; #@! TA.AperFunction,Plated,PTH,ComponentDrill
T2C1.000
; #@! TA.AperFunction,Plated,PTH,ComponentDrill
T3C1.143
%
G90
G05
T1
X91.821Y-36.068
X92.024Y-34.696
X92.893Y-35.231
X93.507Y-41.67
X93.548Y-85.852
X93.599Y-57.595
X93.624Y-42.663
X93.777Y-50.444
X93.889Y-35.313
X93.905Y-84.918
X94.031Y-48.793
X94.031Y-53.289
X94.276Y-82.995
X94.652Y-77.725
X94.662Y-42.649
X94.739Y-43.646
X94.739Y-46.507
X94.793Y-79.35
X94.88Y-47.803
X94.888Y-35.314
X95.174Y-62.078
X95.216Y-81.001
X95.888Y-35.314
X95.936Y-45.263
X96.684Y-83.414
X96.723Y-79.883
X97.485Y-82.271
X97.485Y-85.166
X99.263Y-35.103
X103.251Y-36.068
X103.454Y-34.696
X104.323Y-35.231
X104.937Y-41.67
X104.978Y-85.852
X105.029Y-57.595
X105.054Y-42.663
X105.207Y-50.444
X105.319Y-35.313
X105.335Y-84.918
X105.461Y-48.793
X105.461Y-53.289
X105.706Y-82.995
X106.082Y-77.725
X106.092Y-42.649
X106.169Y-43.646
X106.169Y-46.507
X106.223Y-79.35
X106.31Y-47.803
X106.318Y-35.314
X106.604Y-62.078
X106.646Y-81.001
X107.318Y-35.314
X107.366Y-45.263
X108.114Y-83.414
X108.153Y-79.883
X108.915Y-82.271
X108.915Y-85.166
X110.693Y-35.103
X114.681Y-36.068
X114.884Y-34.696
X115.753Y-35.231
X116.367Y-41.67
X116.408Y-85.852
X116.459Y-57.595
X116.484Y-42.663
X116.637Y-50.444
X116.749Y-35.313
X116.765Y-84.918
X116.891Y-48.793
X116.891Y-53.289
X117.136Y-82.995
X117.512Y-77.725
X117.522Y-42.649
X117.599Y-43.646
X117.599Y-46.507
X117.653Y-79.35
X117.74Y-47.803
X117.748Y-35.314
X118.034Y-62.078
X118.076Y-81.001
X118.748Y-35.314
X118.796Y-45.263
X119.544Y-83.414
X119.583Y-79.883
X120.345Y-82.271
X120.345Y-85.166
X122.123Y-35.103
X126.111Y-36.068
X126.314Y-34.696
X127.183Y-35.231
X127.797Y-41.67
X127.838Y-85.852
X127.889Y-57.595
X127.914Y-42.663
X128.067Y-50.444
X128.179Y-35.313
X128.195Y-84.918
X128.321Y-48.793
X128.321Y-53.289
X128.566Y-82.995
X128.942Y-77.725
X128.952Y-42.649
X129.029Y-43.646
X129.029Y-46.507
X129.083Y-79.35
X129.17Y-47.803
X129.178Y-35.314
X129.464Y-62.078
X129.506Y-81.001
X130.178Y-35.314
X130.226Y-45.263
X130.974Y-83.414
X131.013Y-79.883
X131.775Y-82.271
X131.775Y-85.166
X133.553Y-35.103
X137.541Y-36.068
X137.744Y-34.696
X138.613Y-35.231
X139.227Y-41.67
X139.268Y-85.852
X139.319Y-57.595
X139.344Y-42.663
X139.497Y-50.444
X139.609Y-35.313
X139.625Y-84.918
X139.751Y-48.793
X139.751Y-53.289
X139.996Y-82.995
X140.372Y-77.725
X140.382Y-42.649
X140.459Y-43.646
X140.459Y-46.507
X140.513Y-79.35
X140.6Y-47.803
X140.608Y-35.314
X140.894Y-62.078
X140.936Y-81.001
X141.608Y-35.314
X141.656Y-45.263
X142.404Y-83.414
X142.443Y-79.883
X143.205Y-82.271
X143.205Y-85.166
X144.983Y-35.103
T2
X91.491Y-72.898
X91.491Y-75.438
X91.491Y-77.978
X91.491Y-80.518
X91.491Y-83.058
X91.491Y-85.598
X91.491Y-88.138
X91.491Y-90.678
X91.592Y-41.854
X91.592Y-44.394
X91.592Y-46.934
X91.592Y-49.474
X91.592Y-52.014
X91.592Y-54.554
X91.592Y-57.094
X99.111Y-72.898
X99.111Y-75.438
X99.111Y-77.978
X99.111Y-80.518
X99.111Y-83.058
X99.111Y-85.598
X99.111Y-88.138
X99.111Y-90.678
X99.212Y-41.859
X99.212Y-44.399
X99.212Y-46.939
X99.212Y-49.479
X99.212Y-52.019
X99.212Y-54.559
X99.212Y-57.099
X102.921Y-72.898
X102.921Y-75.438
X102.921Y-77.978
X102.921Y-80.518
X102.921Y-83.058
X102.921Y-85.598
X102.921Y-88.138
X102.921Y-90.678
X103.022Y-41.854
X103.022Y-44.394
X103.022Y-46.934
X103.022Y-49.474
X103.022Y-52.014
X103.022Y-54.554
X103.022Y-57.094
X110.541Y-72.898
X110.541Y-75.438
X110.541Y-77.978
X110.541Y-80.518
X110.541Y-83.058
X110.541Y-85.598
X110.541Y-88.138
X110.541Y-90.678
X110.642Y-41.859
X110.642Y-44.399
X110.642Y-46.939
X110.642Y-49.479
X110.642Y-52.019
X110.642Y-54.559
X110.642Y-57.099
X114.351Y-72.898
X114.351Y-75.438
X114.351Y-77.978
X114.351Y-80.518
X114.351Y-83.058
X114.351Y-85.598
X114.351Y-88.138
X114.351Y-90.678
X114.452Y-41.854
X114.452Y-44.394
X114.452Y-46.934
X114.452Y-49.474
X114.452Y-52.014
X114.452Y-54.554
X114.452Y-57.094
X121.971Y-72.898
X121.971Y-75.438
X121.971Y-77.978
X121.971Y-80.518
X121.971Y-83.058
X121.971Y-85.598
X121.971Y-88.138
X121.971Y-90.678
X122.072Y-41.859
X122.072Y-44.399
X122.072Y-46.939
X122.072Y-49.479
X122.072Y-52.019
X122.072Y-54.559
X122.072Y-57.099
X125.781Y-72.898
X125.781Y-75.438
X125.781Y-77.978
X125.781Y-80.518
X125.781Y-83.058
X125.781Y-85.598
X125.781Y-88.138
X125.781Y-90.678
X125.882Y-41.854
X125.882Y-44.394
X125.882Y-46.934
X125.882Y-49.474
X125.882Y-52.014
X125.882Y-54.554
X125.882Y-57.094
X133.401Y-72.898
X133.401Y-75.438
X133.401Y-77.978
X133.401Y-80.518
X133.401Y-83.058
X133.401Y-85.598
X133.401Y-88.138
X133.401Y-90.678
X133.502Y-41.859
X133.502Y-44.399
X133.502Y-46.939
X133.502Y-49.479
X133.502Y-52.019
X133.502Y-54.559
X133.502Y-57.099
X137.211Y-72.898
X137.211Y-75.438
X137.211Y-77.978
X137.211Y-80.518
X137.211Y-83.058
X137.211Y-85.598
X137.211Y-88.138
X137.211Y-90.678
X137.312Y-41.854
X137.312Y-44.394
X137.312Y-46.934
X137.312Y-49.474
X137.312Y-52.014
X137.312Y-54.554
X137.312Y-57.094
X144.831Y-72.898
X144.831Y-75.438
X144.831Y-77.978
X144.831Y-80.518
X144.831Y-83.058
X144.831Y-85.598
X144.831Y-88.138
X144.831Y-90.678
X144.932Y-41.859
X144.932Y-44.399
X144.932Y-46.939
X144.932Y-49.479
X144.932Y-52.019
X144.932Y-54.559
X144.932Y-57.099
T3
X95.377Y-90.602
X95.606Y-57.15
X106.807Y-90.602
X107.036Y-57.15
X118.237Y-90.602
X118.466Y-57.15
X129.667Y-90.602
X129.896Y-57.15
X141.097Y-90.602
X141.326Y-57.15
T0
M30
