%TF.GenerationSoftware,KiCad,Pcbnew,7.0.9*%
%TF.CreationDate,2023-12-28T16:33:40-08:00*%
%TF.ProjectId,soic breakouts,736f6963-2062-4726-9561-6b6f7574732e,rev?*%
%TF.SameCoordinates,Original*%
%TF.FileFunction,Drillmap*%
%TF.FilePolarity,Positive*%
%FSLAX45Y45*%
G04 Gerber Fmt 4.5, Leading zero omitted, Abs format (unit mm)*
G04 Created by KiCad (PCBNEW 7.0.9) date 2023-12-28 16:33:40*
%MOMM*%
%LPD*%
G01*
G04 APERTURE LIST*
%ADD10C,0.100000*%
%ADD11C,0.200000*%
%ADD12C,0.114300*%
G04 APERTURE END LIST*
D10*
X14170660Y-5839460D02*
X14587220Y-5839460D01*
X14170660Y-5839460D02*
G75*
G03*
X14170660Y-5951220I0J-55880D01*
G01*
X14587220Y-5951220D02*
X14170660Y-5951220D01*
X13784580Y-5839460D02*
X13627100Y-5839460D01*
X13784580Y-5951220D02*
G75*
G03*
X13784580Y-5839460I0J55880D01*
G01*
X13784580Y-5951220D02*
X13627100Y-5951220D01*
X13027660Y-5839460D02*
X13444220Y-5839460D01*
X12641580Y-5951220D02*
X12484100Y-5951220D01*
X13027660Y-5839460D02*
G75*
G03*
X13027660Y-5951220I0J-55880D01*
G01*
X13444220Y-5951220D02*
X13027660Y-5951220D01*
X12641580Y-5839460D02*
X12484100Y-5839460D01*
X12641580Y-5951220D02*
G75*
G03*
X12641580Y-5839460I0J55880D01*
G01*
X11884660Y-5839460D02*
G75*
G03*
X11884660Y-5951220I0J-55880D01*
G01*
X11884660Y-5839460D02*
X12301220Y-5839460D01*
X11498580Y-5951220D02*
X11341100Y-5951220D01*
X11498580Y-5839460D02*
X11341100Y-5839460D01*
X12301220Y-5951220D02*
X11884660Y-5951220D01*
X11498580Y-5951220D02*
G75*
G03*
X11498580Y-5839460I0J55880D01*
G01*
X10741660Y-5839460D02*
G75*
G03*
X10741660Y-5951220I0J-55880D01*
G01*
X10355580Y-5839460D02*
X10198100Y-5839460D01*
X10355580Y-5951220D02*
X10198100Y-5951220D01*
X10741660Y-5839460D02*
X11158220Y-5839460D01*
X10355580Y-5951220D02*
G75*
G03*
X10355580Y-5839460I0J55880D01*
G01*
X11158220Y-5951220D02*
X10741660Y-5951220D01*
X10015220Y-5951220D02*
X9598660Y-5951220D01*
X9598660Y-5839460D02*
X10015220Y-5839460D01*
X9212580Y-5951220D02*
X9055100Y-5951220D01*
X9212580Y-5839460D02*
X9055100Y-5839460D01*
X9598660Y-5839460D02*
G75*
G03*
X9598660Y-5951220I0J-55880D01*
G01*
X9212580Y-5951220D02*
G75*
G03*
X9212580Y-5839460I0J55880D01*
G01*
X13591540Y-7786513D02*
X13591540Y-7519813D01*
X13479780Y-7519813D02*
X13479780Y-7786513D01*
X13479780Y-7786513D02*
G75*
G03*
X13535660Y-7842393I55880J0D01*
G01*
X13479780Y-6974840D02*
G75*
G03*
X13535660Y-7030720I55880J0D01*
G01*
X13535660Y-7030720D02*
G75*
G03*
X13591540Y-6974840I0J55880D01*
G01*
X13591540Y-7519813D02*
G75*
G03*
X13535660Y-7463933I-55880J0D01*
G01*
X13591540Y-8304673D02*
G75*
G03*
X13535660Y-8248793I-55880J0D01*
G01*
X13535660Y-7842393D02*
G75*
G03*
X13591540Y-7786513I0J55880D01*
G01*
X13591540Y-8304673D02*
X13591540Y-9161780D01*
X13479780Y-9161780D02*
X13479780Y-8304673D01*
X13535660Y-8248793D02*
G75*
G03*
X13479780Y-8304673I0J-55880D01*
G01*
X13535660Y-7463933D02*
G75*
G03*
X13479780Y-7519813I0J-55880D01*
G01*
X13591540Y-6974840D02*
X13591540Y-5986780D01*
X13479780Y-5986780D02*
X13479780Y-6974840D01*
X12448540Y-7786513D02*
X12448540Y-7519813D01*
X12336780Y-7519813D02*
X12336780Y-7786513D01*
X12448540Y-8304673D02*
G75*
G03*
X12392660Y-8248793I-55880J0D01*
G01*
X12336780Y-7786513D02*
G75*
G03*
X12392660Y-7842393I55880J0D01*
G01*
X12336780Y-6974840D02*
G75*
G03*
X12392660Y-7030720I55880J0D01*
G01*
X12392660Y-7030720D02*
G75*
G03*
X12448540Y-6974840I0J55880D01*
G01*
X12448540Y-6974840D02*
X12448540Y-5986780D01*
X12448540Y-7519813D02*
G75*
G03*
X12392660Y-7463933I-55880J0D01*
G01*
X12392660Y-7842393D02*
G75*
G03*
X12448540Y-7786513I0J55880D01*
G01*
X12448540Y-8304673D02*
X12448540Y-9161780D01*
X12336780Y-9161780D02*
X12336780Y-8304673D01*
X12392660Y-8248793D02*
G75*
G03*
X12336780Y-8304673I0J-55880D01*
G01*
X12392660Y-7463933D02*
G75*
G03*
X12336780Y-7519813I0J-55880D01*
G01*
X12336780Y-5986780D02*
X12336780Y-6974840D01*
X11305540Y-7786513D02*
X11305540Y-7519813D01*
X11193780Y-7519813D02*
X11193780Y-7786513D01*
X11305540Y-8304673D02*
G75*
G03*
X11249660Y-8248793I-55880J0D01*
G01*
X11193780Y-7786513D02*
G75*
G03*
X11249660Y-7842393I55880J0D01*
G01*
X11193780Y-6974840D02*
G75*
G03*
X11249660Y-7030720I55880J0D01*
G01*
X11249660Y-7030720D02*
G75*
G03*
X11305540Y-6974840I0J55880D01*
G01*
X11305540Y-6974840D02*
X11305540Y-5986780D01*
X11305540Y-7519813D02*
G75*
G03*
X11249660Y-7463933I-55880J0D01*
G01*
X11249660Y-7842393D02*
G75*
G03*
X11305540Y-7786513I0J55880D01*
G01*
X11305540Y-8304673D02*
X11305540Y-9161780D01*
X11193780Y-9161780D02*
X11193780Y-8304673D01*
X11249660Y-8248793D02*
G75*
G03*
X11193780Y-8304673I0J-55880D01*
G01*
X11249660Y-7463933D02*
G75*
G03*
X11193780Y-7519813I0J-55880D01*
G01*
X11193780Y-5986780D02*
X11193780Y-6974840D01*
X11193780Y-5986780D02*
G75*
G03*
X11158220Y-5951220I-35560J0D01*
G01*
X10198100Y-5951220D02*
G75*
G03*
X10162540Y-5986780I0J-35560D01*
G01*
X10162540Y-9161780D02*
G75*
G03*
X10198100Y-9197340I35560J0D01*
G01*
X11158220Y-9197340D02*
G75*
G03*
X11193780Y-9161780I0J35560D01*
G01*
X10198100Y-9197340D02*
X11158220Y-9197340D01*
X10106660Y-7030720D02*
G75*
G03*
X10162540Y-6974840I0J55880D01*
G01*
X10106660Y-7842393D02*
G75*
G03*
X10162540Y-7786513I0J55880D01*
G01*
X10162540Y-8304673D02*
G75*
G03*
X10106660Y-8248793I-55880J0D01*
G01*
X10162540Y-7519813D02*
G75*
G03*
X10106660Y-7463933I-55880J0D01*
G01*
X10162540Y-8304673D02*
X10162540Y-9161780D01*
X10050780Y-9161780D02*
X10050780Y-8304673D01*
X10050780Y-7786513D02*
G75*
G03*
X10106660Y-7842393I55880J0D01*
G01*
X10050780Y-6974840D02*
G75*
G03*
X10106660Y-7030720I55880J0D01*
G01*
X10162540Y-7786513D02*
X10162540Y-7519813D01*
X10050780Y-5986780D02*
X10050780Y-6974840D01*
X10106660Y-8248793D02*
G75*
G03*
X10050780Y-8304673I0J-55880D01*
G01*
X10106660Y-7463933D02*
G75*
G03*
X10050780Y-7519813I0J-55880D01*
G01*
X10162540Y-6974840D02*
X10162540Y-5986780D01*
X10050780Y-7519813D02*
X10050780Y-7786513D01*
X13627100Y-9197340D02*
X14587220Y-9197340D01*
X14587220Y-9197340D02*
G75*
G03*
X14622780Y-9161780I0J35560D01*
G01*
X14622780Y-9161780D02*
X14622780Y-5986780D01*
X14622780Y-5986780D02*
G75*
G03*
X14587220Y-5951220I-35560J0D01*
G01*
X13627100Y-5951220D02*
G75*
G03*
X13591540Y-5986780I0J-35560D01*
G01*
X13591540Y-9161780D02*
G75*
G03*
X13627100Y-9197340I35560J0D01*
G01*
X11341100Y-9197340D02*
X12301220Y-9197340D01*
X12301220Y-9197340D02*
G75*
G03*
X12336780Y-9161780I0J35560D01*
G01*
X12336780Y-5986780D02*
G75*
G03*
X12301220Y-5951220I-35560J0D01*
G01*
X11305540Y-9161780D02*
G75*
G03*
X11341100Y-9197340I35560J0D01*
G01*
X11341100Y-5951220D02*
G75*
G03*
X11305540Y-5986780I0J-35560D01*
G01*
X12484100Y-9197340D02*
X13444220Y-9197340D01*
X13444220Y-9197340D02*
G75*
G03*
X13479780Y-9161780I0J35560D01*
G01*
X12484100Y-5951220D02*
G75*
G03*
X12448540Y-5986780I0J-35560D01*
G01*
X13479780Y-5986780D02*
G75*
G03*
X13444220Y-5951220I-35560J0D01*
G01*
X12448540Y-9161780D02*
G75*
G03*
X12484100Y-9197340I35560J0D01*
G01*
X9055100Y-9197340D02*
X10015220Y-9197340D01*
X10015220Y-9197340D02*
G75*
G03*
X10050780Y-9161780I0J35560D01*
G01*
X10050780Y-5986780D02*
G75*
G03*
X10015220Y-5951220I-35560J0D01*
G01*
X9019540Y-9161780D02*
G75*
G03*
X9055100Y-9197340I35560J0D01*
G01*
X9055100Y-5951220D02*
G75*
G03*
X9019540Y-5986780I0J-35560D01*
G01*
X9019540Y-5986780D02*
X9019540Y-9161780D01*
X10162540Y-5280660D02*
G75*
G03*
X10106660Y-5224780I-55880J0D01*
G01*
X10106660Y-4818380D02*
G75*
G03*
X10162540Y-4762500I0J55880D01*
G01*
X10162540Y-4495800D02*
G75*
G03*
X10106660Y-4439920I-55880J0D01*
G01*
X10106660Y-4006707D02*
G75*
G03*
X10162540Y-3950827I0J55880D01*
G01*
X10106660Y-5224780D02*
G75*
G03*
X10050780Y-5280660I0J-55880D01*
G01*
X10106660Y-4439920D02*
G75*
G03*
X10050780Y-4495800I0J-55880D01*
G01*
X10050780Y-4762500D02*
G75*
G03*
X10106660Y-4818380I55880J0D01*
G01*
X10050780Y-3950827D02*
G75*
G03*
X10106660Y-4006707I55880J0D01*
G01*
X10050780Y-4495800D02*
X10050780Y-4762500D01*
X10050780Y-5803900D02*
X10050780Y-5280660D01*
X10162540Y-5280660D02*
X10162540Y-5803900D01*
X10162540Y-4762500D02*
X10162540Y-4495800D01*
X10050780Y-3083560D02*
G75*
G03*
X10015220Y-3048000I-35560J0D01*
G01*
X9019540Y-5803900D02*
X9019540Y-3083560D01*
X9019540Y-5803900D02*
G75*
G03*
X9055100Y-5839460I35560J0D01*
G01*
X9055100Y-3048000D02*
G75*
G03*
X9019540Y-3083560I0J-35560D01*
G01*
X10015220Y-5839460D02*
G75*
G03*
X10050780Y-5803900I0J35560D01*
G01*
X9055100Y-3048000D02*
X10015220Y-3048000D01*
X10050780Y-3083560D02*
X10050780Y-3950827D01*
X10162540Y-3950827D02*
X10162540Y-3083560D01*
X12448540Y-5803900D02*
X12448540Y-5280660D01*
X12336780Y-5280660D02*
X12336780Y-5803900D01*
X12448540Y-3083560D02*
X12448540Y-3950827D01*
X12336780Y-3950827D02*
X12336780Y-3083560D01*
X12448540Y-5280660D02*
G75*
G03*
X12392660Y-5224780I-55880J0D01*
G01*
X12392660Y-5224780D02*
G75*
G03*
X12336780Y-5280660I0J-55880D01*
G01*
X12448540Y-4495800D02*
G75*
G03*
X12392660Y-4439920I-55880J0D01*
G01*
X12392660Y-4439920D02*
G75*
G03*
X12336780Y-4495800I0J-55880D01*
G01*
X12336780Y-4762500D02*
G75*
G03*
X12392660Y-4818380I55880J0D01*
G01*
X12392660Y-4818380D02*
G75*
G03*
X12448540Y-4762500I0J55880D01*
G01*
X12336780Y-3950827D02*
G75*
G03*
X12392660Y-4006707I55880J0D01*
G01*
X12392660Y-4006707D02*
G75*
G03*
X12448540Y-3950827I0J55880D01*
G01*
X12336780Y-4495800D02*
X12336780Y-4762500D01*
X12448540Y-4762500D02*
X12448540Y-4495800D01*
X14622780Y-3083560D02*
G75*
G03*
X14587220Y-3048000I-35560J0D01*
G01*
X13627100Y-3048000D02*
X14587220Y-3048000D01*
X14622780Y-3083560D02*
X14622780Y-5803900D01*
X13591540Y-5803900D02*
G75*
G03*
X13627100Y-5839460I35560J0D01*
G01*
X14587220Y-5839460D02*
G75*
G03*
X14622780Y-5803900I0J35560D01*
G01*
X13627100Y-3048000D02*
G75*
G03*
X13591540Y-3083560I0J-35560D01*
G01*
X13591540Y-5280660D02*
G75*
G03*
X13535660Y-5224780I-55880J0D01*
G01*
X13535660Y-5224780D02*
G75*
G03*
X13479780Y-5280660I0J-55880D01*
G01*
X13591540Y-4495800D02*
G75*
G03*
X13535660Y-4439920I-55880J0D01*
G01*
X13535660Y-4439920D02*
G75*
G03*
X13479780Y-4495800I0J-55880D01*
G01*
X13479780Y-4762500D02*
G75*
G03*
X13535660Y-4818380I55880J0D01*
G01*
X13535660Y-4818380D02*
G75*
G03*
X13591540Y-4762500I0J55880D01*
G01*
X13479780Y-3950827D02*
G75*
G03*
X13535660Y-4006707I55880J0D01*
G01*
X13535660Y-4006707D02*
G75*
G03*
X13591540Y-3950827I0J55880D01*
G01*
X13479780Y-4495800D02*
X13479780Y-4762500D01*
X13479780Y-5803900D02*
X13479780Y-5280660D01*
X13591540Y-5280660D02*
X13591540Y-5803900D01*
X13591540Y-4762500D02*
X13591540Y-4495800D01*
X13479780Y-3083560D02*
G75*
G03*
X13444220Y-3048000I-35560J0D01*
G01*
X12448540Y-5803900D02*
G75*
G03*
X12484100Y-5839460I35560J0D01*
G01*
X12484100Y-3048000D02*
G75*
G03*
X12448540Y-3083560I0J-35560D01*
G01*
X13444220Y-5839460D02*
G75*
G03*
X13479780Y-5803900I0J35560D01*
G01*
X12484100Y-3048000D02*
X13444220Y-3048000D01*
X13479780Y-3083560D02*
X13479780Y-3950827D01*
X13591540Y-3950827D02*
X13591540Y-3083560D01*
X11305540Y-5280660D02*
G75*
G03*
X11249660Y-5224780I-55880J0D01*
G01*
X11249660Y-5224780D02*
G75*
G03*
X11193780Y-5280660I0J-55880D01*
G01*
X11305540Y-4495800D02*
G75*
G03*
X11249660Y-4439920I-55880J0D01*
G01*
X11249660Y-4439920D02*
G75*
G03*
X11193780Y-4495800I0J-55880D01*
G01*
X11193780Y-4762500D02*
G75*
G03*
X11249660Y-4818380I55880J0D01*
G01*
X11249660Y-4818380D02*
G75*
G03*
X11305540Y-4762500I0J55880D01*
G01*
X11193780Y-3950827D02*
G75*
G03*
X11249660Y-4006707I55880J0D01*
G01*
X11249660Y-4006707D02*
G75*
G03*
X11305540Y-3950827I0J55880D01*
G01*
X11305540Y-4762500D02*
X11305540Y-4495800D01*
X11193780Y-4495800D02*
X11193780Y-4762500D01*
X11193780Y-5803900D02*
X11193780Y-5280660D01*
X11305540Y-5280660D02*
X11305540Y-5803900D01*
X11305540Y-3950827D02*
X11305540Y-3083560D01*
X11193780Y-3083560D02*
X11193780Y-3950827D01*
X12336780Y-3083560D02*
G75*
G03*
X12301220Y-3048000I-35560J0D01*
G01*
X11305540Y-5803900D02*
G75*
G03*
X11341100Y-5839460I35560J0D01*
G01*
X11341100Y-3048000D02*
X12301220Y-3048000D01*
X11341100Y-3048000D02*
G75*
G03*
X11305540Y-3083560I0J-35560D01*
G01*
X12301220Y-5839460D02*
G75*
G03*
X12336780Y-5803900I0J35560D01*
G01*
X11193780Y-3083560D02*
G75*
G03*
X11158220Y-3048000I-35560J0D01*
G01*
X10162540Y-5803900D02*
G75*
G03*
X10198100Y-5839460I35560J0D01*
G01*
X11158220Y-5839460D02*
G75*
G03*
X11193780Y-5803900I0J35560D01*
G01*
X10198100Y-3048000D02*
X11158220Y-3048000D01*
X10198100Y-3048000D02*
G75*
G03*
X10162540Y-3083560I0J-35560D01*
G01*
D11*
D10*
X9162100Y-3586800D02*
X9202100Y-3626800D01*
X9202100Y-3586800D02*
X9162100Y-3626800D01*
X9182420Y-3449640D02*
X9222420Y-3489640D01*
X9222420Y-3449640D02*
X9182420Y-3489640D01*
X9269276Y-3503128D02*
X9309276Y-3543128D01*
X9309276Y-3503128D02*
X9269276Y-3543128D01*
X9330654Y-4147040D02*
X9370654Y-4187040D01*
X9370654Y-4147040D02*
X9330654Y-4187040D01*
X9334820Y-8565200D02*
X9374820Y-8605200D01*
X9374820Y-8565200D02*
X9334820Y-8605200D01*
X9339900Y-5739510D02*
X9379900Y-5779510D01*
X9379900Y-5739510D02*
X9339900Y-5779510D01*
X9342351Y-4246303D02*
X9382351Y-4286303D01*
X9382351Y-4246303D02*
X9342351Y-4286303D01*
X9357680Y-5024440D02*
X9397680Y-5064440D01*
X9397680Y-5024440D02*
X9357680Y-5064440D01*
X9368891Y-3511312D02*
X9408891Y-3551312D01*
X9408891Y-3511312D02*
X9368891Y-3551312D01*
X9370516Y-8471841D02*
X9410516Y-8511841D01*
X9410516Y-8471841D02*
X9370516Y-8511841D01*
X9383080Y-4859340D02*
X9423080Y-4899340D01*
X9423080Y-4859340D02*
X9383080Y-4899340D01*
X9383080Y-5308920D02*
X9423080Y-5348920D01*
X9423080Y-5308920D02*
X9383080Y-5348920D01*
X9407580Y-8279458D02*
X9447580Y-8319458D01*
X9447580Y-8279458D02*
X9407580Y-8319458D01*
X9445219Y-7752499D02*
X9485219Y-7792499D01*
X9485219Y-7752499D02*
X9445219Y-7792499D01*
X9446206Y-4244909D02*
X9486206Y-4284909D01*
X9486206Y-4244909D02*
X9446206Y-4284909D01*
X9453930Y-4344560D02*
X9493930Y-4384560D01*
X9493930Y-4344560D02*
X9453930Y-4384560D01*
X9453930Y-4630740D02*
X9493930Y-4670740D01*
X9493930Y-4630740D02*
X9453930Y-4670740D01*
X9459280Y-7914960D02*
X9499280Y-7954960D01*
X9499280Y-7914960D02*
X9459280Y-7954960D01*
X9468030Y-4760280D02*
X9508030Y-4800280D01*
X9508030Y-4760280D02*
X9468030Y-4800280D01*
X9468841Y-3511363D02*
X9508841Y-3551363D01*
X9508841Y-3511363D02*
X9468841Y-3551363D01*
X9497380Y-6187760D02*
X9537380Y-6227760D01*
X9537380Y-6187760D02*
X9497380Y-6227760D01*
X9501610Y-8080060D02*
X9541610Y-8120060D01*
X9541610Y-8080060D02*
X9501610Y-8120060D01*
X9568791Y-3511362D02*
X9608791Y-3551362D01*
X9608791Y-3511362D02*
X9568791Y-3551362D01*
X9573580Y-4506280D02*
X9613580Y-4546280D01*
X9613580Y-4506280D02*
X9573580Y-4546280D01*
X9648370Y-8321360D02*
X9688370Y-8361360D01*
X9688370Y-8321360D02*
X9648370Y-8361360D01*
X9652320Y-7968300D02*
X9692320Y-8008300D01*
X9692320Y-7968300D02*
X9652320Y-8008300D01*
X9728520Y-8207060D02*
X9768520Y-8247060D01*
X9768520Y-8207060D02*
X9728520Y-8247060D01*
X9728520Y-8496620D02*
X9768520Y-8536620D01*
X9768520Y-8496620D02*
X9728520Y-8536620D01*
X9906320Y-3490280D02*
X9946320Y-3530280D01*
X9946320Y-3490280D02*
X9906320Y-3530280D01*
X10305100Y-3586800D02*
X10345100Y-3626800D01*
X10345100Y-3586800D02*
X10305100Y-3626800D01*
X10325420Y-3449640D02*
X10365420Y-3489640D01*
X10365420Y-3449640D02*
X10325420Y-3489640D01*
X10412276Y-3503128D02*
X10452276Y-3543128D01*
X10452276Y-3503128D02*
X10412276Y-3543128D01*
X10473654Y-4147040D02*
X10513654Y-4187040D01*
X10513654Y-4147040D02*
X10473654Y-4187040D01*
X10477820Y-8565200D02*
X10517820Y-8605200D01*
X10517820Y-8565200D02*
X10477820Y-8605200D01*
X10482900Y-5739510D02*
X10522900Y-5779510D01*
X10522900Y-5739510D02*
X10482900Y-5779510D01*
X10485351Y-4246303D02*
X10525351Y-4286303D01*
X10525351Y-4246303D02*
X10485351Y-4286303D01*
X10500680Y-5024440D02*
X10540680Y-5064440D01*
X10540680Y-5024440D02*
X10500680Y-5064440D01*
X10511891Y-3511312D02*
X10551891Y-3551312D01*
X10551891Y-3511312D02*
X10511891Y-3551312D01*
X10513516Y-8471841D02*
X10553516Y-8511841D01*
X10553516Y-8471841D02*
X10513516Y-8511841D01*
X10526080Y-4859340D02*
X10566080Y-4899340D01*
X10566080Y-4859340D02*
X10526080Y-4899340D01*
X10526080Y-5308920D02*
X10566080Y-5348920D01*
X10566080Y-5308920D02*
X10526080Y-5348920D01*
X10550580Y-8279458D02*
X10590580Y-8319458D01*
X10590580Y-8279458D02*
X10550580Y-8319458D01*
X10588219Y-7752499D02*
X10628219Y-7792499D01*
X10628219Y-7752499D02*
X10588219Y-7792499D01*
X10589206Y-4244909D02*
X10629206Y-4284909D01*
X10629206Y-4244909D02*
X10589206Y-4284909D01*
X10596930Y-4344560D02*
X10636930Y-4384560D01*
X10636930Y-4344560D02*
X10596930Y-4384560D01*
X10596930Y-4630740D02*
X10636930Y-4670740D01*
X10636930Y-4630740D02*
X10596930Y-4670740D01*
X10602280Y-7914960D02*
X10642280Y-7954960D01*
X10642280Y-7914960D02*
X10602280Y-7954960D01*
X10611030Y-4760280D02*
X10651030Y-4800280D01*
X10651030Y-4760280D02*
X10611030Y-4800280D01*
X10611841Y-3511363D02*
X10651841Y-3551363D01*
X10651841Y-3511363D02*
X10611841Y-3551363D01*
X10640380Y-6187760D02*
X10680380Y-6227760D01*
X10680380Y-6187760D02*
X10640380Y-6227760D01*
X10644610Y-8080060D02*
X10684610Y-8120060D01*
X10684610Y-8080060D02*
X10644610Y-8120060D01*
X10711791Y-3511362D02*
X10751791Y-3551362D01*
X10751791Y-3511362D02*
X10711791Y-3551362D01*
X10716580Y-4506280D02*
X10756580Y-4546280D01*
X10756580Y-4506280D02*
X10716580Y-4546280D01*
X10791370Y-8321360D02*
X10831370Y-8361360D01*
X10831370Y-8321360D02*
X10791370Y-8361360D01*
X10795320Y-7968300D02*
X10835320Y-8008300D01*
X10835320Y-7968300D02*
X10795320Y-8008300D01*
X10871520Y-8207060D02*
X10911520Y-8247060D01*
X10911520Y-8207060D02*
X10871520Y-8247060D01*
X10871520Y-8496620D02*
X10911520Y-8536620D01*
X10911520Y-8496620D02*
X10871520Y-8536620D01*
X11049320Y-3490280D02*
X11089320Y-3530280D01*
X11089320Y-3490280D02*
X11049320Y-3530280D01*
X11448100Y-3586800D02*
X11488100Y-3626800D01*
X11488100Y-3586800D02*
X11448100Y-3626800D01*
X11468420Y-3449640D02*
X11508420Y-3489640D01*
X11508420Y-3449640D02*
X11468420Y-3489640D01*
X11555276Y-3503128D02*
X11595276Y-3543128D01*
X11595276Y-3503128D02*
X11555276Y-3543128D01*
X11616654Y-4147040D02*
X11656654Y-4187040D01*
X11656654Y-4147040D02*
X11616654Y-4187040D01*
X11620820Y-8565200D02*
X11660820Y-8605200D01*
X11660820Y-8565200D02*
X11620820Y-8605200D01*
X11625900Y-5739510D02*
X11665900Y-5779510D01*
X11665900Y-5739510D02*
X11625900Y-5779510D01*
X11628351Y-4246303D02*
X11668351Y-4286303D01*
X11668351Y-4246303D02*
X11628351Y-4286303D01*
X11643680Y-5024440D02*
X11683680Y-5064440D01*
X11683680Y-5024440D02*
X11643680Y-5064440D01*
X11654891Y-3511312D02*
X11694891Y-3551312D01*
X11694891Y-3511312D02*
X11654891Y-3551312D01*
X11656516Y-8471841D02*
X11696516Y-8511841D01*
X11696516Y-8471841D02*
X11656516Y-8511841D01*
X11669080Y-4859340D02*
X11709080Y-4899340D01*
X11709080Y-4859340D02*
X11669080Y-4899340D01*
X11669080Y-5308920D02*
X11709080Y-5348920D01*
X11709080Y-5308920D02*
X11669080Y-5348920D01*
X11693580Y-8279458D02*
X11733580Y-8319458D01*
X11733580Y-8279458D02*
X11693580Y-8319458D01*
X11731219Y-7752499D02*
X11771219Y-7792499D01*
X11771219Y-7752499D02*
X11731219Y-7792499D01*
X11732205Y-4244909D02*
X11772205Y-4284909D01*
X11772205Y-4244909D02*
X11732205Y-4284909D01*
X11739930Y-4344560D02*
X11779930Y-4384560D01*
X11779930Y-4344560D02*
X11739930Y-4384560D01*
X11739930Y-4630740D02*
X11779930Y-4670740D01*
X11779930Y-4630740D02*
X11739930Y-4670740D01*
X11745280Y-7914960D02*
X11785280Y-7954960D01*
X11785280Y-7914960D02*
X11745280Y-7954960D01*
X11754030Y-4760280D02*
X11794030Y-4800280D01*
X11794030Y-4760280D02*
X11754030Y-4800280D01*
X11754841Y-3511363D02*
X11794841Y-3551363D01*
X11794841Y-3511363D02*
X11754841Y-3551363D01*
X11783380Y-6187760D02*
X11823380Y-6227760D01*
X11823380Y-6187760D02*
X11783380Y-6227760D01*
X11787610Y-8080060D02*
X11827610Y-8120060D01*
X11827610Y-8080060D02*
X11787610Y-8120060D01*
X11854791Y-3511362D02*
X11894791Y-3551362D01*
X11894791Y-3511362D02*
X11854791Y-3551362D01*
X11859580Y-4506280D02*
X11899580Y-4546280D01*
X11899580Y-4506280D02*
X11859580Y-4546280D01*
X11934370Y-8321360D02*
X11974370Y-8361360D01*
X11974370Y-8321360D02*
X11934370Y-8361360D01*
X11938320Y-7968300D02*
X11978320Y-8008300D01*
X11978320Y-7968300D02*
X11938320Y-8008300D01*
X12014520Y-8207060D02*
X12054520Y-8247060D01*
X12054520Y-8207060D02*
X12014520Y-8247060D01*
X12014520Y-8496620D02*
X12054520Y-8536620D01*
X12054520Y-8496620D02*
X12014520Y-8536620D01*
X12192320Y-3490280D02*
X12232320Y-3530280D01*
X12232320Y-3490280D02*
X12192320Y-3530280D01*
X12591100Y-3586800D02*
X12631100Y-3626800D01*
X12631100Y-3586800D02*
X12591100Y-3626800D01*
X12611420Y-3449640D02*
X12651420Y-3489640D01*
X12651420Y-3449640D02*
X12611420Y-3489640D01*
X12698276Y-3503128D02*
X12738276Y-3543128D01*
X12738276Y-3503128D02*
X12698276Y-3543128D01*
X12759654Y-4147040D02*
X12799654Y-4187040D01*
X12799654Y-4147040D02*
X12759654Y-4187040D01*
X12763820Y-8565200D02*
X12803820Y-8605200D01*
X12803820Y-8565200D02*
X12763820Y-8605200D01*
X12768900Y-5739510D02*
X12808900Y-5779510D01*
X12808900Y-5739510D02*
X12768900Y-5779510D01*
X12771351Y-4246303D02*
X12811351Y-4286303D01*
X12811351Y-4246303D02*
X12771351Y-4286303D01*
X12786680Y-5024440D02*
X12826680Y-5064440D01*
X12826680Y-5024440D02*
X12786680Y-5064440D01*
X12797891Y-3511312D02*
X12837891Y-3551312D01*
X12837891Y-3511312D02*
X12797891Y-3551312D01*
X12799516Y-8471841D02*
X12839516Y-8511841D01*
X12839516Y-8471841D02*
X12799516Y-8511841D01*
X12812080Y-4859340D02*
X12852080Y-4899340D01*
X12852080Y-4859340D02*
X12812080Y-4899340D01*
X12812080Y-5308920D02*
X12852080Y-5348920D01*
X12852080Y-5308920D02*
X12812080Y-5348920D01*
X12836580Y-8279458D02*
X12876580Y-8319458D01*
X12876580Y-8279458D02*
X12836580Y-8319458D01*
X12874219Y-7752499D02*
X12914219Y-7792499D01*
X12914219Y-7752499D02*
X12874219Y-7792499D01*
X12875205Y-4244909D02*
X12915205Y-4284909D01*
X12915205Y-4244909D02*
X12875205Y-4284909D01*
X12882930Y-4344560D02*
X12922930Y-4384560D01*
X12922930Y-4344560D02*
X12882930Y-4384560D01*
X12882930Y-4630740D02*
X12922930Y-4670740D01*
X12922930Y-4630740D02*
X12882930Y-4670740D01*
X12888280Y-7914960D02*
X12928280Y-7954960D01*
X12928280Y-7914960D02*
X12888280Y-7954960D01*
X12897030Y-4760280D02*
X12937030Y-4800280D01*
X12937030Y-4760280D02*
X12897030Y-4800280D01*
X12897841Y-3511363D02*
X12937841Y-3551363D01*
X12937841Y-3511363D02*
X12897841Y-3551363D01*
X12926380Y-6187760D02*
X12966380Y-6227760D01*
X12966380Y-6187760D02*
X12926380Y-6227760D01*
X12930610Y-8080060D02*
X12970610Y-8120060D01*
X12970610Y-8080060D02*
X12930610Y-8120060D01*
X12997791Y-3511362D02*
X13037791Y-3551362D01*
X13037791Y-3511362D02*
X12997791Y-3551362D01*
X13002580Y-4506280D02*
X13042580Y-4546280D01*
X13042580Y-4506280D02*
X13002580Y-4546280D01*
X13077370Y-8321360D02*
X13117370Y-8361360D01*
X13117370Y-8321360D02*
X13077370Y-8361360D01*
X13081320Y-7968300D02*
X13121320Y-8008300D01*
X13121320Y-7968300D02*
X13081320Y-8008300D01*
X13157520Y-8207060D02*
X13197520Y-8247060D01*
X13197520Y-8207060D02*
X13157520Y-8247060D01*
X13157520Y-8496620D02*
X13197520Y-8536620D01*
X13197520Y-8496620D02*
X13157520Y-8536620D01*
X13335320Y-3490280D02*
X13375320Y-3530280D01*
X13375320Y-3490280D02*
X13335320Y-3530280D01*
X13734100Y-3586800D02*
X13774100Y-3626800D01*
X13774100Y-3586800D02*
X13734100Y-3626800D01*
X13754420Y-3449640D02*
X13794420Y-3489640D01*
X13794420Y-3449640D02*
X13754420Y-3489640D01*
X13841276Y-3503128D02*
X13881276Y-3543128D01*
X13881276Y-3503128D02*
X13841276Y-3543128D01*
X13902654Y-4147040D02*
X13942654Y-4187040D01*
X13942654Y-4147040D02*
X13902654Y-4187040D01*
X13906820Y-8565200D02*
X13946820Y-8605200D01*
X13946820Y-8565200D02*
X13906820Y-8605200D01*
X13911900Y-5739510D02*
X13951900Y-5779510D01*
X13951900Y-5739510D02*
X13911900Y-5779510D01*
X13914351Y-4246303D02*
X13954351Y-4286303D01*
X13954351Y-4246303D02*
X13914351Y-4286303D01*
X13929680Y-5024440D02*
X13969680Y-5064440D01*
X13969680Y-5024440D02*
X13929680Y-5064440D01*
X13940891Y-3511312D02*
X13980891Y-3551312D01*
X13980891Y-3511312D02*
X13940891Y-3551312D01*
X13942516Y-8471841D02*
X13982516Y-8511841D01*
X13982516Y-8471841D02*
X13942516Y-8511841D01*
X13955080Y-4859340D02*
X13995080Y-4899340D01*
X13995080Y-4859340D02*
X13955080Y-4899340D01*
X13955080Y-5308920D02*
X13995080Y-5348920D01*
X13995080Y-5308920D02*
X13955080Y-5348920D01*
X13979580Y-8279458D02*
X14019580Y-8319458D01*
X14019580Y-8279458D02*
X13979580Y-8319458D01*
X14017219Y-7752499D02*
X14057219Y-7792499D01*
X14057219Y-7752499D02*
X14017219Y-7792499D01*
X14018205Y-4244909D02*
X14058205Y-4284909D01*
X14058205Y-4244909D02*
X14018205Y-4284909D01*
X14025930Y-4344560D02*
X14065930Y-4384560D01*
X14065930Y-4344560D02*
X14025930Y-4384560D01*
X14025930Y-4630740D02*
X14065930Y-4670740D01*
X14065930Y-4630740D02*
X14025930Y-4670740D01*
X14031280Y-7914960D02*
X14071280Y-7954960D01*
X14071280Y-7914960D02*
X14031280Y-7954960D01*
X14040030Y-4760280D02*
X14080030Y-4800280D01*
X14080030Y-4760280D02*
X14040030Y-4800280D01*
X14040841Y-3511363D02*
X14080841Y-3551363D01*
X14080841Y-3511363D02*
X14040841Y-3551363D01*
X14069380Y-6187760D02*
X14109380Y-6227760D01*
X14109380Y-6187760D02*
X14069380Y-6227760D01*
X14073610Y-8080060D02*
X14113610Y-8120060D01*
X14113610Y-8080060D02*
X14073610Y-8120060D01*
X14140791Y-3511362D02*
X14180791Y-3551362D01*
X14180791Y-3511362D02*
X14140791Y-3551362D01*
X14145580Y-4506280D02*
X14185580Y-4546280D01*
X14185580Y-4506280D02*
X14145580Y-4546280D01*
X14220370Y-8321360D02*
X14260370Y-8361360D01*
X14260370Y-8321360D02*
X14220370Y-8361360D01*
X14224320Y-7968300D02*
X14264320Y-8008300D01*
X14264320Y-7968300D02*
X14224320Y-8008300D01*
X14300520Y-8207060D02*
X14340520Y-8247060D01*
X14340520Y-8207060D02*
X14300520Y-8247060D01*
X14300520Y-8496620D02*
X14340520Y-8536620D01*
X14340520Y-8496620D02*
X14300520Y-8536620D01*
X14478320Y-3490280D02*
X14518320Y-3530280D01*
X14518320Y-3490280D02*
X14478320Y-3530280D01*
X9199080Y-7289800D02*
G75*
G03*
X9199080Y-7289800I-50000J0D01*
G01*
X9199080Y-7543800D02*
G75*
G03*
X9199080Y-7543800I-50000J0D01*
G01*
X9199080Y-7797800D02*
G75*
G03*
X9199080Y-7797800I-50000J0D01*
G01*
X9199080Y-8051800D02*
G75*
G03*
X9199080Y-8051800I-50000J0D01*
G01*
X9199080Y-8305800D02*
G75*
G03*
X9199080Y-8305800I-50000J0D01*
G01*
X9199080Y-8559800D02*
G75*
G03*
X9199080Y-8559800I-50000J0D01*
G01*
X9199080Y-8813800D02*
G75*
G03*
X9199080Y-8813800I-50000J0D01*
G01*
X9199080Y-9067800D02*
G75*
G03*
X9199080Y-9067800I-50000J0D01*
G01*
X9209240Y-4185420D02*
G75*
G03*
X9209240Y-4185420I-50000J0D01*
G01*
X9209240Y-4439420D02*
G75*
G03*
X9209240Y-4439420I-50000J0D01*
G01*
X9209240Y-4693420D02*
G75*
G03*
X9209240Y-4693420I-50000J0D01*
G01*
X9209240Y-4947420D02*
G75*
G03*
X9209240Y-4947420I-50000J0D01*
G01*
X9209240Y-5201420D02*
G75*
G03*
X9209240Y-5201420I-50000J0D01*
G01*
X9209240Y-5455420D02*
G75*
G03*
X9209240Y-5455420I-50000J0D01*
G01*
X9209240Y-5709420D02*
G75*
G03*
X9209240Y-5709420I-50000J0D01*
G01*
X9961080Y-7289800D02*
G75*
G03*
X9961080Y-7289800I-50000J0D01*
G01*
X9961080Y-7543800D02*
G75*
G03*
X9961080Y-7543800I-50000J0D01*
G01*
X9961080Y-7797800D02*
G75*
G03*
X9961080Y-7797800I-50000J0D01*
G01*
X9961080Y-8051800D02*
G75*
G03*
X9961080Y-8051800I-50000J0D01*
G01*
X9961080Y-8305800D02*
G75*
G03*
X9961080Y-8305800I-50000J0D01*
G01*
X9961080Y-8559800D02*
G75*
G03*
X9961080Y-8559800I-50000J0D01*
G01*
X9961080Y-8813800D02*
G75*
G03*
X9961080Y-8813800I-50000J0D01*
G01*
X9961080Y-9067800D02*
G75*
G03*
X9961080Y-9067800I-50000J0D01*
G01*
X9971240Y-4185920D02*
G75*
G03*
X9971240Y-4185920I-50000J0D01*
G01*
X9971240Y-4439920D02*
G75*
G03*
X9971240Y-4439920I-50000J0D01*
G01*
X9971240Y-4693920D02*
G75*
G03*
X9971240Y-4693920I-50000J0D01*
G01*
X9971240Y-4947920D02*
G75*
G03*
X9971240Y-4947920I-50000J0D01*
G01*
X9971240Y-5201920D02*
G75*
G03*
X9971240Y-5201920I-50000J0D01*
G01*
X9971240Y-5455920D02*
G75*
G03*
X9971240Y-5455920I-50000J0D01*
G01*
X9971240Y-5709920D02*
G75*
G03*
X9971240Y-5709920I-50000J0D01*
G01*
X10342080Y-7289800D02*
G75*
G03*
X10342080Y-7289800I-50000J0D01*
G01*
X10342080Y-7543800D02*
G75*
G03*
X10342080Y-7543800I-50000J0D01*
G01*
X10342080Y-7797800D02*
G75*
G03*
X10342080Y-7797800I-50000J0D01*
G01*
X10342080Y-8051800D02*
G75*
G03*
X10342080Y-8051800I-50000J0D01*
G01*
X10342080Y-8305800D02*
G75*
G03*
X10342080Y-8305800I-50000J0D01*
G01*
X10342080Y-8559800D02*
G75*
G03*
X10342080Y-8559800I-50000J0D01*
G01*
X10342080Y-8813800D02*
G75*
G03*
X10342080Y-8813800I-50000J0D01*
G01*
X10342080Y-9067800D02*
G75*
G03*
X10342080Y-9067800I-50000J0D01*
G01*
X10352240Y-4185420D02*
G75*
G03*
X10352240Y-4185420I-50000J0D01*
G01*
X10352240Y-4439420D02*
G75*
G03*
X10352240Y-4439420I-50000J0D01*
G01*
X10352240Y-4693420D02*
G75*
G03*
X10352240Y-4693420I-50000J0D01*
G01*
X10352240Y-4947420D02*
G75*
G03*
X10352240Y-4947420I-50000J0D01*
G01*
X10352240Y-5201420D02*
G75*
G03*
X10352240Y-5201420I-50000J0D01*
G01*
X10352240Y-5455420D02*
G75*
G03*
X10352240Y-5455420I-50000J0D01*
G01*
X10352240Y-5709420D02*
G75*
G03*
X10352240Y-5709420I-50000J0D01*
G01*
X11104080Y-7289800D02*
G75*
G03*
X11104080Y-7289800I-50000J0D01*
G01*
X11104080Y-7543800D02*
G75*
G03*
X11104080Y-7543800I-50000J0D01*
G01*
X11104080Y-7797800D02*
G75*
G03*
X11104080Y-7797800I-50000J0D01*
G01*
X11104080Y-8051800D02*
G75*
G03*
X11104080Y-8051800I-50000J0D01*
G01*
X11104080Y-8305800D02*
G75*
G03*
X11104080Y-8305800I-50000J0D01*
G01*
X11104080Y-8559800D02*
G75*
G03*
X11104080Y-8559800I-50000J0D01*
G01*
X11104080Y-8813800D02*
G75*
G03*
X11104080Y-8813800I-50000J0D01*
G01*
X11104080Y-9067800D02*
G75*
G03*
X11104080Y-9067800I-50000J0D01*
G01*
X11114240Y-4185920D02*
G75*
G03*
X11114240Y-4185920I-50000J0D01*
G01*
X11114240Y-4439920D02*
G75*
G03*
X11114240Y-4439920I-50000J0D01*
G01*
X11114240Y-4693920D02*
G75*
G03*
X11114240Y-4693920I-50000J0D01*
G01*
X11114240Y-4947920D02*
G75*
G03*
X11114240Y-4947920I-50000J0D01*
G01*
X11114240Y-5201920D02*
G75*
G03*
X11114240Y-5201920I-50000J0D01*
G01*
X11114240Y-5455920D02*
G75*
G03*
X11114240Y-5455920I-50000J0D01*
G01*
X11114240Y-5709920D02*
G75*
G03*
X11114240Y-5709920I-50000J0D01*
G01*
X11485080Y-7289800D02*
G75*
G03*
X11485080Y-7289800I-50000J0D01*
G01*
X11485080Y-7543800D02*
G75*
G03*
X11485080Y-7543800I-50000J0D01*
G01*
X11485080Y-7797800D02*
G75*
G03*
X11485080Y-7797800I-50000J0D01*
G01*
X11485080Y-8051800D02*
G75*
G03*
X11485080Y-8051800I-50000J0D01*
G01*
X11485080Y-8305800D02*
G75*
G03*
X11485080Y-8305800I-50000J0D01*
G01*
X11485080Y-8559800D02*
G75*
G03*
X11485080Y-8559800I-50000J0D01*
G01*
X11485080Y-8813800D02*
G75*
G03*
X11485080Y-8813800I-50000J0D01*
G01*
X11485080Y-9067800D02*
G75*
G03*
X11485080Y-9067800I-50000J0D01*
G01*
X11495240Y-4185420D02*
G75*
G03*
X11495240Y-4185420I-50000J0D01*
G01*
X11495240Y-4439420D02*
G75*
G03*
X11495240Y-4439420I-50000J0D01*
G01*
X11495240Y-4693420D02*
G75*
G03*
X11495240Y-4693420I-50000J0D01*
G01*
X11495240Y-4947420D02*
G75*
G03*
X11495240Y-4947420I-50000J0D01*
G01*
X11495240Y-5201420D02*
G75*
G03*
X11495240Y-5201420I-50000J0D01*
G01*
X11495240Y-5455420D02*
G75*
G03*
X11495240Y-5455420I-50000J0D01*
G01*
X11495240Y-5709420D02*
G75*
G03*
X11495240Y-5709420I-50000J0D01*
G01*
X12247080Y-7289800D02*
G75*
G03*
X12247080Y-7289800I-50000J0D01*
G01*
X12247080Y-7543800D02*
G75*
G03*
X12247080Y-7543800I-50000J0D01*
G01*
X12247080Y-7797800D02*
G75*
G03*
X12247080Y-7797800I-50000J0D01*
G01*
X12247080Y-8051800D02*
G75*
G03*
X12247080Y-8051800I-50000J0D01*
G01*
X12247080Y-8305800D02*
G75*
G03*
X12247080Y-8305800I-50000J0D01*
G01*
X12247080Y-8559800D02*
G75*
G03*
X12247080Y-8559800I-50000J0D01*
G01*
X12247080Y-8813800D02*
G75*
G03*
X12247080Y-8813800I-50000J0D01*
G01*
X12247080Y-9067800D02*
G75*
G03*
X12247080Y-9067800I-50000J0D01*
G01*
X12257240Y-4185920D02*
G75*
G03*
X12257240Y-4185920I-50000J0D01*
G01*
X12257240Y-4439920D02*
G75*
G03*
X12257240Y-4439920I-50000J0D01*
G01*
X12257240Y-4693920D02*
G75*
G03*
X12257240Y-4693920I-50000J0D01*
G01*
X12257240Y-4947920D02*
G75*
G03*
X12257240Y-4947920I-50000J0D01*
G01*
X12257240Y-5201920D02*
G75*
G03*
X12257240Y-5201920I-50000J0D01*
G01*
X12257240Y-5455920D02*
G75*
G03*
X12257240Y-5455920I-50000J0D01*
G01*
X12257240Y-5709920D02*
G75*
G03*
X12257240Y-5709920I-50000J0D01*
G01*
X12628080Y-7289800D02*
G75*
G03*
X12628080Y-7289800I-50000J0D01*
G01*
X12628080Y-7543800D02*
G75*
G03*
X12628080Y-7543800I-50000J0D01*
G01*
X12628080Y-7797800D02*
G75*
G03*
X12628080Y-7797800I-50000J0D01*
G01*
X12628080Y-8051800D02*
G75*
G03*
X12628080Y-8051800I-50000J0D01*
G01*
X12628080Y-8305800D02*
G75*
G03*
X12628080Y-8305800I-50000J0D01*
G01*
X12628080Y-8559800D02*
G75*
G03*
X12628080Y-8559800I-50000J0D01*
G01*
X12628080Y-8813800D02*
G75*
G03*
X12628080Y-8813800I-50000J0D01*
G01*
X12628080Y-9067800D02*
G75*
G03*
X12628080Y-9067800I-50000J0D01*
G01*
X12638240Y-4185420D02*
G75*
G03*
X12638240Y-4185420I-50000J0D01*
G01*
X12638240Y-4439420D02*
G75*
G03*
X12638240Y-4439420I-50000J0D01*
G01*
X12638240Y-4693420D02*
G75*
G03*
X12638240Y-4693420I-50000J0D01*
G01*
X12638240Y-4947420D02*
G75*
G03*
X12638240Y-4947420I-50000J0D01*
G01*
X12638240Y-5201420D02*
G75*
G03*
X12638240Y-5201420I-50000J0D01*
G01*
X12638240Y-5455420D02*
G75*
G03*
X12638240Y-5455420I-50000J0D01*
G01*
X12638240Y-5709420D02*
G75*
G03*
X12638240Y-5709420I-50000J0D01*
G01*
X13390080Y-7289800D02*
G75*
G03*
X13390080Y-7289800I-50000J0D01*
G01*
X13390080Y-7543800D02*
G75*
G03*
X13390080Y-7543800I-50000J0D01*
G01*
X13390080Y-7797800D02*
G75*
G03*
X13390080Y-7797800I-50000J0D01*
G01*
X13390080Y-8051800D02*
G75*
G03*
X13390080Y-8051800I-50000J0D01*
G01*
X13390080Y-8305800D02*
G75*
G03*
X13390080Y-8305800I-50000J0D01*
G01*
X13390080Y-8559800D02*
G75*
G03*
X13390080Y-8559800I-50000J0D01*
G01*
X13390080Y-8813800D02*
G75*
G03*
X13390080Y-8813800I-50000J0D01*
G01*
X13390080Y-9067800D02*
G75*
G03*
X13390080Y-9067800I-50000J0D01*
G01*
X13400240Y-4185920D02*
G75*
G03*
X13400240Y-4185920I-50000J0D01*
G01*
X13400240Y-4439920D02*
G75*
G03*
X13400240Y-4439920I-50000J0D01*
G01*
X13400240Y-4693920D02*
G75*
G03*
X13400240Y-4693920I-50000J0D01*
G01*
X13400240Y-4947920D02*
G75*
G03*
X13400240Y-4947920I-50000J0D01*
G01*
X13400240Y-5201920D02*
G75*
G03*
X13400240Y-5201920I-50000J0D01*
G01*
X13400240Y-5455920D02*
G75*
G03*
X13400240Y-5455920I-50000J0D01*
G01*
X13400240Y-5709920D02*
G75*
G03*
X13400240Y-5709920I-50000J0D01*
G01*
X13771080Y-7289800D02*
G75*
G03*
X13771080Y-7289800I-50000J0D01*
G01*
X13771080Y-7543800D02*
G75*
G03*
X13771080Y-7543800I-50000J0D01*
G01*
X13771080Y-7797800D02*
G75*
G03*
X13771080Y-7797800I-50000J0D01*
G01*
X13771080Y-8051800D02*
G75*
G03*
X13771080Y-8051800I-50000J0D01*
G01*
X13771080Y-8305800D02*
G75*
G03*
X13771080Y-8305800I-50000J0D01*
G01*
X13771080Y-8559800D02*
G75*
G03*
X13771080Y-8559800I-50000J0D01*
G01*
X13771080Y-8813800D02*
G75*
G03*
X13771080Y-8813800I-50000J0D01*
G01*
X13771080Y-9067800D02*
G75*
G03*
X13771080Y-9067800I-50000J0D01*
G01*
X13781240Y-4185420D02*
G75*
G03*
X13781240Y-4185420I-50000J0D01*
G01*
X13781240Y-4439420D02*
G75*
G03*
X13781240Y-4439420I-50000J0D01*
G01*
X13781240Y-4693420D02*
G75*
G03*
X13781240Y-4693420I-50000J0D01*
G01*
X13781240Y-4947420D02*
G75*
G03*
X13781240Y-4947420I-50000J0D01*
G01*
X13781240Y-5201420D02*
G75*
G03*
X13781240Y-5201420I-50000J0D01*
G01*
X13781240Y-5455420D02*
G75*
G03*
X13781240Y-5455420I-50000J0D01*
G01*
X13781240Y-5709420D02*
G75*
G03*
X13781240Y-5709420I-50000J0D01*
G01*
X14533080Y-7289800D02*
G75*
G03*
X14533080Y-7289800I-50000J0D01*
G01*
X14533080Y-7543800D02*
G75*
G03*
X14533080Y-7543800I-50000J0D01*
G01*
X14533080Y-7797800D02*
G75*
G03*
X14533080Y-7797800I-50000J0D01*
G01*
X14533080Y-8051800D02*
G75*
G03*
X14533080Y-8051800I-50000J0D01*
G01*
X14533080Y-8305800D02*
G75*
G03*
X14533080Y-8305800I-50000J0D01*
G01*
X14533080Y-8559800D02*
G75*
G03*
X14533080Y-8559800I-50000J0D01*
G01*
X14533080Y-8813800D02*
G75*
G03*
X14533080Y-8813800I-50000J0D01*
G01*
X14533080Y-9067800D02*
G75*
G03*
X14533080Y-9067800I-50000J0D01*
G01*
X14543240Y-4185920D02*
G75*
G03*
X14543240Y-4185920I-50000J0D01*
G01*
X14543240Y-4439920D02*
G75*
G03*
X14543240Y-4439920I-50000J0D01*
G01*
X14543240Y-4693920D02*
G75*
G03*
X14543240Y-4693920I-50000J0D01*
G01*
X14543240Y-4947920D02*
G75*
G03*
X14543240Y-4947920I-50000J0D01*
G01*
X14543240Y-5201920D02*
G75*
G03*
X14543240Y-5201920I-50000J0D01*
G01*
X14543240Y-5455920D02*
G75*
G03*
X14543240Y-5455920I-50000J0D01*
G01*
X14543240Y-5709920D02*
G75*
G03*
X14543240Y-5709920I-50000J0D01*
G01*
D12*
X9537700Y-9003030D02*
X9537700Y-9117330D01*
X9480550Y-9060180D02*
X9594850Y-9060180D01*
X9560560Y-5657850D02*
X9560560Y-5772150D01*
X9503410Y-5715000D02*
X9617710Y-5715000D01*
X10680700Y-9003030D02*
X10680700Y-9117330D01*
X10623550Y-9060180D02*
X10737850Y-9060180D01*
X10703560Y-5657850D02*
X10703560Y-5772150D01*
X10646410Y-5715000D02*
X10760710Y-5715000D01*
X11823700Y-9003030D02*
X11823700Y-9117330D01*
X11766550Y-9060180D02*
X11880850Y-9060180D01*
X11846560Y-5657850D02*
X11846560Y-5772150D01*
X11789410Y-5715000D02*
X11903710Y-5715000D01*
X12966700Y-9003030D02*
X12966700Y-9117330D01*
X12909550Y-9060180D02*
X13023850Y-9060180D01*
X12989560Y-5657850D02*
X12989560Y-5772150D01*
X12932410Y-5715000D02*
X13046710Y-5715000D01*
X14109700Y-9003030D02*
X14109700Y-9117330D01*
X14052550Y-9060180D02*
X14166850Y-9060180D01*
X14132560Y-5657850D02*
X14132560Y-5772150D01*
X14075410Y-5715000D02*
X14189710Y-5715000D01*
D11*
X9275317Y-9513824D02*
X9275317Y-9313824D01*
X9275317Y-9313824D02*
X9322936Y-9313824D01*
X9322936Y-9313824D02*
X9351507Y-9323348D01*
X9351507Y-9323348D02*
X9370555Y-9342395D01*
X9370555Y-9342395D02*
X9380079Y-9361443D01*
X9380079Y-9361443D02*
X9389603Y-9399538D01*
X9389603Y-9399538D02*
X9389603Y-9428110D01*
X9389603Y-9428110D02*
X9380079Y-9466205D01*
X9380079Y-9466205D02*
X9370555Y-9485252D01*
X9370555Y-9485252D02*
X9351507Y-9504300D01*
X9351507Y-9504300D02*
X9322936Y-9513824D01*
X9322936Y-9513824D02*
X9275317Y-9513824D01*
X9475317Y-9513824D02*
X9475317Y-9380490D01*
X9475317Y-9418586D02*
X9484841Y-9399538D01*
X9484841Y-9399538D02*
X9494364Y-9390014D01*
X9494364Y-9390014D02*
X9513412Y-9380490D01*
X9513412Y-9380490D02*
X9532460Y-9380490D01*
X9599126Y-9513824D02*
X9599126Y-9380490D01*
X9599126Y-9313824D02*
X9589603Y-9323348D01*
X9589603Y-9323348D02*
X9599126Y-9332871D01*
X9599126Y-9332871D02*
X9608650Y-9323348D01*
X9608650Y-9323348D02*
X9599126Y-9313824D01*
X9599126Y-9313824D02*
X9599126Y-9332871D01*
X9722936Y-9513824D02*
X9703888Y-9504300D01*
X9703888Y-9504300D02*
X9694364Y-9485252D01*
X9694364Y-9485252D02*
X9694364Y-9313824D01*
X9827698Y-9513824D02*
X9808650Y-9504300D01*
X9808650Y-9504300D02*
X9799126Y-9485252D01*
X9799126Y-9485252D02*
X9799126Y-9313824D01*
X10056269Y-9513824D02*
X10056269Y-9313824D01*
X10056269Y-9313824D02*
X10122936Y-9456681D01*
X10122936Y-9456681D02*
X10189603Y-9313824D01*
X10189603Y-9313824D02*
X10189603Y-9513824D01*
X10370555Y-9513824D02*
X10370555Y-9409062D01*
X10370555Y-9409062D02*
X10361031Y-9390014D01*
X10361031Y-9390014D02*
X10341984Y-9380490D01*
X10341984Y-9380490D02*
X10303888Y-9380490D01*
X10303888Y-9380490D02*
X10284841Y-9390014D01*
X10370555Y-9504300D02*
X10351507Y-9513824D01*
X10351507Y-9513824D02*
X10303888Y-9513824D01*
X10303888Y-9513824D02*
X10284841Y-9504300D01*
X10284841Y-9504300D02*
X10275317Y-9485252D01*
X10275317Y-9485252D02*
X10275317Y-9466205D01*
X10275317Y-9466205D02*
X10284841Y-9447157D01*
X10284841Y-9447157D02*
X10303888Y-9437633D01*
X10303888Y-9437633D02*
X10351507Y-9437633D01*
X10351507Y-9437633D02*
X10370555Y-9428110D01*
X10465793Y-9380490D02*
X10465793Y-9580490D01*
X10465793Y-9390014D02*
X10484841Y-9380490D01*
X10484841Y-9380490D02*
X10522936Y-9380490D01*
X10522936Y-9380490D02*
X10541984Y-9390014D01*
X10541984Y-9390014D02*
X10551507Y-9399538D01*
X10551507Y-9399538D02*
X10561031Y-9418586D01*
X10561031Y-9418586D02*
X10561031Y-9475729D01*
X10561031Y-9475729D02*
X10551507Y-9494776D01*
X10551507Y-9494776D02*
X10541984Y-9504300D01*
X10541984Y-9504300D02*
X10522936Y-9513824D01*
X10522936Y-9513824D02*
X10484841Y-9513824D01*
X10484841Y-9513824D02*
X10465793Y-9504300D01*
X10646745Y-9494776D02*
X10656269Y-9504300D01*
X10656269Y-9504300D02*
X10646745Y-9513824D01*
X10646745Y-9513824D02*
X10637222Y-9504300D01*
X10637222Y-9504300D02*
X10646745Y-9494776D01*
X10646745Y-9494776D02*
X10646745Y-9513824D01*
X10646745Y-9390014D02*
X10656269Y-9399538D01*
X10656269Y-9399538D02*
X10646745Y-9409062D01*
X10646745Y-9409062D02*
X10637222Y-9399538D01*
X10637222Y-9399538D02*
X10646745Y-9390014D01*
X10646745Y-9390014D02*
X10646745Y-9409062D01*
D10*
X8974540Y-9822340D02*
X9014540Y-9862340D01*
X9014540Y-9822340D02*
X8974540Y-9862340D01*
D11*
X9313412Y-9733824D02*
X9332460Y-9733824D01*
X9332460Y-9733824D02*
X9351507Y-9743348D01*
X9351507Y-9743348D02*
X9361031Y-9752871D01*
X9361031Y-9752871D02*
X9370555Y-9771919D01*
X9370555Y-9771919D02*
X9380079Y-9810014D01*
X9380079Y-9810014D02*
X9380079Y-9857633D01*
X9380079Y-9857633D02*
X9370555Y-9895729D01*
X9370555Y-9895729D02*
X9361031Y-9914776D01*
X9361031Y-9914776D02*
X9351507Y-9924300D01*
X9351507Y-9924300D02*
X9332460Y-9933824D01*
X9332460Y-9933824D02*
X9313412Y-9933824D01*
X9313412Y-9933824D02*
X9294364Y-9924300D01*
X9294364Y-9924300D02*
X9284841Y-9914776D01*
X9284841Y-9914776D02*
X9275317Y-9895729D01*
X9275317Y-9895729D02*
X9265793Y-9857633D01*
X9265793Y-9857633D02*
X9265793Y-9810014D01*
X9265793Y-9810014D02*
X9275317Y-9771919D01*
X9275317Y-9771919D02*
X9284841Y-9752871D01*
X9284841Y-9752871D02*
X9294364Y-9743348D01*
X9294364Y-9743348D02*
X9313412Y-9733824D01*
X9465793Y-9914776D02*
X9475317Y-9924300D01*
X9475317Y-9924300D02*
X9465793Y-9933824D01*
X9465793Y-9933824D02*
X9456269Y-9924300D01*
X9456269Y-9924300D02*
X9465793Y-9914776D01*
X9465793Y-9914776D02*
X9465793Y-9933824D01*
X9646745Y-9800490D02*
X9646745Y-9933824D01*
X9599126Y-9724300D02*
X9551507Y-9867157D01*
X9551507Y-9867157D02*
X9675317Y-9867157D01*
X9789603Y-9733824D02*
X9808650Y-9733824D01*
X9808650Y-9733824D02*
X9827698Y-9743348D01*
X9827698Y-9743348D02*
X9837222Y-9752871D01*
X9837222Y-9752871D02*
X9846745Y-9771919D01*
X9846745Y-9771919D02*
X9856269Y-9810014D01*
X9856269Y-9810014D02*
X9856269Y-9857633D01*
X9856269Y-9857633D02*
X9846745Y-9895729D01*
X9846745Y-9895729D02*
X9837222Y-9914776D01*
X9837222Y-9914776D02*
X9827698Y-9924300D01*
X9827698Y-9924300D02*
X9808650Y-9933824D01*
X9808650Y-9933824D02*
X9789603Y-9933824D01*
X9789603Y-9933824D02*
X9770555Y-9924300D01*
X9770555Y-9924300D02*
X9761031Y-9914776D01*
X9761031Y-9914776D02*
X9751507Y-9895729D01*
X9751507Y-9895729D02*
X9741984Y-9857633D01*
X9741984Y-9857633D02*
X9741984Y-9810014D01*
X9741984Y-9810014D02*
X9751507Y-9771919D01*
X9751507Y-9771919D02*
X9761031Y-9752871D01*
X9761031Y-9752871D02*
X9770555Y-9743348D01*
X9770555Y-9743348D02*
X9789603Y-9733824D01*
X9980079Y-9733824D02*
X9999126Y-9733824D01*
X9999126Y-9733824D02*
X10018174Y-9743348D01*
X10018174Y-9743348D02*
X10027698Y-9752871D01*
X10027698Y-9752871D02*
X10037222Y-9771919D01*
X10037222Y-9771919D02*
X10046745Y-9810014D01*
X10046745Y-9810014D02*
X10046745Y-9857633D01*
X10046745Y-9857633D02*
X10037222Y-9895729D01*
X10037222Y-9895729D02*
X10027698Y-9914776D01*
X10027698Y-9914776D02*
X10018174Y-9924300D01*
X10018174Y-9924300D02*
X9999126Y-9933824D01*
X9999126Y-9933824D02*
X9980079Y-9933824D01*
X9980079Y-9933824D02*
X9961031Y-9924300D01*
X9961031Y-9924300D02*
X9951507Y-9914776D01*
X9951507Y-9914776D02*
X9941984Y-9895729D01*
X9941984Y-9895729D02*
X9932460Y-9857633D01*
X9932460Y-9857633D02*
X9932460Y-9810014D01*
X9932460Y-9810014D02*
X9941984Y-9771919D01*
X9941984Y-9771919D02*
X9951507Y-9752871D01*
X9951507Y-9752871D02*
X9961031Y-9743348D01*
X9961031Y-9743348D02*
X9980079Y-9733824D01*
X10132460Y-9933824D02*
X10132460Y-9800490D01*
X10132460Y-9819538D02*
X10141984Y-9810014D01*
X10141984Y-9810014D02*
X10161031Y-9800490D01*
X10161031Y-9800490D02*
X10189603Y-9800490D01*
X10189603Y-9800490D02*
X10208650Y-9810014D01*
X10208650Y-9810014D02*
X10218174Y-9829062D01*
X10218174Y-9829062D02*
X10218174Y-9933824D01*
X10218174Y-9829062D02*
X10227698Y-9810014D01*
X10227698Y-9810014D02*
X10246745Y-9800490D01*
X10246745Y-9800490D02*
X10275317Y-9800490D01*
X10275317Y-9800490D02*
X10294365Y-9810014D01*
X10294365Y-9810014D02*
X10303888Y-9829062D01*
X10303888Y-9829062D02*
X10303888Y-9933824D01*
X10399126Y-9933824D02*
X10399126Y-9800490D01*
X10399126Y-9819538D02*
X10408650Y-9810014D01*
X10408650Y-9810014D02*
X10427698Y-9800490D01*
X10427698Y-9800490D02*
X10456269Y-9800490D01*
X10456269Y-9800490D02*
X10475317Y-9810014D01*
X10475317Y-9810014D02*
X10484841Y-9829062D01*
X10484841Y-9829062D02*
X10484841Y-9933824D01*
X10484841Y-9829062D02*
X10494365Y-9810014D01*
X10494365Y-9810014D02*
X10513412Y-9800490D01*
X10513412Y-9800490D02*
X10541984Y-9800490D01*
X10541984Y-9800490D02*
X10561031Y-9810014D01*
X10561031Y-9810014D02*
X10570555Y-9829062D01*
X10570555Y-9829062D02*
X10570555Y-9933824D01*
X10961031Y-9724300D02*
X10789603Y-9981443D01*
X11218174Y-9733824D02*
X11237222Y-9733824D01*
X11237222Y-9733824D02*
X11256269Y-9743348D01*
X11256269Y-9743348D02*
X11265793Y-9752871D01*
X11265793Y-9752871D02*
X11275317Y-9771919D01*
X11275317Y-9771919D02*
X11284841Y-9810014D01*
X11284841Y-9810014D02*
X11284841Y-9857633D01*
X11284841Y-9857633D02*
X11275317Y-9895729D01*
X11275317Y-9895729D02*
X11265793Y-9914776D01*
X11265793Y-9914776D02*
X11256269Y-9924300D01*
X11256269Y-9924300D02*
X11237222Y-9933824D01*
X11237222Y-9933824D02*
X11218174Y-9933824D01*
X11218174Y-9933824D02*
X11199126Y-9924300D01*
X11199126Y-9924300D02*
X11189603Y-9914776D01*
X11189603Y-9914776D02*
X11180079Y-9895729D01*
X11180079Y-9895729D02*
X11170555Y-9857633D01*
X11170555Y-9857633D02*
X11170555Y-9810014D01*
X11170555Y-9810014D02*
X11180079Y-9771919D01*
X11180079Y-9771919D02*
X11189603Y-9752871D01*
X11189603Y-9752871D02*
X11199126Y-9743348D01*
X11199126Y-9743348D02*
X11218174Y-9733824D01*
X11370555Y-9914776D02*
X11380079Y-9924300D01*
X11380079Y-9924300D02*
X11370555Y-9933824D01*
X11370555Y-9933824D02*
X11361031Y-9924300D01*
X11361031Y-9924300D02*
X11370555Y-9914776D01*
X11370555Y-9914776D02*
X11370555Y-9933824D01*
X11503888Y-9733824D02*
X11522936Y-9733824D01*
X11522936Y-9733824D02*
X11541984Y-9743348D01*
X11541984Y-9743348D02*
X11551507Y-9752871D01*
X11551507Y-9752871D02*
X11561031Y-9771919D01*
X11561031Y-9771919D02*
X11570555Y-9810014D01*
X11570555Y-9810014D02*
X11570555Y-9857633D01*
X11570555Y-9857633D02*
X11561031Y-9895729D01*
X11561031Y-9895729D02*
X11551507Y-9914776D01*
X11551507Y-9914776D02*
X11541984Y-9924300D01*
X11541984Y-9924300D02*
X11522936Y-9933824D01*
X11522936Y-9933824D02*
X11503888Y-9933824D01*
X11503888Y-9933824D02*
X11484841Y-9924300D01*
X11484841Y-9924300D02*
X11475317Y-9914776D01*
X11475317Y-9914776D02*
X11465793Y-9895729D01*
X11465793Y-9895729D02*
X11456269Y-9857633D01*
X11456269Y-9857633D02*
X11456269Y-9810014D01*
X11456269Y-9810014D02*
X11465793Y-9771919D01*
X11465793Y-9771919D02*
X11475317Y-9752871D01*
X11475317Y-9752871D02*
X11484841Y-9743348D01*
X11484841Y-9743348D02*
X11503888Y-9733824D01*
X11761031Y-9933824D02*
X11646746Y-9933824D01*
X11703888Y-9933824D02*
X11703888Y-9733824D01*
X11703888Y-9733824D02*
X11684841Y-9762395D01*
X11684841Y-9762395D02*
X11665793Y-9781443D01*
X11665793Y-9781443D02*
X11646746Y-9790967D01*
X11941984Y-9733824D02*
X11846746Y-9733824D01*
X11846746Y-9733824D02*
X11837222Y-9829062D01*
X11837222Y-9829062D02*
X11846746Y-9819538D01*
X11846746Y-9819538D02*
X11865793Y-9810014D01*
X11865793Y-9810014D02*
X11913412Y-9810014D01*
X11913412Y-9810014D02*
X11932460Y-9819538D01*
X11932460Y-9819538D02*
X11941984Y-9829062D01*
X11941984Y-9829062D02*
X11951507Y-9848110D01*
X11951507Y-9848110D02*
X11951507Y-9895729D01*
X11951507Y-9895729D02*
X11941984Y-9914776D01*
X11941984Y-9914776D02*
X11932460Y-9924300D01*
X11932460Y-9924300D02*
X11913412Y-9933824D01*
X11913412Y-9933824D02*
X11865793Y-9933824D01*
X11865793Y-9933824D02*
X11846746Y-9924300D01*
X11846746Y-9924300D02*
X11837222Y-9914776D01*
X12018174Y-9733824D02*
X12151507Y-9733824D01*
X12151507Y-9733824D02*
X12065793Y-9933824D01*
X12218174Y-9733824D02*
X12218174Y-9771919D01*
X12294365Y-9733824D02*
X12294365Y-9771919D01*
X12589603Y-10010014D02*
X12580079Y-10000490D01*
X12580079Y-10000490D02*
X12561031Y-9971919D01*
X12561031Y-9971919D02*
X12551508Y-9952871D01*
X12551508Y-9952871D02*
X12541984Y-9924300D01*
X12541984Y-9924300D02*
X12532460Y-9876681D01*
X12532460Y-9876681D02*
X12532460Y-9838586D01*
X12532460Y-9838586D02*
X12541984Y-9790967D01*
X12541984Y-9790967D02*
X12551508Y-9762395D01*
X12551508Y-9762395D02*
X12561031Y-9743348D01*
X12561031Y-9743348D02*
X12580079Y-9714776D01*
X12580079Y-9714776D02*
X12589603Y-9705252D01*
X12770555Y-9933824D02*
X12656269Y-9933824D01*
X12713412Y-9933824D02*
X12713412Y-9733824D01*
X12713412Y-9733824D02*
X12694365Y-9762395D01*
X12694365Y-9762395D02*
X12675317Y-9781443D01*
X12675317Y-9781443D02*
X12656269Y-9790967D01*
X12941984Y-9800490D02*
X12941984Y-9933824D01*
X12894365Y-9724300D02*
X12846746Y-9867157D01*
X12846746Y-9867157D02*
X12970555Y-9867157D01*
X13141984Y-9733824D02*
X13046746Y-9733824D01*
X13046746Y-9733824D02*
X13037222Y-9829062D01*
X13037222Y-9829062D02*
X13046746Y-9819538D01*
X13046746Y-9819538D02*
X13065793Y-9810014D01*
X13065793Y-9810014D02*
X13113412Y-9810014D01*
X13113412Y-9810014D02*
X13132460Y-9819538D01*
X13132460Y-9819538D02*
X13141984Y-9829062D01*
X13141984Y-9829062D02*
X13151508Y-9848110D01*
X13151508Y-9848110D02*
X13151508Y-9895729D01*
X13151508Y-9895729D02*
X13141984Y-9914776D01*
X13141984Y-9914776D02*
X13132460Y-9924300D01*
X13132460Y-9924300D02*
X13113412Y-9933824D01*
X13113412Y-9933824D02*
X13065793Y-9933824D01*
X13065793Y-9933824D02*
X13046746Y-9924300D01*
X13046746Y-9924300D02*
X13037222Y-9914776D01*
X13389603Y-9933824D02*
X13389603Y-9733824D01*
X13475317Y-9933824D02*
X13475317Y-9829062D01*
X13475317Y-9829062D02*
X13465793Y-9810014D01*
X13465793Y-9810014D02*
X13446746Y-9800490D01*
X13446746Y-9800490D02*
X13418174Y-9800490D01*
X13418174Y-9800490D02*
X13399127Y-9810014D01*
X13399127Y-9810014D02*
X13389603Y-9819538D01*
X13599127Y-9933824D02*
X13580079Y-9924300D01*
X13580079Y-9924300D02*
X13570555Y-9914776D01*
X13570555Y-9914776D02*
X13561031Y-9895729D01*
X13561031Y-9895729D02*
X13561031Y-9838586D01*
X13561031Y-9838586D02*
X13570555Y-9819538D01*
X13570555Y-9819538D02*
X13580079Y-9810014D01*
X13580079Y-9810014D02*
X13599127Y-9800490D01*
X13599127Y-9800490D02*
X13627698Y-9800490D01*
X13627698Y-9800490D02*
X13646746Y-9810014D01*
X13646746Y-9810014D02*
X13656270Y-9819538D01*
X13656270Y-9819538D02*
X13665793Y-9838586D01*
X13665793Y-9838586D02*
X13665793Y-9895729D01*
X13665793Y-9895729D02*
X13656270Y-9914776D01*
X13656270Y-9914776D02*
X13646746Y-9924300D01*
X13646746Y-9924300D02*
X13627698Y-9933824D01*
X13627698Y-9933824D02*
X13599127Y-9933824D01*
X13780079Y-9933824D02*
X13761031Y-9924300D01*
X13761031Y-9924300D02*
X13751508Y-9905252D01*
X13751508Y-9905252D02*
X13751508Y-9733824D01*
X13932460Y-9924300D02*
X13913412Y-9933824D01*
X13913412Y-9933824D02*
X13875317Y-9933824D01*
X13875317Y-9933824D02*
X13856270Y-9924300D01*
X13856270Y-9924300D02*
X13846746Y-9905252D01*
X13846746Y-9905252D02*
X13846746Y-9829062D01*
X13846746Y-9829062D02*
X13856270Y-9810014D01*
X13856270Y-9810014D02*
X13875317Y-9800490D01*
X13875317Y-9800490D02*
X13913412Y-9800490D01*
X13913412Y-9800490D02*
X13932460Y-9810014D01*
X13932460Y-9810014D02*
X13941984Y-9829062D01*
X13941984Y-9829062D02*
X13941984Y-9848110D01*
X13941984Y-9848110D02*
X13846746Y-9867157D01*
X14018174Y-9924300D02*
X14037222Y-9933824D01*
X14037222Y-9933824D02*
X14075317Y-9933824D01*
X14075317Y-9933824D02*
X14094365Y-9924300D01*
X14094365Y-9924300D02*
X14103889Y-9905252D01*
X14103889Y-9905252D02*
X14103889Y-9895729D01*
X14103889Y-9895729D02*
X14094365Y-9876681D01*
X14094365Y-9876681D02*
X14075317Y-9867157D01*
X14075317Y-9867157D02*
X14046746Y-9867157D01*
X14046746Y-9867157D02*
X14027698Y-9857633D01*
X14027698Y-9857633D02*
X14018174Y-9838586D01*
X14018174Y-9838586D02*
X14018174Y-9829062D01*
X14018174Y-9829062D02*
X14027698Y-9810014D01*
X14027698Y-9810014D02*
X14046746Y-9800490D01*
X14046746Y-9800490D02*
X14075317Y-9800490D01*
X14075317Y-9800490D02*
X14094365Y-9810014D01*
X14170555Y-10010014D02*
X14180079Y-10000490D01*
X14180079Y-10000490D02*
X14199127Y-9971919D01*
X14199127Y-9971919D02*
X14208651Y-9952871D01*
X14208651Y-9952871D02*
X14218174Y-9924300D01*
X14218174Y-9924300D02*
X14227698Y-9876681D01*
X14227698Y-9876681D02*
X14227698Y-9838586D01*
X14227698Y-9838586D02*
X14218174Y-9790967D01*
X14218174Y-9790967D02*
X14208651Y-9762395D01*
X14208651Y-9762395D02*
X14199127Y-9743348D01*
X14199127Y-9743348D02*
X14180079Y-9714776D01*
X14180079Y-9714776D02*
X14170555Y-9705252D01*
D10*
X9014540Y-10106340D02*
G75*
G03*
X9014540Y-10106340I-50000J0D01*
G01*
D11*
X9380079Y-10197824D02*
X9265793Y-10197824D01*
X9322936Y-10197824D02*
X9322936Y-9997824D01*
X9322936Y-9997824D02*
X9303888Y-10026395D01*
X9303888Y-10026395D02*
X9284841Y-10045443D01*
X9284841Y-10045443D02*
X9265793Y-10054967D01*
X9465793Y-10178776D02*
X9475317Y-10188300D01*
X9475317Y-10188300D02*
X9465793Y-10197824D01*
X9465793Y-10197824D02*
X9456269Y-10188300D01*
X9456269Y-10188300D02*
X9465793Y-10178776D01*
X9465793Y-10178776D02*
X9465793Y-10197824D01*
X9599126Y-9997824D02*
X9618174Y-9997824D01*
X9618174Y-9997824D02*
X9637222Y-10007348D01*
X9637222Y-10007348D02*
X9646745Y-10016871D01*
X9646745Y-10016871D02*
X9656269Y-10035919D01*
X9656269Y-10035919D02*
X9665793Y-10074014D01*
X9665793Y-10074014D02*
X9665793Y-10121633D01*
X9665793Y-10121633D02*
X9656269Y-10159729D01*
X9656269Y-10159729D02*
X9646745Y-10178776D01*
X9646745Y-10178776D02*
X9637222Y-10188300D01*
X9637222Y-10188300D02*
X9618174Y-10197824D01*
X9618174Y-10197824D02*
X9599126Y-10197824D01*
X9599126Y-10197824D02*
X9580079Y-10188300D01*
X9580079Y-10188300D02*
X9570555Y-10178776D01*
X9570555Y-10178776D02*
X9561031Y-10159729D01*
X9561031Y-10159729D02*
X9551507Y-10121633D01*
X9551507Y-10121633D02*
X9551507Y-10074014D01*
X9551507Y-10074014D02*
X9561031Y-10035919D01*
X9561031Y-10035919D02*
X9570555Y-10016871D01*
X9570555Y-10016871D02*
X9580079Y-10007348D01*
X9580079Y-10007348D02*
X9599126Y-9997824D01*
X9789603Y-9997824D02*
X9808650Y-9997824D01*
X9808650Y-9997824D02*
X9827698Y-10007348D01*
X9827698Y-10007348D02*
X9837222Y-10016871D01*
X9837222Y-10016871D02*
X9846745Y-10035919D01*
X9846745Y-10035919D02*
X9856269Y-10074014D01*
X9856269Y-10074014D02*
X9856269Y-10121633D01*
X9856269Y-10121633D02*
X9846745Y-10159729D01*
X9846745Y-10159729D02*
X9837222Y-10178776D01*
X9837222Y-10178776D02*
X9827698Y-10188300D01*
X9827698Y-10188300D02*
X9808650Y-10197824D01*
X9808650Y-10197824D02*
X9789603Y-10197824D01*
X9789603Y-10197824D02*
X9770555Y-10188300D01*
X9770555Y-10188300D02*
X9761031Y-10178776D01*
X9761031Y-10178776D02*
X9751507Y-10159729D01*
X9751507Y-10159729D02*
X9741984Y-10121633D01*
X9741984Y-10121633D02*
X9741984Y-10074014D01*
X9741984Y-10074014D02*
X9751507Y-10035919D01*
X9751507Y-10035919D02*
X9761031Y-10016871D01*
X9761031Y-10016871D02*
X9770555Y-10007348D01*
X9770555Y-10007348D02*
X9789603Y-9997824D01*
X9980079Y-9997824D02*
X9999126Y-9997824D01*
X9999126Y-9997824D02*
X10018174Y-10007348D01*
X10018174Y-10007348D02*
X10027698Y-10016871D01*
X10027698Y-10016871D02*
X10037222Y-10035919D01*
X10037222Y-10035919D02*
X10046745Y-10074014D01*
X10046745Y-10074014D02*
X10046745Y-10121633D01*
X10046745Y-10121633D02*
X10037222Y-10159729D01*
X10037222Y-10159729D02*
X10027698Y-10178776D01*
X10027698Y-10178776D02*
X10018174Y-10188300D01*
X10018174Y-10188300D02*
X9999126Y-10197824D01*
X9999126Y-10197824D02*
X9980079Y-10197824D01*
X9980079Y-10197824D02*
X9961031Y-10188300D01*
X9961031Y-10188300D02*
X9951507Y-10178776D01*
X9951507Y-10178776D02*
X9941984Y-10159729D01*
X9941984Y-10159729D02*
X9932460Y-10121633D01*
X9932460Y-10121633D02*
X9932460Y-10074014D01*
X9932460Y-10074014D02*
X9941984Y-10035919D01*
X9941984Y-10035919D02*
X9951507Y-10016871D01*
X9951507Y-10016871D02*
X9961031Y-10007348D01*
X9961031Y-10007348D02*
X9980079Y-9997824D01*
X10132460Y-10197824D02*
X10132460Y-10064490D01*
X10132460Y-10083538D02*
X10141984Y-10074014D01*
X10141984Y-10074014D02*
X10161031Y-10064490D01*
X10161031Y-10064490D02*
X10189603Y-10064490D01*
X10189603Y-10064490D02*
X10208650Y-10074014D01*
X10208650Y-10074014D02*
X10218174Y-10093062D01*
X10218174Y-10093062D02*
X10218174Y-10197824D01*
X10218174Y-10093062D02*
X10227698Y-10074014D01*
X10227698Y-10074014D02*
X10246745Y-10064490D01*
X10246745Y-10064490D02*
X10275317Y-10064490D01*
X10275317Y-10064490D02*
X10294365Y-10074014D01*
X10294365Y-10074014D02*
X10303888Y-10093062D01*
X10303888Y-10093062D02*
X10303888Y-10197824D01*
X10399126Y-10197824D02*
X10399126Y-10064490D01*
X10399126Y-10083538D02*
X10408650Y-10074014D01*
X10408650Y-10074014D02*
X10427698Y-10064490D01*
X10427698Y-10064490D02*
X10456269Y-10064490D01*
X10456269Y-10064490D02*
X10475317Y-10074014D01*
X10475317Y-10074014D02*
X10484841Y-10093062D01*
X10484841Y-10093062D02*
X10484841Y-10197824D01*
X10484841Y-10093062D02*
X10494365Y-10074014D01*
X10494365Y-10074014D02*
X10513412Y-10064490D01*
X10513412Y-10064490D02*
X10541984Y-10064490D01*
X10541984Y-10064490D02*
X10561031Y-10074014D01*
X10561031Y-10074014D02*
X10570555Y-10093062D01*
X10570555Y-10093062D02*
X10570555Y-10197824D01*
X10961031Y-9988300D02*
X10789603Y-10245443D01*
X11218174Y-9997824D02*
X11237222Y-9997824D01*
X11237222Y-9997824D02*
X11256269Y-10007348D01*
X11256269Y-10007348D02*
X11265793Y-10016871D01*
X11265793Y-10016871D02*
X11275317Y-10035919D01*
X11275317Y-10035919D02*
X11284841Y-10074014D01*
X11284841Y-10074014D02*
X11284841Y-10121633D01*
X11284841Y-10121633D02*
X11275317Y-10159729D01*
X11275317Y-10159729D02*
X11265793Y-10178776D01*
X11265793Y-10178776D02*
X11256269Y-10188300D01*
X11256269Y-10188300D02*
X11237222Y-10197824D01*
X11237222Y-10197824D02*
X11218174Y-10197824D01*
X11218174Y-10197824D02*
X11199126Y-10188300D01*
X11199126Y-10188300D02*
X11189603Y-10178776D01*
X11189603Y-10178776D02*
X11180079Y-10159729D01*
X11180079Y-10159729D02*
X11170555Y-10121633D01*
X11170555Y-10121633D02*
X11170555Y-10074014D01*
X11170555Y-10074014D02*
X11180079Y-10035919D01*
X11180079Y-10035919D02*
X11189603Y-10016871D01*
X11189603Y-10016871D02*
X11199126Y-10007348D01*
X11199126Y-10007348D02*
X11218174Y-9997824D01*
X11370555Y-10178776D02*
X11380079Y-10188300D01*
X11380079Y-10188300D02*
X11370555Y-10197824D01*
X11370555Y-10197824D02*
X11361031Y-10188300D01*
X11361031Y-10188300D02*
X11370555Y-10178776D01*
X11370555Y-10178776D02*
X11370555Y-10197824D01*
X11503888Y-9997824D02*
X11522936Y-9997824D01*
X11522936Y-9997824D02*
X11541984Y-10007348D01*
X11541984Y-10007348D02*
X11551507Y-10016871D01*
X11551507Y-10016871D02*
X11561031Y-10035919D01*
X11561031Y-10035919D02*
X11570555Y-10074014D01*
X11570555Y-10074014D02*
X11570555Y-10121633D01*
X11570555Y-10121633D02*
X11561031Y-10159729D01*
X11561031Y-10159729D02*
X11551507Y-10178776D01*
X11551507Y-10178776D02*
X11541984Y-10188300D01*
X11541984Y-10188300D02*
X11522936Y-10197824D01*
X11522936Y-10197824D02*
X11503888Y-10197824D01*
X11503888Y-10197824D02*
X11484841Y-10188300D01*
X11484841Y-10188300D02*
X11475317Y-10178776D01*
X11475317Y-10178776D02*
X11465793Y-10159729D01*
X11465793Y-10159729D02*
X11456269Y-10121633D01*
X11456269Y-10121633D02*
X11456269Y-10074014D01*
X11456269Y-10074014D02*
X11465793Y-10035919D01*
X11465793Y-10035919D02*
X11475317Y-10016871D01*
X11475317Y-10016871D02*
X11484841Y-10007348D01*
X11484841Y-10007348D02*
X11503888Y-9997824D01*
X11637222Y-9997824D02*
X11761031Y-9997824D01*
X11761031Y-9997824D02*
X11694365Y-10074014D01*
X11694365Y-10074014D02*
X11722936Y-10074014D01*
X11722936Y-10074014D02*
X11741984Y-10083538D01*
X11741984Y-10083538D02*
X11751507Y-10093062D01*
X11751507Y-10093062D02*
X11761031Y-10112110D01*
X11761031Y-10112110D02*
X11761031Y-10159729D01*
X11761031Y-10159729D02*
X11751507Y-10178776D01*
X11751507Y-10178776D02*
X11741984Y-10188300D01*
X11741984Y-10188300D02*
X11722936Y-10197824D01*
X11722936Y-10197824D02*
X11665793Y-10197824D01*
X11665793Y-10197824D02*
X11646746Y-10188300D01*
X11646746Y-10188300D02*
X11637222Y-10178776D01*
X11856269Y-10197824D02*
X11894365Y-10197824D01*
X11894365Y-10197824D02*
X11913412Y-10188300D01*
X11913412Y-10188300D02*
X11922936Y-10178776D01*
X11922936Y-10178776D02*
X11941984Y-10150205D01*
X11941984Y-10150205D02*
X11951507Y-10112110D01*
X11951507Y-10112110D02*
X11951507Y-10035919D01*
X11951507Y-10035919D02*
X11941984Y-10016871D01*
X11941984Y-10016871D02*
X11932460Y-10007348D01*
X11932460Y-10007348D02*
X11913412Y-9997824D01*
X11913412Y-9997824D02*
X11875317Y-9997824D01*
X11875317Y-9997824D02*
X11856269Y-10007348D01*
X11856269Y-10007348D02*
X11846746Y-10016871D01*
X11846746Y-10016871D02*
X11837222Y-10035919D01*
X11837222Y-10035919D02*
X11837222Y-10083538D01*
X11837222Y-10083538D02*
X11846746Y-10102586D01*
X11846746Y-10102586D02*
X11856269Y-10112110D01*
X11856269Y-10112110D02*
X11875317Y-10121633D01*
X11875317Y-10121633D02*
X11913412Y-10121633D01*
X11913412Y-10121633D02*
X11932460Y-10112110D01*
X11932460Y-10112110D02*
X11941984Y-10102586D01*
X11941984Y-10102586D02*
X11951507Y-10083538D01*
X12122936Y-10064490D02*
X12122936Y-10197824D01*
X12075317Y-9988300D02*
X12027698Y-10131157D01*
X12027698Y-10131157D02*
X12151507Y-10131157D01*
X12218174Y-9997824D02*
X12218174Y-10035919D01*
X12294365Y-9997824D02*
X12294365Y-10035919D01*
X12589603Y-10274014D02*
X12580079Y-10264490D01*
X12580079Y-10264490D02*
X12561031Y-10235919D01*
X12561031Y-10235919D02*
X12551508Y-10216871D01*
X12551508Y-10216871D02*
X12541984Y-10188300D01*
X12541984Y-10188300D02*
X12532460Y-10140681D01*
X12532460Y-10140681D02*
X12532460Y-10102586D01*
X12532460Y-10102586D02*
X12541984Y-10054967D01*
X12541984Y-10054967D02*
X12551508Y-10026395D01*
X12551508Y-10026395D02*
X12561031Y-10007348D01*
X12561031Y-10007348D02*
X12580079Y-9978776D01*
X12580079Y-9978776D02*
X12589603Y-9969252D01*
X12770555Y-10197824D02*
X12656269Y-10197824D01*
X12713412Y-10197824D02*
X12713412Y-9997824D01*
X12713412Y-9997824D02*
X12694365Y-10026395D01*
X12694365Y-10026395D02*
X12675317Y-10045443D01*
X12675317Y-10045443D02*
X12656269Y-10054967D01*
X12951508Y-9997824D02*
X12856269Y-9997824D01*
X12856269Y-9997824D02*
X12846746Y-10093062D01*
X12846746Y-10093062D02*
X12856269Y-10083538D01*
X12856269Y-10083538D02*
X12875317Y-10074014D01*
X12875317Y-10074014D02*
X12922936Y-10074014D01*
X12922936Y-10074014D02*
X12941984Y-10083538D01*
X12941984Y-10083538D02*
X12951508Y-10093062D01*
X12951508Y-10093062D02*
X12961031Y-10112110D01*
X12961031Y-10112110D02*
X12961031Y-10159729D01*
X12961031Y-10159729D02*
X12951508Y-10178776D01*
X12951508Y-10178776D02*
X12941984Y-10188300D01*
X12941984Y-10188300D02*
X12922936Y-10197824D01*
X12922936Y-10197824D02*
X12875317Y-10197824D01*
X12875317Y-10197824D02*
X12856269Y-10188300D01*
X12856269Y-10188300D02*
X12846746Y-10178776D01*
X13084841Y-9997824D02*
X13103889Y-9997824D01*
X13103889Y-9997824D02*
X13122936Y-10007348D01*
X13122936Y-10007348D02*
X13132460Y-10016871D01*
X13132460Y-10016871D02*
X13141984Y-10035919D01*
X13141984Y-10035919D02*
X13151508Y-10074014D01*
X13151508Y-10074014D02*
X13151508Y-10121633D01*
X13151508Y-10121633D02*
X13141984Y-10159729D01*
X13141984Y-10159729D02*
X13132460Y-10178776D01*
X13132460Y-10178776D02*
X13122936Y-10188300D01*
X13122936Y-10188300D02*
X13103889Y-10197824D01*
X13103889Y-10197824D02*
X13084841Y-10197824D01*
X13084841Y-10197824D02*
X13065793Y-10188300D01*
X13065793Y-10188300D02*
X13056269Y-10178776D01*
X13056269Y-10178776D02*
X13046746Y-10159729D01*
X13046746Y-10159729D02*
X13037222Y-10121633D01*
X13037222Y-10121633D02*
X13037222Y-10074014D01*
X13037222Y-10074014D02*
X13046746Y-10035919D01*
X13046746Y-10035919D02*
X13056269Y-10016871D01*
X13056269Y-10016871D02*
X13065793Y-10007348D01*
X13065793Y-10007348D02*
X13084841Y-9997824D01*
X13389603Y-10197824D02*
X13389603Y-9997824D01*
X13475317Y-10197824D02*
X13475317Y-10093062D01*
X13475317Y-10093062D02*
X13465793Y-10074014D01*
X13465793Y-10074014D02*
X13446746Y-10064490D01*
X13446746Y-10064490D02*
X13418174Y-10064490D01*
X13418174Y-10064490D02*
X13399127Y-10074014D01*
X13399127Y-10074014D02*
X13389603Y-10083538D01*
X13599127Y-10197824D02*
X13580079Y-10188300D01*
X13580079Y-10188300D02*
X13570555Y-10178776D01*
X13570555Y-10178776D02*
X13561031Y-10159729D01*
X13561031Y-10159729D02*
X13561031Y-10102586D01*
X13561031Y-10102586D02*
X13570555Y-10083538D01*
X13570555Y-10083538D02*
X13580079Y-10074014D01*
X13580079Y-10074014D02*
X13599127Y-10064490D01*
X13599127Y-10064490D02*
X13627698Y-10064490D01*
X13627698Y-10064490D02*
X13646746Y-10074014D01*
X13646746Y-10074014D02*
X13656270Y-10083538D01*
X13656270Y-10083538D02*
X13665793Y-10102586D01*
X13665793Y-10102586D02*
X13665793Y-10159729D01*
X13665793Y-10159729D02*
X13656270Y-10178776D01*
X13656270Y-10178776D02*
X13646746Y-10188300D01*
X13646746Y-10188300D02*
X13627698Y-10197824D01*
X13627698Y-10197824D02*
X13599127Y-10197824D01*
X13780079Y-10197824D02*
X13761031Y-10188300D01*
X13761031Y-10188300D02*
X13751508Y-10169252D01*
X13751508Y-10169252D02*
X13751508Y-9997824D01*
X13932460Y-10188300D02*
X13913412Y-10197824D01*
X13913412Y-10197824D02*
X13875317Y-10197824D01*
X13875317Y-10197824D02*
X13856270Y-10188300D01*
X13856270Y-10188300D02*
X13846746Y-10169252D01*
X13846746Y-10169252D02*
X13846746Y-10093062D01*
X13846746Y-10093062D02*
X13856270Y-10074014D01*
X13856270Y-10074014D02*
X13875317Y-10064490D01*
X13875317Y-10064490D02*
X13913412Y-10064490D01*
X13913412Y-10064490D02*
X13932460Y-10074014D01*
X13932460Y-10074014D02*
X13941984Y-10093062D01*
X13941984Y-10093062D02*
X13941984Y-10112110D01*
X13941984Y-10112110D02*
X13846746Y-10131157D01*
X14018174Y-10188300D02*
X14037222Y-10197824D01*
X14037222Y-10197824D02*
X14075317Y-10197824D01*
X14075317Y-10197824D02*
X14094365Y-10188300D01*
X14094365Y-10188300D02*
X14103889Y-10169252D01*
X14103889Y-10169252D02*
X14103889Y-10159729D01*
X14103889Y-10159729D02*
X14094365Y-10140681D01*
X14094365Y-10140681D02*
X14075317Y-10131157D01*
X14075317Y-10131157D02*
X14046746Y-10131157D01*
X14046746Y-10131157D02*
X14027698Y-10121633D01*
X14027698Y-10121633D02*
X14018174Y-10102586D01*
X14018174Y-10102586D02*
X14018174Y-10093062D01*
X14018174Y-10093062D02*
X14027698Y-10074014D01*
X14027698Y-10074014D02*
X14046746Y-10064490D01*
X14046746Y-10064490D02*
X14075317Y-10064490D01*
X14075317Y-10064490D02*
X14094365Y-10074014D01*
X14170555Y-10274014D02*
X14180079Y-10264490D01*
X14180079Y-10264490D02*
X14199127Y-10235919D01*
X14199127Y-10235919D02*
X14208651Y-10216871D01*
X14208651Y-10216871D02*
X14218174Y-10188300D01*
X14218174Y-10188300D02*
X14227698Y-10140681D01*
X14227698Y-10140681D02*
X14227698Y-10102586D01*
X14227698Y-10102586D02*
X14218174Y-10054967D01*
X14218174Y-10054967D02*
X14208651Y-10026395D01*
X14208651Y-10026395D02*
X14199127Y-10007348D01*
X14199127Y-10007348D02*
X14180079Y-9978776D01*
X14180079Y-9978776D02*
X14170555Y-9969252D01*
D12*
X8957390Y-10313190D02*
X8957390Y-10427490D01*
X8900240Y-10370340D02*
X9014540Y-10370340D01*
D11*
X9380079Y-10461824D02*
X9265793Y-10461824D01*
X9322936Y-10461824D02*
X9322936Y-10261824D01*
X9322936Y-10261824D02*
X9303888Y-10290395D01*
X9303888Y-10290395D02*
X9284841Y-10309443D01*
X9284841Y-10309443D02*
X9265793Y-10318967D01*
X9465793Y-10442776D02*
X9475317Y-10452300D01*
X9475317Y-10452300D02*
X9465793Y-10461824D01*
X9465793Y-10461824D02*
X9456269Y-10452300D01*
X9456269Y-10452300D02*
X9465793Y-10442776D01*
X9465793Y-10442776D02*
X9465793Y-10461824D01*
X9665793Y-10461824D02*
X9551507Y-10461824D01*
X9608650Y-10461824D02*
X9608650Y-10261824D01*
X9608650Y-10261824D02*
X9589603Y-10290395D01*
X9589603Y-10290395D02*
X9570555Y-10309443D01*
X9570555Y-10309443D02*
X9551507Y-10318967D01*
X9837222Y-10328490D02*
X9837222Y-10461824D01*
X9789603Y-10252300D02*
X9741984Y-10395157D01*
X9741984Y-10395157D02*
X9865793Y-10395157D01*
X9922936Y-10261824D02*
X10046745Y-10261824D01*
X10046745Y-10261824D02*
X9980079Y-10338014D01*
X9980079Y-10338014D02*
X10008650Y-10338014D01*
X10008650Y-10338014D02*
X10027698Y-10347538D01*
X10027698Y-10347538D02*
X10037222Y-10357062D01*
X10037222Y-10357062D02*
X10046745Y-10376110D01*
X10046745Y-10376110D02*
X10046745Y-10423729D01*
X10046745Y-10423729D02*
X10037222Y-10442776D01*
X10037222Y-10442776D02*
X10027698Y-10452300D01*
X10027698Y-10452300D02*
X10008650Y-10461824D01*
X10008650Y-10461824D02*
X9951507Y-10461824D01*
X9951507Y-10461824D02*
X9932460Y-10452300D01*
X9932460Y-10452300D02*
X9922936Y-10442776D01*
X10132460Y-10461824D02*
X10132460Y-10328490D01*
X10132460Y-10347538D02*
X10141984Y-10338014D01*
X10141984Y-10338014D02*
X10161031Y-10328490D01*
X10161031Y-10328490D02*
X10189603Y-10328490D01*
X10189603Y-10328490D02*
X10208650Y-10338014D01*
X10208650Y-10338014D02*
X10218174Y-10357062D01*
X10218174Y-10357062D02*
X10218174Y-10461824D01*
X10218174Y-10357062D02*
X10227698Y-10338014D01*
X10227698Y-10338014D02*
X10246745Y-10328490D01*
X10246745Y-10328490D02*
X10275317Y-10328490D01*
X10275317Y-10328490D02*
X10294365Y-10338014D01*
X10294365Y-10338014D02*
X10303888Y-10357062D01*
X10303888Y-10357062D02*
X10303888Y-10461824D01*
X10399126Y-10461824D02*
X10399126Y-10328490D01*
X10399126Y-10347538D02*
X10408650Y-10338014D01*
X10408650Y-10338014D02*
X10427698Y-10328490D01*
X10427698Y-10328490D02*
X10456269Y-10328490D01*
X10456269Y-10328490D02*
X10475317Y-10338014D01*
X10475317Y-10338014D02*
X10484841Y-10357062D01*
X10484841Y-10357062D02*
X10484841Y-10461824D01*
X10484841Y-10357062D02*
X10494365Y-10338014D01*
X10494365Y-10338014D02*
X10513412Y-10328490D01*
X10513412Y-10328490D02*
X10541984Y-10328490D01*
X10541984Y-10328490D02*
X10561031Y-10338014D01*
X10561031Y-10338014D02*
X10570555Y-10357062D01*
X10570555Y-10357062D02*
X10570555Y-10461824D01*
X10961031Y-10252300D02*
X10789603Y-10509443D01*
X11218174Y-10261824D02*
X11237222Y-10261824D01*
X11237222Y-10261824D02*
X11256269Y-10271348D01*
X11256269Y-10271348D02*
X11265793Y-10280871D01*
X11265793Y-10280871D02*
X11275317Y-10299919D01*
X11275317Y-10299919D02*
X11284841Y-10338014D01*
X11284841Y-10338014D02*
X11284841Y-10385633D01*
X11284841Y-10385633D02*
X11275317Y-10423729D01*
X11275317Y-10423729D02*
X11265793Y-10442776D01*
X11265793Y-10442776D02*
X11256269Y-10452300D01*
X11256269Y-10452300D02*
X11237222Y-10461824D01*
X11237222Y-10461824D02*
X11218174Y-10461824D01*
X11218174Y-10461824D02*
X11199126Y-10452300D01*
X11199126Y-10452300D02*
X11189603Y-10442776D01*
X11189603Y-10442776D02*
X11180079Y-10423729D01*
X11180079Y-10423729D02*
X11170555Y-10385633D01*
X11170555Y-10385633D02*
X11170555Y-10338014D01*
X11170555Y-10338014D02*
X11180079Y-10299919D01*
X11180079Y-10299919D02*
X11189603Y-10280871D01*
X11189603Y-10280871D02*
X11199126Y-10271348D01*
X11199126Y-10271348D02*
X11218174Y-10261824D01*
X11370555Y-10442776D02*
X11380079Y-10452300D01*
X11380079Y-10452300D02*
X11370555Y-10461824D01*
X11370555Y-10461824D02*
X11361031Y-10452300D01*
X11361031Y-10452300D02*
X11370555Y-10442776D01*
X11370555Y-10442776D02*
X11370555Y-10461824D01*
X11503888Y-10261824D02*
X11522936Y-10261824D01*
X11522936Y-10261824D02*
X11541984Y-10271348D01*
X11541984Y-10271348D02*
X11551507Y-10280871D01*
X11551507Y-10280871D02*
X11561031Y-10299919D01*
X11561031Y-10299919D02*
X11570555Y-10338014D01*
X11570555Y-10338014D02*
X11570555Y-10385633D01*
X11570555Y-10385633D02*
X11561031Y-10423729D01*
X11561031Y-10423729D02*
X11551507Y-10442776D01*
X11551507Y-10442776D02*
X11541984Y-10452300D01*
X11541984Y-10452300D02*
X11522936Y-10461824D01*
X11522936Y-10461824D02*
X11503888Y-10461824D01*
X11503888Y-10461824D02*
X11484841Y-10452300D01*
X11484841Y-10452300D02*
X11475317Y-10442776D01*
X11475317Y-10442776D02*
X11465793Y-10423729D01*
X11465793Y-10423729D02*
X11456269Y-10385633D01*
X11456269Y-10385633D02*
X11456269Y-10338014D01*
X11456269Y-10338014D02*
X11465793Y-10299919D01*
X11465793Y-10299919D02*
X11475317Y-10280871D01*
X11475317Y-10280871D02*
X11484841Y-10271348D01*
X11484841Y-10271348D02*
X11503888Y-10261824D01*
X11741984Y-10328490D02*
X11741984Y-10461824D01*
X11694365Y-10252300D02*
X11646746Y-10395157D01*
X11646746Y-10395157D02*
X11770555Y-10395157D01*
X11941984Y-10261824D02*
X11846746Y-10261824D01*
X11846746Y-10261824D02*
X11837222Y-10357062D01*
X11837222Y-10357062D02*
X11846746Y-10347538D01*
X11846746Y-10347538D02*
X11865793Y-10338014D01*
X11865793Y-10338014D02*
X11913412Y-10338014D01*
X11913412Y-10338014D02*
X11932460Y-10347538D01*
X11932460Y-10347538D02*
X11941984Y-10357062D01*
X11941984Y-10357062D02*
X11951507Y-10376110D01*
X11951507Y-10376110D02*
X11951507Y-10423729D01*
X11951507Y-10423729D02*
X11941984Y-10442776D01*
X11941984Y-10442776D02*
X11932460Y-10452300D01*
X11932460Y-10452300D02*
X11913412Y-10461824D01*
X11913412Y-10461824D02*
X11865793Y-10461824D01*
X11865793Y-10461824D02*
X11846746Y-10452300D01*
X11846746Y-10452300D02*
X11837222Y-10442776D01*
X12075317Y-10261824D02*
X12094365Y-10261824D01*
X12094365Y-10261824D02*
X12113412Y-10271348D01*
X12113412Y-10271348D02*
X12122936Y-10280871D01*
X12122936Y-10280871D02*
X12132460Y-10299919D01*
X12132460Y-10299919D02*
X12141984Y-10338014D01*
X12141984Y-10338014D02*
X12141984Y-10385633D01*
X12141984Y-10385633D02*
X12132460Y-10423729D01*
X12132460Y-10423729D02*
X12122936Y-10442776D01*
X12122936Y-10442776D02*
X12113412Y-10452300D01*
X12113412Y-10452300D02*
X12094365Y-10461824D01*
X12094365Y-10461824D02*
X12075317Y-10461824D01*
X12075317Y-10461824D02*
X12056269Y-10452300D01*
X12056269Y-10452300D02*
X12046746Y-10442776D01*
X12046746Y-10442776D02*
X12037222Y-10423729D01*
X12037222Y-10423729D02*
X12027698Y-10385633D01*
X12027698Y-10385633D02*
X12027698Y-10338014D01*
X12027698Y-10338014D02*
X12037222Y-10299919D01*
X12037222Y-10299919D02*
X12046746Y-10280871D01*
X12046746Y-10280871D02*
X12056269Y-10271348D01*
X12056269Y-10271348D02*
X12075317Y-10261824D01*
X12218174Y-10261824D02*
X12218174Y-10299919D01*
X12294365Y-10261824D02*
X12294365Y-10299919D01*
X12589603Y-10538014D02*
X12580079Y-10528490D01*
X12580079Y-10528490D02*
X12561031Y-10499919D01*
X12561031Y-10499919D02*
X12551508Y-10480871D01*
X12551508Y-10480871D02*
X12541984Y-10452300D01*
X12541984Y-10452300D02*
X12532460Y-10404681D01*
X12532460Y-10404681D02*
X12532460Y-10366586D01*
X12532460Y-10366586D02*
X12541984Y-10318967D01*
X12541984Y-10318967D02*
X12551508Y-10290395D01*
X12551508Y-10290395D02*
X12561031Y-10271348D01*
X12561031Y-10271348D02*
X12580079Y-10242776D01*
X12580079Y-10242776D02*
X12589603Y-10233252D01*
X12770555Y-10461824D02*
X12656269Y-10461824D01*
X12713412Y-10461824D02*
X12713412Y-10261824D01*
X12713412Y-10261824D02*
X12694365Y-10290395D01*
X12694365Y-10290395D02*
X12675317Y-10309443D01*
X12675317Y-10309443D02*
X12656269Y-10318967D01*
X12894365Y-10261824D02*
X12913412Y-10261824D01*
X12913412Y-10261824D02*
X12932460Y-10271348D01*
X12932460Y-10271348D02*
X12941984Y-10280871D01*
X12941984Y-10280871D02*
X12951508Y-10299919D01*
X12951508Y-10299919D02*
X12961031Y-10338014D01*
X12961031Y-10338014D02*
X12961031Y-10385633D01*
X12961031Y-10385633D02*
X12951508Y-10423729D01*
X12951508Y-10423729D02*
X12941984Y-10442776D01*
X12941984Y-10442776D02*
X12932460Y-10452300D01*
X12932460Y-10452300D02*
X12913412Y-10461824D01*
X12913412Y-10461824D02*
X12894365Y-10461824D01*
X12894365Y-10461824D02*
X12875317Y-10452300D01*
X12875317Y-10452300D02*
X12865793Y-10442776D01*
X12865793Y-10442776D02*
X12856269Y-10423729D01*
X12856269Y-10423729D02*
X12846746Y-10385633D01*
X12846746Y-10385633D02*
X12846746Y-10338014D01*
X12846746Y-10338014D02*
X12856269Y-10299919D01*
X12856269Y-10299919D02*
X12865793Y-10280871D01*
X12865793Y-10280871D02*
X12875317Y-10271348D01*
X12875317Y-10271348D02*
X12894365Y-10261824D01*
X13199127Y-10461824D02*
X13199127Y-10261824D01*
X13284841Y-10461824D02*
X13284841Y-10357062D01*
X13284841Y-10357062D02*
X13275317Y-10338014D01*
X13275317Y-10338014D02*
X13256270Y-10328490D01*
X13256270Y-10328490D02*
X13227698Y-10328490D01*
X13227698Y-10328490D02*
X13208650Y-10338014D01*
X13208650Y-10338014D02*
X13199127Y-10347538D01*
X13408650Y-10461824D02*
X13389603Y-10452300D01*
X13389603Y-10452300D02*
X13380079Y-10442776D01*
X13380079Y-10442776D02*
X13370555Y-10423729D01*
X13370555Y-10423729D02*
X13370555Y-10366586D01*
X13370555Y-10366586D02*
X13380079Y-10347538D01*
X13380079Y-10347538D02*
X13389603Y-10338014D01*
X13389603Y-10338014D02*
X13408650Y-10328490D01*
X13408650Y-10328490D02*
X13437222Y-10328490D01*
X13437222Y-10328490D02*
X13456270Y-10338014D01*
X13456270Y-10338014D02*
X13465793Y-10347538D01*
X13465793Y-10347538D02*
X13475317Y-10366586D01*
X13475317Y-10366586D02*
X13475317Y-10423729D01*
X13475317Y-10423729D02*
X13465793Y-10442776D01*
X13465793Y-10442776D02*
X13456270Y-10452300D01*
X13456270Y-10452300D02*
X13437222Y-10461824D01*
X13437222Y-10461824D02*
X13408650Y-10461824D01*
X13589603Y-10461824D02*
X13570555Y-10452300D01*
X13570555Y-10452300D02*
X13561031Y-10433252D01*
X13561031Y-10433252D02*
X13561031Y-10261824D01*
X13741984Y-10452300D02*
X13722936Y-10461824D01*
X13722936Y-10461824D02*
X13684841Y-10461824D01*
X13684841Y-10461824D02*
X13665793Y-10452300D01*
X13665793Y-10452300D02*
X13656270Y-10433252D01*
X13656270Y-10433252D02*
X13656270Y-10357062D01*
X13656270Y-10357062D02*
X13665793Y-10338014D01*
X13665793Y-10338014D02*
X13684841Y-10328490D01*
X13684841Y-10328490D02*
X13722936Y-10328490D01*
X13722936Y-10328490D02*
X13741984Y-10338014D01*
X13741984Y-10338014D02*
X13751508Y-10357062D01*
X13751508Y-10357062D02*
X13751508Y-10376110D01*
X13751508Y-10376110D02*
X13656270Y-10395157D01*
X13827698Y-10452300D02*
X13846746Y-10461824D01*
X13846746Y-10461824D02*
X13884841Y-10461824D01*
X13884841Y-10461824D02*
X13903889Y-10452300D01*
X13903889Y-10452300D02*
X13913412Y-10433252D01*
X13913412Y-10433252D02*
X13913412Y-10423729D01*
X13913412Y-10423729D02*
X13903889Y-10404681D01*
X13903889Y-10404681D02*
X13884841Y-10395157D01*
X13884841Y-10395157D02*
X13856270Y-10395157D01*
X13856270Y-10395157D02*
X13837222Y-10385633D01*
X13837222Y-10385633D02*
X13827698Y-10366586D01*
X13827698Y-10366586D02*
X13827698Y-10357062D01*
X13827698Y-10357062D02*
X13837222Y-10338014D01*
X13837222Y-10338014D02*
X13856270Y-10328490D01*
X13856270Y-10328490D02*
X13884841Y-10328490D01*
X13884841Y-10328490D02*
X13903889Y-10338014D01*
X13980079Y-10538014D02*
X13989603Y-10528490D01*
X13989603Y-10528490D02*
X14008651Y-10499919D01*
X14008651Y-10499919D02*
X14018174Y-10480871D01*
X14018174Y-10480871D02*
X14027698Y-10452300D01*
X14027698Y-10452300D02*
X14037222Y-10404681D01*
X14037222Y-10404681D02*
X14037222Y-10366586D01*
X14037222Y-10366586D02*
X14027698Y-10318967D01*
X14027698Y-10318967D02*
X14018174Y-10290395D01*
X14018174Y-10290395D02*
X14008651Y-10271348D01*
X14008651Y-10271348D02*
X13989603Y-10242776D01*
X13989603Y-10242776D02*
X13980079Y-10233252D01*
M02*
