G04 #@! TF.GenerationSoftware,KiCad,Pcbnew,7.0.9*
G04 #@! TF.CreationDate,2023-12-28T16:33:31-08:00*
G04 #@! TF.ProjectId,soic breakouts,736f6963-2062-4726-9561-6b6f7574732e,rev?*
G04 #@! TF.SameCoordinates,Original*
G04 #@! TF.FileFunction,Soldermask,Top*
G04 #@! TF.FilePolarity,Negative*
%FSLAX46Y46*%
G04 Gerber Fmt 4.6, Leading zero omitted, Abs format (unit mm)*
G04 Created by KiCad (PCBNEW 7.0.9) date 2023-12-28 16:33:31*
%MOMM*%
%LPD*%
G01*
G04 APERTURE LIST*
G04 Aperture macros list*
%AMRoundRect*
0 Rectangle with rounded corners*
0 $1 Rounding radius*
0 $2 $3 $4 $5 $6 $7 $8 $9 X,Y pos of 4 corners*
0 Add a 4 corners polygon primitive as box body*
4,1,4,$2,$3,$4,$5,$6,$7,$8,$9,$2,$3,0*
0 Add four circle primitives for the rounded corners*
1,1,$1+$1,$2,$3*
1,1,$1+$1,$4,$5*
1,1,$1+$1,$6,$7*
1,1,$1+$1,$8,$9*
0 Add four rect primitives between the rounded corners*
20,1,$1+$1,$2,$3,$4,$5,0*
20,1,$1+$1,$4,$5,$6,$7,0*
20,1,$1+$1,$6,$7,$8,$9,0*
20,1,$1+$1,$8,$9,$2,$3,0*%
G04 Aperture macros list end*
%ADD10C,0.700000*%
%ADD11RoundRect,0.050000X0.850000X0.850000X-0.850000X0.850000X-0.850000X-0.850000X0.850000X-0.850000X0*%
%ADD12O,1.800000X1.800000*%
%ADD13C,1.600000*%
%ADD14RoundRect,0.092000X-0.943000X-0.258000X0.943000X-0.258000X0.943000X0.258000X-0.943000X0.258000X0*%
%ADD15RoundRect,0.050000X-0.850000X-0.850000X0.850000X-0.850000X0.850000X0.850000X-0.850000X0.850000X0*%
%ADD16RoundRect,0.140000X-0.210000X0.895000X-0.210000X-0.895000X0.210000X-0.895000X0.210000X0.895000X0*%
G04 APERTURE END LIST*
D10*
X140335000Y-58928000D03*
X139217400Y-58928000D03*
X128905000Y-58928000D03*
X127787400Y-58928000D03*
X117475000Y-58928000D03*
X116357400Y-58928000D03*
X106045000Y-58928000D03*
X104927400Y-58928000D03*
X94615000Y-58928000D03*
X93497400Y-58928000D03*
X135382000Y-80594200D03*
X135356600Y-72390000D03*
X135356600Y-73660000D03*
X135382000Y-79273400D03*
X135356600Y-71196200D03*
X135382000Y-81762600D03*
X123926600Y-80594200D03*
X123901200Y-72390000D03*
X123901200Y-73660000D03*
X123926600Y-79273400D03*
X123901200Y-71196200D03*
X123926600Y-81762600D03*
X112471200Y-71196200D03*
X112496600Y-80594200D03*
X112471200Y-72390000D03*
X112471200Y-73660000D03*
X112496600Y-79273400D03*
X112496600Y-81762600D03*
X101066600Y-79273400D03*
X101041200Y-73660000D03*
X101066600Y-81762600D03*
X101041200Y-71196200D03*
X101041200Y-72390000D03*
X101066600Y-80594200D03*
D11*
X144830800Y-90678000D03*
D12*
X144830800Y-88138000D03*
X144830800Y-85598000D03*
X144830800Y-83058000D03*
X144830800Y-80518000D03*
X144830800Y-77978000D03*
X144830800Y-75438000D03*
X144830800Y-72898000D03*
D13*
X141097000Y-90601800D03*
D14*
X138419000Y-60477400D03*
X138419000Y-61747400D03*
X138419000Y-63017400D03*
X138419000Y-64287400D03*
X138419000Y-65557400D03*
X138419000Y-66827400D03*
X138419000Y-68097400D03*
X138419000Y-69367400D03*
X143369000Y-69367400D03*
X143369000Y-68097400D03*
X143369000Y-66827400D03*
X143369000Y-65557400D03*
X143369000Y-64287400D03*
X143369000Y-63017400D03*
X143369000Y-61747400D03*
X143369000Y-60477400D03*
D15*
X137210800Y-72898000D03*
D12*
X137210800Y-75438000D03*
X137210800Y-77978000D03*
X137210800Y-80518000D03*
X137210800Y-83058000D03*
X137210800Y-85598000D03*
X137210800Y-88138000D03*
X137210800Y-90678000D03*
D11*
X133400800Y-90678000D03*
D12*
X133400800Y-88138000D03*
X133400800Y-85598000D03*
X133400800Y-83058000D03*
X133400800Y-80518000D03*
X133400800Y-77978000D03*
X133400800Y-75438000D03*
X133400800Y-72898000D03*
D13*
X129667000Y-90601800D03*
D14*
X126989000Y-60477400D03*
X126989000Y-61747400D03*
X126989000Y-63017400D03*
X126989000Y-64287400D03*
X126989000Y-65557400D03*
X126989000Y-66827400D03*
X126989000Y-68097400D03*
X126989000Y-69367400D03*
X131939000Y-69367400D03*
X131939000Y-68097400D03*
X131939000Y-66827400D03*
X131939000Y-65557400D03*
X131939000Y-64287400D03*
X131939000Y-63017400D03*
X131939000Y-61747400D03*
X131939000Y-60477400D03*
D15*
X125780800Y-72898000D03*
D12*
X125780800Y-75438000D03*
X125780800Y-77978000D03*
X125780800Y-80518000D03*
X125780800Y-83058000D03*
X125780800Y-85598000D03*
X125780800Y-88138000D03*
X125780800Y-90678000D03*
X114350800Y-90678000D03*
X114350800Y-88138000D03*
X114350800Y-85598000D03*
X114350800Y-83058000D03*
X114350800Y-80518000D03*
X114350800Y-77978000D03*
X114350800Y-75438000D03*
D15*
X114350800Y-72898000D03*
D13*
X118237000Y-90601800D03*
D12*
X121970800Y-72898000D03*
X121970800Y-75438000D03*
X121970800Y-77978000D03*
X121970800Y-80518000D03*
X121970800Y-83058000D03*
X121970800Y-85598000D03*
X121970800Y-88138000D03*
D11*
X121970800Y-90678000D03*
D14*
X120509000Y-60477400D03*
X120509000Y-61747400D03*
X120509000Y-63017400D03*
X120509000Y-64287400D03*
X120509000Y-65557400D03*
X120509000Y-66827400D03*
X120509000Y-68097400D03*
X120509000Y-69367400D03*
X115559000Y-69367400D03*
X115559000Y-68097400D03*
X115559000Y-66827400D03*
X115559000Y-65557400D03*
X115559000Y-64287400D03*
X115559000Y-63017400D03*
X115559000Y-61747400D03*
X115559000Y-60477400D03*
D15*
X102920800Y-72898000D03*
D12*
X102920800Y-75438000D03*
X102920800Y-77978000D03*
X102920800Y-80518000D03*
X102920800Y-83058000D03*
X102920800Y-85598000D03*
X102920800Y-88138000D03*
X102920800Y-90678000D03*
D13*
X106807000Y-90601800D03*
D11*
X110540800Y-90678000D03*
D12*
X110540800Y-88138000D03*
X110540800Y-85598000D03*
X110540800Y-83058000D03*
X110540800Y-80518000D03*
X110540800Y-77978000D03*
X110540800Y-75438000D03*
X110540800Y-72898000D03*
D14*
X104129000Y-60477400D03*
X104129000Y-61747400D03*
X104129000Y-63017400D03*
X104129000Y-64287400D03*
X104129000Y-65557400D03*
X104129000Y-66827400D03*
X104129000Y-68097400D03*
X104129000Y-69367400D03*
X109079000Y-69367400D03*
X109079000Y-68097400D03*
X109079000Y-66827400D03*
X109079000Y-65557400D03*
X109079000Y-64287400D03*
X109079000Y-63017400D03*
X109079000Y-61747400D03*
X109079000Y-60477400D03*
X97649000Y-60477400D03*
X97649000Y-61747400D03*
X97649000Y-63017400D03*
X97649000Y-64287400D03*
X97649000Y-65557400D03*
X97649000Y-66827400D03*
X97649000Y-68097400D03*
X97649000Y-69367400D03*
X92699000Y-69367400D03*
X92699000Y-68097400D03*
X92699000Y-66827400D03*
X92699000Y-65557400D03*
X92699000Y-64287400D03*
X92699000Y-63017400D03*
X92699000Y-61747400D03*
X92699000Y-60477400D03*
D13*
X95377000Y-90601800D03*
D12*
X91490800Y-90678000D03*
X91490800Y-88138000D03*
X91490800Y-85598000D03*
X91490800Y-83058000D03*
X91490800Y-80518000D03*
X91490800Y-77978000D03*
X91490800Y-75438000D03*
D15*
X91490800Y-72898000D03*
D12*
X99110800Y-72898000D03*
X99110800Y-75438000D03*
X99110800Y-77978000D03*
X99110800Y-80518000D03*
X99110800Y-83058000D03*
X99110800Y-85598000D03*
X99110800Y-88138000D03*
D11*
X99110800Y-90678000D03*
D10*
X101066600Y-48945800D03*
X101041200Y-43332400D03*
X101041200Y-40868600D03*
X101041200Y-42062400D03*
X101066600Y-51435000D03*
X101066600Y-50266600D03*
D13*
X95605600Y-57150000D03*
D15*
X91592400Y-41854200D03*
D12*
X91592400Y-44394200D03*
X91592400Y-46934200D03*
X91592400Y-49474200D03*
X91592400Y-52014200D03*
X91592400Y-54554200D03*
X91592400Y-57094200D03*
X99212400Y-41859200D03*
X99212400Y-44399200D03*
X99212400Y-46939200D03*
X99212400Y-49479200D03*
X99212400Y-52019200D03*
X99212400Y-54559200D03*
D11*
X99212400Y-57099200D03*
D16*
X99328200Y-37781000D03*
X98058200Y-37781000D03*
X96788200Y-37781000D03*
X95518200Y-37781000D03*
X94248200Y-37781000D03*
X92978200Y-37781000D03*
X91708200Y-37781000D03*
X91708200Y-32831000D03*
X92978200Y-32831000D03*
X94248200Y-32831000D03*
X95518200Y-32831000D03*
X96788200Y-32831000D03*
X98058200Y-32831000D03*
X99328200Y-32831000D03*
D10*
X123926600Y-49022000D03*
X123901200Y-43408600D03*
X123901200Y-40944800D03*
X123901200Y-42138600D03*
X123926600Y-51511200D03*
X123926600Y-50342800D03*
X135382000Y-49022000D03*
D15*
X137312400Y-41854200D03*
D12*
X137312400Y-44394200D03*
X137312400Y-46934200D03*
X137312400Y-49474200D03*
X137312400Y-52014200D03*
X137312400Y-54554200D03*
X137312400Y-57094200D03*
D16*
X145048200Y-37781000D03*
X143778200Y-37781000D03*
X142508200Y-37781000D03*
X141238200Y-37781000D03*
X139968200Y-37781000D03*
X138698200Y-37781000D03*
X137428200Y-37781000D03*
X137428200Y-32831000D03*
X138698200Y-32831000D03*
X139968200Y-32831000D03*
X141238200Y-32831000D03*
X142508200Y-32831000D03*
X143778200Y-32831000D03*
X145048200Y-32831000D03*
D12*
X144932400Y-41859200D03*
X144932400Y-44399200D03*
X144932400Y-46939200D03*
X144932400Y-49479200D03*
X144932400Y-52019200D03*
X144932400Y-54559200D03*
D11*
X144932400Y-57099200D03*
D13*
X141325600Y-57150000D03*
X129895600Y-57150000D03*
D15*
X125882400Y-41854200D03*
D12*
X125882400Y-44394200D03*
X125882400Y-46934200D03*
X125882400Y-49474200D03*
X125882400Y-52014200D03*
X125882400Y-54554200D03*
X125882400Y-57094200D03*
X133502400Y-41859200D03*
X133502400Y-44399200D03*
X133502400Y-46939200D03*
X133502400Y-49479200D03*
X133502400Y-52019200D03*
X133502400Y-54559200D03*
D11*
X133502400Y-57099200D03*
D16*
X133618200Y-37781000D03*
X132348200Y-37781000D03*
X131078200Y-37781000D03*
X129808200Y-37781000D03*
X128538200Y-37781000D03*
X127268200Y-37781000D03*
X125998200Y-37781000D03*
X125998200Y-32831000D03*
X127268200Y-32831000D03*
X128538200Y-32831000D03*
X129808200Y-32831000D03*
X131078200Y-32831000D03*
X132348200Y-32831000D03*
X133618200Y-32831000D03*
D10*
X135356600Y-43408600D03*
X135356600Y-40944800D03*
X135356600Y-42138600D03*
X135382000Y-51511200D03*
X135382000Y-50342800D03*
X112496600Y-40944800D03*
X112496600Y-43408600D03*
X112496600Y-42138600D03*
X112522000Y-51511200D03*
X112522000Y-50342800D03*
X112522000Y-49022000D03*
D13*
X118465600Y-57150000D03*
D15*
X114452400Y-41854200D03*
D12*
X114452400Y-44394200D03*
X114452400Y-46934200D03*
X114452400Y-49474200D03*
X114452400Y-52014200D03*
X114452400Y-54554200D03*
X114452400Y-57094200D03*
X122072400Y-41859200D03*
X122072400Y-44399200D03*
X122072400Y-46939200D03*
X122072400Y-49479200D03*
X122072400Y-52019200D03*
X122072400Y-54559200D03*
D11*
X122072400Y-57099200D03*
D16*
X122188200Y-37781000D03*
X120918200Y-37781000D03*
X119648200Y-37781000D03*
X118378200Y-37781000D03*
X117108200Y-37781000D03*
X115838200Y-37781000D03*
X114568200Y-37781000D03*
X114568200Y-32831000D03*
X115838200Y-32831000D03*
X117108200Y-32831000D03*
X118378200Y-32831000D03*
X119648200Y-32831000D03*
X120918200Y-32831000D03*
X122188200Y-32831000D03*
D13*
X107035600Y-57150000D03*
D12*
X110642400Y-41859200D03*
X110642400Y-44399200D03*
X110642400Y-46939200D03*
X110642400Y-49479200D03*
X110642400Y-52019200D03*
X110642400Y-54559200D03*
D11*
X110642400Y-57099200D03*
D15*
X103022400Y-41854200D03*
D12*
X103022400Y-44394200D03*
X103022400Y-46934200D03*
X103022400Y-49474200D03*
X103022400Y-52014200D03*
X103022400Y-54554200D03*
X103022400Y-57094200D03*
D16*
X110758200Y-37781000D03*
X109488200Y-37781000D03*
X108218200Y-37781000D03*
X106948200Y-37781000D03*
X105678200Y-37781000D03*
X104408200Y-37781000D03*
X103138200Y-37781000D03*
X103138200Y-32831000D03*
X104408200Y-32831000D03*
X105678200Y-32831000D03*
X106948200Y-32831000D03*
X108218200Y-32831000D03*
X109488200Y-32831000D03*
X110758200Y-32831000D03*
M02*
