%TF.GenerationSoftware,KiCad,Pcbnew,8.0.5*%
%TF.CreationDate,2024-12-01T20:05:21-08:00*%
%TF.ProjectId,soic,736f6963-2e6b-4696-9361-645f70636258,rev?*%
%TF.SameCoordinates,Original*%
%TF.FileFunction,Paste,Top*%
%TF.FilePolarity,Positive*%
%FSLAX46Y46*%
G04 Gerber Fmt 4.6, Leading zero omitted, Abs format (unit mm)*
G04 Created by KiCad (PCBNEW 8.0.5) date 2024-12-01 20:05:21*
%MOMM*%
%LPD*%
G01*
G04 APERTURE LIST*
G04 Aperture macros list*
%AMRoundRect*
0 Rectangle with rounded corners*
0 $1 Rounding radius*
0 $2 $3 $4 $5 $6 $7 $8 $9 X,Y pos of 4 corners*
0 Add a 4 corners polygon primitive as box body*
4,1,4,$2,$3,$4,$5,$6,$7,$8,$9,$2,$3,0*
0 Add four circle primitives for the rounded corners*
1,1,$1+$1,$2,$3*
1,1,$1+$1,$4,$5*
1,1,$1+$1,$6,$7*
1,1,$1+$1,$8,$9*
0 Add four rect primitives between the rounded corners*
20,1,$1+$1,$2,$3,$4,$5,0*
20,1,$1+$1,$4,$5,$6,$7,0*
20,1,$1+$1,$6,$7,$8,$9,0*
20,1,$1+$1,$8,$9,$2,$3,0*%
G04 Aperture macros list end*
%ADD10RoundRect,0.090000X-0.210000X0.895000X-0.210000X-0.895000X0.210000X-0.895000X0.210000X0.895000X0*%
%ADD11RoundRect,0.042000X-0.943000X-0.258000X0.943000X-0.258000X0.943000X0.258000X-0.943000X0.258000X0*%
G04 APERTURE END LIST*
D10*
%TO.C,U1*%
X108382400Y-52351000D03*
X107112400Y-52351000D03*
X105842400Y-52351000D03*
X104572400Y-52351000D03*
X103302400Y-52351000D03*
X102032400Y-52351000D03*
X100762400Y-52351000D03*
X100762400Y-57301000D03*
X102032400Y-57301000D03*
X103302400Y-57301000D03*
X104572400Y-57301000D03*
X105842400Y-57301000D03*
X107112400Y-57301000D03*
X108382400Y-57301000D03*
%TD*%
D11*
%TO.C,U2*%
X64816000Y-80880400D03*
X64816000Y-82150400D03*
X64816000Y-83420400D03*
X64816000Y-84690400D03*
X64816000Y-85960400D03*
X64816000Y-87230400D03*
X64816000Y-88500400D03*
X64816000Y-89770400D03*
X69766000Y-89770400D03*
X69766000Y-88500400D03*
X69766000Y-87230400D03*
X69766000Y-85960400D03*
X69766000Y-84690400D03*
X69766000Y-83420400D03*
X69766000Y-82150400D03*
X69766000Y-80880400D03*
%TD*%
D10*
%TO.C,U1*%
X133007200Y-52351000D03*
X131737200Y-52351000D03*
X130467200Y-52351000D03*
X129197200Y-52351000D03*
X127927200Y-52351000D03*
X126657200Y-52351000D03*
X125387200Y-52351000D03*
X125387200Y-57301000D03*
X126657200Y-57301000D03*
X127927200Y-57301000D03*
X129197200Y-57301000D03*
X130467200Y-57301000D03*
X131737200Y-57301000D03*
X133007200Y-57301000D03*
%TD*%
D11*
%TO.C,U3*%
X138872900Y-115516400D03*
X138872900Y-116786400D03*
X138872900Y-118056400D03*
X138872900Y-119326400D03*
X143812900Y-119326400D03*
X143812900Y-118056400D03*
X143812900Y-116786400D03*
X143812900Y-115516400D03*
%TD*%
%TO.C,U2*%
X52503600Y-80880400D03*
X52503600Y-82150400D03*
X52503600Y-83420400D03*
X52503600Y-84690400D03*
X52503600Y-85960400D03*
X52503600Y-87230400D03*
X52503600Y-88500400D03*
X52503600Y-89770400D03*
X57453600Y-89770400D03*
X57453600Y-88500400D03*
X57453600Y-87230400D03*
X57453600Y-85960400D03*
X57453600Y-84690400D03*
X57453600Y-83420400D03*
X57453600Y-82150400D03*
X57453600Y-80880400D03*
%TD*%
D10*
%TO.C,U1*%
X120694800Y-52351000D03*
X119424800Y-52351000D03*
X118154800Y-52351000D03*
X116884800Y-52351000D03*
X115614800Y-52351000D03*
X114344800Y-52351000D03*
X113074800Y-52351000D03*
X113074800Y-57301000D03*
X114344800Y-57301000D03*
X115614800Y-57301000D03*
X116884800Y-57301000D03*
X118154800Y-57301000D03*
X119424800Y-57301000D03*
X120694800Y-57301000D03*
%TD*%
D11*
%TO.C,U3*%
X126560500Y-115516400D03*
X126560500Y-116786400D03*
X126560500Y-118056400D03*
X126560500Y-119326400D03*
X131500500Y-119326400D03*
X131500500Y-118056400D03*
X131500500Y-116786400D03*
X131500500Y-115516400D03*
%TD*%
D10*
%TO.C,U1*%
X71445200Y-52351000D03*
X70175200Y-52351000D03*
X68905200Y-52351000D03*
X67635200Y-52351000D03*
X66365200Y-52351000D03*
X65095200Y-52351000D03*
X63825200Y-52351000D03*
X63825200Y-57301000D03*
X65095200Y-57301000D03*
X66365200Y-57301000D03*
X67635200Y-57301000D03*
X68905200Y-57301000D03*
X70175200Y-57301000D03*
X71445200Y-57301000D03*
%TD*%
D11*
%TO.C,U3*%
X89623300Y-115516400D03*
X89623300Y-116786400D03*
X89623300Y-118056400D03*
X89623300Y-119326400D03*
X94563300Y-119326400D03*
X94563300Y-118056400D03*
X94563300Y-116786400D03*
X94563300Y-115516400D03*
%TD*%
%TO.C,U2*%
X138690400Y-80880400D03*
X138690400Y-82150400D03*
X138690400Y-83420400D03*
X138690400Y-84690400D03*
X138690400Y-85960400D03*
X138690400Y-87230400D03*
X138690400Y-88500400D03*
X138690400Y-89770400D03*
X143640400Y-89770400D03*
X143640400Y-88500400D03*
X143640400Y-87230400D03*
X143640400Y-85960400D03*
X143640400Y-84690400D03*
X143640400Y-83420400D03*
X143640400Y-82150400D03*
X143640400Y-80880400D03*
%TD*%
%TO.C,U3*%
X64998500Y-115516400D03*
X64998500Y-116786400D03*
X64998500Y-118056400D03*
X64998500Y-119326400D03*
X69938500Y-119326400D03*
X69938500Y-118056400D03*
X69938500Y-116786400D03*
X69938500Y-115516400D03*
%TD*%
%TO.C,U3*%
X101935700Y-115516400D03*
X101935700Y-116786400D03*
X101935700Y-118056400D03*
X101935700Y-119326400D03*
X106875700Y-119326400D03*
X106875700Y-118056400D03*
X106875700Y-116786400D03*
X106875700Y-115516400D03*
%TD*%
%TO.C,U3*%
X114248100Y-115516400D03*
X114248100Y-116786400D03*
X114248100Y-118056400D03*
X114248100Y-119326400D03*
X119188100Y-119326400D03*
X119188100Y-118056400D03*
X119188100Y-116786400D03*
X119188100Y-115516400D03*
%TD*%
%TO.C,U3*%
X77310900Y-115516400D03*
X77310900Y-116786400D03*
X77310900Y-118056400D03*
X77310900Y-119326400D03*
X82250900Y-119326400D03*
X82250900Y-118056400D03*
X82250900Y-116786400D03*
X82250900Y-115516400D03*
%TD*%
%TO.C,U2*%
X101753200Y-80880400D03*
X101753200Y-82150400D03*
X101753200Y-83420400D03*
X101753200Y-84690400D03*
X101753200Y-85960400D03*
X101753200Y-87230400D03*
X101753200Y-88500400D03*
X101753200Y-89770400D03*
X106703200Y-89770400D03*
X106703200Y-88500400D03*
X106703200Y-87230400D03*
X106703200Y-85960400D03*
X106703200Y-84690400D03*
X106703200Y-83420400D03*
X106703200Y-82150400D03*
X106703200Y-80880400D03*
%TD*%
D10*
%TO.C,U1*%
X59132800Y-52351000D03*
X57862800Y-52351000D03*
X56592800Y-52351000D03*
X55322800Y-52351000D03*
X54052800Y-52351000D03*
X52782800Y-52351000D03*
X51512800Y-52351000D03*
X51512800Y-57301000D03*
X52782800Y-57301000D03*
X54052800Y-57301000D03*
X55322800Y-57301000D03*
X56592800Y-57301000D03*
X57862800Y-57301000D03*
X59132800Y-57301000D03*
%TD*%
D11*
%TO.C,U2*%
X77128400Y-80880400D03*
X77128400Y-82150400D03*
X77128400Y-83420400D03*
X77128400Y-84690400D03*
X77128400Y-85960400D03*
X77128400Y-87230400D03*
X77128400Y-88500400D03*
X77128400Y-89770400D03*
X82078400Y-89770400D03*
X82078400Y-88500400D03*
X82078400Y-87230400D03*
X82078400Y-85960400D03*
X82078400Y-84690400D03*
X82078400Y-83420400D03*
X82078400Y-82150400D03*
X82078400Y-80880400D03*
%TD*%
%TO.C,U3*%
X52686100Y-115516400D03*
X52686100Y-116786400D03*
X52686100Y-118056400D03*
X52686100Y-119326400D03*
X57626100Y-119326400D03*
X57626100Y-118056400D03*
X57626100Y-116786400D03*
X57626100Y-115516400D03*
%TD*%
D10*
%TO.C,U1*%
X83757600Y-52351000D03*
X82487600Y-52351000D03*
X81217600Y-52351000D03*
X79947600Y-52351000D03*
X78677600Y-52351000D03*
X77407600Y-52351000D03*
X76137600Y-52351000D03*
X76137600Y-57301000D03*
X77407600Y-57301000D03*
X78677600Y-57301000D03*
X79947600Y-57301000D03*
X81217600Y-57301000D03*
X82487600Y-57301000D03*
X83757600Y-57301000D03*
%TD*%
%TO.C,U1*%
X96070000Y-52351000D03*
X94800000Y-52351000D03*
X93530000Y-52351000D03*
X92260000Y-52351000D03*
X90990000Y-52351000D03*
X89720000Y-52351000D03*
X88450000Y-52351000D03*
X88450000Y-57301000D03*
X89720000Y-57301000D03*
X90990000Y-57301000D03*
X92260000Y-57301000D03*
X93530000Y-57301000D03*
X94800000Y-57301000D03*
X96070000Y-57301000D03*
%TD*%
%TO.C,U1*%
X145319600Y-52351000D03*
X144049600Y-52351000D03*
X142779600Y-52351000D03*
X141509600Y-52351000D03*
X140239600Y-52351000D03*
X138969600Y-52351000D03*
X137699600Y-52351000D03*
X137699600Y-57301000D03*
X138969600Y-57301000D03*
X140239600Y-57301000D03*
X141509600Y-57301000D03*
X142779600Y-57301000D03*
X144049600Y-57301000D03*
X145319600Y-57301000D03*
%TD*%
D11*
%TO.C,U2*%
X114065600Y-80880400D03*
X114065600Y-82150400D03*
X114065600Y-83420400D03*
X114065600Y-84690400D03*
X114065600Y-85960400D03*
X114065600Y-87230400D03*
X114065600Y-88500400D03*
X114065600Y-89770400D03*
X119015600Y-89770400D03*
X119015600Y-88500400D03*
X119015600Y-87230400D03*
X119015600Y-85960400D03*
X119015600Y-84690400D03*
X119015600Y-83420400D03*
X119015600Y-82150400D03*
X119015600Y-80880400D03*
%TD*%
%TO.C,U2*%
X126378000Y-80880400D03*
X126378000Y-82150400D03*
X126378000Y-83420400D03*
X126378000Y-84690400D03*
X126378000Y-85960400D03*
X126378000Y-87230400D03*
X126378000Y-88500400D03*
X126378000Y-89770400D03*
X131328000Y-89770400D03*
X131328000Y-88500400D03*
X131328000Y-87230400D03*
X131328000Y-85960400D03*
X131328000Y-84690400D03*
X131328000Y-83420400D03*
X131328000Y-82150400D03*
X131328000Y-80880400D03*
%TD*%
%TO.C,U2*%
X89440800Y-80880400D03*
X89440800Y-82150400D03*
X89440800Y-83420400D03*
X89440800Y-84690400D03*
X89440800Y-85960400D03*
X89440800Y-87230400D03*
X89440800Y-88500400D03*
X89440800Y-89770400D03*
X94390800Y-89770400D03*
X94390800Y-88500400D03*
X94390800Y-87230400D03*
X94390800Y-85960400D03*
X94390800Y-84690400D03*
X94390800Y-83420400D03*
X94390800Y-82150400D03*
X94390800Y-80880400D03*
%TD*%
M02*
