M48
; DRILL file {KiCad 8.0.5} date 2024-12-01T20:05:31-0800
; FORMAT={-:-/ absolute / metric / decimal}
; #@! TF.CreationDate,2024-12-01T20:05:31-08:00
; #@! TF.GenerationSoftware,Kicad,Pcbnew,8.0.5
; #@! TF.FileFunction,Plated,1,2,PTH
FMAT,2
METRIC
; #@! TA.AperFunction,Plated,PTH,ViaDrill
T1C0.400
; #@! TA.AperFunction,Plated,PTH,ComponentDrill
T2C1.000
; #@! TA.AperFunction,Plated,PTH,ComponentDrill
T3C1.143
%
G90
G05
T1
X51.626Y-55.588
X51.829Y-54.216
X52.697Y-54.751
X53.311Y-61.19
X53.353Y-106.255
X53.404Y-77.115
X53.428Y-62.183
X53.581Y-69.964
X53.694Y-54.833
X53.71Y-105.321
X53.835Y-68.313
X53.835Y-72.809
X54.08Y-103.398
X54.293Y-127.454
X54.457Y-98.128
X54.467Y-62.169
X54.544Y-63.166
X54.544Y-66.027
X54.597Y-99.753
X54.685Y-67.323
X54.693Y-54.834
X54.978Y-82.481
X55.021Y-101.404
X55.182Y-115.897
X55.693Y-54.834
X55.74Y-64.783
X55.944Y-125.041
X56.488Y-103.817
X56.528Y-100.286
X56.717Y-127.124
X57.29Y-102.674
X57.29Y-105.569
X59.068Y-54.623
X63.938Y-55.588
X64.141Y-54.216
X65.01Y-54.751
X65.624Y-61.19
X65.665Y-106.255
X65.716Y-77.115
X65.741Y-62.183
X65.894Y-69.964
X66.006Y-54.833
X66.022Y-105.321
X66.148Y-68.313
X66.148Y-72.809
X66.393Y-103.398
X66.605Y-127.454
X66.769Y-98.128
X66.779Y-62.169
X66.856Y-63.166
X66.856Y-66.027
X66.91Y-99.753
X66.997Y-67.323
X67.005Y-54.834
X67.291Y-82.481
X67.333Y-101.404
X67.494Y-115.897
X68.005Y-54.834
X68.053Y-64.783
X68.256Y-125.041
X68.801Y-103.817
X68.84Y-100.286
X69.03Y-127.124
X69.602Y-102.674
X69.602Y-105.569
X71.38Y-54.623
X76.25Y-55.588
X76.454Y-54.216
X77.322Y-54.751
X77.936Y-61.19
X77.978Y-106.255
X78.028Y-77.115
X78.053Y-62.183
X78.206Y-69.964
X78.318Y-54.833
X78.335Y-105.321
X78.46Y-68.313
X78.46Y-72.809
X78.705Y-103.398
X78.917Y-127.454
X79.082Y-98.128
X79.091Y-62.169
X79.169Y-63.166
X79.169Y-66.027
X79.222Y-99.753
X79.31Y-67.323
X79.318Y-54.834
X79.603Y-82.481
X79.645Y-101.404
X79.806Y-115.897
X80.317Y-54.834
X80.365Y-64.783
X80.568Y-125.041
X81.113Y-103.817
X81.153Y-100.286
X81.342Y-127.124
X81.915Y-102.674
X81.915Y-105.569
X83.693Y-54.623
X88.563Y-55.588
X88.766Y-54.216
X89.635Y-54.751
X90.248Y-61.19
X90.29Y-106.255
X90.341Y-77.115
X90.365Y-62.183
X90.519Y-69.964
X90.631Y-54.833
X90.647Y-105.321
X90.773Y-68.313
X90.773Y-72.809
X91.018Y-103.398
X91.23Y-127.454
X91.394Y-98.128
X91.404Y-62.169
X91.481Y-63.166
X91.481Y-66.027
X91.535Y-99.753
X91.622Y-67.323
X91.63Y-54.834
X91.916Y-82.481
X91.958Y-101.404
X92.119Y-115.897
X92.63Y-54.834
X92.678Y-64.783
X92.881Y-125.041
X93.425Y-103.817
X93.465Y-100.286
X93.654Y-127.124
X94.227Y-102.674
X94.227Y-105.569
X96.005Y-54.623
X100.875Y-55.588
X101.078Y-54.216
X101.947Y-54.751
X102.561Y-61.19
X102.602Y-106.255
X102.653Y-77.115
X102.678Y-62.183
X102.831Y-69.964
X102.943Y-54.833
X102.959Y-105.321
X103.085Y-68.313
X103.085Y-72.809
X103.33Y-103.398
X103.542Y-127.454
X103.706Y-98.128
X103.716Y-62.169
X103.793Y-63.166
X103.793Y-66.027
X103.847Y-99.753
X103.934Y-67.323
X103.943Y-54.834
X104.228Y-82.481
X104.27Y-101.404
X104.431Y-115.897
X104.942Y-54.834
X104.99Y-64.783
X105.193Y-125.041
X105.738Y-103.817
X105.777Y-100.286
X105.967Y-127.124
X106.539Y-102.674
X106.539Y-105.569
X108.317Y-54.623
X113.188Y-55.588
X113.391Y-54.216
X114.259Y-54.751
X114.873Y-61.19
X114.915Y-106.255
X114.966Y-77.115
X114.99Y-62.183
X115.143Y-69.964
X115.256Y-54.833
X115.272Y-105.321
X115.397Y-68.313
X115.397Y-72.809
X115.642Y-103.398
X115.855Y-127.454
X116.019Y-98.128
X116.029Y-62.169
X116.106Y-63.166
X116.106Y-66.027
X116.159Y-99.753
X116.247Y-67.323
X116.255Y-54.834
X116.54Y-82.481
X116.583Y-101.404
X116.744Y-115.897
X117.255Y-54.834
X117.302Y-64.783
X117.506Y-125.041
X118.05Y-103.817
X118.09Y-100.286
X118.279Y-127.124
X118.852Y-102.674
X118.852Y-105.569
X120.63Y-54.623
X125.5Y-55.588
X125.703Y-54.216
X126.572Y-54.751
X127.186Y-61.19
X127.227Y-106.255
X127.278Y-77.115
X127.303Y-62.183
X127.456Y-69.964
X127.568Y-54.833
X127.584Y-105.321
X127.71Y-68.313
X127.71Y-72.809
X127.955Y-103.398
X128.167Y-127.454
X128.331Y-98.128
X128.341Y-62.169
X128.418Y-63.166
X128.418Y-66.027
X128.472Y-99.753
X128.559Y-67.323
X128.567Y-54.834
X128.853Y-82.481
X128.895Y-101.404
X129.056Y-115.897
X129.567Y-54.834
X129.615Y-64.783
X129.818Y-125.041
X130.363Y-103.817
X130.402Y-100.286
X130.592Y-127.124
X131.164Y-102.674
X131.164Y-105.569
X132.942Y-54.623
X137.812Y-55.588
X138.016Y-54.216
X138.884Y-54.751
X139.498Y-61.19
X139.54Y-106.255
X139.59Y-77.115
X139.615Y-62.183
X139.768Y-69.964
X139.88Y-54.833
X139.897Y-105.321
X140.022Y-68.313
X140.022Y-72.809
X140.267Y-103.398
X140.479Y-127.454
X140.644Y-98.128
X140.653Y-62.169
X140.731Y-63.166
X140.731Y-66.027
X140.784Y-99.753
X140.872Y-67.323
X140.88Y-54.834
X141.165Y-82.481
X141.207Y-101.404
X141.368Y-115.897
X141.879Y-54.834
X141.927Y-64.783
X142.13Y-125.041
X142.675Y-103.817
X142.715Y-100.286
X142.904Y-127.124
X143.477Y-102.674
X143.477Y-105.569
X145.255Y-54.623
T2
X51.295Y-93.301
X51.295Y-95.841
X51.295Y-98.381
X51.295Y-100.921
X51.295Y-103.461
X51.295Y-106.001
X51.295Y-108.541
X51.295Y-111.081
X51.346Y-122.755
X51.346Y-125.295
X51.346Y-127.835
X51.346Y-130.375
X51.397Y-61.374
X51.397Y-63.914
X51.397Y-66.454
X51.397Y-68.994
X51.397Y-71.534
X51.397Y-74.074
X51.397Y-76.614
X58.915Y-93.301
X58.915Y-95.841
X58.915Y-98.381
X58.915Y-100.921
X58.915Y-103.461
X58.915Y-106.001
X58.915Y-108.541
X58.915Y-111.081
X58.966Y-122.755
X58.966Y-125.295
X58.966Y-127.835
X58.966Y-130.375
X59.017Y-61.379
X59.017Y-63.919
X59.017Y-66.459
X59.017Y-68.999
X59.017Y-71.539
X59.017Y-74.079
X59.017Y-76.619
X63.608Y-93.301
X63.608Y-95.841
X63.608Y-98.381
X63.608Y-100.921
X63.608Y-103.461
X63.608Y-106.001
X63.608Y-108.541
X63.608Y-111.081
X63.658Y-122.755
X63.658Y-125.295
X63.658Y-127.835
X63.658Y-130.375
X63.709Y-61.374
X63.709Y-63.914
X63.709Y-66.454
X63.709Y-68.994
X63.709Y-71.534
X63.709Y-74.074
X63.709Y-76.614
X71.228Y-93.301
X71.228Y-95.841
X71.228Y-98.381
X71.228Y-100.921
X71.228Y-103.461
X71.228Y-106.001
X71.228Y-108.541
X71.228Y-111.081
X71.278Y-122.755
X71.278Y-125.295
X71.278Y-127.835
X71.278Y-130.375
X71.329Y-61.379
X71.329Y-63.919
X71.329Y-66.459
X71.329Y-68.999
X71.329Y-71.539
X71.329Y-74.079
X71.329Y-76.619
X75.92Y-93.301
X75.92Y-95.841
X75.92Y-98.381
X75.92Y-100.921
X75.92Y-103.461
X75.92Y-106.001
X75.92Y-108.541
X75.92Y-111.081
X75.971Y-122.755
X75.971Y-125.295
X75.971Y-127.835
X75.971Y-130.375
X76.022Y-61.374
X76.022Y-63.914
X76.022Y-66.454
X76.022Y-68.994
X76.022Y-71.534
X76.022Y-74.074
X76.022Y-76.614
X83.54Y-93.301
X83.54Y-95.841
X83.54Y-98.381
X83.54Y-100.921
X83.54Y-103.461
X83.54Y-106.001
X83.54Y-108.541
X83.54Y-111.081
X83.591Y-122.755
X83.591Y-125.295
X83.591Y-127.835
X83.591Y-130.375
X83.642Y-61.379
X83.642Y-63.919
X83.642Y-66.459
X83.642Y-68.999
X83.642Y-71.539
X83.642Y-74.079
X83.642Y-76.619
X88.233Y-93.301
X88.233Y-95.841
X88.233Y-98.381
X88.233Y-100.921
X88.233Y-103.461
X88.233Y-106.001
X88.233Y-108.541
X88.233Y-111.081
X88.283Y-122.755
X88.283Y-125.295
X88.283Y-127.835
X88.283Y-130.375
X88.334Y-61.374
X88.334Y-63.914
X88.334Y-66.454
X88.334Y-68.994
X88.334Y-71.534
X88.334Y-74.074
X88.334Y-76.614
X95.853Y-93.301
X95.853Y-95.841
X95.853Y-98.381
X95.853Y-100.921
X95.853Y-103.461
X95.853Y-106.001
X95.853Y-108.541
X95.853Y-111.081
X95.903Y-122.755
X95.903Y-125.295
X95.903Y-127.835
X95.903Y-130.375
X95.954Y-61.379
X95.954Y-63.919
X95.954Y-66.459
X95.954Y-68.999
X95.954Y-71.539
X95.954Y-74.079
X95.954Y-76.619
X100.545Y-93.301
X100.545Y-95.841
X100.545Y-98.381
X100.545Y-100.921
X100.545Y-103.461
X100.545Y-106.001
X100.545Y-108.541
X100.545Y-111.081
X100.596Y-122.755
X100.596Y-125.295
X100.596Y-127.835
X100.596Y-130.375
X100.647Y-61.374
X100.647Y-63.914
X100.647Y-66.454
X100.647Y-68.994
X100.647Y-71.534
X100.647Y-74.074
X100.647Y-76.614
X108.165Y-93.301
X108.165Y-95.841
X108.165Y-98.381
X108.165Y-100.921
X108.165Y-103.461
X108.165Y-106.001
X108.165Y-108.541
X108.165Y-111.081
X108.216Y-122.755
X108.216Y-125.295
X108.216Y-127.835
X108.216Y-130.375
X108.267Y-61.379
X108.267Y-63.919
X108.267Y-66.459
X108.267Y-68.999
X108.267Y-71.539
X108.267Y-74.079
X108.267Y-76.619
X112.857Y-93.301
X112.857Y-95.841
X112.857Y-98.381
X112.857Y-100.921
X112.857Y-103.461
X112.857Y-106.001
X112.857Y-108.541
X112.857Y-111.081
X112.908Y-122.755
X112.908Y-125.295
X112.908Y-127.835
X112.908Y-130.375
X112.959Y-61.374
X112.959Y-63.914
X112.959Y-66.454
X112.959Y-68.994
X112.959Y-71.534
X112.959Y-74.074
X112.959Y-76.614
X120.477Y-93.301
X120.477Y-95.841
X120.477Y-98.381
X120.477Y-100.921
X120.477Y-103.461
X120.477Y-106.001
X120.477Y-108.541
X120.477Y-111.081
X120.528Y-122.755
X120.528Y-125.295
X120.528Y-127.835
X120.528Y-130.375
X120.579Y-61.379
X120.579Y-63.919
X120.579Y-66.459
X120.579Y-68.999
X120.579Y-71.539
X120.579Y-74.079
X120.579Y-76.619
X125.17Y-93.301
X125.17Y-95.841
X125.17Y-98.381
X125.17Y-100.921
X125.17Y-103.461
X125.17Y-106.001
X125.17Y-108.541
X125.17Y-111.081
X125.221Y-122.755
X125.221Y-125.295
X125.221Y-127.835
X125.221Y-130.375
X125.271Y-61.374
X125.271Y-63.914
X125.271Y-66.454
X125.271Y-68.994
X125.271Y-71.534
X125.271Y-74.074
X125.271Y-76.614
X132.79Y-93.301
X132.79Y-95.841
X132.79Y-98.381
X132.79Y-100.921
X132.79Y-103.461
X132.79Y-106.001
X132.79Y-108.541
X132.79Y-111.081
X132.84Y-122.755
X132.84Y-125.295
X132.84Y-127.835
X132.84Y-130.375
X132.891Y-61.379
X132.891Y-63.919
X132.891Y-66.459
X132.891Y-68.999
X132.891Y-71.539
X132.891Y-74.079
X132.891Y-76.619
X137.482Y-93.301
X137.482Y-95.841
X137.482Y-98.381
X137.482Y-100.921
X137.482Y-103.461
X137.482Y-106.001
X137.482Y-108.541
X137.482Y-111.081
X137.533Y-122.755
X137.533Y-125.295
X137.533Y-127.835
X137.533Y-130.375
X137.584Y-61.374
X137.584Y-63.914
X137.584Y-66.454
X137.584Y-68.994
X137.584Y-71.534
X137.584Y-74.074
X137.584Y-76.614
X145.102Y-93.301
X145.102Y-95.841
X145.102Y-98.381
X145.102Y-100.921
X145.102Y-103.461
X145.102Y-106.001
X145.102Y-108.541
X145.102Y-111.081
X145.153Y-122.755
X145.153Y-125.295
X145.153Y-127.835
X145.153Y-130.375
X145.204Y-61.379
X145.204Y-63.919
X145.204Y-66.459
X145.204Y-68.999
X145.204Y-71.539
X145.204Y-74.079
X145.204Y-76.619
T3
X55.182Y-111.005
X55.182Y-130.198
X55.41Y-76.67
X67.494Y-111.005
X67.494Y-130.198
X67.723Y-76.67
X79.806Y-111.005
X79.806Y-130.198
X80.035Y-76.67
X92.119Y-111.005
X92.119Y-130.198
X92.347Y-76.67
X104.431Y-111.005
X104.431Y-130.198
X104.66Y-76.67
X116.744Y-111.005
X116.744Y-130.198
X116.972Y-76.67
X129.056Y-111.005
X129.056Y-130.198
X129.285Y-76.67
X141.368Y-111.005
X141.368Y-130.198
X141.597Y-76.67
M30
