%TF.GenerationSoftware,KiCad,Pcbnew,8.0.5*%
%TF.CreationDate,2024-12-01T20:05:21-08:00*%
%TF.ProjectId,soic,736f6963-2e6b-4696-9361-645f70636258,rev?*%
%TF.SameCoordinates,Original*%
%TF.FileFunction,Soldermask,Bot*%
%TF.FilePolarity,Negative*%
%FSLAX46Y46*%
G04 Gerber Fmt 4.6, Leading zero omitted, Abs format (unit mm)*
G04 Created by KiCad (PCBNEW 8.0.5) date 2024-12-01 20:05:21*
%MOMM*%
%LPD*%
G01*
G04 APERTURE LIST*
%ADD10C,0.500000*%
%ADD11O,1.700000X1.700000*%
%ADD12R,1.700000X1.700000*%
%ADD13C,1.500000*%
%ADD14C,2.000000*%
G04 APERTURE END LIST*
D10*
%TO.C,KiKit_MB_25_4*%
X102155800Y-78040200D03*
%TD*%
%TO.C,KiKit_MB_47_9*%
X142843000Y-131796353D03*
%TD*%
%TO.C,KiKit_MB_34_6*%
X115968200Y-79790200D03*
%TD*%
%TO.C,KiKit_MB_27_9*%
X105905800Y-112501400D03*
%TD*%
%TO.C,KiKit_MB_19_5*%
X90593400Y-78040200D03*
%TD*%
%TO.C,KiKit_MB_39_7*%
X129030600Y-112501400D03*
%TD*%
D11*
%TO.C,J2*%
X120579000Y-76619200D03*
X120579000Y-74079200D03*
X120579000Y-71539200D03*
X120579000Y-68999200D03*
X120579000Y-66459200D03*
X120579000Y-63919200D03*
X120579000Y-61379200D03*
%TD*%
D10*
%TO.C,KiKit_MB_42_5*%
X127530600Y-114251400D03*
%TD*%
%TO.C,KiKit_MB_48_10*%
X143593000Y-114251400D03*
%TD*%
%TO.C,KiKit_MB_10_10*%
X69718600Y-79790200D03*
%TD*%
%TO.C,KiKit_MB_29_8*%
X105155800Y-131796353D03*
%TD*%
%TO.C,KiKit_MB_45_10*%
X143593000Y-112501400D03*
%TD*%
%TO.C,KiKit_MB_4_4*%
X52906200Y-79790200D03*
%TD*%
%TO.C,KiKit_MB_40_7*%
X129030600Y-79790200D03*
%TD*%
%TO.C,KiKit_MB_43_6*%
X140593000Y-78040200D03*
%TD*%
%TO.C,KiKit_MB_24_7*%
X92093400Y-114251400D03*
%TD*%
D11*
%TO.C,J2*%
X95954200Y-76619200D03*
X95954200Y-74079200D03*
X95954200Y-71539200D03*
X95954200Y-68999200D03*
X95954200Y-66459200D03*
X95954200Y-63919200D03*
X95954200Y-61379200D03*
%TD*%
D10*
%TO.C,KiKit_MB_17_10*%
X82031000Y-131796353D03*
%TD*%
D12*
%TO.C,J4*%
X137482200Y-93301000D03*
D11*
X137482200Y-95841000D03*
X137482200Y-98381000D03*
X137482200Y-100921000D03*
X137482200Y-103461000D03*
X137482200Y-106001000D03*
X137482200Y-108541000D03*
X137482200Y-111081000D03*
%TD*%
D10*
%TO.C,KiKit_MB_45_8*%
X142093000Y-112501400D03*
%TD*%
%TO.C,KiKit_MB_8_9*%
X68968600Y-49875000D03*
%TD*%
%TO.C,KiKit_MB_12_5*%
X65968600Y-114251400D03*
%TD*%
%TO.C,KiKit_MB_6_9*%
X56656200Y-114251400D03*
%TD*%
%TO.C,KiKit_MB_45_5*%
X139843000Y-112501400D03*
%TD*%
%TO.C,KiKit_MB_29_10*%
X106655800Y-131796353D03*
%TD*%
%TO.C,KiKit_MB_5_6*%
X54406200Y-131796353D03*
%TD*%
%TO.C,KiKit_MB_20_5*%
X90593400Y-49875000D03*
%TD*%
%TO.C,KiKit_MB_23_6*%
X91343400Y-131796353D03*
%TD*%
%TO.C,KiKit_MB_24_10*%
X94343400Y-114251400D03*
%TD*%
%TO.C,KiKit_MB_9_5*%
X65968600Y-112501400D03*
%TD*%
%TO.C,KiKit_MB_5_5*%
X53656200Y-131796353D03*
%TD*%
%TO.C,KiKit_MB_13_6*%
X79031000Y-78040200D03*
%TD*%
%TO.C,KiKit_MB_31_8*%
X117468200Y-78040200D03*
%TD*%
%TO.C,KiKit_MB_22_6*%
X91343400Y-79790200D03*
%TD*%
%TO.C,KiKit_MB_32_8*%
X117468200Y-49875000D03*
%TD*%
%TO.C,KiKit_MB_30_7*%
X104405800Y-114251400D03*
%TD*%
D12*
%TO.C,J4*%
X63607800Y-93301000D03*
D11*
X63607800Y-95841000D03*
X63607800Y-98381000D03*
X63607800Y-100921000D03*
X63607800Y-103461000D03*
X63607800Y-106001000D03*
X63607800Y-108541000D03*
X63607800Y-111081000D03*
%TD*%
D12*
%TO.C,J1*%
X88334200Y-61374200D03*
D11*
X88334200Y-63914200D03*
X88334200Y-66454200D03*
X88334200Y-68994200D03*
X88334200Y-71534200D03*
X88334200Y-74074200D03*
X88334200Y-76614200D03*
%TD*%
D10*
%TO.C,KiKit_MB_21_6*%
X91343400Y-112501400D03*
%TD*%
%TO.C,KiKit_MB_25_10*%
X106655800Y-78040200D03*
%TD*%
D11*
%TO.C,J5*%
X108165000Y-111081000D03*
X108165000Y-108541000D03*
X108165000Y-106001000D03*
X108165000Y-103461000D03*
X108165000Y-100921000D03*
X108165000Y-98381000D03*
X108165000Y-95841000D03*
X108165000Y-93301000D03*
%TD*%
D10*
%TO.C,KiKit_MB_31_7*%
X116718200Y-78040200D03*
%TD*%
D13*
%TO.C,J7*%
X92118800Y-130197600D03*
%TD*%
D10*
%TO.C,KiKit_MB_34_9*%
X118218200Y-79790200D03*
%TD*%
%TO.C,KiKit_MB_41_8*%
X129780600Y-131796353D03*
%TD*%
%TO.C,KiKit_MB_47_7*%
X141343000Y-131796353D03*
%TD*%
%TO.C,KiKit_MB_21_8*%
X92843400Y-112501400D03*
%TD*%
%TO.C,KiKit_MB_15_7*%
X79781000Y-112501400D03*
%TD*%
%TO.C,KiKit_MB_10_8*%
X68218600Y-79790200D03*
%TD*%
%TO.C,KiKit_MB_42_9*%
X130530600Y-114251400D03*
%TD*%
%TO.C,KiKit_MB_18_4*%
X77531000Y-114251400D03*
%TD*%
%TO.C,KiKit_MB_15_10*%
X82031000Y-112501400D03*
%TD*%
D11*
%TO.C,J8*%
X120528100Y-122755400D03*
X120528100Y-125295400D03*
X120528100Y-127835400D03*
X120528100Y-130375400D03*
%TD*%
D10*
%TO.C,KiKit_MB_1_5*%
X53656200Y-78040200D03*
%TD*%
%TO.C,KiKit_MB_24_9*%
X93593400Y-114251400D03*
%TD*%
%TO.C,KiKit_MB_29_5*%
X102905800Y-131796353D03*
%TD*%
D11*
%TO.C,J5*%
X58915400Y-111081000D03*
X58915400Y-108541000D03*
X58915400Y-106001000D03*
X58915400Y-103461000D03*
X58915400Y-100921000D03*
X58915400Y-98381000D03*
X58915400Y-95841000D03*
X58915400Y-93301000D03*
%TD*%
D10*
%TO.C,KiKit_MB_28_8*%
X105155800Y-79790200D03*
%TD*%
%TO.C,KiKit_MB_18_9*%
X81281000Y-114251400D03*
%TD*%
%TO.C,KiKit_MB_22_9*%
X93593400Y-79790200D03*
%TD*%
%TO.C,KiKit_MB_10_5*%
X65968600Y-79790200D03*
%TD*%
%TO.C,KiKit_MB_15_4*%
X77531000Y-112501400D03*
%TD*%
%TO.C,KiKit_MB_36_9*%
X118218200Y-114251400D03*
%TD*%
D11*
%TO.C,J5*%
X145102200Y-111081000D03*
X145102200Y-108541000D03*
X145102200Y-106001000D03*
X145102200Y-103461000D03*
X145102200Y-100921000D03*
X145102200Y-98381000D03*
X145102200Y-95841000D03*
X145102200Y-93301000D03*
%TD*%
D10*
%TO.C,KiKit_MB_6_4*%
X52906200Y-114251400D03*
%TD*%
%TO.C,KiKit_MB_39_6*%
X128280600Y-112501400D03*
%TD*%
%TO.C,KiKit_MB_48_4*%
X139093000Y-114251400D03*
%TD*%
%TO.C,KiKit_MB_42_6*%
X128280600Y-114251400D03*
%TD*%
%TO.C,KiKit_MB_44_4*%
X139093000Y-49875000D03*
%TD*%
%TO.C,KiKit_MB_11_8*%
X68218600Y-131796353D03*
%TD*%
%TO.C,KiKit_MB_9_7*%
X67468600Y-112501400D03*
%TD*%
%TO.C,KiKit_MB_32_7*%
X116718200Y-49875000D03*
%TD*%
D13*
%TO.C,J7*%
X104431200Y-130197600D03*
%TD*%
D10*
%TO.C,KiKit_MB_12_6*%
X66718600Y-114251400D03*
%TD*%
%TO.C,KiKit_MB_3_5*%
X53656200Y-112501400D03*
%TD*%
%TO.C,KiKit_MB_44_9*%
X142843000Y-49875000D03*
%TD*%
%TO.C,KiKit_MB_33_9*%
X118218200Y-112501400D03*
%TD*%
%TO.C,KiKit_MB_41_6*%
X128280600Y-131796353D03*
%TD*%
D13*
%TO.C,J3*%
X141597000Y-76670000D03*
%TD*%
D10*
%TO.C,KiKit_MB_26_4*%
X102155800Y-49875000D03*
%TD*%
%TO.C,KiKit_MB_19_10*%
X94343400Y-78040200D03*
%TD*%
%TO.C,KiKit_MB_23_8*%
X92843400Y-131796353D03*
%TD*%
%TO.C,KiKit_MB_43_10*%
X143593000Y-78040200D03*
%TD*%
%TO.C,KiKit_MB_24_6*%
X91343400Y-114251400D03*
%TD*%
%TO.C,KiKit_MB_2_9*%
X56656200Y-49875000D03*
%TD*%
%TO.C,KiKit_MB_36_6*%
X115968200Y-114251400D03*
%TD*%
%TO.C,KiKit_MB_5_4*%
X52906200Y-131796353D03*
%TD*%
%TO.C,KiKit_MB_1_10*%
X57406200Y-78040200D03*
%TD*%
%TO.C,KiKit_MB_43_5*%
X139843000Y-78040200D03*
%TD*%
%TO.C,KiKit_MB_37_10*%
X131280600Y-78040200D03*
%TD*%
%TO.C,KiKit_MB_46_4*%
X139093000Y-79790200D03*
%TD*%
%TO.C,KiKit_MB_40_5*%
X127530600Y-79790200D03*
%TD*%
D13*
%TO.C,J3*%
X92347400Y-76670000D03*
%TD*%
D10*
%TO.C,KiKit_MB_30_10*%
X106655800Y-114251400D03*
%TD*%
%TO.C,KiKit_MB_32_9*%
X118218200Y-49875000D03*
%TD*%
D12*
%TO.C,J1*%
X125271400Y-61374200D03*
D11*
X125271400Y-63914200D03*
X125271400Y-66454200D03*
X125271400Y-68994200D03*
X125271400Y-71534200D03*
X125271400Y-74074200D03*
X125271400Y-76614200D03*
%TD*%
D10*
%TO.C,KiKit_MB_35_9*%
X118218200Y-131796353D03*
%TD*%
D11*
%TO.C,J2*%
X145203800Y-76619200D03*
X145203800Y-74079200D03*
X145203800Y-71539200D03*
X145203800Y-68999200D03*
X145203800Y-66459200D03*
X145203800Y-63919200D03*
X145203800Y-61379200D03*
%TD*%
D12*
%TO.C,J1*%
X76021800Y-61374200D03*
D11*
X76021800Y-63914200D03*
X76021800Y-66454200D03*
X76021800Y-68994200D03*
X76021800Y-71534200D03*
X76021800Y-74074200D03*
X76021800Y-76614200D03*
%TD*%
D10*
%TO.C,KiKit_MB_47_10*%
X143593000Y-131796353D03*
%TD*%
D12*
%TO.C,J4*%
X88232600Y-93301000D03*
D11*
X88232600Y-95841000D03*
X88232600Y-98381000D03*
X88232600Y-100921000D03*
X88232600Y-103461000D03*
X88232600Y-106001000D03*
X88232600Y-108541000D03*
X88232600Y-111081000D03*
%TD*%
%TO.C,J8*%
X132840500Y-122755400D03*
X132840500Y-125295400D03*
X132840500Y-127835400D03*
X132840500Y-130375400D03*
%TD*%
D10*
%TO.C,KiKit_MB_25_9*%
X105905800Y-78040200D03*
%TD*%
%TO.C,KiKit_MB_16_4*%
X77531000Y-79790200D03*
%TD*%
D12*
%TO.C,J1*%
X51397000Y-61374200D03*
D11*
X51397000Y-63914200D03*
X51397000Y-66454200D03*
X51397000Y-68994200D03*
X51397000Y-71534200D03*
X51397000Y-74074200D03*
X51397000Y-76614200D03*
%TD*%
D10*
%TO.C,KiKit_MB_18_10*%
X82031000Y-114251400D03*
%TD*%
D13*
%TO.C,J7*%
X55181600Y-130197600D03*
%TD*%
D10*
%TO.C,KiKit_MB_18_5*%
X78281000Y-114251400D03*
%TD*%
%TO.C,KiKit_MB_19_9*%
X93593400Y-78040200D03*
%TD*%
%TO.C,KiKit_MB_40_4*%
X126780600Y-79790200D03*
%TD*%
%TO.C,KiKit_MB_24_4*%
X89843400Y-114251400D03*
%TD*%
%TO.C,KiKit_MB_9_10*%
X69718600Y-112501400D03*
%TD*%
D11*
%TO.C,J8*%
X58966100Y-122755400D03*
X58966100Y-125295400D03*
X58966100Y-127835400D03*
X58966100Y-130375400D03*
%TD*%
D10*
%TO.C,KiKit_MB_13_7*%
X79781000Y-78040200D03*
%TD*%
%TO.C,KiKit_MB_1_4*%
X52906200Y-78040200D03*
%TD*%
%TO.C,KiKit_MB_12_4*%
X65218600Y-114251400D03*
%TD*%
%TO.C,KiKit_MB_3_8*%
X55906200Y-112501400D03*
%TD*%
%TO.C,KiKit_MB_27_8*%
X105155800Y-112501400D03*
%TD*%
%TO.C,KiKit_MB_44_8*%
X142093000Y-49875000D03*
%TD*%
%TO.C,KiKit_MB_24_5*%
X90593400Y-114251400D03*
%TD*%
D11*
%TO.C,J5*%
X95852600Y-111081000D03*
X95852600Y-108541000D03*
X95852600Y-106001000D03*
X95852600Y-103461000D03*
X95852600Y-100921000D03*
X95852600Y-98381000D03*
X95852600Y-95841000D03*
X95852600Y-93301000D03*
%TD*%
D10*
%TO.C,KiKit_MB_35_10*%
X118968200Y-131796353D03*
%TD*%
%TO.C,KiKit_MB_10_7*%
X67468600Y-79790200D03*
%TD*%
%TO.C,KiKit_MB_18_6*%
X79031000Y-114251400D03*
%TD*%
%TO.C,KiKit_MB_6_5*%
X53656200Y-114251400D03*
%TD*%
%TO.C,KiKit_MB_30_9*%
X105905800Y-114251400D03*
%TD*%
%TO.C,KiKit_MB_9_9*%
X68968600Y-112501400D03*
%TD*%
%TO.C,KiKit_MB_45_4*%
X139093000Y-112501400D03*
%TD*%
D12*
%TO.C,J9*%
X63658500Y-122755400D03*
D11*
X63658500Y-125295400D03*
X63658500Y-127835400D03*
X63658500Y-130375400D03*
%TD*%
D10*
%TO.C,KiKit_MB_28_7*%
X104405800Y-79790200D03*
%TD*%
%TO.C,KiKit_MB_1_8*%
X55906200Y-78040200D03*
%TD*%
D13*
%TO.C,J6*%
X104431200Y-111004800D03*
%TD*%
D11*
%TO.C,J5*%
X132789800Y-111081000D03*
X132789800Y-108541000D03*
X132789800Y-106001000D03*
X132789800Y-103461000D03*
X132789800Y-100921000D03*
X132789800Y-98381000D03*
X132789800Y-95841000D03*
X132789800Y-93301000D03*
%TD*%
D10*
%TO.C,KiKit_MB_48_7*%
X141343000Y-114251400D03*
%TD*%
%TO.C,KiKit_MB_18_8*%
X80531000Y-114251400D03*
%TD*%
%TO.C,KiKit_MB_11_10*%
X69718600Y-131796353D03*
%TD*%
%TO.C,KiKit_MB_6_10*%
X57406200Y-114251400D03*
%TD*%
%TO.C,KiKit_MB_7_6*%
X66718600Y-78040200D03*
%TD*%
%TO.C,KiKit_MB_20_7*%
X92093400Y-49875000D03*
%TD*%
%TO.C,KiKit_MB_39_9*%
X130530600Y-112501400D03*
%TD*%
%TO.C,KiKit_MB_38_7*%
X129030600Y-49875000D03*
%TD*%
%TO.C,KiKit_MB_10_9*%
X68968600Y-79790200D03*
%TD*%
%TO.C,KiKit_MB_4_5*%
X53656200Y-79790200D03*
%TD*%
%TO.C,KiKit_MB_39_5*%
X127530600Y-112501400D03*
%TD*%
%TO.C,KiKit_MB_11_6*%
X66718600Y-131796353D03*
%TD*%
%TO.C,KiKit_MB_46_8*%
X142093000Y-79790200D03*
%TD*%
%TO.C,KiKit_MB_39_8*%
X129780600Y-112501400D03*
%TD*%
D11*
%TO.C,J8*%
X108215700Y-122755400D03*
X108215700Y-125295400D03*
X108215700Y-127835400D03*
X108215700Y-130375400D03*
%TD*%
D10*
%TO.C,KiKit_MB_4_7*%
X55156200Y-79790200D03*
%TD*%
D12*
%TO.C,J1*%
X63709400Y-61374200D03*
D11*
X63709400Y-63914200D03*
X63709400Y-66454200D03*
X63709400Y-68994200D03*
X63709400Y-71534200D03*
X63709400Y-74074200D03*
X63709400Y-76614200D03*
%TD*%
D10*
%TO.C,KiKit_MB_16_7*%
X79781000Y-79790200D03*
%TD*%
%TO.C,KiKit_MB_22_8*%
X92843400Y-79790200D03*
%TD*%
%TO.C,KiKit_MB_15_9*%
X81281000Y-112501400D03*
%TD*%
D14*
%TO.C,KiKit_TO_2*%
X143499200Y-45000000D03*
%TD*%
D13*
%TO.C,J6*%
X116743600Y-111004800D03*
%TD*%
D10*
%TO.C,KiKit_MB_46_6*%
X140593000Y-79790200D03*
%TD*%
%TO.C,KiKit_MB_19_6*%
X91343400Y-78040200D03*
%TD*%
%TO.C,KiKit_MB_18_7*%
X79781000Y-114251400D03*
%TD*%
%TO.C,KiKit_MB_47_8*%
X142093000Y-131796353D03*
%TD*%
%TO.C,KiKit_MB_16_9*%
X81281000Y-79790200D03*
%TD*%
%TO.C,KiKit_MB_35_5*%
X115218200Y-131796353D03*
%TD*%
D13*
%TO.C,J3*%
X67722600Y-76670000D03*
%TD*%
D10*
%TO.C,KiKit_MB_42_10*%
X131280600Y-114251400D03*
%TD*%
%TO.C,KiKit_MB_17_8*%
X80531000Y-131796353D03*
%TD*%
%TO.C,KiKit_MB_27_4*%
X102155800Y-112501400D03*
%TD*%
%TO.C,KiKit_MB_41_5*%
X127530600Y-131796353D03*
%TD*%
%TO.C,KiKit_MB_31_6*%
X115968200Y-78040200D03*
%TD*%
%TO.C,KiKit_MB_44_6*%
X140593000Y-49875000D03*
%TD*%
%TO.C,KiKit_MB_17_5*%
X78281000Y-131796353D03*
%TD*%
D11*
%TO.C,J2*%
X59017000Y-76619200D03*
X59017000Y-74079200D03*
X59017000Y-71539200D03*
X59017000Y-68999200D03*
X59017000Y-66459200D03*
X59017000Y-63919200D03*
X59017000Y-61379200D03*
%TD*%
D13*
%TO.C,J7*%
X79806400Y-130197600D03*
%TD*%
%TO.C,J7*%
X67494000Y-130197600D03*
%TD*%
D10*
%TO.C,KiKit_MB_15_5*%
X78281000Y-112501400D03*
%TD*%
%TO.C,KiKit_MB_14_10*%
X82031000Y-49875000D03*
%TD*%
%TO.C,KiKit_MB_29_6*%
X103655800Y-131796353D03*
%TD*%
%TO.C,KiKit_MB_44_5*%
X139843000Y-49875000D03*
%TD*%
%TO.C,KiKit_MB_5_9*%
X56656200Y-131796353D03*
%TD*%
%TO.C,KiKit_MB_32_5*%
X115218200Y-49875000D03*
%TD*%
D11*
%TO.C,J8*%
X71278500Y-122755400D03*
X71278500Y-125295400D03*
X71278500Y-127835400D03*
X71278500Y-130375400D03*
%TD*%
D10*
%TO.C,KiKit_MB_7_4*%
X65218600Y-78040200D03*
%TD*%
%TO.C,KiKit_MB_37_6*%
X128280600Y-78040200D03*
%TD*%
%TO.C,KiKit_MB_23_7*%
X92093400Y-131796353D03*
%TD*%
%TO.C,KiKit_MB_45_6*%
X140593000Y-112501400D03*
%TD*%
%TO.C,KiKit_MB_3_10*%
X57406200Y-112501400D03*
%TD*%
%TO.C,KiKit_MB_3_9*%
X56656200Y-112501400D03*
%TD*%
%TO.C,KiKit_MB_38_10*%
X131280600Y-49875000D03*
%TD*%
%TO.C,KiKit_MB_12_7*%
X67468600Y-114251400D03*
%TD*%
%TO.C,KiKit_MB_26_6*%
X103655800Y-49875000D03*
%TD*%
%TO.C,KiKit_MB_32_6*%
X115968200Y-49875000D03*
%TD*%
%TO.C,KiKit_MB_42_4*%
X126780600Y-114251400D03*
%TD*%
%TO.C,KiKit_MB_26_8*%
X105155800Y-49875000D03*
%TD*%
%TO.C,KiKit_MB_16_8*%
X80531000Y-79790200D03*
%TD*%
%TO.C,KiKit_MB_37_8*%
X129780600Y-78040200D03*
%TD*%
%TO.C,KiKit_MB_30_6*%
X103655800Y-114251400D03*
%TD*%
%TO.C,KiKit_MB_9_8*%
X68218600Y-112501400D03*
%TD*%
%TO.C,KiKit_MB_9_6*%
X66718600Y-112501400D03*
%TD*%
%TO.C,KiKit_MB_3_7*%
X55156200Y-112501400D03*
%TD*%
%TO.C,KiKit_MB_41_10*%
X131280600Y-131796353D03*
%TD*%
%TO.C,KiKit_MB_27_7*%
X104405800Y-112501400D03*
%TD*%
%TO.C,KiKit_MB_11_9*%
X68968600Y-131796353D03*
%TD*%
%TO.C,KiKit_MB_20_8*%
X92843400Y-49875000D03*
%TD*%
D13*
%TO.C,J6*%
X55181600Y-111004800D03*
%TD*%
D14*
%TO.C,KiKit_TO_4*%
X143499200Y-136171353D03*
%TD*%
D10*
%TO.C,KiKit_MB_11_5*%
X65968600Y-131796353D03*
%TD*%
%TO.C,KiKit_MB_34_4*%
X114468200Y-79790200D03*
%TD*%
%TO.C,KiKit_MB_35_8*%
X117468200Y-131796353D03*
%TD*%
%TO.C,KiKit_MB_37_9*%
X130530600Y-78040200D03*
%TD*%
%TO.C,KiKit_MB_13_10*%
X82031000Y-78040200D03*
%TD*%
%TO.C,KiKit_MB_43_9*%
X142843000Y-78040200D03*
%TD*%
%TO.C,KiKit_MB_23_4*%
X89843400Y-131796353D03*
%TD*%
%TO.C,KiKit_MB_32_4*%
X114468200Y-49875000D03*
%TD*%
%TO.C,KiKit_MB_36_7*%
X116718200Y-114251400D03*
%TD*%
%TO.C,KiKit_MB_29_4*%
X102155800Y-131796353D03*
%TD*%
%TO.C,KiKit_MB_5_7*%
X55156200Y-131796353D03*
%TD*%
%TO.C,KiKit_MB_46_5*%
X139843000Y-79790200D03*
%TD*%
%TO.C,KiKit_MB_36_10*%
X118968200Y-114251400D03*
%TD*%
%TO.C,KiKit_MB_2_5*%
X53656200Y-49875000D03*
%TD*%
%TO.C,KiKit_MB_14_6*%
X79031000Y-49875000D03*
%TD*%
D11*
%TO.C,J8*%
X95903300Y-122755400D03*
X95903300Y-125295400D03*
X95903300Y-127835400D03*
X95903300Y-130375400D03*
%TD*%
D10*
%TO.C,KiKit_MB_22_10*%
X94343400Y-79790200D03*
%TD*%
D14*
%TO.C,KiKit_TO_1*%
X53000000Y-45000000D03*
%TD*%
D10*
%TO.C,KiKit_MB_47_5*%
X139843000Y-131796353D03*
%TD*%
%TO.C,KiKit_MB_15_6*%
X79031000Y-112501400D03*
%TD*%
D13*
%TO.C,J6*%
X129056000Y-111004800D03*
%TD*%
D10*
%TO.C,KiKit_MB_8_5*%
X65968600Y-49875000D03*
%TD*%
%TO.C,KiKit_MB_6_8*%
X55906200Y-114251400D03*
%TD*%
%TO.C,KiKit_MB_26_10*%
X106655800Y-49875000D03*
%TD*%
D11*
%TO.C,J2*%
X132891400Y-76619200D03*
X132891400Y-74079200D03*
X132891400Y-71539200D03*
X132891400Y-68999200D03*
X132891400Y-66459200D03*
X132891400Y-63919200D03*
X132891400Y-61379200D03*
%TD*%
D10*
%TO.C,KiKit_MB_7_7*%
X67468600Y-78040200D03*
%TD*%
%TO.C,KiKit_MB_8_4*%
X65218600Y-49875000D03*
%TD*%
%TO.C,KiKit_MB_30_8*%
X105155800Y-114251400D03*
%TD*%
%TO.C,KiKit_MB_29_9*%
X105905800Y-131796353D03*
%TD*%
%TO.C,KiKit_MB_1_6*%
X54406200Y-78040200D03*
%TD*%
%TO.C,KiKit_MB_35_4*%
X114468200Y-131796353D03*
%TD*%
%TO.C,KiKit_MB_27_6*%
X103655800Y-112501400D03*
%TD*%
%TO.C,KiKit_MB_36_4*%
X114468200Y-114251400D03*
%TD*%
%TO.C,KiKit_MB_40_6*%
X128280600Y-79790200D03*
%TD*%
%TO.C,KiKit_MB_47_6*%
X140593000Y-131796353D03*
%TD*%
%TO.C,KiKit_MB_31_10*%
X118968200Y-78040200D03*
%TD*%
D14*
%TO.C,KiKit_TO_3*%
X53000000Y-136171353D03*
%TD*%
D13*
%TO.C,J6*%
X79806400Y-111004800D03*
%TD*%
D11*
%TO.C,J8*%
X145152900Y-122755400D03*
X145152900Y-125295400D03*
X145152900Y-127835400D03*
X145152900Y-130375400D03*
%TD*%
D10*
%TO.C,KiKit_MB_19_4*%
X89843400Y-78040200D03*
%TD*%
%TO.C,KiKit_MB_2_10*%
X57406200Y-49875000D03*
%TD*%
D12*
%TO.C,J9*%
X75970900Y-122755400D03*
D11*
X75970900Y-125295400D03*
X75970900Y-127835400D03*
X75970900Y-130375400D03*
%TD*%
D10*
%TO.C,KiKit_MB_17_7*%
X79781000Y-131796353D03*
%TD*%
%TO.C,KiKit_MB_44_10*%
X143593000Y-49875000D03*
%TD*%
%TO.C,KiKit_MB_5_8*%
X55906200Y-131796353D03*
%TD*%
%TO.C,KiKit_MB_44_7*%
X141343000Y-49875000D03*
%TD*%
%TO.C,KiKit_MB_33_5*%
X115218200Y-112501400D03*
%TD*%
%TO.C,KiKit_MB_26_9*%
X105905800Y-49875000D03*
%TD*%
D12*
%TO.C,J4*%
X125169800Y-93301000D03*
D11*
X125169800Y-95841000D03*
X125169800Y-98381000D03*
X125169800Y-100921000D03*
X125169800Y-103461000D03*
X125169800Y-106001000D03*
X125169800Y-108541000D03*
X125169800Y-111081000D03*
%TD*%
D10*
%TO.C,KiKit_MB_21_4*%
X89843400Y-112501400D03*
%TD*%
%TO.C,KiKit_MB_10_6*%
X66718600Y-79790200D03*
%TD*%
%TO.C,KiKit_MB_11_7*%
X67468600Y-131796353D03*
%TD*%
%TO.C,KiKit_MB_42_8*%
X129780600Y-114251400D03*
%TD*%
D11*
%TO.C,J2*%
X108266600Y-76619200D03*
X108266600Y-74079200D03*
X108266600Y-71539200D03*
X108266600Y-68999200D03*
X108266600Y-66459200D03*
X108266600Y-63919200D03*
X108266600Y-61379200D03*
%TD*%
D10*
%TO.C,KiKit_MB_1_9*%
X56656200Y-78040200D03*
%TD*%
D13*
%TO.C,J3*%
X104659800Y-76670000D03*
%TD*%
D10*
%TO.C,KiKit_MB_27_5*%
X102905800Y-112501400D03*
%TD*%
%TO.C,KiKit_MB_48_9*%
X142843000Y-114251400D03*
%TD*%
%TO.C,KiKit_MB_38_9*%
X130530600Y-49875000D03*
%TD*%
%TO.C,KiKit_MB_32_10*%
X118968200Y-49875000D03*
%TD*%
%TO.C,KiKit_MB_25_8*%
X105155800Y-78040200D03*
%TD*%
%TO.C,KiKit_MB_22_7*%
X92093400Y-79790200D03*
%TD*%
%TO.C,KiKit_MB_37_4*%
X126780600Y-78040200D03*
%TD*%
D11*
%TO.C,J5*%
X71227800Y-111081000D03*
X71227800Y-108541000D03*
X71227800Y-106001000D03*
X71227800Y-103461000D03*
X71227800Y-100921000D03*
X71227800Y-98381000D03*
X71227800Y-95841000D03*
X71227800Y-93301000D03*
%TD*%
%TO.C,J8*%
X83590900Y-122755400D03*
X83590900Y-125295400D03*
X83590900Y-127835400D03*
X83590900Y-130375400D03*
%TD*%
D13*
%TO.C,J3*%
X129284600Y-76670000D03*
%TD*%
D10*
%TO.C,KiKit_MB_2_8*%
X55906200Y-49875000D03*
%TD*%
%TO.C,KiKit_MB_37_7*%
X129030600Y-78040200D03*
%TD*%
%TO.C,KiKit_MB_17_9*%
X81281000Y-131796353D03*
%TD*%
%TO.C,KiKit_MB_22_4*%
X89843400Y-79790200D03*
%TD*%
D11*
%TO.C,J2*%
X71329400Y-76619200D03*
X71329400Y-74079200D03*
X71329400Y-71539200D03*
X71329400Y-68999200D03*
X71329400Y-66459200D03*
X71329400Y-63919200D03*
X71329400Y-61379200D03*
%TD*%
D10*
%TO.C,KiKit_MB_17_4*%
X77531000Y-131796353D03*
%TD*%
%TO.C,KiKit_MB_25_6*%
X103655800Y-78040200D03*
%TD*%
%TO.C,KiKit_MB_13_9*%
X81281000Y-78040200D03*
%TD*%
%TO.C,KiKit_MB_2_7*%
X55156200Y-49875000D03*
%TD*%
%TO.C,KiKit_MB_5_10*%
X57406200Y-131796353D03*
%TD*%
%TO.C,KiKit_MB_34_8*%
X117468200Y-79790200D03*
%TD*%
%TO.C,KiKit_MB_7_10*%
X69718600Y-78040200D03*
%TD*%
%TO.C,KiKit_MB_33_4*%
X114468200Y-112501400D03*
%TD*%
D13*
%TO.C,J6*%
X141368400Y-111004800D03*
%TD*%
D12*
%TO.C,J4*%
X112857400Y-93301000D03*
D11*
X112857400Y-95841000D03*
X112857400Y-98381000D03*
X112857400Y-100921000D03*
X112857400Y-103461000D03*
X112857400Y-106001000D03*
X112857400Y-108541000D03*
X112857400Y-111081000D03*
%TD*%
D10*
%TO.C,KiKit_MB_25_7*%
X104405800Y-78040200D03*
%TD*%
%TO.C,KiKit_MB_6_7*%
X55156200Y-114251400D03*
%TD*%
D12*
%TO.C,J4*%
X75920200Y-93301000D03*
D11*
X75920200Y-95841000D03*
X75920200Y-98381000D03*
X75920200Y-100921000D03*
X75920200Y-103461000D03*
X75920200Y-106001000D03*
X75920200Y-108541000D03*
X75920200Y-111081000D03*
%TD*%
D10*
%TO.C,KiKit_MB_34_5*%
X115218200Y-79790200D03*
%TD*%
%TO.C,KiKit_MB_3_4*%
X52906200Y-112501400D03*
%TD*%
%TO.C,KiKit_MB_42_7*%
X129030600Y-114251400D03*
%TD*%
%TO.C,KiKit_MB_40_10*%
X131280600Y-79790200D03*
%TD*%
%TO.C,KiKit_MB_19_7*%
X92093400Y-78040200D03*
%TD*%
%TO.C,KiKit_MB_36_5*%
X115218200Y-114251400D03*
%TD*%
D12*
%TO.C,J9*%
X88283300Y-122755400D03*
D11*
X88283300Y-125295400D03*
X88283300Y-127835400D03*
X88283300Y-130375400D03*
%TD*%
D10*
%TO.C,KiKit_MB_41_9*%
X130530600Y-131796353D03*
%TD*%
D13*
%TO.C,J3*%
X55410200Y-76670000D03*
%TD*%
D10*
%TO.C,KiKit_MB_34_7*%
X116718200Y-79790200D03*
%TD*%
%TO.C,KiKit_MB_30_4*%
X102155800Y-114251400D03*
%TD*%
%TO.C,KiKit_MB_14_7*%
X79781000Y-49875000D03*
%TD*%
%TO.C,KiKit_MB_7_8*%
X68218600Y-78040200D03*
%TD*%
%TO.C,KiKit_MB_10_4*%
X65218600Y-79790200D03*
%TD*%
%TO.C,KiKit_MB_20_6*%
X91343400Y-49875000D03*
%TD*%
%TO.C,KiKit_MB_39_4*%
X126780600Y-112501400D03*
%TD*%
%TO.C,KiKit_MB_2_6*%
X54406200Y-49875000D03*
%TD*%
D12*
%TO.C,J4*%
X100545000Y-93301000D03*
D11*
X100545000Y-95841000D03*
X100545000Y-98381000D03*
X100545000Y-100921000D03*
X100545000Y-103461000D03*
X100545000Y-106001000D03*
X100545000Y-108541000D03*
X100545000Y-111081000D03*
%TD*%
D10*
%TO.C,KiKit_MB_27_10*%
X106655800Y-112501400D03*
%TD*%
D13*
%TO.C,J7*%
X116743600Y-130197600D03*
%TD*%
D10*
%TO.C,KiKit_MB_2_4*%
X52906200Y-49875000D03*
%TD*%
%TO.C,KiKit_MB_38_5*%
X127530600Y-49875000D03*
%TD*%
%TO.C,KiKit_MB_1_7*%
X55156200Y-78040200D03*
%TD*%
%TO.C,KiKit_MB_20_4*%
X89843400Y-49875000D03*
%TD*%
%TO.C,KiKit_MB_43_7*%
X141343000Y-78040200D03*
%TD*%
%TO.C,KiKit_MB_8_6*%
X66718600Y-49875000D03*
%TD*%
%TO.C,KiKit_MB_21_9*%
X93593400Y-112501400D03*
%TD*%
%TO.C,KiKit_MB_23_10*%
X94343400Y-131796353D03*
%TD*%
%TO.C,KiKit_MB_48_5*%
X139843000Y-114251400D03*
%TD*%
%TO.C,KiKit_MB_33_8*%
X117468200Y-112501400D03*
%TD*%
%TO.C,KiKit_MB_35_7*%
X116718200Y-131796353D03*
%TD*%
%TO.C,KiKit_MB_33_7*%
X116718200Y-112501400D03*
%TD*%
%TO.C,KiKit_MB_4_8*%
X55906200Y-79790200D03*
%TD*%
%TO.C,KiKit_MB_20_9*%
X93593400Y-49875000D03*
%TD*%
%TO.C,KiKit_MB_14_5*%
X78281000Y-49875000D03*
%TD*%
%TO.C,KiKit_MB_35_6*%
X115968200Y-131796353D03*
%TD*%
%TO.C,KiKit_MB_28_4*%
X102155800Y-79790200D03*
%TD*%
%TO.C,KiKit_MB_23_5*%
X90593400Y-131796353D03*
%TD*%
%TO.C,KiKit_MB_11_4*%
X65218600Y-131796353D03*
%TD*%
%TO.C,KiKit_MB_30_5*%
X102905800Y-114251400D03*
%TD*%
%TO.C,KiKit_MB_38_6*%
X128280600Y-49875000D03*
%TD*%
%TO.C,KiKit_MB_46_7*%
X141343000Y-79790200D03*
%TD*%
D11*
%TO.C,J5*%
X83540200Y-111081000D03*
X83540200Y-108541000D03*
X83540200Y-106001000D03*
X83540200Y-103461000D03*
X83540200Y-100921000D03*
X83540200Y-98381000D03*
X83540200Y-95841000D03*
X83540200Y-93301000D03*
%TD*%
D12*
%TO.C,J1*%
X112959000Y-61374200D03*
D11*
X112959000Y-63914200D03*
X112959000Y-66454200D03*
X112959000Y-68994200D03*
X112959000Y-71534200D03*
X112959000Y-74074200D03*
X112959000Y-76614200D03*
%TD*%
D10*
%TO.C,KiKit_MB_48_6*%
X140593000Y-114251400D03*
%TD*%
%TO.C,KiKit_MB_31_4*%
X114468200Y-78040200D03*
%TD*%
D13*
%TO.C,J3*%
X80035000Y-76670000D03*
%TD*%
D10*
%TO.C,KiKit_MB_43_8*%
X142093000Y-78040200D03*
%TD*%
%TO.C,KiKit_MB_16_6*%
X79031000Y-79790200D03*
%TD*%
%TO.C,KiKit_MB_48_8*%
X142093000Y-114251400D03*
%TD*%
%TO.C,KiKit_MB_21_5*%
X90593400Y-112501400D03*
%TD*%
%TO.C,KiKit_MB_26_7*%
X104405800Y-49875000D03*
%TD*%
D12*
%TO.C,J1*%
X137583800Y-61374200D03*
D11*
X137583800Y-63914200D03*
X137583800Y-66454200D03*
X137583800Y-68994200D03*
X137583800Y-71534200D03*
X137583800Y-74074200D03*
X137583800Y-76614200D03*
%TD*%
D10*
%TO.C,KiKit_MB_7_9*%
X68968600Y-78040200D03*
%TD*%
%TO.C,KiKit_MB_8_10*%
X69718600Y-49875000D03*
%TD*%
D13*
%TO.C,J6*%
X67494000Y-111004800D03*
%TD*%
D10*
%TO.C,KiKit_MB_31_5*%
X115218200Y-78040200D03*
%TD*%
%TO.C,KiKit_MB_33_10*%
X118968200Y-112501400D03*
%TD*%
%TO.C,KiKit_MB_16_10*%
X82031000Y-79790200D03*
%TD*%
%TO.C,KiKit_MB_24_8*%
X92843400Y-114251400D03*
%TD*%
%TO.C,KiKit_MB_13_5*%
X78281000Y-78040200D03*
%TD*%
%TO.C,KiKit_MB_29_7*%
X104405800Y-131796353D03*
%TD*%
D12*
%TO.C,J9*%
X51346100Y-122755400D03*
D11*
X51346100Y-125295400D03*
X51346100Y-127835400D03*
X51346100Y-130375400D03*
%TD*%
D10*
%TO.C,KiKit_MB_43_4*%
X139093000Y-78040200D03*
%TD*%
%TO.C,KiKit_MB_4_6*%
X54406200Y-79790200D03*
%TD*%
%TO.C,KiKit_MB_45_7*%
X141343000Y-112501400D03*
%TD*%
%TO.C,KiKit_MB_4_9*%
X56656200Y-79790200D03*
%TD*%
D12*
%TO.C,J9*%
X137532900Y-122755400D03*
D11*
X137532900Y-125295400D03*
X137532900Y-127835400D03*
X137532900Y-130375400D03*
%TD*%
D10*
%TO.C,KiKit_MB_14_9*%
X81281000Y-49875000D03*
%TD*%
%TO.C,KiKit_MB_14_4*%
X77531000Y-49875000D03*
%TD*%
D12*
%TO.C,J1*%
X100646600Y-61374200D03*
D11*
X100646600Y-63914200D03*
X100646600Y-66454200D03*
X100646600Y-68994200D03*
X100646600Y-71534200D03*
X100646600Y-74074200D03*
X100646600Y-76614200D03*
%TD*%
D10*
%TO.C,KiKit_MB_45_9*%
X142843000Y-112501400D03*
%TD*%
%TO.C,KiKit_MB_28_6*%
X103655800Y-79790200D03*
%TD*%
%TO.C,KiKit_MB_19_8*%
X92843400Y-78040200D03*
%TD*%
%TO.C,KiKit_MB_38_8*%
X129780600Y-49875000D03*
%TD*%
%TO.C,KiKit_MB_8_7*%
X67468600Y-49875000D03*
%TD*%
%TO.C,KiKit_MB_9_4*%
X65218600Y-112501400D03*
%TD*%
%TO.C,KiKit_MB_20_10*%
X94343400Y-49875000D03*
%TD*%
D12*
%TO.C,J9*%
X125220500Y-122755400D03*
D11*
X125220500Y-125295400D03*
X125220500Y-127835400D03*
X125220500Y-130375400D03*
%TD*%
D10*
%TO.C,KiKit_MB_14_8*%
X80531000Y-49875000D03*
%TD*%
%TO.C,KiKit_MB_17_6*%
X79031000Y-131796353D03*
%TD*%
%TO.C,KiKit_MB_28_10*%
X106655800Y-79790200D03*
%TD*%
%TO.C,KiKit_MB_41_7*%
X129030600Y-131796353D03*
%TD*%
%TO.C,KiKit_MB_34_10*%
X118968200Y-79790200D03*
%TD*%
%TO.C,KiKit_MB_13_4*%
X77531000Y-78040200D03*
%TD*%
%TO.C,KiKit_MB_40_8*%
X129780600Y-79790200D03*
%TD*%
%TO.C,KiKit_MB_7_5*%
X65968600Y-78040200D03*
%TD*%
%TO.C,KiKit_MB_41_4*%
X126780600Y-131796353D03*
%TD*%
%TO.C,KiKit_MB_22_5*%
X90593400Y-79790200D03*
%TD*%
%TO.C,KiKit_MB_3_6*%
X54406200Y-112501400D03*
%TD*%
D13*
%TO.C,J7*%
X129056000Y-130197600D03*
%TD*%
D12*
%TO.C,J9*%
X112908100Y-122755400D03*
D11*
X112908100Y-125295400D03*
X112908100Y-127835400D03*
X112908100Y-130375400D03*
%TD*%
D10*
%TO.C,KiKit_MB_28_9*%
X105905800Y-79790200D03*
%TD*%
D12*
%TO.C,J9*%
X100595700Y-122755400D03*
D11*
X100595700Y-125295400D03*
X100595700Y-127835400D03*
X100595700Y-130375400D03*
%TD*%
D10*
%TO.C,KiKit_MB_36_8*%
X117468200Y-114251400D03*
%TD*%
%TO.C,KiKit_MB_37_5*%
X127530600Y-78040200D03*
%TD*%
%TO.C,KiKit_MB_12_8*%
X68218600Y-114251400D03*
%TD*%
D13*
%TO.C,J7*%
X141368400Y-130197600D03*
%TD*%
D10*
%TO.C,KiKit_MB_12_10*%
X69718600Y-114251400D03*
%TD*%
%TO.C,KiKit_MB_33_6*%
X115968200Y-112501400D03*
%TD*%
D12*
%TO.C,J4*%
X51295400Y-93301000D03*
D11*
X51295400Y-95841000D03*
X51295400Y-98381000D03*
X51295400Y-100921000D03*
X51295400Y-103461000D03*
X51295400Y-106001000D03*
X51295400Y-108541000D03*
X51295400Y-111081000D03*
%TD*%
D10*
%TO.C,KiKit_MB_26_5*%
X102905800Y-49875000D03*
%TD*%
%TO.C,KiKit_MB_46_9*%
X142843000Y-79790200D03*
%TD*%
%TO.C,KiKit_MB_21_10*%
X94343400Y-112501400D03*
%TD*%
%TO.C,KiKit_MB_25_5*%
X102905800Y-78040200D03*
%TD*%
D13*
%TO.C,J3*%
X116972200Y-76670000D03*
%TD*%
%TO.C,J6*%
X92118800Y-111004800D03*
%TD*%
D10*
%TO.C,KiKit_MB_13_8*%
X80531000Y-78040200D03*
%TD*%
%TO.C,KiKit_MB_21_7*%
X92093400Y-112501400D03*
%TD*%
%TO.C,KiKit_MB_23_9*%
X93593400Y-131796353D03*
%TD*%
%TO.C,KiKit_MB_4_10*%
X57406200Y-79790200D03*
%TD*%
%TO.C,KiKit_MB_8_8*%
X68218600Y-49875000D03*
%TD*%
%TO.C,KiKit_MB_6_6*%
X54406200Y-114251400D03*
%TD*%
%TO.C,KiKit_MB_38_4*%
X126780600Y-49875000D03*
%TD*%
%TO.C,KiKit_MB_28_5*%
X102905800Y-79790200D03*
%TD*%
D11*
%TO.C,J2*%
X83641800Y-76619200D03*
X83641800Y-74079200D03*
X83641800Y-71539200D03*
X83641800Y-68999200D03*
X83641800Y-66459200D03*
X83641800Y-63919200D03*
X83641800Y-61379200D03*
%TD*%
D10*
%TO.C,KiKit_MB_39_10*%
X131280600Y-112501400D03*
%TD*%
%TO.C,KiKit_MB_40_9*%
X130530600Y-79790200D03*
%TD*%
%TO.C,KiKit_MB_12_9*%
X68968600Y-114251400D03*
%TD*%
%TO.C,KiKit_MB_16_5*%
X78281000Y-79790200D03*
%TD*%
%TO.C,KiKit_MB_31_9*%
X118218200Y-78040200D03*
%TD*%
%TO.C,KiKit_MB_46_10*%
X143593000Y-79790200D03*
%TD*%
D11*
%TO.C,J5*%
X120477400Y-111081000D03*
X120477400Y-108541000D03*
X120477400Y-106001000D03*
X120477400Y-103461000D03*
X120477400Y-100921000D03*
X120477400Y-98381000D03*
X120477400Y-95841000D03*
X120477400Y-93301000D03*
%TD*%
D10*
%TO.C,KiKit_MB_47_4*%
X139093000Y-131796353D03*
%TD*%
%TO.C,KiKit_MB_15_8*%
X80531000Y-112501400D03*
%TD*%
D14*
%TO.C,KiKit_FID_B_4*%
X140499200Y-134821353D03*
%TD*%
%TO.C,KiKit_FID_B_3*%
X56000000Y-134821353D03*
%TD*%
%TO.C,KiKit_FID_B_1*%
X56000000Y-46350000D03*
%TD*%
%TO.C,KiKit_FID_B_2*%
X140499200Y-46350000D03*
%TD*%
M02*
