M48
; DRILL file {KiCad 8.0.5} date 2024-12-01T20:05:31-0800
; FORMAT={-:-/ absolute / metric / decimal}
; #@! TF.CreationDate,2024-12-01T20:05:31-08:00
; #@! TF.GenerationSoftware,Kicad,Pcbnew,8.0.5
; #@! TF.FileFunction,NonPlated,1,2,NPTH
FMAT,2
METRIC
; #@! TA.AperFunction,NonPlated,NPTH,ComponentDrill
T1C0.500
; #@! TA.AperFunction,NonPlated,NPTH,ComponentDrill
T2C2.000
%
G90
G05
T1
X52.906Y-49.875
X52.906Y-78.04
X52.906Y-79.79
X52.906Y-112.501
X52.906Y-114.251
X52.906Y-131.796
X53.656Y-49.875
X53.656Y-78.04
X53.656Y-79.79
X53.656Y-112.501
X53.656Y-114.251
X53.656Y-131.796
X54.406Y-49.875
X54.406Y-78.04
X54.406Y-79.79
X54.406Y-112.501
X54.406Y-114.251
X54.406Y-131.796
X55.156Y-49.875
X55.156Y-78.04
X55.156Y-79.79
X55.156Y-112.501
X55.156Y-114.251
X55.156Y-131.796
X55.906Y-49.875
X55.906Y-78.04
X55.906Y-79.79
X55.906Y-112.501
X55.906Y-114.251
X55.906Y-131.796
X56.656Y-49.875
X56.656Y-78.04
X56.656Y-79.79
X56.656Y-112.501
X56.656Y-114.251
X56.656Y-131.796
X57.406Y-49.875
X57.406Y-78.04
X57.406Y-79.79
X57.406Y-112.501
X57.406Y-114.251
X57.406Y-131.796
X65.219Y-49.875
X65.219Y-78.04
X65.219Y-79.79
X65.219Y-112.501
X65.219Y-114.251
X65.219Y-131.796
X65.969Y-49.875
X65.969Y-78.04
X65.969Y-79.79
X65.969Y-112.501
X65.969Y-114.251
X65.969Y-131.796
X66.719Y-49.875
X66.719Y-78.04
X66.719Y-79.79
X66.719Y-112.501
X66.719Y-114.251
X66.719Y-131.796
X67.469Y-49.875
X67.469Y-78.04
X67.469Y-79.79
X67.469Y-112.501
X67.469Y-114.251
X67.469Y-131.796
X68.219Y-49.875
X68.219Y-78.04
X68.219Y-79.79
X68.219Y-112.501
X68.219Y-114.251
X68.219Y-131.796
X68.969Y-49.875
X68.969Y-78.04
X68.969Y-79.79
X68.969Y-112.501
X68.969Y-114.251
X68.969Y-131.796
X69.719Y-49.875
X69.719Y-78.04
X69.719Y-79.79
X69.719Y-112.501
X69.719Y-114.251
X69.719Y-131.796
X77.531Y-49.875
X77.531Y-78.04
X77.531Y-79.79
X77.531Y-112.501
X77.531Y-114.251
X77.531Y-131.796
X78.281Y-49.875
X78.281Y-78.04
X78.281Y-79.79
X78.281Y-112.501
X78.281Y-114.251
X78.281Y-131.796
X79.031Y-49.875
X79.031Y-78.04
X79.031Y-79.79
X79.031Y-112.501
X79.031Y-114.251
X79.031Y-131.796
X79.781Y-49.875
X79.781Y-78.04
X79.781Y-79.79
X79.781Y-112.501
X79.781Y-114.251
X79.781Y-131.796
X80.531Y-49.875
X80.531Y-78.04
X80.531Y-79.79
X80.531Y-112.501
X80.531Y-114.251
X80.531Y-131.796
X81.281Y-49.875
X81.281Y-78.04
X81.281Y-79.79
X81.281Y-112.501
X81.281Y-114.251
X81.281Y-131.796
X82.031Y-49.875
X82.031Y-78.04
X82.031Y-79.79
X82.031Y-112.501
X82.031Y-114.251
X82.031Y-131.796
X89.843Y-49.875
X89.843Y-78.04
X89.843Y-79.79
X89.843Y-112.501
X89.843Y-114.251
X89.843Y-131.796
X90.593Y-49.875
X90.593Y-78.04
X90.593Y-79.79
X90.593Y-112.501
X90.593Y-114.251
X90.593Y-131.796
X91.343Y-49.875
X91.343Y-78.04
X91.343Y-79.79
X91.343Y-112.501
X91.343Y-114.251
X91.343Y-131.796
X92.093Y-49.875
X92.093Y-78.04
X92.093Y-79.79
X92.093Y-112.501
X92.093Y-114.251
X92.093Y-131.796
X92.843Y-49.875
X92.843Y-78.04
X92.843Y-79.79
X92.843Y-112.501
X92.843Y-114.251
X92.843Y-131.796
X93.593Y-49.875
X93.593Y-78.04
X93.593Y-79.79
X93.593Y-112.501
X93.593Y-114.251
X93.593Y-131.796
X94.343Y-49.875
X94.343Y-78.04
X94.343Y-79.79
X94.343Y-112.501
X94.343Y-114.251
X94.343Y-131.796
X102.156Y-49.875
X102.156Y-78.04
X102.156Y-79.79
X102.156Y-112.501
X102.156Y-114.251
X102.156Y-131.796
X102.906Y-49.875
X102.906Y-78.04
X102.906Y-79.79
X102.906Y-112.501
X102.906Y-114.251
X102.906Y-131.796
X103.656Y-49.875
X103.656Y-78.04
X103.656Y-79.79
X103.656Y-112.501
X103.656Y-114.251
X103.656Y-131.796
X104.406Y-49.875
X104.406Y-78.04
X104.406Y-79.79
X104.406Y-112.501
X104.406Y-114.251
X104.406Y-131.796
X105.156Y-49.875
X105.156Y-78.04
X105.156Y-79.79
X105.156Y-112.501
X105.156Y-114.251
X105.156Y-131.796
X105.906Y-49.875
X105.906Y-78.04
X105.906Y-79.79
X105.906Y-112.501
X105.906Y-114.251
X105.906Y-131.796
X106.656Y-49.875
X106.656Y-78.04
X106.656Y-79.79
X106.656Y-112.501
X106.656Y-114.251
X106.656Y-131.796
X114.468Y-49.875
X114.468Y-78.04
X114.468Y-79.79
X114.468Y-112.501
X114.468Y-114.251
X114.468Y-131.796
X115.218Y-49.875
X115.218Y-78.04
X115.218Y-79.79
X115.218Y-112.501
X115.218Y-114.251
X115.218Y-131.796
X115.968Y-49.875
X115.968Y-78.04
X115.968Y-79.79
X115.968Y-112.501
X115.968Y-114.251
X115.968Y-131.796
X116.718Y-49.875
X116.718Y-78.04
X116.718Y-79.79
X116.718Y-112.501
X116.718Y-114.251
X116.718Y-131.796
X117.468Y-49.875
X117.468Y-78.04
X117.468Y-79.79
X117.468Y-112.501
X117.468Y-114.251
X117.468Y-131.796
X118.218Y-49.875
X118.218Y-78.04
X118.218Y-79.79
X118.218Y-112.501
X118.218Y-114.251
X118.218Y-131.796
X118.968Y-49.875
X118.968Y-78.04
X118.968Y-79.79
X118.968Y-112.501
X118.968Y-114.251
X118.968Y-131.796
X126.781Y-49.875
X126.781Y-78.04
X126.781Y-79.79
X126.781Y-112.501
X126.781Y-114.251
X126.781Y-131.796
X127.531Y-49.875
X127.531Y-78.04
X127.531Y-79.79
X127.531Y-112.501
X127.531Y-114.251
X127.531Y-131.796
X128.281Y-49.875
X128.281Y-78.04
X128.281Y-79.79
X128.281Y-112.501
X128.281Y-114.251
X128.281Y-131.796
X129.031Y-49.875
X129.031Y-78.04
X129.031Y-79.79
X129.031Y-112.501
X129.031Y-114.251
X129.031Y-131.796
X129.781Y-49.875
X129.781Y-78.04
X129.781Y-79.79
X129.781Y-112.501
X129.781Y-114.251
X129.781Y-131.796
X130.531Y-49.875
X130.531Y-78.04
X130.531Y-79.79
X130.531Y-112.501
X130.531Y-114.251
X130.531Y-131.796
X131.281Y-49.875
X131.281Y-78.04
X131.281Y-79.79
X131.281Y-112.501
X131.281Y-114.251
X131.281Y-131.796
X139.093Y-49.875
X139.093Y-78.04
X139.093Y-79.79
X139.093Y-112.501
X139.093Y-114.251
X139.093Y-131.796
X139.843Y-49.875
X139.843Y-78.04
X139.843Y-79.79
X139.843Y-112.501
X139.843Y-114.251
X139.843Y-131.796
X140.593Y-49.875
X140.593Y-78.04
X140.593Y-79.79
X140.593Y-112.501
X140.593Y-114.251
X140.593Y-131.796
X141.343Y-49.875
X141.343Y-78.04
X141.343Y-79.79
X141.343Y-112.501
X141.343Y-114.251
X141.343Y-131.796
X142.093Y-49.875
X142.093Y-78.04
X142.093Y-79.79
X142.093Y-112.501
X142.093Y-114.251
X142.093Y-131.796
X142.843Y-49.875
X142.843Y-78.04
X142.843Y-79.79
X142.843Y-112.501
X142.843Y-114.251
X142.843Y-131.796
X143.593Y-49.875
X143.593Y-78.04
X143.593Y-79.79
X143.593Y-112.501
X143.593Y-114.251
X143.593Y-131.796
T2
X53.0Y-45.0
X53.0Y-136.171
X143.499Y-45.0
X143.499Y-136.171
M30
